<?xml version="1.0" standalone="no"?>
 <!DOCTYPE svg PUBLIC "-//W3C//DTD SVG 1.1//EN" 
 "http://www.w3.org/Graphics/SVG/1.1/DTD/svg11.dtd"> 
<svg
  xmlns:svg="http://www.w3.org/2000/svg"
  xmlns="http://www.w3.org/2000/svg"
  xmlns:xlink="http://www.w3.org/1999/xlink"
  version="1.1"
  width="297.0022mm" height="210.0072mm" viewBox="0.0000 0.0000 297.0022 210.0072">
<title>SVG Image created as MatchBox v0.3-User_Drawings.svg date 2024/08/17 16:06:36 </title>
  <desc>Image generated by PCBNEW </desc>
<g style="fill:#000000; fill-opacity:1.0000;stroke:#000000; stroke-opacity:1.0000;
stroke-linecap:round; stroke-linejoin:round;"
 transform="translate(0 0) scale(1 1)">
</g>
<g style="fill:none; 
stroke:#000000; stroke-width:0.1500; stroke-opacity:1; 
stroke-linecap:round; stroke-linejoin:round;">
<g transform="rotate(-90.000000 167.0500 111.5000)">
<text x="167.0500" y="112.0000"
textLength="8.9167" font-size="1.3333" lengthAdjust="spacingAndGlyphs"
text-anchor="middle" opacity="0">7.0000 mm</text>
</g>
<g class="stroked-text"><desc>7.0000 mm</desc>
<path d="M166.5048 115.6905
L166.5048 115.0238
" />
<path d="M166.5048 115.0238
L167.5048 115.4524
" />
<path d="M167.4096 114.6429
L167.4572 114.5952
" />
<path d="M167.4572 114.5952
L167.5048 114.6429
" />
<path d="M167.5048 114.6429
L167.4572 114.6905
" />
<path d="M167.4572 114.6905
L167.4096 114.6429
" />
<path d="M167.4096 114.6429
L167.5048 114.6429
" />
<path d="M166.5048 113.9762
L166.5048 113.8810
" />
<path d="M166.5048 113.8810
L166.5524 113.7857
" />
<path d="M166.5524 113.7857
L166.6001 113.7381
" />
<path d="M166.6001 113.7381
L166.6953 113.6905
" />
<path d="M166.6953 113.6905
L166.8858 113.6429
" />
<path d="M166.8858 113.6429
L167.1239 113.6429
" />
<path d="M167.1239 113.6429
L167.3143 113.6905
" />
<path d="M167.3143 113.6905
L167.4096 113.7381
" />
<path d="M167.4096 113.7381
L167.4572 113.7857
" />
<path d="M167.4572 113.7857
L167.5048 113.8810
" />
<path d="M167.5048 113.8810
L167.5048 113.9762
" />
<path d="M167.5048 113.9762
L167.4572 114.0714
" />
<path d="M167.4572 114.0714
L167.4096 114.1190
" />
<path d="M167.4096 114.1190
L167.3143 114.1667
" />
<path d="M167.3143 114.1667
L167.1239 114.2143
" />
<path d="M167.1239 114.2143
L166.8858 114.2143
" />
<path d="M166.8858 114.2143
L166.6953 114.1667
" />
<path d="M166.6953 114.1667
L166.6001 114.1190
" />
<path d="M166.6001 114.1190
L166.5524 114.0714
" />
<path d="M166.5524 114.0714
L166.5048 113.9762
" />
<path d="M166.5048 113.0238
L166.5048 112.9286
" />
<path d="M166.5048 112.9286
L166.5524 112.8333
" />
<path d="M166.5524 112.8333
L166.6001 112.7857
" />
<path d="M166.6001 112.7857
L166.6953 112.7381
" />
<path d="M166.6953 112.7381
L166.8858 112.6905
" />
<path d="M166.8858 112.6905
L167.1239 112.6905
" />
<path d="M167.1239 112.6905
L167.3143 112.7381
" />
<path d="M167.3143 112.7381
L167.4096 112.7857
" />
<path d="M167.4096 112.7857
L167.4572 112.8333
" />
<path d="M167.4572 112.8333
L167.5048 112.9286
" />
<path d="M167.5048 112.9286
L167.5048 113.0238
" />
<path d="M167.5048 113.0238
L167.4572 113.1190
" />
<path d="M167.4572 113.1190
L167.4096 113.1667
" />
<path d="M167.4096 113.1667
L167.3143 113.2143
" />
<path d="M167.3143 113.2143
L167.1239 113.2619
" />
<path d="M167.1239 113.2619
L166.8858 113.2619
" />
<path d="M166.8858 113.2619
L166.6953 113.2143
" />
<path d="M166.6953 113.2143
L166.6001 113.1667
" />
<path d="M166.6001 113.1667
L166.5524 113.1190
" />
<path d="M166.5524 113.1190
L166.5048 113.0238
" />
<path d="M166.5048 112.0714
L166.5048 111.9762
" />
<path d="M166.5048 111.9762
L166.5524 111.8810
" />
<path d="M166.5524 111.8810
L166.6001 111.8333
" />
<path d="M166.6001 111.8333
L166.6953 111.7857
" />
<path d="M166.6953 111.7857
L166.8858 111.7381
" />
<path d="M166.8858 111.7381
L167.1239 111.7381
" />
<path d="M167.1239 111.7381
L167.3143 111.7857
" />
<path d="M167.3143 111.7857
L167.4096 111.8333
" />
<path d="M167.4096 111.8333
L167.4572 111.8810
" />
<path d="M167.4572 111.8810
L167.5048 111.9762
" />
<path d="M167.5048 111.9762
L167.5048 112.0714
" />
<path d="M167.5048 112.0714
L167.4572 112.1667
" />
<path d="M167.4572 112.1667
L167.4096 112.2143
" />
<path d="M167.4096 112.2143
L167.3143 112.2619
" />
<path d="M167.3143 112.2619
L167.1239 112.3095
" />
<path d="M167.1239 112.3095
L166.8858 112.3095
" />
<path d="M166.8858 112.3095
L166.6953 112.2619
" />
<path d="M166.6953 112.2619
L166.6001 112.2143
" />
<path d="M166.6001 112.2143
L166.5524 112.1667
" />
<path d="M166.5524 112.1667
L166.5048 112.0714
" />
<path d="M166.5048 111.1190
L166.5048 111.0238
" />
<path d="M166.5048 111.0238
L166.5524 110.9286
" />
<path d="M166.5524 110.9286
L166.6001 110.8810
" />
<path d="M166.6001 110.8810
L166.6953 110.8333
" />
<path d="M166.6953 110.8333
L166.8858 110.7857
" />
<path d="M166.8858 110.7857
L167.1239 110.7857
" />
<path d="M167.1239 110.7857
L167.3143 110.8333
" />
<path d="M167.3143 110.8333
L167.4096 110.8810
" />
<path d="M167.4096 110.8810
L167.4572 110.9286
" />
<path d="M167.4572 110.9286
L167.5048 111.0238
" />
<path d="M167.5048 111.0238
L167.5048 111.1190
" />
<path d="M167.5048 111.1190
L167.4572 111.2143
" />
<path d="M167.4572 111.2143
L167.4096 111.2619
" />
<path d="M167.4096 111.2619
L167.3143 111.3095
" />
<path d="M167.3143 111.3095
L167.1239 111.3571
" />
<path d="M167.1239 111.3571
L166.8858 111.3571
" />
<path d="M166.8858 111.3571
L166.6953 111.3095
" />
<path d="M166.6953 111.3095
L166.6001 111.2619
" />
<path d="M166.6001 111.2619
L166.5524 111.2143
" />
<path d="M166.5524 111.2143
L166.5048 111.1190
" />
<path d="M167.5048 109.5952
L166.8382 109.5952
" />
<path d="M166.9334 109.5952
L166.8858 109.5476
" />
<path d="M166.8858 109.5476
L166.8382 109.4524
" />
<path d="M166.8382 109.4524
L166.8382 109.3095
" />
<path d="M166.8382 109.3095
L166.8858 109.2143
" />
<path d="M166.8858 109.2143
L166.9810 109.1667
" />
<path d="M166.9810 109.1667
L167.5048 109.1667
" />
<path d="M166.9810 109.1667
L166.8858 109.1190
" />
<path d="M166.8858 109.1190
L166.8382 109.0238
" />
<path d="M166.8382 109.0238
L166.8382 108.8810
" />
<path d="M166.8382 108.8810
L166.8858 108.7857
" />
<path d="M166.8858 108.7857
L166.9810 108.7381
" />
<path d="M166.9810 108.7381
L167.5048 108.7381
" />
<path d="M167.5048 108.2619
L166.8382 108.2619
" />
<path d="M166.9334 108.2619
L166.8858 108.2143
" />
<path d="M166.8858 108.2143
L166.8382 108.1190
" />
<path d="M166.8382 108.1190
L166.8382 107.9762
" />
<path d="M166.8382 107.9762
L166.8858 107.8810
" />
<path d="M166.8858 107.8810
L166.9810 107.8333
" />
<path d="M166.9810 107.8333
L167.5048 107.8333
" />
<path d="M166.9810 107.8333
L166.8858 107.7857
" />
<path d="M166.8858 107.7857
L166.8382 107.6905
" />
<path d="M166.8382 107.6905
L166.8382 107.5476
" />
<path d="M166.8382 107.5476
L166.8858 107.4524
" />
<path d="M166.8858 107.4524
L166.9810 107.4048
" />
<path d="M166.9810 107.4048
L167.5048 107.4048
" />
</g></g>
<g style="fill:none; 
stroke:#000000; stroke-width:0.1000; stroke-opacity:1; 
stroke-linecap:round; stroke-linejoin:round;">
<path d="M161.9000 108.0000
L168.7864 108.0000
" />
<path d="M161.9000 115.0000
L168.7864 115.0000
" />
<path d="M168.2000 108.0000
L168.2000 115.0000
" />
<path d="M168.2000 108.0000
L168.2000 115.0000
" />
<path d="M168.2000 108.0000
L168.7864 109.1265
" />
<path d="M168.2000 108.0000
L167.6136 109.1265
" />
<path d="M168.2000 115.0000
L167.6136 113.8735
" />
<path d="M168.2000 115.0000
L168.7864 113.8735
" />
</g>
<g style="fill:none; 
stroke:#000000; stroke-width:0.1500; stroke-opacity:1; 
stroke-linecap:round; stroke-linejoin:round;">
<text x="161.8500" y="116.7500"
textLength="8.9167" font-size="1.3333" lengthAdjust="spacingAndGlyphs"
text-anchor="middle" opacity="0">0.9000 mm</text>
<g class="stroked-text"><desc>0.9000 mm</desc>
<path d="M157.9452 115.7048
L158.0405 115.7048
" />
<path d="M158.0405 115.7048
L158.1357 115.7524
" />
<path d="M158.1357 115.7524
L158.1833 115.8001
" />
<path d="M158.1833 115.8001
L158.2310 115.8953
" />
<path d="M158.2310 115.8953
L158.2786 116.0858
" />
<path d="M158.2786 116.0858
L158.2786 116.3239
" />
<path d="M158.2786 116.3239
L158.2310 116.5143
" />
<path d="M158.2310 116.5143
L158.1833 116.6096
" />
<path d="M158.1833 116.6096
L158.1357 116.6572
" />
<path d="M158.1357 116.6572
L158.0405 116.7048
" />
<path d="M158.0405 116.7048
L157.9452 116.7048
" />
<path d="M157.9452 116.7048
L157.8500 116.6572
" />
<path d="M157.8500 116.6572
L157.8024 116.6096
" />
<path d="M157.8024 116.6096
L157.7548 116.5143
" />
<path d="M157.7548 116.5143
L157.7071 116.3239
" />
<path d="M157.7071 116.3239
L157.7071 116.0858
" />
<path d="M157.7071 116.0858
L157.7548 115.8953
" />
<path d="M157.7548 115.8953
L157.8024 115.8001
" />
<path d="M157.8024 115.8001
L157.8500 115.7524
" />
<path d="M157.8500 115.7524
L157.9452 115.7048
" />
<path d="M158.7071 116.6096
L158.7548 116.6572
" />
<path d="M158.7548 116.6572
L158.7071 116.7048
" />
<path d="M158.7071 116.7048
L158.6595 116.6572
" />
<path d="M158.6595 116.6572
L158.7071 116.6096
" />
<path d="M158.7071 116.6096
L158.7071 116.7048
" />
<path d="M159.2310 116.7048
L159.4214 116.7048
" />
<path d="M159.4214 116.7048
L159.5167 116.6572
" />
<path d="M159.5167 116.6572
L159.5643 116.6096
" />
<path d="M159.5643 116.6096
L159.6595 116.4667
" />
<path d="M159.6595 116.4667
L159.7071 116.2762
" />
<path d="M159.7071 116.2762
L159.7071 115.8953
" />
<path d="M159.7071 115.8953
L159.6595 115.8001
" />
<path d="M159.6595 115.8001
L159.6119 115.7524
" />
<path d="M159.6119 115.7524
L159.5167 115.7048
" />
<path d="M159.5167 115.7048
L159.3262 115.7048
" />
<path d="M159.3262 115.7048
L159.2310 115.7524
" />
<path d="M159.2310 115.7524
L159.1833 115.8001
" />
<path d="M159.1833 115.8001
L159.1357 115.8953
" />
<path d="M159.1357 115.8953
L159.1357 116.1334
" />
<path d="M159.1357 116.1334
L159.1833 116.2286
" />
<path d="M159.1833 116.2286
L159.2310 116.2762
" />
<path d="M159.2310 116.2762
L159.3262 116.3239
" />
<path d="M159.3262 116.3239
L159.5167 116.3239
" />
<path d="M159.5167 116.3239
L159.6119 116.2762
" />
<path d="M159.6119 116.2762
L159.6595 116.2286
" />
<path d="M159.6595 116.2286
L159.7071 116.1334
" />
<path d="M160.3262 115.7048
L160.4214 115.7048
" />
<path d="M160.4214 115.7048
L160.5167 115.7524
" />
<path d="M160.5167 115.7524
L160.5643 115.8001
" />
<path d="M160.5643 115.8001
L160.6119 115.8953
" />
<path d="M160.6119 115.8953
L160.6595 116.0858
" />
<path d="M160.6595 116.0858
L160.6595 116.3239
" />
<path d="M160.6595 116.3239
L160.6119 116.5143
" />
<path d="M160.6119 116.5143
L160.5643 116.6096
" />
<path d="M160.5643 116.6096
L160.5167 116.6572
" />
<path d="M160.5167 116.6572
L160.4214 116.7048
" />
<path d="M160.4214 116.7048
L160.3262 116.7048
" />
<path d="M160.3262 116.7048
L160.2310 116.6572
" />
<path d="M160.2310 116.6572
L160.1833 116.6096
" />
<path d="M160.1833 116.6096
L160.1357 116.5143
" />
<path d="M160.1357 116.5143
L160.0881 116.3239
" />
<path d="M160.0881 116.3239
L160.0881 116.0858
" />
<path d="M160.0881 116.0858
L160.1357 115.8953
" />
<path d="M160.1357 115.8953
L160.1833 115.8001
" />
<path d="M160.1833 115.8001
L160.2310 115.7524
" />
<path d="M160.2310 115.7524
L160.3262 115.7048
" />
<path d="M161.2786 115.7048
L161.3738 115.7048
" />
<path d="M161.3738 115.7048
L161.4690 115.7524
" />
<path d="M161.4690 115.7524
L161.5167 115.8001
" />
<path d="M161.5167 115.8001
L161.5643 115.8953
" />
<path d="M161.5643 115.8953
L161.6119 116.0858
" />
<path d="M161.6119 116.0858
L161.6119 116.3239
" />
<path d="M161.6119 116.3239
L161.5643 116.5143
" />
<path d="M161.5643 116.5143
L161.5167 116.6096
" />
<path d="M161.5167 116.6096
L161.4690 116.6572
" />
<path d="M161.4690 116.6572
L161.3738 116.7048
" />
<path d="M161.3738 116.7048
L161.2786 116.7048
" />
<path d="M161.2786 116.7048
L161.1833 116.6572
" />
<path d="M161.1833 116.6572
L161.1357 116.6096
" />
<path d="M161.1357 116.6096
L161.0881 116.5143
" />
<path d="M161.0881 116.5143
L161.0405 116.3239
" />
<path d="M161.0405 116.3239
L161.0405 116.0858
" />
<path d="M161.0405 116.0858
L161.0881 115.8953
" />
<path d="M161.0881 115.8953
L161.1357 115.8001
" />
<path d="M161.1357 115.8001
L161.1833 115.7524
" />
<path d="M161.1833 115.7524
L161.2786 115.7048
" />
<path d="M162.2310 115.7048
L162.3262 115.7048
" />
<path d="M162.3262 115.7048
L162.4214 115.7524
" />
<path d="M162.4214 115.7524
L162.4690 115.8001
" />
<path d="M162.4690 115.8001
L162.5167 115.8953
" />
<path d="M162.5167 115.8953
L162.5643 116.0858
" />
<path d="M162.5643 116.0858
L162.5643 116.3239
" />
<path d="M162.5643 116.3239
L162.5167 116.5143
" />
<path d="M162.5167 116.5143
L162.4690 116.6096
" />
<path d="M162.4690 116.6096
L162.4214 116.6572
" />
<path d="M162.4214 116.6572
L162.3262 116.7048
" />
<path d="M162.3262 116.7048
L162.2310 116.7048
" />
<path d="M162.2310 116.7048
L162.1357 116.6572
" />
<path d="M162.1357 116.6572
L162.0881 116.6096
" />
<path d="M162.0881 116.6096
L162.0405 116.5143
" />
<path d="M162.0405 116.5143
L161.9929 116.3239
" />
<path d="M161.9929 116.3239
L161.9929 116.0858
" />
<path d="M161.9929 116.0858
L162.0405 115.8953
" />
<path d="M162.0405 115.8953
L162.0881 115.8001
" />
<path d="M162.0881 115.8001
L162.1357 115.7524
" />
<path d="M162.1357 115.7524
L162.2310 115.7048
" />
<path d="M163.7548 116.7048
L163.7548 116.0382
" />
<path d="M163.7548 116.1334
L163.8024 116.0858
" />
<path d="M163.8024 116.0858
L163.8976 116.0382
" />
<path d="M163.8976 116.0382
L164.0405 116.0382
" />
<path d="M164.0405 116.0382
L164.1357 116.0858
" />
<path d="M164.1357 116.0858
L164.1833 116.1810
" />
<path d="M164.1833 116.1810
L164.1833 116.7048
" />
<path d="M164.1833 116.1810
L164.2310 116.0858
" />
<path d="M164.2310 116.0858
L164.3262 116.0382
" />
<path d="M164.3262 116.0382
L164.4690 116.0382
" />
<path d="M164.4690 116.0382
L164.5643 116.0858
" />
<path d="M164.5643 116.0858
L164.6119 116.1810
" />
<path d="M164.6119 116.1810
L164.6119 116.7048
" />
<path d="M165.0881 116.7048
L165.0881 116.0382
" />
<path d="M165.0881 116.1334
L165.1357 116.0858
" />
<path d="M165.1357 116.0858
L165.2310 116.0382
" />
<path d="M165.2310 116.0382
L165.3738 116.0382
" />
<path d="M165.3738 116.0382
L165.4690 116.0858
" />
<path d="M165.4690 116.0858
L165.5167 116.1810
" />
<path d="M165.5167 116.1810
L165.5167 116.7048
" />
<path d="M165.5167 116.1810
L165.5643 116.0858
" />
<path d="M165.5643 116.0858
L165.6595 116.0382
" />
<path d="M165.6595 116.0382
L165.8024 116.0382
" />
<path d="M165.8024 116.0382
L165.8976 116.0858
" />
<path d="M165.8976 116.0858
L165.9452 116.1810
" />
<path d="M165.9452 116.1810
L165.9452 116.7048
" />
</g></g>
<g style="fill:none; 
stroke:#000000; stroke-width:0.1000; stroke-opacity:1; 
stroke-linecap:round; stroke-linejoin:round;">
<path d="M161.4000 108.5000
L161.4000 117.9864
" />
<path d="M162.3000 108.5000
L162.3000 117.9864
" />
<path d="M161.4000 117.4000
L162.3000 117.4000
" />
<path d="M161.4000 117.4000
L162.3000 117.4000
" />
<path d="M161.4000 117.4000
L162.5265 116.8136
" />
<path d="M161.4000 117.4000
L162.5265 117.9864
" />
<path d="M162.3000 117.4000
L161.1735 117.9864
" />
<path d="M162.3000 117.4000
L161.1735 116.8136
" />
</g>
<g style="fill:none; 
stroke:#000000; stroke-width:0.1500; stroke-opacity:1; 
stroke-linecap:round; stroke-linejoin:round;">
<text x="80.5250" y="78.0900"
textLength="8.9167" font-size="1.3333" lengthAdjust="spacingAndGlyphs"
text-anchor="middle" opacity="0">8.4500 mm</text>
<g class="stroked-text"><desc>8.4500 mm</desc>
<path d="M76.5726 77.4734
L76.4774 77.4258
" />
<path d="M76.4774 77.4258
L76.4298 77.3782
" />
<path d="M76.4298 77.3782
L76.3821 77.2829
" />
<path d="M76.3821 77.2829
L76.3821 77.2353
" />
<path d="M76.3821 77.2353
L76.4298 77.1401
" />
<path d="M76.4298 77.1401
L76.4774 77.0924
" />
<path d="M76.4774 77.0924
L76.5726 77.0448
" />
<path d="M76.5726 77.0448
L76.7631 77.0448
" />
<path d="M76.7631 77.0448
L76.8583 77.0924
" />
<path d="M76.8583 77.0924
L76.9060 77.1401
" />
<path d="M76.9060 77.1401
L76.9536 77.2353
" />
<path d="M76.9536 77.2353
L76.9536 77.2829
" />
<path d="M76.9536 77.2829
L76.9060 77.3782
" />
<path d="M76.9060 77.3782
L76.8583 77.4258
" />
<path d="M76.8583 77.4258
L76.7631 77.4734
" />
<path d="M76.7631 77.4734
L76.5726 77.4734
" />
<path d="M76.5726 77.4734
L76.4774 77.5210
" />
<path d="M76.4774 77.5210
L76.4298 77.5686
" />
<path d="M76.4298 77.5686
L76.3821 77.6639
" />
<path d="M76.3821 77.6639
L76.3821 77.8543
" />
<path d="M76.3821 77.8543
L76.4298 77.9496
" />
<path d="M76.4298 77.9496
L76.4774 77.9972
" />
<path d="M76.4774 77.9972
L76.5726 78.0448
" />
<path d="M76.5726 78.0448
L76.7631 78.0448
" />
<path d="M76.7631 78.0448
L76.8583 77.9972
" />
<path d="M76.8583 77.9972
L76.9060 77.9496
" />
<path d="M76.9060 77.9496
L76.9536 77.8543
" />
<path d="M76.9536 77.8543
L76.9536 77.6639
" />
<path d="M76.9536 77.6639
L76.9060 77.5686
" />
<path d="M76.9060 77.5686
L76.8583 77.5210
" />
<path d="M76.8583 77.5210
L76.7631 77.4734
" />
<path d="M77.3821 77.9496
L77.4298 77.9972
" />
<path d="M77.4298 77.9972
L77.3821 78.0448
" />
<path d="M77.3821 78.0448
L77.3345 77.9972
" />
<path d="M77.3345 77.9972
L77.3821 77.9496
" />
<path d="M77.3821 77.9496
L77.3821 78.0448
" />
<path d="M78.2869 77.3782
L78.2869 78.0448
" />
<path d="M78.0488 76.9972
L77.8107 77.7115
" />
<path d="M77.8107 77.7115
L78.4298 77.7115
" />
<path d="M79.2869 77.0448
L78.8107 77.0448
" />
<path d="M78.8107 77.0448
L78.7631 77.5210
" />
<path d="M78.7631 77.5210
L78.8107 77.4734
" />
<path d="M78.8107 77.4734
L78.9060 77.4258
" />
<path d="M78.9060 77.4258
L79.1440 77.4258
" />
<path d="M79.1440 77.4258
L79.2393 77.4734
" />
<path d="M79.2393 77.4734
L79.2869 77.5210
" />
<path d="M79.2869 77.5210
L79.3345 77.6162
" />
<path d="M79.3345 77.6162
L79.3345 77.8543
" />
<path d="M79.3345 77.8543
L79.2869 77.9496
" />
<path d="M79.2869 77.9496
L79.2393 77.9972
" />
<path d="M79.2393 77.9972
L79.1440 78.0448
" />
<path d="M79.1440 78.0448
L78.9060 78.0448
" />
<path d="M78.9060 78.0448
L78.8107 77.9972
" />
<path d="M78.8107 77.9972
L78.7631 77.9496
" />
<path d="M79.9536 77.0448
L80.0488 77.0448
" />
<path d="M80.0488 77.0448
L80.1440 77.0924
" />
<path d="M80.1440 77.0924
L80.1917 77.1401
" />
<path d="M80.1917 77.1401
L80.2393 77.2353
" />
<path d="M80.2393 77.2353
L80.2869 77.4258
" />
<path d="M80.2869 77.4258
L80.2869 77.6639
" />
<path d="M80.2869 77.6639
L80.2393 77.8543
" />
<path d="M80.2393 77.8543
L80.1917 77.9496
" />
<path d="M80.1917 77.9496
L80.1440 77.9972
" />
<path d="M80.1440 77.9972
L80.0488 78.0448
" />
<path d="M80.0488 78.0448
L79.9536 78.0448
" />
<path d="M79.9536 78.0448
L79.8583 77.9972
" />
<path d="M79.8583 77.9972
L79.8107 77.9496
" />
<path d="M79.8107 77.9496
L79.7631 77.8543
" />
<path d="M79.7631 77.8543
L79.7155 77.6639
" />
<path d="M79.7155 77.6639
L79.7155 77.4258
" />
<path d="M79.7155 77.4258
L79.7631 77.2353
" />
<path d="M79.7631 77.2353
L79.8107 77.1401
" />
<path d="M79.8107 77.1401
L79.8583 77.0924
" />
<path d="M79.8583 77.0924
L79.9536 77.0448
" />
<path d="M80.9060 77.0448
L81.0012 77.0448
" />
<path d="M81.0012 77.0448
L81.0964 77.0924
" />
<path d="M81.0964 77.0924
L81.1440 77.1401
" />
<path d="M81.1440 77.1401
L81.1917 77.2353
" />
<path d="M81.1917 77.2353
L81.2393 77.4258
" />
<path d="M81.2393 77.4258
L81.2393 77.6639
" />
<path d="M81.2393 77.6639
L81.1917 77.8543
" />
<path d="M81.1917 77.8543
L81.1440 77.9496
" />
<path d="M81.1440 77.9496
L81.0964 77.9972
" />
<path d="M81.0964 77.9972
L81.0012 78.0448
" />
<path d="M81.0012 78.0448
L80.9060 78.0448
" />
<path d="M80.9060 78.0448
L80.8107 77.9972
" />
<path d="M80.8107 77.9972
L80.7631 77.9496
" />
<path d="M80.7631 77.9496
L80.7155 77.8543
" />
<path d="M80.7155 77.8543
L80.6679 77.6639
" />
<path d="M80.6679 77.6639
L80.6679 77.4258
" />
<path d="M80.6679 77.4258
L80.7155 77.2353
" />
<path d="M80.7155 77.2353
L80.7631 77.1401
" />
<path d="M80.7631 77.1401
L80.8107 77.0924
" />
<path d="M80.8107 77.0924
L80.9060 77.0448
" />
<path d="M82.4298 78.0448
L82.4298 77.3782
" />
<path d="M82.4298 77.4734
L82.4774 77.4258
" />
<path d="M82.4774 77.4258
L82.5726 77.3782
" />
<path d="M82.5726 77.3782
L82.7155 77.3782
" />
<path d="M82.7155 77.3782
L82.8107 77.4258
" />
<path d="M82.8107 77.4258
L82.8583 77.5210
" />
<path d="M82.8583 77.5210
L82.8583 78.0448
" />
<path d="M82.8583 77.5210
L82.9060 77.4258
" />
<path d="M82.9060 77.4258
L83.0012 77.3782
" />
<path d="M83.0012 77.3782
L83.1440 77.3782
" />
<path d="M83.1440 77.3782
L83.2393 77.4258
" />
<path d="M83.2393 77.4258
L83.2869 77.5210
" />
<path d="M83.2869 77.5210
L83.2869 78.0448
" />
<path d="M83.7631 78.0448
L83.7631 77.3782
" />
<path d="M83.7631 77.4734
L83.8107 77.4258
" />
<path d="M83.8107 77.4258
L83.9060 77.3782
" />
<path d="M83.9060 77.3782
L84.0488 77.3782
" />
<path d="M84.0488 77.3782
L84.1440 77.4258
" />
<path d="M84.1440 77.4258
L84.1917 77.5210
" />
<path d="M84.1917 77.5210
L84.1917 78.0448
" />
<path d="M84.1917 77.5210
L84.2393 77.4258
" />
<path d="M84.2393 77.4258
L84.3345 77.3782
" />
<path d="M84.3345 77.3782
L84.4774 77.3782
" />
<path d="M84.4774 77.3782
L84.5726 77.4258
" />
<path d="M84.5726 77.4258
L84.6202 77.5210
" />
<path d="M84.6202 77.5210
L84.6202 78.0448
" />
</g></g>
<g style="fill:none; 
stroke:#000000; stroke-width:0.1000; stroke-opacity:1; 
stroke-linecap:round; stroke-linejoin:round;">
<path d="M84.7500 76.4500
L84.7500 79.3264
" />
<path d="M76.3000 76.4500
L76.3000 79.3264
" />
<path d="M84.7500 78.7400
L76.3000 78.7400
" />
<path d="M84.7500 78.7400
L76.3000 78.7400
" />
<path d="M84.7500 78.7400
L83.6235 79.3264
" />
<path d="M84.7500 78.7400
L83.6235 78.1536
" />
<path d="M76.3000 78.7400
L77.4265 78.1536
" />
<path d="M76.3000 78.7400
L77.4265 79.3264
" />
</g>
<g style="fill:none; 
stroke:#000000; stroke-width:0.1500; stroke-opacity:1; 
stroke-linecap:round; stroke-linejoin:round;">
<text x="158.2250" y="104.5800"
textLength="8.9167" font-size="1.3333" lengthAdjust="spacingAndGlyphs"
text-anchor="middle" opacity="0">8.1500 mm</text>
<g class="stroked-text"><desc>8.1500 mm</desc>
<path d="M154.2726 103.9634
L154.1774 103.9158
" />
<path d="M154.1774 103.9158
L154.1298 103.8682
" />
<path d="M154.1298 103.8682
L154.0821 103.7729
" />
<path d="M154.0821 103.7729
L154.0821 103.7253
" />
<path d="M154.0821 103.7253
L154.1298 103.6301
" />
<path d="M154.1298 103.6301
L154.1774 103.5824
" />
<path d="M154.1774 103.5824
L154.2726 103.5348
" />
<path d="M154.2726 103.5348
L154.4631 103.5348
" />
<path d="M154.4631 103.5348
L154.5583 103.5824
" />
<path d="M154.5583 103.5824
L154.6060 103.6301
" />
<path d="M154.6060 103.6301
L154.6536 103.7253
" />
<path d="M154.6536 103.7253
L154.6536 103.7729
" />
<path d="M154.6536 103.7729
L154.6060 103.8682
" />
<path d="M154.6060 103.8682
L154.5583 103.9158
" />
<path d="M154.5583 103.9158
L154.4631 103.9634
" />
<path d="M154.4631 103.9634
L154.2726 103.9634
" />
<path d="M154.2726 103.9634
L154.1774 104.0110
" />
<path d="M154.1774 104.0110
L154.1298 104.0586
" />
<path d="M154.1298 104.0586
L154.0821 104.1539
" />
<path d="M154.0821 104.1539
L154.0821 104.3443
" />
<path d="M154.0821 104.3443
L154.1298 104.4396
" />
<path d="M154.1298 104.4396
L154.1774 104.4872
" />
<path d="M154.1774 104.4872
L154.2726 104.5348
" />
<path d="M154.2726 104.5348
L154.4631 104.5348
" />
<path d="M154.4631 104.5348
L154.5583 104.4872
" />
<path d="M154.5583 104.4872
L154.6060 104.4396
" />
<path d="M154.6060 104.4396
L154.6536 104.3443
" />
<path d="M154.6536 104.3443
L154.6536 104.1539
" />
<path d="M154.6536 104.1539
L154.6060 104.0586
" />
<path d="M154.6060 104.0586
L154.5583 104.0110
" />
<path d="M154.5583 104.0110
L154.4631 103.9634
" />
<path d="M155.0821 104.4396
L155.1298 104.4872
" />
<path d="M155.1298 104.4872
L155.0821 104.5348
" />
<path d="M155.0821 104.5348
L155.0345 104.4872
" />
<path d="M155.0345 104.4872
L155.0821 104.4396
" />
<path d="M155.0821 104.4396
L155.0821 104.5348
" />
<path d="M156.0821 104.5348
L155.5107 104.5348
" />
<path d="M155.7964 104.5348
L155.7964 103.5348
" />
<path d="M155.7964 103.5348
L155.7012 103.6777
" />
<path d="M155.7012 103.6777
L155.6060 103.7729
" />
<path d="M155.6060 103.7729
L155.5107 103.8205
" />
<path d="M156.9869 103.5348
L156.5107 103.5348
" />
<path d="M156.5107 103.5348
L156.4631 104.0110
" />
<path d="M156.4631 104.0110
L156.5107 103.9634
" />
<path d="M156.5107 103.9634
L156.6060 103.9158
" />
<path d="M156.6060 103.9158
L156.8440 103.9158
" />
<path d="M156.8440 103.9158
L156.9393 103.9634
" />
<path d="M156.9393 103.9634
L156.9869 104.0110
" />
<path d="M156.9869 104.0110
L157.0345 104.1062
" />
<path d="M157.0345 104.1062
L157.0345 104.3443
" />
<path d="M157.0345 104.3443
L156.9869 104.4396
" />
<path d="M156.9869 104.4396
L156.9393 104.4872
" />
<path d="M156.9393 104.4872
L156.8440 104.5348
" />
<path d="M156.8440 104.5348
L156.6060 104.5348
" />
<path d="M156.6060 104.5348
L156.5107 104.4872
" />
<path d="M156.5107 104.4872
L156.4631 104.4396
" />
<path d="M157.6536 103.5348
L157.7488 103.5348
" />
<path d="M157.7488 103.5348
L157.8440 103.5824
" />
<path d="M157.8440 103.5824
L157.8917 103.6301
" />
<path d="M157.8917 103.6301
L157.9393 103.7253
" />
<path d="M157.9393 103.7253
L157.9869 103.9158
" />
<path d="M157.9869 103.9158
L157.9869 104.1539
" />
<path d="M157.9869 104.1539
L157.9393 104.3443
" />
<path d="M157.9393 104.3443
L157.8917 104.4396
" />
<path d="M157.8917 104.4396
L157.8440 104.4872
" />
<path d="M157.8440 104.4872
L157.7488 104.5348
" />
<path d="M157.7488 104.5348
L157.6536 104.5348
" />
<path d="M157.6536 104.5348
L157.5583 104.4872
" />
<path d="M157.5583 104.4872
L157.5107 104.4396
" />
<path d="M157.5107 104.4396
L157.4631 104.3443
" />
<path d="M157.4631 104.3443
L157.4155 104.1539
" />
<path d="M157.4155 104.1539
L157.4155 103.9158
" />
<path d="M157.4155 103.9158
L157.4631 103.7253
" />
<path d="M157.4631 103.7253
L157.5107 103.6301
" />
<path d="M157.5107 103.6301
L157.5583 103.5824
" />
<path d="M157.5583 103.5824
L157.6536 103.5348
" />
<path d="M158.6060 103.5348
L158.7012 103.5348
" />
<path d="M158.7012 103.5348
L158.7964 103.5824
" />
<path d="M158.7964 103.5824
L158.8440 103.6301
" />
<path d="M158.8440 103.6301
L158.8917 103.7253
" />
<path d="M158.8917 103.7253
L158.9393 103.9158
" />
<path d="M158.9393 103.9158
L158.9393 104.1539
" />
<path d="M158.9393 104.1539
L158.8917 104.3443
" />
<path d="M158.8917 104.3443
L158.8440 104.4396
" />
<path d="M158.8440 104.4396
L158.7964 104.4872
" />
<path d="M158.7964 104.4872
L158.7012 104.5348
" />
<path d="M158.7012 104.5348
L158.6060 104.5348
" />
<path d="M158.6060 104.5348
L158.5107 104.4872
" />
<path d="M158.5107 104.4872
L158.4631 104.4396
" />
<path d="M158.4631 104.4396
L158.4155 104.3443
" />
<path d="M158.4155 104.3443
L158.3679 104.1539
" />
<path d="M158.3679 104.1539
L158.3679 103.9158
" />
<path d="M158.3679 103.9158
L158.4155 103.7253
" />
<path d="M158.4155 103.7253
L158.4631 103.6301
" />
<path d="M158.4631 103.6301
L158.5107 103.5824
" />
<path d="M158.5107 103.5824
L158.6060 103.5348
" />
<path d="M160.1298 104.5348
L160.1298 103.8682
" />
<path d="M160.1298 103.9634
L160.1774 103.9158
" />
<path d="M160.1774 103.9158
L160.2726 103.8682
" />
<path d="M160.2726 103.8682
L160.4155 103.8682
" />
<path d="M160.4155 103.8682
L160.5107 103.9158
" />
<path d="M160.5107 103.9158
L160.5583 104.0110
" />
<path d="M160.5583 104.0110
L160.5583 104.5348
" />
<path d="M160.5583 104.0110
L160.6060 103.9158
" />
<path d="M160.6060 103.9158
L160.7012 103.8682
" />
<path d="M160.7012 103.8682
L160.8440 103.8682
" />
<path d="M160.8440 103.8682
L160.9393 103.9158
" />
<path d="M160.9393 103.9158
L160.9869 104.0110
" />
<path d="M160.9869 104.0110
L160.9869 104.5348
" />
<path d="M161.4631 104.5348
L161.4631 103.8682
" />
<path d="M161.4631 103.9634
L161.5107 103.9158
" />
<path d="M161.5107 103.9158
L161.6060 103.8682
" />
<path d="M161.6060 103.8682
L161.7488 103.8682
" />
<path d="M161.7488 103.8682
L161.8440 103.9158
" />
<path d="M161.8440 103.9158
L161.8917 104.0110
" />
<path d="M161.8917 104.0110
L161.8917 104.5348
" />
<path d="M161.8917 104.0110
L161.9393 103.9158
" />
<path d="M161.9393 103.9158
L162.0345 103.8682
" />
<path d="M162.0345 103.8682
L162.1774 103.8682
" />
<path d="M162.1774 103.8682
L162.2726 103.9158
" />
<path d="M162.2726 103.9158
L162.3202 104.0110
" />
<path d="M162.3202 104.0110
L162.3202 104.5348
" />
</g></g>
<g style="fill:none; 
stroke:#000000; stroke-width:0.1000; stroke-opacity:1; 
stroke-linecap:round; stroke-linejoin:round;">
<path d="M154.1500 76.4500
L154.1500 105.8164
" />
<path d="M162.3000 76.4500
L162.3000 105.8164
" />
<path d="M154.1500 105.2300
L162.3000 105.2300
" />
<path d="M154.1500 105.2300
L162.3000 105.2300
" />
<path d="M154.1500 105.2300
L155.2765 104.6436
" />
<path d="M154.1500 105.2300
L155.2765 105.8164
" />
<path d="M162.3000 105.2300
L161.1735 105.8164
" />
<path d="M162.3000 105.2300
L161.1735 104.6436
" />
</g>
<g style="fill:none; 
stroke:#000000; stroke-width:0.1500; stroke-opacity:1; 
stroke-linecap:round; stroke-linejoin:round;">
<g transform="rotate(-90.000000 70.4500 62.4000)">
<text x="70.4500" y="62.9000"
textLength="8.9167" font-size="1.3333" lengthAdjust="spacingAndGlyphs"
text-anchor="middle" opacity="0">6.8000 mm</text>
</g>
<g class="stroked-text"><desc>6.8000 mm</desc>
<path d="M69.9048 66.0667
L69.9048 66.2571
" />
<path d="M69.9048 66.2571
L69.9524 66.3524
" />
<path d="M69.9524 66.3524
L70.0001 66.4000
" />
<path d="M70.0001 66.4000
L70.1429 66.4952
" />
<path d="M70.1429 66.4952
L70.3334 66.5429
" />
<path d="M70.3334 66.5429
L70.7143 66.5429
" />
<path d="M70.7143 66.5429
L70.8096 66.4952
" />
<path d="M70.8096 66.4952
L70.8572 66.4476
" />
<path d="M70.8572 66.4476
L70.9048 66.3524
" />
<path d="M70.9048 66.3524
L70.9048 66.1619
" />
<path d="M70.9048 66.1619
L70.8572 66.0667
" />
<path d="M70.8572 66.0667
L70.8096 66.0190
" />
<path d="M70.8096 66.0190
L70.7143 65.9714
" />
<path d="M70.7143 65.9714
L70.4762 65.9714
" />
<path d="M70.4762 65.9714
L70.3810 66.0190
" />
<path d="M70.3810 66.0190
L70.3334 66.0667
" />
<path d="M70.3334 66.0667
L70.2858 66.1619
" />
<path d="M70.2858 66.1619
L70.2858 66.3524
" />
<path d="M70.2858 66.3524
L70.3334 66.4476
" />
<path d="M70.3334 66.4476
L70.3810 66.4952
" />
<path d="M70.3810 66.4952
L70.4762 66.5429
" />
<path d="M70.8096 65.5429
L70.8572 65.4952
" />
<path d="M70.8572 65.4952
L70.9048 65.5429
" />
<path d="M70.9048 65.5429
L70.8572 65.5905
" />
<path d="M70.8572 65.5905
L70.8096 65.5429
" />
<path d="M70.8096 65.5429
L70.9048 65.5429
" />
<path d="M70.3334 64.9238
L70.2858 65.0190
" />
<path d="M70.2858 65.0190
L70.2382 65.0667
" />
<path d="M70.2382 65.0667
L70.1429 65.1143
" />
<path d="M70.1429 65.1143
L70.0953 65.1143
" />
<path d="M70.0953 65.1143
L70.0001 65.0667
" />
<path d="M70.0001 65.0667
L69.9524 65.0190
" />
<path d="M69.9524 65.0190
L69.9048 64.9238
" />
<path d="M69.9048 64.9238
L69.9048 64.7333
" />
<path d="M69.9048 64.7333
L69.9524 64.6381
" />
<path d="M69.9524 64.6381
L70.0001 64.5905
" />
<path d="M70.0001 64.5905
L70.0953 64.5429
" />
<path d="M70.0953 64.5429
L70.1429 64.5429
" />
<path d="M70.1429 64.5429
L70.2382 64.5905
" />
<path d="M70.2382 64.5905
L70.2858 64.6381
" />
<path d="M70.2858 64.6381
L70.3334 64.7333
" />
<path d="M70.3334 64.7333
L70.3334 64.9238
" />
<path d="M70.3334 64.9238
L70.3810 65.0190
" />
<path d="M70.3810 65.0190
L70.4286 65.0667
" />
<path d="M70.4286 65.0667
L70.5239 65.1143
" />
<path d="M70.5239 65.1143
L70.7143 65.1143
" />
<path d="M70.7143 65.1143
L70.8096 65.0667
" />
<path d="M70.8096 65.0667
L70.8572 65.0190
" />
<path d="M70.8572 65.0190
L70.9048 64.9238
" />
<path d="M70.9048 64.9238
L70.9048 64.7333
" />
<path d="M70.9048 64.7333
L70.8572 64.6381
" />
<path d="M70.8572 64.6381
L70.8096 64.5905
" />
<path d="M70.8096 64.5905
L70.7143 64.5429
" />
<path d="M70.7143 64.5429
L70.5239 64.5429
" />
<path d="M70.5239 64.5429
L70.4286 64.5905
" />
<path d="M70.4286 64.5905
L70.3810 64.6381
" />
<path d="M70.3810 64.6381
L70.3334 64.7333
" />
<path d="M69.9048 63.9238
L69.9048 63.8286
" />
<path d="M69.9048 63.8286
L69.9524 63.7333
" />
<path d="M69.9524 63.7333
L70.0001 63.6857
" />
<path d="M70.0001 63.6857
L70.0953 63.6381
" />
<path d="M70.0953 63.6381
L70.2858 63.5905
" />
<path d="M70.2858 63.5905
L70.5239 63.5905
" />
<path d="M70.5239 63.5905
L70.7143 63.6381
" />
<path d="M70.7143 63.6381
L70.8096 63.6857
" />
<path d="M70.8096 63.6857
L70.8572 63.7333
" />
<path d="M70.8572 63.7333
L70.9048 63.8286
" />
<path d="M70.9048 63.8286
L70.9048 63.9238
" />
<path d="M70.9048 63.9238
L70.8572 64.0190
" />
<path d="M70.8572 64.0190
L70.8096 64.0667
" />
<path d="M70.8096 64.0667
L70.7143 64.1143
" />
<path d="M70.7143 64.1143
L70.5239 64.1619
" />
<path d="M70.5239 64.1619
L70.2858 64.1619
" />
<path d="M70.2858 64.1619
L70.0953 64.1143
" />
<path d="M70.0953 64.1143
L70.0001 64.0667
" />
<path d="M70.0001 64.0667
L69.9524 64.0190
" />
<path d="M69.9524 64.0190
L69.9048 63.9238
" />
<path d="M69.9048 62.9714
L69.9048 62.8762
" />
<path d="M69.9048 62.8762
L69.9524 62.7810
" />
<path d="M69.9524 62.7810
L70.0001 62.7333
" />
<path d="M70.0001 62.7333
L70.0953 62.6857
" />
<path d="M70.0953 62.6857
L70.2858 62.6381
" />
<path d="M70.2858 62.6381
L70.5239 62.6381
" />
<path d="M70.5239 62.6381
L70.7143 62.6857
" />
<path d="M70.7143 62.6857
L70.8096 62.7333
" />
<path d="M70.8096 62.7333
L70.8572 62.7810
" />
<path d="M70.8572 62.7810
L70.9048 62.8762
" />
<path d="M70.9048 62.8762
L70.9048 62.9714
" />
<path d="M70.9048 62.9714
L70.8572 63.0667
" />
<path d="M70.8572 63.0667
L70.8096 63.1143
" />
<path d="M70.8096 63.1143
L70.7143 63.1619
" />
<path d="M70.7143 63.1619
L70.5239 63.2095
" />
<path d="M70.5239 63.2095
L70.2858 63.2095
" />
<path d="M70.2858 63.2095
L70.0953 63.1619
" />
<path d="M70.0953 63.1619
L70.0001 63.1143
" />
<path d="M70.0001 63.1143
L69.9524 63.0667
" />
<path d="M69.9524 63.0667
L69.9048 62.9714
" />
<path d="M69.9048 62.0190
L69.9048 61.9238
" />
<path d="M69.9048 61.9238
L69.9524 61.8286
" />
<path d="M69.9524 61.8286
L70.0001 61.7810
" />
<path d="M70.0001 61.7810
L70.0953 61.7333
" />
<path d="M70.0953 61.7333
L70.2858 61.6857
" />
<path d="M70.2858 61.6857
L70.5239 61.6857
" />
<path d="M70.5239 61.6857
L70.7143 61.7333
" />
<path d="M70.7143 61.7333
L70.8096 61.7810
" />
<path d="M70.8096 61.7810
L70.8572 61.8286
" />
<path d="M70.8572 61.8286
L70.9048 61.9238
" />
<path d="M70.9048 61.9238
L70.9048 62.0190
" />
<path d="M70.9048 62.0190
L70.8572 62.1143
" />
<path d="M70.8572 62.1143
L70.8096 62.1619
" />
<path d="M70.8096 62.1619
L70.7143 62.2095
" />
<path d="M70.7143 62.2095
L70.5239 62.2571
" />
<path d="M70.5239 62.2571
L70.2858 62.2571
" />
<path d="M70.2858 62.2571
L70.0953 62.2095
" />
<path d="M70.0953 62.2095
L70.0001 62.1619
" />
<path d="M70.0001 62.1619
L69.9524 62.1143
" />
<path d="M69.9524 62.1143
L69.9048 62.0190
" />
<path d="M70.9048 60.4952
L70.2382 60.4952
" />
<path d="M70.3334 60.4952
L70.2858 60.4476
" />
<path d="M70.2858 60.4476
L70.2382 60.3524
" />
<path d="M70.2382 60.3524
L70.2382 60.2095
" />
<path d="M70.2382 60.2095
L70.2858 60.1143
" />
<path d="M70.2858 60.1143
L70.3810 60.0667
" />
<path d="M70.3810 60.0667
L70.9048 60.0667
" />
<path d="M70.3810 60.0667
L70.2858 60.0190
" />
<path d="M70.2858 60.0190
L70.2382 59.9238
" />
<path d="M70.2382 59.9238
L70.2382 59.7810
" />
<path d="M70.2382 59.7810
L70.2858 59.6857
" />
<path d="M70.2858 59.6857
L70.3810 59.6381
" />
<path d="M70.3810 59.6381
L70.9048 59.6381
" />
<path d="M70.9048 59.1619
L70.2382 59.1619
" />
<path d="M70.3334 59.1619
L70.2858 59.1143
" />
<path d="M70.2858 59.1143
L70.2382 59.0190
" />
<path d="M70.2382 59.0190
L70.2382 58.8762
" />
<path d="M70.2382 58.8762
L70.2858 58.7810
" />
<path d="M70.2858 58.7810
L70.3810 58.7333
" />
<path d="M70.3810 58.7333
L70.9048 58.7333
" />
<path d="M70.3810 58.7333
L70.2858 58.6857
" />
<path d="M70.2858 58.6857
L70.2382 58.5905
" />
<path d="M70.2382 58.5905
L70.2382 58.4476
" />
<path d="M70.2382 58.4476
L70.2858 58.3524
" />
<path d="M70.2858 58.3524
L70.3810 58.3048
" />
<path d="M70.3810 58.3048
L70.9048 58.3048
" />
</g></g>
<g style="fill:none; 
stroke:#000000; stroke-width:0.1000; stroke-opacity:1; 
stroke-linecap:round; stroke-linejoin:round;">
<path d="M76.7000 65.8000
L71.0136 65.8000
" />
<path d="M76.7000 59.0000
L71.0136 59.0000
" />
<path d="M71.6000 65.8000
L71.6000 59.0000
" />
<path d="M71.6000 65.8000
L71.6000 59.0000
" />
<path d="M71.6000 65.8000
L71.0136 64.6735
" />
<path d="M71.6000 65.8000
L72.1864 64.6735
" />
<path d="M71.6000 59.0000
L72.1864 60.1265
" />
<path d="M71.6000 59.0000
L71.0136 60.1265
" />
</g>
<g style="fill:none; 
stroke:#000000; stroke-width:0.1500; stroke-opacity:1; 
stroke-linecap:round; stroke-linejoin:round;">
<g transform="rotate(-90.000000 171.7900 87.0000)">
<text x="171.7900" y="87.5000"
textLength="9.8690" font-size="1.3333" lengthAdjust="spacingAndGlyphs"
text-anchor="middle" opacity="0">56.0000 mm</text>
</g>
<g class="stroked-text"><desc>56.0000 mm</desc>
<path d="M171.2448 91.0952
L171.2448 91.5714
" />
<path d="M171.2448 91.5714
L171.7210 91.6190
" />
<path d="M171.7210 91.6190
L171.6734 91.5714
" />
<path d="M171.6734 91.5714
L171.6258 91.4762
" />
<path d="M171.6258 91.4762
L171.6258 91.2381
" />
<path d="M171.6258 91.2381
L171.6734 91.1429
" />
<path d="M171.6734 91.1429
L171.7210 91.0952
" />
<path d="M171.7210 91.0952
L171.8162 91.0476
" />
<path d="M171.8162 91.0476
L172.0543 91.0476
" />
<path d="M172.0543 91.0476
L172.1496 91.0952
" />
<path d="M172.1496 91.0952
L172.1972 91.1429
" />
<path d="M172.1972 91.1429
L172.2448 91.2381
" />
<path d="M172.2448 91.2381
L172.2448 91.4762
" />
<path d="M172.2448 91.4762
L172.1972 91.5714
" />
<path d="M172.1972 91.5714
L172.1496 91.6190
" />
<path d="M171.2448 90.1905
L171.2448 90.3810
" />
<path d="M171.2448 90.3810
L171.2924 90.4762
" />
<path d="M171.2924 90.4762
L171.3401 90.5238
" />
<path d="M171.3401 90.5238
L171.4829 90.6190
" />
<path d="M171.4829 90.6190
L171.6734 90.6667
" />
<path d="M171.6734 90.6667
L172.0543 90.6667
" />
<path d="M172.0543 90.6667
L172.1496 90.6190
" />
<path d="M172.1496 90.6190
L172.1972 90.5714
" />
<path d="M172.1972 90.5714
L172.2448 90.4762
" />
<path d="M172.2448 90.4762
L172.2448 90.2857
" />
<path d="M172.2448 90.2857
L172.1972 90.1905
" />
<path d="M172.1972 90.1905
L172.1496 90.1429
" />
<path d="M172.1496 90.1429
L172.0543 90.0952
" />
<path d="M172.0543 90.0952
L171.8162 90.0952
" />
<path d="M171.8162 90.0952
L171.7210 90.1429
" />
<path d="M171.7210 90.1429
L171.6734 90.1905
" />
<path d="M171.6734 90.1905
L171.6258 90.2857
" />
<path d="M171.6258 90.2857
L171.6258 90.4762
" />
<path d="M171.6258 90.4762
L171.6734 90.5714
" />
<path d="M171.6734 90.5714
L171.7210 90.6190
" />
<path d="M171.7210 90.6190
L171.8162 90.6667
" />
<path d="M172.1496 89.6667
L172.1972 89.6190
" />
<path d="M172.1972 89.6190
L172.2448 89.6667
" />
<path d="M172.2448 89.6667
L172.1972 89.7143
" />
<path d="M172.1972 89.7143
L172.1496 89.6667
" />
<path d="M172.1496 89.6667
L172.2448 89.6667
" />
<path d="M171.2448 89.0000
L171.2448 88.9048
" />
<path d="M171.2448 88.9048
L171.2924 88.8095
" />
<path d="M171.2924 88.8095
L171.3401 88.7619
" />
<path d="M171.3401 88.7619
L171.4353 88.7143
" />
<path d="M171.4353 88.7143
L171.6258 88.6667
" />
<path d="M171.6258 88.6667
L171.8639 88.6667
" />
<path d="M171.8639 88.6667
L172.0543 88.7143
" />
<path d="M172.0543 88.7143
L172.1496 88.7619
" />
<path d="M172.1496 88.7619
L172.1972 88.8095
" />
<path d="M172.1972 88.8095
L172.2448 88.9048
" />
<path d="M172.2448 88.9048
L172.2448 89.0000
" />
<path d="M172.2448 89.0000
L172.1972 89.0952
" />
<path d="M172.1972 89.0952
L172.1496 89.1429
" />
<path d="M172.1496 89.1429
L172.0543 89.1905
" />
<path d="M172.0543 89.1905
L171.8639 89.2381
" />
<path d="M171.8639 89.2381
L171.6258 89.2381
" />
<path d="M171.6258 89.2381
L171.4353 89.1905
" />
<path d="M171.4353 89.1905
L171.3401 89.1429
" />
<path d="M171.3401 89.1429
L171.2924 89.0952
" />
<path d="M171.2924 89.0952
L171.2448 89.0000
" />
<path d="M171.2448 88.0476
L171.2448 87.9524
" />
<path d="M171.2448 87.9524
L171.2924 87.8571
" />
<path d="M171.2924 87.8571
L171.3401 87.8095
" />
<path d="M171.3401 87.8095
L171.4353 87.7619
" />
<path d="M171.4353 87.7619
L171.6258 87.7143
" />
<path d="M171.6258 87.7143
L171.8639 87.7143
" />
<path d="M171.8639 87.7143
L172.0543 87.7619
" />
<path d="M172.0543 87.7619
L172.1496 87.8095
" />
<path d="M172.1496 87.8095
L172.1972 87.8571
" />
<path d="M172.1972 87.8571
L172.2448 87.9524
" />
<path d="M172.2448 87.9524
L172.2448 88.0476
" />
<path d="M172.2448 88.0476
L172.1972 88.1429
" />
<path d="M172.1972 88.1429
L172.1496 88.1905
" />
<path d="M172.1496 88.1905
L172.0543 88.2381
" />
<path d="M172.0543 88.2381
L171.8639 88.2857
" />
<path d="M171.8639 88.2857
L171.6258 88.2857
" />
<path d="M171.6258 88.2857
L171.4353 88.2381
" />
<path d="M171.4353 88.2381
L171.3401 88.1905
" />
<path d="M171.3401 88.1905
L171.2924 88.1429
" />
<path d="M171.2924 88.1429
L171.2448 88.0476
" />
<path d="M171.2448 87.0952
L171.2448 87.0000
" />
<path d="M171.2448 87.0000
L171.2924 86.9048
" />
<path d="M171.2924 86.9048
L171.3401 86.8571
" />
<path d="M171.3401 86.8571
L171.4353 86.8095
" />
<path d="M171.4353 86.8095
L171.6258 86.7619
" />
<path d="M171.6258 86.7619
L171.8639 86.7619
" />
<path d="M171.8639 86.7619
L172.0543 86.8095
" />
<path d="M172.0543 86.8095
L172.1496 86.8571
" />
<path d="M172.1496 86.8571
L172.1972 86.9048
" />
<path d="M172.1972 86.9048
L172.2448 87.0000
" />
<path d="M172.2448 87.0000
L172.2448 87.0952
" />
<path d="M172.2448 87.0952
L172.1972 87.1905
" />
<path d="M172.1972 87.1905
L172.1496 87.2381
" />
<path d="M172.1496 87.2381
L172.0543 87.2857
" />
<path d="M172.0543 87.2857
L171.8639 87.3333
" />
<path d="M171.8639 87.3333
L171.6258 87.3333
" />
<path d="M171.6258 87.3333
L171.4353 87.2857
" />
<path d="M171.4353 87.2857
L171.3401 87.2381
" />
<path d="M171.3401 87.2381
L171.2924 87.1905
" />
<path d="M171.2924 87.1905
L171.2448 87.0952
" />
<path d="M171.2448 86.1429
L171.2448 86.0476
" />
<path d="M171.2448 86.0476
L171.2924 85.9524
" />
<path d="M171.2924 85.9524
L171.3401 85.9048
" />
<path d="M171.3401 85.9048
L171.4353 85.8571
" />
<path d="M171.4353 85.8571
L171.6258 85.8095
" />
<path d="M171.6258 85.8095
L171.8639 85.8095
" />
<path d="M171.8639 85.8095
L172.0543 85.8571
" />
<path d="M172.0543 85.8571
L172.1496 85.9048
" />
<path d="M172.1496 85.9048
L172.1972 85.9524
" />
<path d="M172.1972 85.9524
L172.2448 86.0476
" />
<path d="M172.2448 86.0476
L172.2448 86.1429
" />
<path d="M172.2448 86.1429
L172.1972 86.2381
" />
<path d="M172.1972 86.2381
L172.1496 86.2857
" />
<path d="M172.1496 86.2857
L172.0543 86.3333
" />
<path d="M172.0543 86.3333
L171.8639 86.3810
" />
<path d="M171.8639 86.3810
L171.6258 86.3810
" />
<path d="M171.6258 86.3810
L171.4353 86.3333
" />
<path d="M171.4353 86.3333
L171.3401 86.2857
" />
<path d="M171.3401 86.2857
L171.2924 86.2381
" />
<path d="M171.2924 86.2381
L171.2448 86.1429
" />
<path d="M172.2448 84.6190
L171.5782 84.6190
" />
<path d="M171.6734 84.6190
L171.6258 84.5714
" />
<path d="M171.6258 84.5714
L171.5782 84.4762
" />
<path d="M171.5782 84.4762
L171.5782 84.3333
" />
<path d="M171.5782 84.3333
L171.6258 84.2381
" />
<path d="M171.6258 84.2381
L171.7210 84.1905
" />
<path d="M171.7210 84.1905
L172.2448 84.1905
" />
<path d="M171.7210 84.1905
L171.6258 84.1429
" />
<path d="M171.6258 84.1429
L171.5782 84.0476
" />
<path d="M171.5782 84.0476
L171.5782 83.9048
" />
<path d="M171.5782 83.9048
L171.6258 83.8095
" />
<path d="M171.6258 83.8095
L171.7210 83.7619
" />
<path d="M171.7210 83.7619
L172.2448 83.7619
" />
<path d="M172.2448 83.2857
L171.5782 83.2857
" />
<path d="M171.6734 83.2857
L171.6258 83.2381
" />
<path d="M171.6258 83.2381
L171.5782 83.1429
" />
<path d="M171.5782 83.1429
L171.5782 83.0000
" />
<path d="M171.5782 83.0000
L171.6258 82.9048
" />
<path d="M171.6258 82.9048
L171.7210 82.8571
" />
<path d="M171.7210 82.8571
L172.2448 82.8571
" />
<path d="M171.7210 82.8571
L171.6258 82.8095
" />
<path d="M171.6258 82.8095
L171.5782 82.7143
" />
<path d="M171.5782 82.7143
L171.5782 82.5714
" />
<path d="M171.5782 82.5714
L171.6258 82.4762
" />
<path d="M171.6258 82.4762
L171.7210 82.4286
" />
<path d="M171.7210 82.4286
L172.2448 82.4286
" />
</g></g>
<g style="fill:none; 
stroke:#000000; stroke-width:0.1000; stroke-opacity:1; 
stroke-linecap:round; stroke-linejoin:round;">
<path d="M162.8000 59.0000
L173.5264 59.0000
" />
<path d="M162.8000 115.0000
L173.5264 115.0000
" />
<path d="M172.9400 59.0000
L172.9400 115.0000
" />
<path d="M172.9400 59.0000
L172.9400 115.0000
" />
<path d="M172.9400 59.0000
L173.5264 60.1265
" />
<path d="M172.9400 59.0000
L172.3536 60.1265
" />
<path d="M172.9400 115.0000
L172.3536 113.8735
" />
<path d="M172.9400 115.0000
L173.5264 113.8735
" />
</g>
<g style="fill:none; 
stroke:#000000; stroke-width:0.1500; stroke-opacity:1; 
stroke-linecap:round; stroke-linejoin:round;">
<text x="119.3000" y="118.6400"
textLength="9.8690" font-size="1.3333" lengthAdjust="spacingAndGlyphs"
text-anchor="middle" opacity="0">86.0000 mm</text>
<g class="stroked-text"><desc>86.0000 mm</desc>
<path d="M114.8714 118.0234
L114.7762 117.9758
" />
<path d="M114.7762 117.9758
L114.7286 117.9282
" />
<path d="M114.7286 117.9282
L114.6810 117.8329
" />
<path d="M114.6810 117.8329
L114.6810 117.7853
" />
<path d="M114.6810 117.7853
L114.7286 117.6901
" />
<path d="M114.7286 117.6901
L114.7762 117.6424
" />
<path d="M114.7762 117.6424
L114.8714 117.5948
" />
<path d="M114.8714 117.5948
L115.0619 117.5948
" />
<path d="M115.0619 117.5948
L115.1571 117.6424
" />
<path d="M115.1571 117.6424
L115.2048 117.6901
" />
<path d="M115.2048 117.6901
L115.2524 117.7853
" />
<path d="M115.2524 117.7853
L115.2524 117.8329
" />
<path d="M115.2524 117.8329
L115.2048 117.9282
" />
<path d="M115.2048 117.9282
L115.1571 117.9758
" />
<path d="M115.1571 117.9758
L115.0619 118.0234
" />
<path d="M115.0619 118.0234
L114.8714 118.0234
" />
<path d="M114.8714 118.0234
L114.7762 118.0710
" />
<path d="M114.7762 118.0710
L114.7286 118.1186
" />
<path d="M114.7286 118.1186
L114.6810 118.2139
" />
<path d="M114.6810 118.2139
L114.6810 118.4043
" />
<path d="M114.6810 118.4043
L114.7286 118.4996
" />
<path d="M114.7286 118.4996
L114.7762 118.5472
" />
<path d="M114.7762 118.5472
L114.8714 118.5948
" />
<path d="M114.8714 118.5948
L115.0619 118.5948
" />
<path d="M115.0619 118.5948
L115.1571 118.5472
" />
<path d="M115.1571 118.5472
L115.2048 118.4996
" />
<path d="M115.2048 118.4996
L115.2524 118.4043
" />
<path d="M115.2524 118.4043
L115.2524 118.2139
" />
<path d="M115.2524 118.2139
L115.2048 118.1186
" />
<path d="M115.2048 118.1186
L115.1571 118.0710
" />
<path d="M115.1571 118.0710
L115.0619 118.0234
" />
<path d="M116.1095 117.5948
L115.9190 117.5948
" />
<path d="M115.9190 117.5948
L115.8238 117.6424
" />
<path d="M115.8238 117.6424
L115.7762 117.6901
" />
<path d="M115.7762 117.6901
L115.6810 117.8329
" />
<path d="M115.6810 117.8329
L115.6333 118.0234
" />
<path d="M115.6333 118.0234
L115.6333 118.4043
" />
<path d="M115.6333 118.4043
L115.6810 118.4996
" />
<path d="M115.6810 118.4996
L115.7286 118.5472
" />
<path d="M115.7286 118.5472
L115.8238 118.5948
" />
<path d="M115.8238 118.5948
L116.0143 118.5948
" />
<path d="M116.0143 118.5948
L116.1095 118.5472
" />
<path d="M116.1095 118.5472
L116.1571 118.4996
" />
<path d="M116.1571 118.4996
L116.2048 118.4043
" />
<path d="M116.2048 118.4043
L116.2048 118.1662
" />
<path d="M116.2048 118.1662
L116.1571 118.0710
" />
<path d="M116.1571 118.0710
L116.1095 118.0234
" />
<path d="M116.1095 118.0234
L116.0143 117.9758
" />
<path d="M116.0143 117.9758
L115.8238 117.9758
" />
<path d="M115.8238 117.9758
L115.7286 118.0234
" />
<path d="M115.7286 118.0234
L115.6810 118.0710
" />
<path d="M115.6810 118.0710
L115.6333 118.1662
" />
<path d="M116.6333 118.4996
L116.6810 118.5472
" />
<path d="M116.6810 118.5472
L116.6333 118.5948
" />
<path d="M116.6333 118.5948
L116.5857 118.5472
" />
<path d="M116.5857 118.5472
L116.6333 118.4996
" />
<path d="M116.6333 118.4996
L116.6333 118.5948
" />
<path d="M117.3000 117.5948
L117.3952 117.5948
" />
<path d="M117.3952 117.5948
L117.4905 117.6424
" />
<path d="M117.4905 117.6424
L117.5381 117.6901
" />
<path d="M117.5381 117.6901
L117.5857 117.7853
" />
<path d="M117.5857 117.7853
L117.6333 117.9758
" />
<path d="M117.6333 117.9758
L117.6333 118.2139
" />
<path d="M117.6333 118.2139
L117.5857 118.4043
" />
<path d="M117.5857 118.4043
L117.5381 118.4996
" />
<path d="M117.5381 118.4996
L117.4905 118.5472
" />
<path d="M117.4905 118.5472
L117.3952 118.5948
" />
<path d="M117.3952 118.5948
L117.3000 118.5948
" />
<path d="M117.3000 118.5948
L117.2048 118.5472
" />
<path d="M117.2048 118.5472
L117.1571 118.4996
" />
<path d="M117.1571 118.4996
L117.1095 118.4043
" />
<path d="M117.1095 118.4043
L117.0619 118.2139
" />
<path d="M117.0619 118.2139
L117.0619 117.9758
" />
<path d="M117.0619 117.9758
L117.1095 117.7853
" />
<path d="M117.1095 117.7853
L117.1571 117.6901
" />
<path d="M117.1571 117.6901
L117.2048 117.6424
" />
<path d="M117.2048 117.6424
L117.3000 117.5948
" />
<path d="M118.2524 117.5948
L118.3476 117.5948
" />
<path d="M118.3476 117.5948
L118.4429 117.6424
" />
<path d="M118.4429 117.6424
L118.4905 117.6901
" />
<path d="M118.4905 117.6901
L118.5381 117.7853
" />
<path d="M118.5381 117.7853
L118.5857 117.9758
" />
<path d="M118.5857 117.9758
L118.5857 118.2139
" />
<path d="M118.5857 118.2139
L118.5381 118.4043
" />
<path d="M118.5381 118.4043
L118.4905 118.4996
" />
<path d="M118.4905 118.4996
L118.4429 118.5472
" />
<path d="M118.4429 118.5472
L118.3476 118.5948
" />
<path d="M118.3476 118.5948
L118.2524 118.5948
" />
<path d="M118.2524 118.5948
L118.1571 118.5472
" />
<path d="M118.1571 118.5472
L118.1095 118.4996
" />
<path d="M118.1095 118.4996
L118.0619 118.4043
" />
<path d="M118.0619 118.4043
L118.0143 118.2139
" />
<path d="M118.0143 118.2139
L118.0143 117.9758
" />
<path d="M118.0143 117.9758
L118.0619 117.7853
" />
<path d="M118.0619 117.7853
L118.1095 117.6901
" />
<path d="M118.1095 117.6901
L118.1571 117.6424
" />
<path d="M118.1571 117.6424
L118.2524 117.5948
" />
<path d="M119.2048 117.5948
L119.3000 117.5948
" />
<path d="M119.3000 117.5948
L119.3952 117.6424
" />
<path d="M119.3952 117.6424
L119.4429 117.6901
" />
<path d="M119.4429 117.6901
L119.4905 117.7853
" />
<path d="M119.4905 117.7853
L119.5381 117.9758
" />
<path d="M119.5381 117.9758
L119.5381 118.2139
" />
<path d="M119.5381 118.2139
L119.4905 118.4043
" />
<path d="M119.4905 118.4043
L119.4429 118.4996
" />
<path d="M119.4429 118.4996
L119.3952 118.5472
" />
<path d="M119.3952 118.5472
L119.3000 118.5948
" />
<path d="M119.3000 118.5948
L119.2048 118.5948
" />
<path d="M119.2048 118.5948
L119.1095 118.5472
" />
<path d="M119.1095 118.5472
L119.0619 118.4996
" />
<path d="M119.0619 118.4996
L119.0143 118.4043
" />
<path d="M119.0143 118.4043
L118.9667 118.2139
" />
<path d="M118.9667 118.2139
L118.9667 117.9758
" />
<path d="M118.9667 117.9758
L119.0143 117.7853
" />
<path d="M119.0143 117.7853
L119.0619 117.6901
" />
<path d="M119.0619 117.6901
L119.1095 117.6424
" />
<path d="M119.1095 117.6424
L119.2048 117.5948
" />
<path d="M120.1571 117.5948
L120.2524 117.5948
" />
<path d="M120.2524 117.5948
L120.3476 117.6424
" />
<path d="M120.3476 117.6424
L120.3952 117.6901
" />
<path d="M120.3952 117.6901
L120.4429 117.7853
" />
<path d="M120.4429 117.7853
L120.4905 117.9758
" />
<path d="M120.4905 117.9758
L120.4905 118.2139
" />
<path d="M120.4905 118.2139
L120.4429 118.4043
" />
<path d="M120.4429 118.4043
L120.3952 118.4996
" />
<path d="M120.3952 118.4996
L120.3476 118.5472
" />
<path d="M120.3476 118.5472
L120.2524 118.5948
" />
<path d="M120.2524 118.5948
L120.1571 118.5948
" />
<path d="M120.1571 118.5948
L120.0619 118.5472
" />
<path d="M120.0619 118.5472
L120.0143 118.4996
" />
<path d="M120.0143 118.4996
L119.9667 118.4043
" />
<path d="M119.9667 118.4043
L119.9190 118.2139
" />
<path d="M119.9190 118.2139
L119.9190 117.9758
" />
<path d="M119.9190 117.9758
L119.9667 117.7853
" />
<path d="M119.9667 117.7853
L120.0143 117.6901
" />
<path d="M120.0143 117.6901
L120.0619 117.6424
" />
<path d="M120.0619 117.6424
L120.1571 117.5948
" />
<path d="M121.6810 118.5948
L121.6810 117.9282
" />
<path d="M121.6810 118.0234
L121.7286 117.9758
" />
<path d="M121.7286 117.9758
L121.8238 117.9282
" />
<path d="M121.8238 117.9282
L121.9667 117.9282
" />
<path d="M121.9667 117.9282
L122.0619 117.9758
" />
<path d="M122.0619 117.9758
L122.1095 118.0710
" />
<path d="M122.1095 118.0710
L122.1095 118.5948
" />
<path d="M122.1095 118.0710
L122.1571 117.9758
" />
<path d="M122.1571 117.9758
L122.2524 117.9282
" />
<path d="M122.2524 117.9282
L122.3952 117.9282
" />
<path d="M122.3952 117.9282
L122.4905 117.9758
" />
<path d="M122.4905 117.9758
L122.5381 118.0710
" />
<path d="M122.5381 118.0710
L122.5381 118.5948
" />
<path d="M123.0143 118.5948
L123.0143 117.9282
" />
<path d="M123.0143 118.0234
L123.0619 117.9758
" />
<path d="M123.0619 117.9758
L123.1571 117.9282
" />
<path d="M123.1571 117.9282
L123.3000 117.9282
" />
<path d="M123.3000 117.9282
L123.3952 117.9758
" />
<path d="M123.3952 117.9758
L123.4429 118.0710
" />
<path d="M123.4429 118.0710
L123.4429 118.5948
" />
<path d="M123.4429 118.0710
L123.4905 117.9758
" />
<path d="M123.4905 117.9758
L123.5857 117.9282
" />
<path d="M123.5857 117.9282
L123.7286 117.9282
" />
<path d="M123.7286 117.9282
L123.8238 117.9758
" />
<path d="M123.8238 117.9758
L123.8714 118.0710
" />
<path d="M123.8714 118.0710
L123.8714 118.5948
" />
</g></g>
<g style="fill:none; 
stroke:#000000; stroke-width:0.1000; stroke-opacity:1; 
stroke-linecap:round; stroke-linejoin:round;">
<path d="M76.3000 115.5000
L76.3000 119.8764
" />
<path d="M162.3000 115.5000
L162.3000 119.8764
" />
<path d="M76.3000 119.2900
L162.3000 119.2900
" />
<path d="M76.3000 119.2900
L162.3000 119.2900
" />
<path d="M76.3000 119.2900
L77.4265 118.7036
" />
<path d="M76.3000 119.2900
L77.4265 119.8764
" />
<path d="M162.3000 119.2900
L161.1735 119.8764
" />
<path d="M162.3000 119.2900
L161.1735 118.7036
" />
</g>
<g style="fill:none; 
stroke:#000000; stroke-width:0.1500; stroke-opacity:1; 
stroke-linecap:round; stroke-linejoin:round;">
<text x="76.7500" y="57.5500"
textLength="8.9167" font-size="1.3333" lengthAdjust="spacingAndGlyphs"
text-anchor="middle" opacity="0">0.9000 mm</text>
<g class="stroked-text"><desc>0.9000 mm</desc>
<path d="M72.8452 56.5048
L72.9405 56.5048
" />
<path d="M72.9405 56.5048
L73.0357 56.5524
" />
<path d="M73.0357 56.5524
L73.0833 56.6001
" />
<path d="M73.0833 56.6001
L73.1310 56.6953
" />
<path d="M73.1310 56.6953
L73.1786 56.8858
" />
<path d="M73.1786 56.8858
L73.1786 57.1239
" />
<path d="M73.1786 57.1239
L73.1310 57.3143
" />
<path d="M73.1310 57.3143
L73.0833 57.4096
" />
<path d="M73.0833 57.4096
L73.0357 57.4572
" />
<path d="M73.0357 57.4572
L72.9405 57.5048
" />
<path d="M72.9405 57.5048
L72.8452 57.5048
" />
<path d="M72.8452 57.5048
L72.7500 57.4572
" />
<path d="M72.7500 57.4572
L72.7024 57.4096
" />
<path d="M72.7024 57.4096
L72.6548 57.3143
" />
<path d="M72.6548 57.3143
L72.6071 57.1239
" />
<path d="M72.6071 57.1239
L72.6071 56.8858
" />
<path d="M72.6071 56.8858
L72.6548 56.6953
" />
<path d="M72.6548 56.6953
L72.7024 56.6001
" />
<path d="M72.7024 56.6001
L72.7500 56.5524
" />
<path d="M72.7500 56.5524
L72.8452 56.5048
" />
<path d="M73.6071 57.4096
L73.6548 57.4572
" />
<path d="M73.6548 57.4572
L73.6071 57.5048
" />
<path d="M73.6071 57.5048
L73.5595 57.4572
" />
<path d="M73.5595 57.4572
L73.6071 57.4096
" />
<path d="M73.6071 57.4096
L73.6071 57.5048
" />
<path d="M74.1310 57.5048
L74.3214 57.5048
" />
<path d="M74.3214 57.5048
L74.4167 57.4572
" />
<path d="M74.4167 57.4572
L74.4643 57.4096
" />
<path d="M74.4643 57.4096
L74.5595 57.2667
" />
<path d="M74.5595 57.2667
L74.6071 57.0762
" />
<path d="M74.6071 57.0762
L74.6071 56.6953
" />
<path d="M74.6071 56.6953
L74.5595 56.6001
" />
<path d="M74.5595 56.6001
L74.5119 56.5524
" />
<path d="M74.5119 56.5524
L74.4167 56.5048
" />
<path d="M74.4167 56.5048
L74.2262 56.5048
" />
<path d="M74.2262 56.5048
L74.1310 56.5524
" />
<path d="M74.1310 56.5524
L74.0833 56.6001
" />
<path d="M74.0833 56.6001
L74.0357 56.6953
" />
<path d="M74.0357 56.6953
L74.0357 56.9334
" />
<path d="M74.0357 56.9334
L74.0833 57.0286
" />
<path d="M74.0833 57.0286
L74.1310 57.0762
" />
<path d="M74.1310 57.0762
L74.2262 57.1239
" />
<path d="M74.2262 57.1239
L74.4167 57.1239
" />
<path d="M74.4167 57.1239
L74.5119 57.0762
" />
<path d="M74.5119 57.0762
L74.5595 57.0286
" />
<path d="M74.5595 57.0286
L74.6071 56.9334
" />
<path d="M75.2262 56.5048
L75.3214 56.5048
" />
<path d="M75.3214 56.5048
L75.4167 56.5524
" />
<path d="M75.4167 56.5524
L75.4643 56.6001
" />
<path d="M75.4643 56.6001
L75.5119 56.6953
" />
<path d="M75.5119 56.6953
L75.5595 56.8858
" />
<path d="M75.5595 56.8858
L75.5595 57.1239
" />
<path d="M75.5595 57.1239
L75.5119 57.3143
" />
<path d="M75.5119 57.3143
L75.4643 57.4096
" />
<path d="M75.4643 57.4096
L75.4167 57.4572
" />
<path d="M75.4167 57.4572
L75.3214 57.5048
" />
<path d="M75.3214 57.5048
L75.2262 57.5048
" />
<path d="M75.2262 57.5048
L75.1310 57.4572
" />
<path d="M75.1310 57.4572
L75.0833 57.4096
" />
<path d="M75.0833 57.4096
L75.0357 57.3143
" />
<path d="M75.0357 57.3143
L74.9881 57.1239
" />
<path d="M74.9881 57.1239
L74.9881 56.8858
" />
<path d="M74.9881 56.8858
L75.0357 56.6953
" />
<path d="M75.0357 56.6953
L75.0833 56.6001
" />
<path d="M75.0833 56.6001
L75.1310 56.5524
" />
<path d="M75.1310 56.5524
L75.2262 56.5048
" />
<path d="M76.1786 56.5048
L76.2738 56.5048
" />
<path d="M76.2738 56.5048
L76.3690 56.5524
" />
<path d="M76.3690 56.5524
L76.4167 56.6001
" />
<path d="M76.4167 56.6001
L76.4643 56.6953
" />
<path d="M76.4643 56.6953
L76.5119 56.8858
" />
<path d="M76.5119 56.8858
L76.5119 57.1239
" />
<path d="M76.5119 57.1239
L76.4643 57.3143
" />
<path d="M76.4643 57.3143
L76.4167 57.4096
" />
<path d="M76.4167 57.4096
L76.3690 57.4572
" />
<path d="M76.3690 57.4572
L76.2738 57.5048
" />
<path d="M76.2738 57.5048
L76.1786 57.5048
" />
<path d="M76.1786 57.5048
L76.0833 57.4572
" />
<path d="M76.0833 57.4572
L76.0357 57.4096
" />
<path d="M76.0357 57.4096
L75.9881 57.3143
" />
<path d="M75.9881 57.3143
L75.9405 57.1239
" />
<path d="M75.9405 57.1239
L75.9405 56.8858
" />
<path d="M75.9405 56.8858
L75.9881 56.6953
" />
<path d="M75.9881 56.6953
L76.0357 56.6001
" />
<path d="M76.0357 56.6001
L76.0833 56.5524
" />
<path d="M76.0833 56.5524
L76.1786 56.5048
" />
<path d="M77.1310 56.5048
L77.2262 56.5048
" />
<path d="M77.2262 56.5048
L77.3214 56.5524
" />
<path d="M77.3214 56.5524
L77.3690 56.6001
" />
<path d="M77.3690 56.6001
L77.4167 56.6953
" />
<path d="M77.4167 56.6953
L77.4643 56.8858
" />
<path d="M77.4643 56.8858
L77.4643 57.1239
" />
<path d="M77.4643 57.1239
L77.4167 57.3143
" />
<path d="M77.4167 57.3143
L77.3690 57.4096
" />
<path d="M77.3690 57.4096
L77.3214 57.4572
" />
<path d="M77.3214 57.4572
L77.2262 57.5048
" />
<path d="M77.2262 57.5048
L77.1310 57.5048
" />
<path d="M77.1310 57.5048
L77.0357 57.4572
" />
<path d="M77.0357 57.4572
L76.9881 57.4096
" />
<path d="M76.9881 57.4096
L76.9405 57.3143
" />
<path d="M76.9405 57.3143
L76.8929 57.1239
" />
<path d="M76.8929 57.1239
L76.8929 56.8858
" />
<path d="M76.8929 56.8858
L76.9405 56.6953
" />
<path d="M76.9405 56.6953
L76.9881 56.6001
" />
<path d="M76.9881 56.6001
L77.0357 56.5524
" />
<path d="M77.0357 56.5524
L77.1310 56.5048
" />
<path d="M78.6548 57.5048
L78.6548 56.8382
" />
<path d="M78.6548 56.9334
L78.7024 56.8858
" />
<path d="M78.7024 56.8858
L78.7976 56.8382
" />
<path d="M78.7976 56.8382
L78.9405 56.8382
" />
<path d="M78.9405 56.8382
L79.0357 56.8858
" />
<path d="M79.0357 56.8858
L79.0833 56.9810
" />
<path d="M79.0833 56.9810
L79.0833 57.5048
" />
<path d="M79.0833 56.9810
L79.1310 56.8858
" />
<path d="M79.1310 56.8858
L79.2262 56.8382
" />
<path d="M79.2262 56.8382
L79.3690 56.8382
" />
<path d="M79.3690 56.8382
L79.4643 56.8858
" />
<path d="M79.4643 56.8858
L79.5119 56.9810
" />
<path d="M79.5119 56.9810
L79.5119 57.5048
" />
<path d="M79.9881 57.5048
L79.9881 56.8382
" />
<path d="M79.9881 56.9334
L80.0357 56.8858
" />
<path d="M80.0357 56.8858
L80.1310 56.8382
" />
<path d="M80.1310 56.8382
L80.2738 56.8382
" />
<path d="M80.2738 56.8382
L80.3690 56.8858
" />
<path d="M80.3690 56.8858
L80.4167 56.9810
" />
<path d="M80.4167 56.9810
L80.4167 57.5048
" />
<path d="M80.4167 56.9810
L80.4643 56.8858
" />
<path d="M80.4643 56.8858
L80.5595 56.8382
" />
<path d="M80.5595 56.8382
L80.7024 56.8382
" />
<path d="M80.7024 56.8382
L80.7976 56.8858
" />
<path d="M80.7976 56.8858
L80.8452 56.9810
" />
<path d="M80.8452 56.9810
L80.8452 57.5048
" />
</g></g>
<g style="fill:none; 
stroke:#000000; stroke-width:0.1000; stroke-opacity:1; 
stroke-linecap:round; stroke-linejoin:round;">
<path d="M77.2000 65.3000
L77.2000 57.6136
" />
<path d="M76.3000 65.3000
L76.3000 57.6136
" />
<path d="M77.2000 58.2000
L76.3000 58.2000
" />
<path d="M77.2000 58.2000
L76.3000 58.2000
" />
<path d="M77.2000 58.2000
L76.0735 58.7864
" />
<path d="M77.2000 58.2000
L76.0735 57.6136
" />
<path d="M76.3000 58.2000
L77.4265 57.6136
" />
<path d="M76.3000 58.2000
L77.4265 58.7864
" />
</g>
<g style="fill:none; 
stroke:#000000; stroke-width:0.1500; stroke-opacity:1; 
stroke-linecap:round; stroke-linejoin:round;">
<g transform="rotate(-90.000000 68.7900 111.5000)">
<text x="68.7900" y="112.0000"
textLength="8.9167" font-size="1.3333" lengthAdjust="spacingAndGlyphs"
text-anchor="middle" opacity="0">7.0000 mm</text>
</g>
<g class="stroked-text"><desc>7.0000 mm</desc>
<path d="M68.2448 115.6905
L68.2448 115.0238
" />
<path d="M68.2448 115.0238
L69.2448 115.4524
" />
<path d="M69.1496 114.6429
L69.1972 114.5952
" />
<path d="M69.1972 114.5952
L69.2448 114.6429
" />
<path d="M69.2448 114.6429
L69.1972 114.6905
" />
<path d="M69.1972 114.6905
L69.1496 114.6429
" />
<path d="M69.1496 114.6429
L69.2448 114.6429
" />
<path d="M68.2448 113.9762
L68.2448 113.8810
" />
<path d="M68.2448 113.8810
L68.2924 113.7857
" />
<path d="M68.2924 113.7857
L68.3401 113.7381
" />
<path d="M68.3401 113.7381
L68.4353 113.6905
" />
<path d="M68.4353 113.6905
L68.6258 113.6429
" />
<path d="M68.6258 113.6429
L68.8639 113.6429
" />
<path d="M68.8639 113.6429
L69.0543 113.6905
" />
<path d="M69.0543 113.6905
L69.1496 113.7381
" />
<path d="M69.1496 113.7381
L69.1972 113.7857
" />
<path d="M69.1972 113.7857
L69.2448 113.8810
" />
<path d="M69.2448 113.8810
L69.2448 113.9762
" />
<path d="M69.2448 113.9762
L69.1972 114.0714
" />
<path d="M69.1972 114.0714
L69.1496 114.1190
" />
<path d="M69.1496 114.1190
L69.0543 114.1667
" />
<path d="M69.0543 114.1667
L68.8639 114.2143
" />
<path d="M68.8639 114.2143
L68.6258 114.2143
" />
<path d="M68.6258 114.2143
L68.4353 114.1667
" />
<path d="M68.4353 114.1667
L68.3401 114.1190
" />
<path d="M68.3401 114.1190
L68.2924 114.0714
" />
<path d="M68.2924 114.0714
L68.2448 113.9762
" />
<path d="M68.2448 113.0238
L68.2448 112.9286
" />
<path d="M68.2448 112.9286
L68.2924 112.8333
" />
<path d="M68.2924 112.8333
L68.3401 112.7857
" />
<path d="M68.3401 112.7857
L68.4353 112.7381
" />
<path d="M68.4353 112.7381
L68.6258 112.6905
" />
<path d="M68.6258 112.6905
L68.8639 112.6905
" />
<path d="M68.8639 112.6905
L69.0543 112.7381
" />
<path d="M69.0543 112.7381
L69.1496 112.7857
" />
<path d="M69.1496 112.7857
L69.1972 112.8333
" />
<path d="M69.1972 112.8333
L69.2448 112.9286
" />
<path d="M69.2448 112.9286
L69.2448 113.0238
" />
<path d="M69.2448 113.0238
L69.1972 113.1190
" />
<path d="M69.1972 113.1190
L69.1496 113.1667
" />
<path d="M69.1496 113.1667
L69.0543 113.2143
" />
<path d="M69.0543 113.2143
L68.8639 113.2619
" />
<path d="M68.8639 113.2619
L68.6258 113.2619
" />
<path d="M68.6258 113.2619
L68.4353 113.2143
" />
<path d="M68.4353 113.2143
L68.3401 113.1667
" />
<path d="M68.3401 113.1667
L68.2924 113.1190
" />
<path d="M68.2924 113.1190
L68.2448 113.0238
" />
<path d="M68.2448 112.0714
L68.2448 111.9762
" />
<path d="M68.2448 111.9762
L68.2924 111.8810
" />
<path d="M68.2924 111.8810
L68.3401 111.8333
" />
<path d="M68.3401 111.8333
L68.4353 111.7857
" />
<path d="M68.4353 111.7857
L68.6258 111.7381
" />
<path d="M68.6258 111.7381
L68.8639 111.7381
" />
<path d="M68.8639 111.7381
L69.0543 111.7857
" />
<path d="M69.0543 111.7857
L69.1496 111.8333
" />
<path d="M69.1496 111.8333
L69.1972 111.8810
" />
<path d="M69.1972 111.8810
L69.2448 111.9762
" />
<path d="M69.2448 111.9762
L69.2448 112.0714
" />
<path d="M69.2448 112.0714
L69.1972 112.1667
" />
<path d="M69.1972 112.1667
L69.1496 112.2143
" />
<path d="M69.1496 112.2143
L69.0543 112.2619
" />
<path d="M69.0543 112.2619
L68.8639 112.3095
" />
<path d="M68.8639 112.3095
L68.6258 112.3095
" />
<path d="M68.6258 112.3095
L68.4353 112.2619
" />
<path d="M68.4353 112.2619
L68.3401 112.2143
" />
<path d="M68.3401 112.2143
L68.2924 112.1667
" />
<path d="M68.2924 112.1667
L68.2448 112.0714
" />
<path d="M68.2448 111.1190
L68.2448 111.0238
" />
<path d="M68.2448 111.0238
L68.2924 110.9286
" />
<path d="M68.2924 110.9286
L68.3401 110.8810
" />
<path d="M68.3401 110.8810
L68.4353 110.8333
" />
<path d="M68.4353 110.8333
L68.6258 110.7857
" />
<path d="M68.6258 110.7857
L68.8639 110.7857
" />
<path d="M68.8639 110.7857
L69.0543 110.8333
" />
<path d="M69.0543 110.8333
L69.1496 110.8810
" />
<path d="M69.1496 110.8810
L69.1972 110.9286
" />
<path d="M69.1972 110.9286
L69.2448 111.0238
" />
<path d="M69.2448 111.0238
L69.2448 111.1190
" />
<path d="M69.2448 111.1190
L69.1972 111.2143
" />
<path d="M69.1972 111.2143
L69.1496 111.2619
" />
<path d="M69.1496 111.2619
L69.0543 111.3095
" />
<path d="M69.0543 111.3095
L68.8639 111.3571
" />
<path d="M68.8639 111.3571
L68.6258 111.3571
" />
<path d="M68.6258 111.3571
L68.4353 111.3095
" />
<path d="M68.4353 111.3095
L68.3401 111.2619
" />
<path d="M68.3401 111.2619
L68.2924 111.2143
" />
<path d="M68.2924 111.2143
L68.2448 111.1190
" />
<path d="M69.2448 109.5952
L68.5782 109.5952
" />
<path d="M68.6734 109.5952
L68.6258 109.5476
" />
<path d="M68.6258 109.5476
L68.5782 109.4524
" />
<path d="M68.5782 109.4524
L68.5782 109.3095
" />
<path d="M68.5782 109.3095
L68.6258 109.2143
" />
<path d="M68.6258 109.2143
L68.7210 109.1667
" />
<path d="M68.7210 109.1667
L69.2448 109.1667
" />
<path d="M68.7210 109.1667
L68.6258 109.1190
" />
<path d="M68.6258 109.1190
L68.5782 109.0238
" />
<path d="M68.5782 109.0238
L68.5782 108.8810
" />
<path d="M68.5782 108.8810
L68.6258 108.7857
" />
<path d="M68.6258 108.7857
L68.7210 108.7381
" />
<path d="M68.7210 108.7381
L69.2448 108.7381
" />
<path d="M69.2448 108.2619
L68.5782 108.2619
" />
<path d="M68.6734 108.2619
L68.6258 108.2143
" />
<path d="M68.6258 108.2143
L68.5782 108.1190
" />
<path d="M68.5782 108.1190
L68.5782 107.9762
" />
<path d="M68.5782 107.9762
L68.6258 107.8810
" />
<path d="M68.6258 107.8810
L68.7210 107.8333
" />
<path d="M68.7210 107.8333
L69.2448 107.8333
" />
<path d="M68.7210 107.8333
L68.6258 107.7857
" />
<path d="M68.6258 107.7857
L68.5782 107.6905
" />
<path d="M68.5782 107.6905
L68.5782 107.5476
" />
<path d="M68.5782 107.5476
L68.6258 107.4524
" />
<path d="M68.6258 107.4524
L68.7210 107.4048
" />
<path d="M68.7210 107.4048
L69.2448 107.4048
" />
</g></g>
<g style="fill:none; 
stroke:#000000; stroke-width:0.1000; stroke-opacity:1; 
stroke-linecap:round; stroke-linejoin:round;">
<path d="M76.7000 108.0000
L69.3536 108.0000
" />
<path d="M76.7000 115.0000
L69.3536 115.0000
" />
<path d="M69.9400 108.0000
L69.9400 115.0000
" />
<path d="M69.9400 108.0000
L69.9400 115.0000
" />
<path d="M69.9400 108.0000
L70.5264 109.1265
" />
<path d="M69.9400 108.0000
L69.3536 109.1265
" />
<path d="M69.9400 115.0000
L69.3536 113.8735
" />
<path d="M69.9400 115.0000
L70.5264 113.8735
" />
</g>
<g style="fill:none; 
stroke:#000000; stroke-width:0.1500; stroke-opacity:1; 
stroke-linecap:round; stroke-linejoin:round;">
<g transform="rotate(-90.000000 63.5000 67.4750)">
<text x="63.5000" y="67.9750"
textLength="9.8690" font-size="1.3333" lengthAdjust="spacingAndGlyphs"
text-anchor="middle" opacity="0">16.9500 mm</text>
</g>
<g class="stroked-text"><desc>16.9500 mm</desc>
<path d="M63.9548 71.5226
L63.9548 72.0940
" />
<path d="M63.9548 71.8083
L62.9548 71.8083
" />
<path d="M62.9548 71.8083
L63.0977 71.9036
" />
<path d="M63.0977 71.9036
L63.1929 71.9988
" />
<path d="M63.1929 71.9988
L63.2405 72.0940
" />
<path d="M62.9548 70.6655
L62.9548 70.8560
" />
<path d="M62.9548 70.8560
L63.0024 70.9512
" />
<path d="M63.0024 70.9512
L63.0501 70.9988
" />
<path d="M63.0501 70.9988
L63.1929 71.0940
" />
<path d="M63.1929 71.0940
L63.3834 71.1417
" />
<path d="M63.3834 71.1417
L63.7643 71.1417
" />
<path d="M63.7643 71.1417
L63.8596 71.0940
" />
<path d="M63.8596 71.0940
L63.9072 71.0464
" />
<path d="M63.9072 71.0464
L63.9548 70.9512
" />
<path d="M63.9548 70.9512
L63.9548 70.7607
" />
<path d="M63.9548 70.7607
L63.9072 70.6655
" />
<path d="M63.9072 70.6655
L63.8596 70.6179
" />
<path d="M63.8596 70.6179
L63.7643 70.5702
" />
<path d="M63.7643 70.5702
L63.5262 70.5702
" />
<path d="M63.5262 70.5702
L63.4310 70.6179
" />
<path d="M63.4310 70.6179
L63.3834 70.6655
" />
<path d="M63.3834 70.6655
L63.3358 70.7607
" />
<path d="M63.3358 70.7607
L63.3358 70.9512
" />
<path d="M63.3358 70.9512
L63.3834 71.0464
" />
<path d="M63.3834 71.0464
L63.4310 71.0940
" />
<path d="M63.4310 71.0940
L63.5262 71.1417
" />
<path d="M63.8596 70.1417
L63.9072 70.0940
" />
<path d="M63.9072 70.0940
L63.9548 70.1417
" />
<path d="M63.9548 70.1417
L63.9072 70.1893
" />
<path d="M63.9072 70.1893
L63.8596 70.1417
" />
<path d="M63.8596 70.1417
L63.9548 70.1417
" />
<path d="M63.9548 69.6179
L63.9548 69.4274
" />
<path d="M63.9548 69.4274
L63.9072 69.3321
" />
<path d="M63.9072 69.3321
L63.8596 69.2845
" />
<path d="M63.8596 69.2845
L63.7167 69.1893
" />
<path d="M63.7167 69.1893
L63.5262 69.1417
" />
<path d="M63.5262 69.1417
L63.1453 69.1417
" />
<path d="M63.1453 69.1417
L63.0501 69.1893
" />
<path d="M63.0501 69.1893
L63.0024 69.2369
" />
<path d="M63.0024 69.2369
L62.9548 69.3321
" />
<path d="M62.9548 69.3321
L62.9548 69.5226
" />
<path d="M62.9548 69.5226
L63.0024 69.6179
" />
<path d="M63.0024 69.6179
L63.0501 69.6655
" />
<path d="M63.0501 69.6655
L63.1453 69.7131
" />
<path d="M63.1453 69.7131
L63.3834 69.7131
" />
<path d="M63.3834 69.7131
L63.4786 69.6655
" />
<path d="M63.4786 69.6655
L63.5262 69.6179
" />
<path d="M63.5262 69.6179
L63.5739 69.5226
" />
<path d="M63.5739 69.5226
L63.5739 69.3321
" />
<path d="M63.5739 69.3321
L63.5262 69.2369
" />
<path d="M63.5262 69.2369
L63.4786 69.1893
" />
<path d="M63.4786 69.1893
L63.3834 69.1417
" />
<path d="M62.9548 68.2369
L62.9548 68.7131
" />
<path d="M62.9548 68.7131
L63.4310 68.7607
" />
<path d="M63.4310 68.7607
L63.3834 68.7131
" />
<path d="M63.3834 68.7131
L63.3358 68.6179
" />
<path d="M63.3358 68.6179
L63.3358 68.3798
" />
<path d="M63.3358 68.3798
L63.3834 68.2845
" />
<path d="M63.3834 68.2845
L63.4310 68.2369
" />
<path d="M63.4310 68.2369
L63.5262 68.1893
" />
<path d="M63.5262 68.1893
L63.7643 68.1893
" />
<path d="M63.7643 68.1893
L63.8596 68.2369
" />
<path d="M63.8596 68.2369
L63.9072 68.2845
" />
<path d="M63.9072 68.2845
L63.9548 68.3798
" />
<path d="M63.9548 68.3798
L63.9548 68.6179
" />
<path d="M63.9548 68.6179
L63.9072 68.7131
" />
<path d="M63.9072 68.7131
L63.8596 68.7607
" />
<path d="M62.9548 67.5702
L62.9548 67.4750
" />
<path d="M62.9548 67.4750
L63.0024 67.3798
" />
<path d="M63.0024 67.3798
L63.0501 67.3321
" />
<path d="M63.0501 67.3321
L63.1453 67.2845
" />
<path d="M63.1453 67.2845
L63.3358 67.2369
" />
<path d="M63.3358 67.2369
L63.5739 67.2369
" />
<path d="M63.5739 67.2369
L63.7643 67.2845
" />
<path d="M63.7643 67.2845
L63.8596 67.3321
" />
<path d="M63.8596 67.3321
L63.9072 67.3798
" />
<path d="M63.9072 67.3798
L63.9548 67.4750
" />
<path d="M63.9548 67.4750
L63.9548 67.5702
" />
<path d="M63.9548 67.5702
L63.9072 67.6655
" />
<path d="M63.9072 67.6655
L63.8596 67.7131
" />
<path d="M63.8596 67.7131
L63.7643 67.7607
" />
<path d="M63.7643 67.7607
L63.5739 67.8083
" />
<path d="M63.5739 67.8083
L63.3358 67.8083
" />
<path d="M63.3358 67.8083
L63.1453 67.7607
" />
<path d="M63.1453 67.7607
L63.0501 67.7131
" />
<path d="M63.0501 67.7131
L63.0024 67.6655
" />
<path d="M63.0024 67.6655
L62.9548 67.5702
" />
<path d="M62.9548 66.6179
L62.9548 66.5226
" />
<path d="M62.9548 66.5226
L63.0024 66.4274
" />
<path d="M63.0024 66.4274
L63.0501 66.3798
" />
<path d="M63.0501 66.3798
L63.1453 66.3321
" />
<path d="M63.1453 66.3321
L63.3358 66.2845
" />
<path d="M63.3358 66.2845
L63.5739 66.2845
" />
<path d="M63.5739 66.2845
L63.7643 66.3321
" />
<path d="M63.7643 66.3321
L63.8596 66.3798
" />
<path d="M63.8596 66.3798
L63.9072 66.4274
" />
<path d="M63.9072 66.4274
L63.9548 66.5226
" />
<path d="M63.9548 66.5226
L63.9548 66.6179
" />
<path d="M63.9548 66.6179
L63.9072 66.7131
" />
<path d="M63.9072 66.7131
L63.8596 66.7607
" />
<path d="M63.8596 66.7607
L63.7643 66.8083
" />
<path d="M63.7643 66.8083
L63.5739 66.8560
" />
<path d="M63.5739 66.8560
L63.3358 66.8560
" />
<path d="M63.3358 66.8560
L63.1453 66.8083
" />
<path d="M63.1453 66.8083
L63.0501 66.7607
" />
<path d="M63.0501 66.7607
L63.0024 66.7131
" />
<path d="M63.0024 66.7131
L62.9548 66.6179
" />
<path d="M63.9548 65.0940
L63.2882 65.0940
" />
<path d="M63.3834 65.0940
L63.3358 65.0464
" />
<path d="M63.3358 65.0464
L63.2882 64.9512
" />
<path d="M63.2882 64.9512
L63.2882 64.8083
" />
<path d="M63.2882 64.8083
L63.3358 64.7131
" />
<path d="M63.3358 64.7131
L63.4310 64.6655
" />
<path d="M63.4310 64.6655
L63.9548 64.6655
" />
<path d="M63.4310 64.6655
L63.3358 64.6179
" />
<path d="M63.3358 64.6179
L63.2882 64.5226
" />
<path d="M63.2882 64.5226
L63.2882 64.3798
" />
<path d="M63.2882 64.3798
L63.3358 64.2845
" />
<path d="M63.3358 64.2845
L63.4310 64.2369
" />
<path d="M63.4310 64.2369
L63.9548 64.2369
" />
<path d="M63.9548 63.7607
L63.2882 63.7607
" />
<path d="M63.3834 63.7607
L63.3358 63.7131
" />
<path d="M63.3358 63.7131
L63.2882 63.6179
" />
<path d="M63.2882 63.6179
L63.2882 63.4750
" />
<path d="M63.2882 63.4750
L63.3358 63.3798
" />
<path d="M63.3358 63.3798
L63.4310 63.3321
" />
<path d="M63.4310 63.3321
L63.9548 63.3321
" />
<path d="M63.4310 63.3321
L63.3358 63.2845
" />
<path d="M63.3358 63.2845
L63.2882 63.1893
" />
<path d="M63.2882 63.1893
L63.2882 63.0464
" />
<path d="M63.2882 63.0464
L63.3358 62.9512
" />
<path d="M63.3358 62.9512
L63.4310 62.9036
" />
<path d="M63.4310 62.9036
L63.9548 62.9036
" />
</g></g>
<g style="fill:none; 
stroke:#000000; stroke-width:0.1000; stroke-opacity:1; 
stroke-linecap:round; stroke-linejoin:round;">
<path d="M84.2500 75.9500
L64.0636 75.9500
" />
<path d="M84.2500 59.0000
L64.0636 59.0000
" />
<path d="M64.6500 75.9500
L64.6500 59.0000
" />
<path d="M64.6500 75.9500
L64.6500 59.0000
" />
<path d="M64.6500 75.9500
L64.0636 74.8235
" />
<path d="M64.6500 75.9500
L65.2364 74.8235
" />
<path d="M64.6500 59.0000
L65.2364 60.1265
" />
<path d="M64.6500 59.0000
L64.0636 60.1265
" />
</g>
<g style="fill:none; 
stroke:#000000; stroke-width:0.1500; stroke-opacity:1; 
stroke-linecap:round; stroke-linejoin:round;">
<g transform="rotate(-89.966197 166.4993 67.4825)">
<text x="166.4993" y="67.9825"
textLength="9.8690" font-size="1.3333" lengthAdjust="spacingAndGlyphs"
text-anchor="middle" opacity="0">16.9500 mm</text>
</g>
<g class="stroked-text"><desc>16.9500 mm</desc>
<path d="M166.9517 71.5303
L166.9514 72.1018
" />
<path d="M166.9515 71.8161
L165.9515 71.8155
" />
<path d="M165.9515 71.8155
L166.0943 71.9108
" />
<path d="M166.0943 71.9108
L166.1895 72.0061
" />
<path d="M166.1895 72.0061
L166.2371 72.1014
" />
<path d="M165.9522 70.6726
L165.9521 70.8631
" />
<path d="M165.9521 70.8631
L165.9997 70.9584
" />
<path d="M165.9997 70.9584
L166.0473 71.0060
" />
<path d="M166.0473 71.0060
L166.1901 71.1013
" />
<path d="M166.1901 71.1013
L166.3805 71.1491
" />
<path d="M166.3805 71.1491
L166.7615 71.1493
" />
<path d="M166.7615 71.1493
L166.8567 71.1017
" />
<path d="M166.8567 71.1017
L166.9044 71.0541
" />
<path d="M166.9044 71.0541
L166.9521 70.9589
" />
<path d="M166.9521 70.9589
L166.9522 70.7684
" />
<path d="M166.9522 70.7684
L166.9046 70.6732
" />
<path d="M166.9046 70.6732
L166.8570 70.6255
" />
<path d="M166.8570 70.6255
L166.7618 70.5779
" />
<path d="M166.7618 70.5779
L166.5237 70.5777
" />
<path d="M166.5237 70.5777
L166.4284 70.6253
" />
<path d="M166.4284 70.6253
L166.3808 70.6729
" />
<path d="M166.3808 70.6729
L166.3331 70.7681
" />
<path d="M166.3331 70.7681
L166.3330 70.9586
" />
<path d="M166.3330 70.9586
L166.3806 71.0538
" />
<path d="M166.3806 71.0538
L166.4282 71.1015
" />
<path d="M166.4282 71.1015
L166.5234 71.1491
" />
<path d="M166.8573 70.1493
L166.9049 70.1017
" />
<path d="M166.9049 70.1017
L166.9525 70.1494
" />
<path d="M166.9525 70.1494
L166.9049 70.1970
" />
<path d="M166.9049 70.1970
L166.8573 70.1493
" />
<path d="M166.8573 70.1493
L166.9525 70.1494
" />
<path d="M166.9528 69.6256
L166.9530 69.4351
" />
<path d="M166.9530 69.4351
L166.9054 69.3398
" />
<path d="M166.9054 69.3398
L166.8578 69.2922
" />
<path d="M166.8578 69.2922
L166.7150 69.1969
" />
<path d="M166.7150 69.1969
L166.5246 69.1491
" />
<path d="M166.5246 69.1491
L166.1436 69.1489
" />
<path d="M166.1436 69.1489
L166.0483 69.1965
" />
<path d="M166.0483 69.1965
L166.0007 69.2441
" />
<path d="M166.0007 69.2441
L165.9530 69.3393
" />
<path d="M165.9530 69.3393
L165.9529 69.5298
" />
<path d="M165.9529 69.5298
L166.0005 69.6250
" />
<path d="M166.0005 69.6250
L166.0480 69.6727
" />
<path d="M166.0480 69.6727
L166.1433 69.7203
" />
<path d="M166.1433 69.7203
L166.3814 69.7205
" />
<path d="M166.3814 69.7205
L166.4766 69.6729
" />
<path d="M166.4766 69.6729
L166.5243 69.6253
" />
<path d="M166.5243 69.6253
L166.5719 69.5301
" />
<path d="M166.5719 69.5301
L166.5721 69.3396
" />
<path d="M166.5721 69.3396
L166.5245 69.2444
" />
<path d="M166.5245 69.2444
L166.4769 69.1967
" />
<path d="M166.4769 69.1967
L166.3817 69.1491
" />
<path d="M165.9537 68.2440
L165.9534 68.7202
" />
<path d="M165.9534 68.7202
L166.4295 68.7681
" />
<path d="M166.4295 68.7681
L166.3819 68.7205
" />
<path d="M166.3819 68.7205
L166.3344 68.6252
" />
<path d="M166.3344 68.6252
L166.3345 68.3871
" />
<path d="M166.3345 68.3871
L166.3822 68.2919
" />
<path d="M166.3822 68.2919
L166.4298 68.2443
" />
<path d="M166.4298 68.2443
L166.5251 68.1968
" />
<path d="M166.5251 68.1968
L166.7632 68.1969
" />
<path d="M166.7632 68.1969
L166.8584 68.2446
" />
<path d="M166.8584 68.2446
L166.9060 68.2922
" />
<path d="M166.9060 68.2922
L166.9536 68.3875
" />
<path d="M166.9536 68.3875
L166.9534 68.6256
" />
<path d="M166.9534 68.6256
L166.9058 68.7208
" />
<path d="M166.9058 68.7208
L166.8581 68.7684
" />
<path d="M165.9540 67.5774
L165.9541 67.4821
" />
<path d="M165.9541 67.4821
L166.0018 67.3869
" />
<path d="M166.0018 67.3869
L166.0494 67.3393
" />
<path d="M166.0494 67.3393
L166.1447 67.2918
" />
<path d="M166.1447 67.2918
L166.3352 67.2443
" />
<path d="M166.3352 67.2443
L166.5733 67.2444
" />
<path d="M166.5733 67.2444
L166.7637 67.2921
" />
<path d="M166.7637 67.2921
L166.8590 67.3398
" />
<path d="M166.8590 67.3398
L166.9065 67.3875
" />
<path d="M166.9065 67.3875
L166.9541 67.4827
" />
<path d="M166.9541 67.4827
L166.9540 67.5780
" />
<path d="M166.9540 67.5780
L166.9064 67.6732
" />
<path d="M166.9064 67.6732
L166.8587 67.7208
" />
<path d="M166.8587 67.7208
L166.7635 67.7683
" />
<path d="M166.7635 67.7683
L166.5730 67.8158
" />
<path d="M166.5730 67.8158
L166.3349 67.8157
" />
<path d="M166.3349 67.8157
L166.1444 67.7680
" />
<path d="M166.1444 67.7680
L166.0492 67.7203
" />
<path d="M166.0492 67.7203
L166.0016 67.6726
" />
<path d="M166.0016 67.6726
L165.9540 67.5774
" />
<path d="M165.9546 66.6250
L165.9547 66.5298
" />
<path d="M165.9547 66.5298
L166.0023 66.4345
" />
<path d="M166.0023 66.4345
L166.0500 66.3870
" />
<path d="M166.0500 66.3870
L166.1453 66.3394
" />
<path d="M166.1453 66.3394
L166.3358 66.2919
" />
<path d="M166.3358 66.2919
L166.5739 66.2920
" />
<path d="M166.5739 66.2920
L166.7643 66.3398
" />
<path d="M166.7643 66.3398
L166.8595 66.3874
" />
<path d="M166.8595 66.3874
L166.9071 66.4351
" />
<path d="M166.9071 66.4351
L166.9547 66.5303
" />
<path d="M166.9547 66.5303
L166.9546 66.6256
" />
<path d="M166.9546 66.6256
L166.9069 66.7208
" />
<path d="M166.9069 66.7208
L166.8593 66.7684
" />
<path d="M166.8593 66.7684
L166.7640 66.8159
" />
<path d="M166.7640 66.8159
L166.5735 66.8635
" />
<path d="M166.5735 66.8635
L166.3354 66.8633
" />
<path d="M166.3354 66.8633
L166.1450 66.8156
" />
<path d="M166.1450 66.8156
L166.0498 66.7679
" />
<path d="M166.0498 66.7679
L166.0022 66.7203
" />
<path d="M166.0022 66.7203
L165.9546 66.6250
" />
<path d="M166.9555 65.1018
L166.2888 65.1014
" />
<path d="M166.3841 65.1014
L166.3365 65.0538
" />
<path d="M166.3365 65.0538
L166.2889 64.9585
" />
<path d="M166.2889 64.9585
L166.2890 64.8157
" />
<path d="M166.2890 64.8157
L166.3367 64.7205
" />
<path d="M166.3367 64.7205
L166.4320 64.6729
" />
<path d="M166.4320 64.6729
L166.9558 64.6732
" />
<path d="M166.4320 64.6729
L166.3367 64.6252
" />
<path d="M166.3367 64.6252
L166.2892 64.5300
" />
<path d="M166.2892 64.5300
L166.2893 64.3871
" />
<path d="M166.2893 64.3871
L166.3369 64.2919
" />
<path d="M166.3369 64.2919
L166.4322 64.2443
" />
<path d="M166.4322 64.2443
L166.9560 64.2446
" />
<path d="M166.9563 63.7684
L166.2896 63.7680
" />
<path d="M166.3849 63.7681
L166.3373 63.7205
" />
<path d="M166.3373 63.7205
L166.2897 63.6252
" />
<path d="M166.2897 63.6252
L166.2898 63.4823
" />
<path d="M166.2898 63.4823
L166.3375 63.3871
" />
<path d="M166.3375 63.3871
L166.4327 63.3396
" />
<path d="M166.4327 63.3396
L166.9565 63.3399
" />
<path d="M166.4327 63.3396
L166.3375 63.2919
" />
<path d="M166.3375 63.2919
L166.2900 63.1966
" />
<path d="M166.2900 63.1966
L166.2901 63.0538
" />
<path d="M166.2901 63.0538
L166.3377 62.9586
" />
<path d="M166.3377 62.9586
L166.4330 62.9110
" />
<path d="M166.4330 62.9110
L166.9568 62.9113
" />
</g></g>
<g style="fill:none; 
stroke:#000000; stroke-width:0.1000; stroke-opacity:1; 
stroke-linecap:round; stroke-linejoin:round;">
<path d="M154.3500 75.9503
L168.2307 75.9585
" />
<path d="M154.3600 59.0003
L168.2407 59.0085
" />
<path d="M167.6443 75.9581
L167.6543 59.0081
" />
<path d="M167.6443 75.9581
L167.6543 59.0081
" />
<path d="M167.6443 75.9581
L167.0585 74.8313
" />
<path d="M167.6443 75.9581
L168.2314 74.8320
" />
<path d="M167.6543 59.0081
L168.2400 60.1350
" />
<path d="M167.6543 59.0081
L167.0672 60.1343
" />
</g> 
</svg>
