G04 #@! TF.GenerationSoftware,KiCad,Pcbnew,8.0.1*
G04 #@! TF.CreationDate,2024-08-17T14:36:57+08:00*
G04 #@! TF.ProjectId,MatchBox v0.3,4d617463-6842-46f7-9820-76302e332e6b,rev?*
G04 #@! TF.SameCoordinates,Original*
G04 #@! TF.FileFunction,Copper,L1,Top*
G04 #@! TF.FilePolarity,Positive*
%FSLAX46Y46*%
G04 Gerber Fmt 4.6, Leading zero omitted, Abs format (unit mm)*
G04 Created by KiCad (PCBNEW 8.0.1) date 2024-08-17 14:36:57*
%MOMM*%
%LPD*%
G01*
G04 APERTURE LIST*
G04 #@! TA.AperFunction,SMDPad,CuDef*
%ADD10R,1.000000X2.277500*%
G04 #@! TD*
G04 #@! TA.AperFunction,ComponentPad*
%ADD11R,1.700000X1.700000*%
G04 #@! TD*
G04 #@! TA.AperFunction,ComponentPad*
%ADD12O,1.700000X1.700000*%
G04 #@! TD*
G04 #@! TA.AperFunction,ViaPad*
%ADD13C,0.500000*%
G04 #@! TD*
G04 #@! TA.AperFunction,Conductor*
%ADD14C,0.200000*%
G04 #@! TD*
G04 APERTURE END LIST*
D10*
X111800000Y-77588750D03*
D11*
X82475000Y-109100000D03*
D12*
X82475000Y-106560000D03*
X85015000Y-109100000D03*
X85015000Y-106560000D03*
X87555000Y-109100000D03*
X87555000Y-106560000D03*
X90095000Y-109100000D03*
X90095000Y-106560000D03*
X92635000Y-109100000D03*
X92635000Y-106560000D03*
X95175000Y-109100000D03*
X95175000Y-106560000D03*
X97715000Y-109100000D03*
X97715000Y-106560000D03*
X100255000Y-109100000D03*
X100255000Y-106560000D03*
X102795000Y-109100000D03*
X102795000Y-106560000D03*
X105335000Y-109100000D03*
X105335000Y-106560000D03*
X107875000Y-109100000D03*
X107875000Y-106560000D03*
X110415000Y-109100000D03*
X110415000Y-106560000D03*
X112955000Y-109100000D03*
X112955000Y-106560000D03*
X115495000Y-109100000D03*
X115495000Y-106560000D03*
X118035000Y-109100000D03*
X118035000Y-106560000D03*
X120575000Y-109100000D03*
X120575000Y-106560000D03*
X123115000Y-109100000D03*
X123115000Y-106560000D03*
X125655000Y-109100000D03*
X125655000Y-106560000D03*
X128195000Y-109100000D03*
X128195000Y-106560000D03*
X130735000Y-109100000D03*
X130735000Y-106560000D03*
X133275000Y-109100000D03*
X133275000Y-106560000D03*
X135815000Y-109100000D03*
X135815000Y-106560000D03*
X138355000Y-109100000D03*
X138355000Y-106560000D03*
X140895000Y-109100000D03*
X140895000Y-106560000D03*
X143435000Y-109100000D03*
X143435000Y-106560000D03*
X145975000Y-109100000D03*
X145975000Y-106560000D03*
X148515000Y-109100000D03*
X148515000Y-106560000D03*
X151055000Y-109100000D03*
X151055000Y-106560000D03*
X153595000Y-109100000D03*
X153595000Y-106560000D03*
X156135000Y-109100000D03*
X156135000Y-106560000D03*
D10*
X109800000Y-77588750D03*
X115800000Y-77588750D03*
X99800000Y-77588750D03*
X103800000Y-77588750D03*
X144800000Y-77588750D03*
X97800000Y-77588750D03*
D11*
X156135000Y-64700000D03*
D12*
X156135000Y-67240000D03*
X153595000Y-64700000D03*
X153595000Y-67240000D03*
X151055000Y-64700000D03*
X151055000Y-67240000D03*
X148515000Y-64700000D03*
X148515000Y-67240000D03*
X145975000Y-64700000D03*
X145975000Y-67240000D03*
X143435000Y-64700000D03*
X143435000Y-67240000D03*
X140895000Y-64700000D03*
X140895000Y-67240000D03*
X138355000Y-64700000D03*
X138355000Y-67240000D03*
X135815000Y-64700000D03*
X135815000Y-67240000D03*
X133275000Y-64700000D03*
X133275000Y-67240000D03*
X130735000Y-64700000D03*
X130735000Y-67240000D03*
X128195000Y-64700000D03*
X128195000Y-67240000D03*
X125655000Y-64700000D03*
X125655000Y-67240000D03*
X123115000Y-64700000D03*
X123115000Y-67240000D03*
X120575000Y-64700000D03*
X120575000Y-67240000D03*
X118035000Y-64700000D03*
X118035000Y-67240000D03*
X115495000Y-64700000D03*
X115495000Y-67240000D03*
X112955000Y-64700000D03*
X112955000Y-67240000D03*
X110415000Y-64700000D03*
X110415000Y-67240000D03*
X107875000Y-64700000D03*
X107875000Y-67240000D03*
X105335000Y-64700000D03*
X105335000Y-67240000D03*
X102795000Y-64700000D03*
X102795000Y-67240000D03*
X100255000Y-64700000D03*
X100255000Y-67240000D03*
X97715000Y-64700000D03*
X97715000Y-67240000D03*
X95175000Y-64700000D03*
X95175000Y-67240000D03*
X92635000Y-64700000D03*
X92635000Y-67240000D03*
X90095000Y-64700000D03*
X90095000Y-67240000D03*
X87555000Y-64700000D03*
X87555000Y-67240000D03*
X85015000Y-64700000D03*
X85015000Y-67240000D03*
X82475000Y-64700000D03*
X82475000Y-67240000D03*
D10*
X95800000Y-77588750D03*
X91800000Y-77588750D03*
X132800000Y-77588750D03*
X128800000Y-77588750D03*
X93800000Y-77588750D03*
X122800000Y-77588750D03*
X124800000Y-77588750D03*
X146800000Y-77588750D03*
X136800000Y-77588750D03*
X142800000Y-77588750D03*
X134800000Y-77588750D03*
X130800000Y-77588750D03*
X140800000Y-77588750D03*
X113800000Y-77588750D03*
X138800000Y-77588750D03*
X101800000Y-77588750D03*
X105800000Y-77588750D03*
X126800000Y-77588750D03*
X107800000Y-77588750D03*
D13*
X155400000Y-93200000D03*
X150400000Y-92600000D03*
X148515000Y-92200000D03*
X146200000Y-91650000D03*
X144285000Y-91100000D03*
X141745000Y-90650000D03*
X138355000Y-90300000D03*
X135776786Y-89854123D03*
X132386786Y-89254123D03*
X130258654Y-88800000D03*
X128156786Y-88254123D03*
X125661786Y-87954123D03*
X121926786Y-87454123D03*
X136265000Y-82000000D03*
X101600000Y-110000000D03*
D14*
X92100000Y-93300000D02*
X155300000Y-93300000D01*
X155300000Y-93300000D02*
X155400000Y-93200000D01*
X92100000Y-74325000D02*
X85015000Y-67240000D01*
X92100000Y-77588750D02*
X92100000Y-93300000D01*
X92100000Y-77588750D02*
X92100000Y-74325000D01*
X150200000Y-92800000D02*
X94100000Y-92800000D01*
X94100000Y-73785000D02*
X87555000Y-67240000D01*
X94100000Y-92800000D02*
X94100000Y-73785000D01*
X150400000Y-92600000D02*
X150200000Y-92800000D01*
X96100000Y-73245000D02*
X90095000Y-67240000D01*
X148415000Y-92300000D02*
X148515000Y-92200000D01*
X96100000Y-77588750D02*
X96100000Y-92300000D01*
X96100000Y-92300000D02*
X148415000Y-92300000D01*
X96100000Y-77588750D02*
X96100000Y-73245000D01*
X146050000Y-91800000D02*
X98100000Y-91800000D01*
X98100000Y-91800000D02*
X98100000Y-72705000D01*
X98100000Y-72705000D02*
X92635000Y-67240000D01*
X146200000Y-91650000D02*
X146050000Y-91800000D01*
X100150000Y-91350000D02*
X100100000Y-91300000D01*
X144035000Y-91350000D02*
X100150000Y-91350000D01*
X100100000Y-91300000D02*
X100100000Y-72165000D01*
X100100000Y-72165000D02*
X95175000Y-67240000D01*
X144285000Y-91100000D02*
X144035000Y-91350000D01*
X141445000Y-90950000D02*
X102200000Y-90950000D01*
X102100000Y-71625000D02*
X97715000Y-67240000D01*
X102200000Y-90950000D02*
X102100000Y-90850000D01*
X141745000Y-90650000D02*
X141445000Y-90950000D01*
X102100000Y-90850000D02*
X102100000Y-71625000D01*
X138355000Y-90300000D02*
X138105000Y-90550000D01*
X104100000Y-71085000D02*
X100255000Y-67240000D01*
X104150000Y-90550000D02*
X104100000Y-90500000D01*
X138105000Y-90550000D02*
X104150000Y-90550000D01*
X104100000Y-90500000D02*
X104100000Y-71085000D01*
X106100000Y-70545000D02*
X102795000Y-67240000D01*
X135615000Y-90050000D02*
X106100000Y-90050000D01*
X106100000Y-90050000D02*
X106100000Y-70545000D01*
X135815000Y-89850000D02*
X135615000Y-90050000D01*
X108100000Y-70005000D02*
X105335000Y-67240000D01*
X108100000Y-89550000D02*
X108100000Y-70005000D01*
X132425000Y-89250000D02*
X132125000Y-89550000D01*
X132125000Y-89550000D02*
X108100000Y-89550000D01*
X130058654Y-89050000D02*
X110100000Y-89050000D01*
X110100000Y-69465000D02*
X107875000Y-67240000D01*
X130258654Y-88850000D02*
X130058654Y-89050000D01*
X110100000Y-89050000D02*
X110100000Y-69465000D01*
X112100000Y-88650000D02*
X112100000Y-68925000D01*
X112100000Y-68925000D02*
X110415000Y-67240000D01*
X128195000Y-88250000D02*
X127795000Y-88650000D01*
X127795000Y-88650000D02*
X112100000Y-88650000D01*
X114100000Y-68385000D02*
X112955000Y-67240000D01*
X125700000Y-87950000D02*
X125400000Y-88250000D01*
X125400000Y-88250000D02*
X114100000Y-88250000D01*
X114100000Y-88250000D02*
X114100000Y-68385000D01*
X116250000Y-87850000D02*
X116100000Y-87700000D01*
X116100000Y-67845000D02*
X115495000Y-67240000D01*
X116300000Y-87800000D02*
X116250000Y-87850000D01*
X121615000Y-87800000D02*
X116300000Y-87800000D01*
X116100000Y-87700000D02*
X116100000Y-67845000D01*
X121965000Y-87450000D02*
X121615000Y-87800000D01*
X124400000Y-107815000D02*
X123115000Y-109100000D01*
X115495000Y-106560000D02*
X115495000Y-98920000D01*
X115600000Y-98815000D02*
X124400000Y-98815000D01*
X123100000Y-67255000D02*
X123115000Y-67240000D01*
X124400000Y-98815000D02*
X124400000Y-107815000D01*
X123100000Y-77588750D02*
X123100000Y-67255000D01*
X115495000Y-98920000D02*
X115600000Y-98815000D01*
X112955000Y-106560000D02*
X112955000Y-98445000D01*
X112985000Y-98415000D02*
X126400000Y-98415000D01*
X112955000Y-98445000D02*
X112985000Y-98415000D01*
X126805000Y-107950000D02*
X125655000Y-109100000D01*
X125100000Y-67795000D02*
X125655000Y-67240000D01*
X126400000Y-98415000D02*
X126805000Y-98820000D01*
X125100000Y-77588750D02*
X125100000Y-67795000D01*
X126805000Y-98820000D02*
X126805000Y-107950000D01*
X110430000Y-98015000D02*
X129400000Y-98015000D01*
X129400000Y-107895000D02*
X128195000Y-109100000D01*
X127100000Y-77588750D02*
X127100000Y-68335000D01*
X110415000Y-106560000D02*
X110415000Y-98030000D01*
X110415000Y-98030000D02*
X110430000Y-98015000D01*
X127100000Y-68335000D02*
X128195000Y-67240000D01*
X129400000Y-98015000D02*
X129400000Y-107895000D01*
X129100000Y-77588750D02*
X129100000Y-68875000D01*
X132000000Y-107835000D02*
X130735000Y-109100000D01*
X107875000Y-97725000D02*
X107985000Y-97615000D01*
X129100000Y-68875000D02*
X130735000Y-67240000D01*
X107875000Y-106560000D02*
X107875000Y-97725000D01*
X132000000Y-97615000D02*
X132000000Y-107835000D01*
X107985000Y-97615000D02*
X132000000Y-97615000D01*
X105335000Y-97265000D02*
X105385000Y-97215000D01*
X134425000Y-97640000D02*
X134425000Y-107950000D01*
X131100000Y-69415000D02*
X133275000Y-67240000D01*
X134000000Y-97215000D02*
X134425000Y-97640000D01*
X134425000Y-107950000D02*
X133275000Y-109100000D01*
X105335000Y-106560000D02*
X105335000Y-97265000D01*
X131100000Y-77588750D02*
X131100000Y-69415000D01*
X105385000Y-97215000D02*
X134000000Y-97215000D01*
X133100000Y-69955000D02*
X135815000Y-67240000D01*
X133100000Y-77588750D02*
X133100000Y-69955000D01*
X101400000Y-110000000D02*
X101150000Y-110250000D01*
X83715000Y-107800000D02*
X82475000Y-106560000D01*
X102795000Y-97005000D02*
X102985000Y-96815000D01*
X136965000Y-107950000D02*
X135815000Y-109100000D01*
X101600000Y-110000000D02*
X101400000Y-110000000D01*
X96400000Y-108600000D02*
X95600000Y-107800000D01*
X96650000Y-110250000D02*
X96400000Y-110000000D01*
X156135000Y-67240000D02*
X157400000Y-68505000D01*
X102985000Y-96815000D02*
X136400000Y-96815000D01*
X136400000Y-96815000D02*
X136965000Y-97380000D01*
X95600000Y-107800000D02*
X83715000Y-107800000D01*
X102795000Y-106560000D02*
X102795000Y-97005000D01*
X96400000Y-110000000D02*
X96400000Y-108600000D01*
X157400000Y-68505000D02*
X157400000Y-82000000D01*
X157400000Y-82000000D02*
X136265000Y-82000000D01*
X101150000Y-110250000D02*
X96650000Y-110250000D01*
X136965000Y-97380000D02*
X136965000Y-107950000D01*
X139505000Y-96720000D02*
X139505000Y-107950000D01*
X100255000Y-96545000D02*
X100385000Y-96415000D01*
X135100000Y-70495000D02*
X138355000Y-67240000D01*
X139200000Y-96415000D02*
X139505000Y-96720000D01*
X81325000Y-66090000D02*
X81325000Y-64223654D01*
X99105000Y-63550000D02*
X100255000Y-64700000D01*
X100385000Y-96415000D02*
X139200000Y-96415000D01*
X81325000Y-64223654D02*
X81998654Y-63550000D01*
X135100000Y-77588750D02*
X135100000Y-70495000D01*
X82475000Y-67240000D02*
X81325000Y-66090000D01*
X100255000Y-106560000D02*
X100255000Y-96545000D01*
X81998654Y-63550000D02*
X99105000Y-63550000D01*
X139505000Y-107950000D02*
X138355000Y-109100000D01*
X120575000Y-106560000D02*
X121965000Y-107950000D01*
X137100000Y-77588750D02*
X137100000Y-71035000D01*
X121965000Y-109576346D02*
X122638654Y-110250000D01*
X142285000Y-96330000D02*
X142285000Y-107710000D01*
X142285000Y-107710000D02*
X140895000Y-109100000D01*
X97785000Y-96015000D02*
X142600000Y-96015000D01*
X97715000Y-106560000D02*
X97715000Y-96085000D01*
X142600000Y-96015000D02*
X142285000Y-96330000D01*
X122638654Y-110250000D02*
X139745000Y-110250000D01*
X139745000Y-110250000D02*
X140895000Y-109100000D01*
X121965000Y-107950000D02*
X121965000Y-109576346D01*
X137100000Y-71035000D02*
X140895000Y-67240000D01*
X97715000Y-96085000D02*
X97785000Y-96015000D01*
X116885000Y-107710000D02*
X96325000Y-107710000D01*
X144825000Y-95640000D02*
X144825000Y-107710000D01*
X96325000Y-107710000D02*
X95175000Y-106560000D01*
X142285000Y-66090000D02*
X143435000Y-67240000D01*
X95175000Y-106560000D02*
X95175000Y-95625000D01*
X144800000Y-95615000D02*
X144825000Y-95640000D01*
X120575000Y-67240000D02*
X121725000Y-66090000D01*
X139100000Y-77588750D02*
X139100000Y-71575000D01*
X118035000Y-106560000D02*
X116885000Y-107710000D01*
X95185000Y-95615000D02*
X144800000Y-95615000D01*
X139100000Y-71575000D02*
X143435000Y-67240000D01*
X95175000Y-95625000D02*
X95185000Y-95615000D01*
X121725000Y-66090000D02*
X142285000Y-66090000D01*
X144825000Y-107710000D02*
X143435000Y-109100000D01*
X147365000Y-95250000D02*
X147365000Y-107710000D01*
X147365000Y-107710000D02*
X145975000Y-109100000D01*
X82475000Y-64700000D02*
X83625000Y-65850000D01*
X147400000Y-95215000D02*
X147365000Y-95250000D01*
X141100000Y-77588750D02*
X141100000Y-72115000D01*
X92785000Y-95215000D02*
X147400000Y-95215000D01*
X91485000Y-65850000D02*
X92635000Y-64700000D01*
X92635000Y-106560000D02*
X92635000Y-95365000D01*
X83625000Y-65850000D02*
X91485000Y-65850000D01*
X141100000Y-72115000D02*
X145975000Y-67240000D01*
X92635000Y-95365000D02*
X92785000Y-95215000D01*
X149665000Y-95080000D02*
X149665000Y-107950000D01*
X143100000Y-77588750D02*
X143100000Y-72655000D01*
X90095000Y-106560000D02*
X90095000Y-94920000D01*
X143100000Y-72655000D02*
X148515000Y-67240000D01*
X90095000Y-94920000D02*
X90200000Y-94815000D01*
X120575000Y-109100000D02*
X122125000Y-110650000D01*
X146965000Y-110650000D02*
X148515000Y-109100000D01*
X149665000Y-107950000D02*
X148515000Y-109100000D01*
X122125000Y-110650000D02*
X146965000Y-110650000D01*
X90200000Y-94815000D02*
X149400000Y-94815000D01*
X149400000Y-94815000D02*
X149665000Y-95080000D01*
X118035000Y-109100000D02*
X119985000Y-111050000D01*
X152000000Y-94600000D02*
X152205000Y-94805000D01*
X152000000Y-94415000D02*
X152000000Y-94600000D01*
X87555000Y-106560000D02*
X87555000Y-94460000D01*
X119985000Y-111050000D02*
X149105000Y-111050000D01*
X145100000Y-77588750D02*
X145100000Y-73195000D01*
X145100000Y-73195000D02*
X151055000Y-67240000D01*
X87785000Y-94415000D02*
X152000000Y-94415000D01*
X152205000Y-94805000D02*
X152205000Y-107950000D01*
X87740000Y-94460000D02*
X87785000Y-94415000D01*
X152205000Y-107950000D02*
X151055000Y-109100000D01*
X149105000Y-111050000D02*
X151055000Y-109100000D01*
X87555000Y-94460000D02*
X87740000Y-94460000D01*
X85015000Y-94015000D02*
X153985000Y-94015000D01*
X147100000Y-73735000D02*
X153595000Y-67240000D01*
X154745000Y-107950000D02*
X153595000Y-109100000D01*
X154745000Y-94775000D02*
X154745000Y-107950000D01*
X153985000Y-94015000D02*
X154745000Y-94775000D01*
X153595000Y-67240000D02*
X156135000Y-64700000D01*
X147100000Y-77588750D02*
X147100000Y-73735000D01*
X85015000Y-106560000D02*
X85015000Y-94015000D01*
M02*
