<?xml version="1.0" standalone="no"?>
 <!DOCTYPE svg PUBLIC "-//W3C//DTD SVG 1.1//EN" 
 "http://www.w3.org/Graphics/SVG/1.1/DTD/svg11.dtd"> 
<svg
  xmlns:svg="http://www.w3.org/2000/svg"
  xmlns="http://www.w3.org/2000/svg"
  xmlns:xlink="http://www.w3.org/1999/xlink"
  version="1.1"
  width="297.0022mm" height="210.0072mm" viewBox="0.0000 0.0000 297.0022 210.0072">
<title>SVG Image created as MatchBox v0.3-B_Cu.svg date 2024/08/17 16:06:36 </title>
  <desc>Image generated by PCBNEW </desc>
<g style="fill:#000000; fill-opacity:1.0000;stroke:#000000; stroke-opacity:1.0000;
stroke-linecap:round; stroke-linejoin:round;"
 transform="translate(0 0) scale(1 1)">
<path style="fill:#000000; fill-opacity:1.0000; stroke:none;fill-rule:evenodd;"
d="M 83.3250,109.9500
81.6250,109.9500
81.6250,108.2500
83.3250,108.2500
Z" /> 
</g>
<g style="fill:#000000; fill-opacity:1.0000; stroke:none;">
<circle cx="82.4750" cy="106.5600" r="0.8500" /> 
<circle cx="85.0150" cy="109.1000" r="0.8500" /> 
<circle cx="85.0150" cy="106.5600" r="0.8500" /> 
<circle cx="87.5550" cy="109.1000" r="0.8500" /> 
<circle cx="87.5550" cy="106.5600" r="0.8500" /> 
<circle cx="90.0950" cy="109.1000" r="0.8500" /> 
<circle cx="90.0950" cy="106.5600" r="0.8500" /> 
<circle cx="92.6350" cy="109.1000" r="0.8500" /> 
<circle cx="92.6350" cy="106.5600" r="0.8500" /> 
<circle cx="95.1750" cy="109.1000" r="0.8500" /> 
<circle cx="95.1750" cy="106.5600" r="0.8500" /> 
<circle cx="97.7150" cy="109.1000" r="0.8500" /> 
<circle cx="97.7150" cy="106.5600" r="0.8500" /> 
<circle cx="100.2550" cy="109.1000" r="0.8500" /> 
<circle cx="100.2550" cy="106.5600" r="0.8500" /> 
<circle cx="102.7950" cy="109.1000" r="0.8500" /> 
<circle cx="102.7950" cy="106.5600" r="0.8500" /> 
<circle cx="105.3350" cy="109.1000" r="0.8500" /> 
<circle cx="105.3350" cy="106.5600" r="0.8500" /> 
<circle cx="107.8750" cy="109.1000" r="0.8500" /> 
<circle cx="107.8750" cy="106.5600" r="0.8500" /> 
<circle cx="110.4150" cy="109.1000" r="0.8500" /> 
<circle cx="110.4150" cy="106.5600" r="0.8500" /> 
<circle cx="112.9550" cy="109.1000" r="0.8500" /> 
<circle cx="112.9550" cy="106.5600" r="0.8500" /> 
<circle cx="115.4950" cy="109.1000" r="0.8500" /> 
<circle cx="115.4950" cy="106.5600" r="0.8500" /> 
<circle cx="118.0350" cy="109.1000" r="0.8500" /> 
<circle cx="118.0350" cy="106.5600" r="0.8500" /> 
<circle cx="120.5750" cy="109.1000" r="0.8500" /> 
<circle cx="120.5750" cy="106.5600" r="0.8500" /> 
<circle cx="123.1150" cy="109.1000" r="0.8500" /> 
<circle cx="123.1150" cy="106.5600" r="0.8500" /> 
<circle cx="125.6550" cy="109.1000" r="0.8500" /> 
<circle cx="125.6550" cy="106.5600" r="0.8500" /> 
<circle cx="128.1950" cy="109.1000" r="0.8500" /> 
<circle cx="128.1950" cy="106.5600" r="0.8500" /> 
<circle cx="130.7350" cy="109.1000" r="0.8500" /> 
<circle cx="130.7350" cy="106.5600" r="0.8500" /> 
<circle cx="133.2750" cy="109.1000" r="0.8500" /> 
<circle cx="133.2750" cy="106.5600" r="0.8500" /> 
<circle cx="135.8150" cy="109.1000" r="0.8500" /> 
<circle cx="135.8150" cy="106.5600" r="0.8500" /> 
<circle cx="138.3550" cy="109.1000" r="0.8500" /> 
<circle cx="138.3550" cy="106.5600" r="0.8500" /> 
<circle cx="140.8950" cy="109.1000" r="0.8500" /> 
<circle cx="140.8950" cy="106.5600" r="0.8500" /> 
<circle cx="143.4350" cy="109.1000" r="0.8500" /> 
<circle cx="143.4350" cy="106.5600" r="0.8500" /> 
<circle cx="145.9750" cy="109.1000" r="0.8500" /> 
<circle cx="145.9750" cy="106.5600" r="0.8500" /> 
<circle cx="148.5150" cy="109.1000" r="0.8500" /> 
<circle cx="148.5150" cy="106.5600" r="0.8500" /> 
<circle cx="151.0550" cy="109.1000" r="0.8500" /> 
<circle cx="151.0550" cy="106.5600" r="0.8500" /> 
<circle cx="153.5950" cy="109.1000" r="0.8500" /> 
<circle cx="153.5950" cy="106.5600" r="0.8500" /> 
<circle cx="156.1350" cy="109.1000" r="0.8500" /> 
<circle cx="156.1350" cy="106.5600" r="0.8500" /> 
<path style="fill:#000000; fill-opacity:1.0000; stroke:none;fill-rule:evenodd;"
d="M 155.2850,63.8500
156.9850,63.8500
156.9850,65.5500
155.2850,65.5500
Z" /> 
<circle cx="156.1350" cy="67.2400" r="0.8500" /> 
<circle cx="153.5950" cy="64.7000" r="0.8500" /> 
<circle cx="153.5950" cy="67.2400" r="0.8500" /> 
<circle cx="151.0550" cy="64.7000" r="0.8500" /> 
<circle cx="151.0550" cy="67.2400" r="0.8500" /> 
<circle cx="148.5150" cy="64.7000" r="0.8500" /> 
<circle cx="148.5150" cy="67.2400" r="0.8500" /> 
<circle cx="145.9750" cy="64.7000" r="0.8500" /> 
<circle cx="145.9750" cy="67.2400" r="0.8500" /> 
<circle cx="143.4350" cy="64.7000" r="0.8500" /> 
<circle cx="143.4350" cy="67.2400" r="0.8500" /> 
<circle cx="140.8950" cy="64.7000" r="0.8500" /> 
<circle cx="140.8950" cy="67.2400" r="0.8500" /> 
<circle cx="138.3550" cy="64.7000" r="0.8500" /> 
<circle cx="138.3550" cy="67.2400" r="0.8500" /> 
<circle cx="135.8150" cy="64.7000" r="0.8500" /> 
<circle cx="135.8150" cy="67.2400" r="0.8500" /> 
<circle cx="133.2750" cy="64.7000" r="0.8500" /> 
<circle cx="133.2750" cy="67.2400" r="0.8500" /> 
<circle cx="130.7350" cy="64.7000" r="0.8500" /> 
<circle cx="130.7350" cy="67.2400" r="0.8500" /> 
<circle cx="128.1950" cy="64.7000" r="0.8500" /> 
<circle cx="128.1950" cy="67.2400" r="0.8500" /> 
<circle cx="125.6550" cy="64.7000" r="0.8500" /> 
<circle cx="125.6550" cy="67.2400" r="0.8500" /> 
<circle cx="123.1150" cy="64.7000" r="0.8500" /> 
<circle cx="123.1150" cy="67.2400" r="0.8500" /> 
<circle cx="120.5750" cy="64.7000" r="0.8500" /> 
<circle cx="120.5750" cy="67.2400" r="0.8500" /> 
<circle cx="118.0350" cy="64.7000" r="0.8500" /> 
<circle cx="118.0350" cy="67.2400" r="0.8500" /> 
<circle cx="115.4950" cy="64.7000" r="0.8500" /> 
<circle cx="115.4950" cy="67.2400" r="0.8500" /> 
<circle cx="112.9550" cy="64.7000" r="0.8500" /> 
<circle cx="112.9550" cy="67.2400" r="0.8500" /> 
<circle cx="110.4150" cy="64.7000" r="0.8500" /> 
<circle cx="110.4150" cy="67.2400" r="0.8500" /> 
<circle cx="107.8750" cy="64.7000" r="0.8500" /> 
<circle cx="107.8750" cy="67.2400" r="0.8500" /> 
<circle cx="105.3350" cy="64.7000" r="0.8500" /> 
<circle cx="105.3350" cy="67.2400" r="0.8500" /> 
<circle cx="102.7950" cy="64.7000" r="0.8500" /> 
<circle cx="102.7950" cy="67.2400" r="0.8500" /> 
<circle cx="100.2550" cy="64.7000" r="0.8500" /> 
<circle cx="100.2550" cy="67.2400" r="0.8500" /> 
<circle cx="97.7150" cy="64.7000" r="0.8500" /> 
<circle cx="97.7150" cy="67.2400" r="0.8500" /> 
<circle cx="95.1750" cy="64.7000" r="0.8500" /> 
<circle cx="95.1750" cy="67.2400" r="0.8500" /> 
<circle cx="92.6350" cy="64.7000" r="0.8500" /> 
<circle cx="92.6350" cy="67.2400" r="0.8500" /> 
<circle cx="90.0950" cy="64.7000" r="0.8500" /> 
<circle cx="90.0950" cy="67.2400" r="0.8500" /> 
<circle cx="87.5550" cy="64.7000" r="0.8500" /> 
<circle cx="87.5550" cy="67.2400" r="0.8500" /> 
<circle cx="85.0150" cy="64.7000" r="0.8500" /> 
<circle cx="85.0150" cy="67.2400" r="0.8500" /> 
<circle cx="82.4750" cy="64.7000" r="0.8500" /> 
<circle cx="82.4750" cy="67.2400" r="0.8500" /> 
<circle cx="155.4000" cy="93.2000" r="0.2500" /> 
</g>
<g style="fill:#000000; fill-opacity:1.0000; stroke:none;">
<circle cx="150.4000" cy="92.6000" r="0.2500" /> 
</g>
<g style="fill:#000000; fill-opacity:1.0000; stroke:none;">
<circle cx="148.5150" cy="92.2000" r="0.2500" /> 
</g>
<g style="fill:#000000; fill-opacity:1.0000; stroke:none;">
<circle cx="146.2000" cy="91.6500" r="0.2500" /> 
</g>
<g style="fill:#000000; fill-opacity:1.0000; stroke:none;">
<circle cx="144.2850" cy="91.1000" r="0.2500" /> 
</g>
<g style="fill:#000000; fill-opacity:1.0000; stroke:none;">
<circle cx="141.7450" cy="90.6500" r="0.2500" /> 
</g>
<g style="fill:#000000; fill-opacity:1.0000; stroke:none;">
<circle cx="138.3550" cy="90.3000" r="0.2500" /> 
</g>
<g style="fill:#000000; fill-opacity:1.0000; stroke:none;">
<circle cx="135.7768" cy="89.8541" r="0.2500" /> 
</g>
<g style="fill:#000000; fill-opacity:1.0000; stroke:none;">
<circle cx="132.3868" cy="89.2541" r="0.2500" /> 
</g>
<g style="fill:#000000; fill-opacity:1.0000; stroke:none;">
<circle cx="130.2587" cy="88.8000" r="0.2500" /> 
</g>
<g style="fill:#000000; fill-opacity:1.0000; stroke:none;">
<circle cx="128.1568" cy="88.2541" r="0.2500" /> 
</g>
<g style="fill:#000000; fill-opacity:1.0000; stroke:none;">
<circle cx="125.6618" cy="87.9541" r="0.2500" /> 
</g>
<g style="fill:#000000; fill-opacity:1.0000; stroke:none;">
<circle cx="121.9268" cy="87.4541" r="0.2500" /> 
</g>
<g style="fill:#000000; fill-opacity:1.0000; stroke:none;">
<circle cx="136.2650" cy="82.0000" r="0.2500" /> 
</g>
<g style="fill:#000000; fill-opacity:1.0000; stroke:none;">
<circle cx="101.6000" cy="110.0000" r="0.2500" /> 
</g>
<g style="fill:none; 
stroke:#000000; stroke-width:0.2000; stroke-opacity:1; 
stroke-linecap:round; stroke-linejoin:round;">
<path d="M152.4000 67.6713
L152.4000 65.8950
" />
<path d="M85.0150 72.2000
L87.1550 74.3400
" />
<path d="M86.1650 80.1763
L86.1650 107.9500
" />
<path d="M85.0150 67.2400
L85.0150 72.2000
" />
<path d="M155.4000 93.2000
L156.3500 93.2000
" />
<path d="M152.4000 65.8950
L153.5950 64.7000
" />
<path d="M86.1650 107.9500
L85.0150 109.1000
" />
<path d="M156.3500 103.8050
L156.3500 93.2000
" />
<path d="M87.1550 79.1863
L86.1650 80.1763
" />
<path d="M156.3500 71.6213
L152.4000 67.6713
" />
<path d="M156.3500 93.2000
L156.3500 71.6213
" />
<path d="M87.1550 74.3400
L87.1550 79.1863
" />
<path d="M153.5950 106.5600
L156.3500 103.8050
" />
<path d="M149.9050 65.8500
L151.0550 64.7000
" />
<path d="M87.5550 67.2400
L88.7050 68.3900
" />
<path d="M149.9050 67.7163
L149.9050 65.8500
" />
<path d="M151.0550 68.8663
L149.9050 67.7163
" />
<path d="M88.7050 68.3900
L88.7050 107.9500
" />
<path d="M151.0550 92.6000
L151.0550 68.8663
" />
<path d="M88.7050 107.9500
L87.5550 109.1000
" />
<path d="M150.4000 92.6000
L151.0550 92.6000
" />
<path d="M151.0550 106.5600
L151.0550 92.8000
" />
<path d="M151.0550 92.8000
L151.0550 92.6000
" />
<path d="M147.3650 65.8500
L148.5150 64.7000
" />
<path d="M148.5150 68.8663
L147.3650 67.7163
" />
<path d="M90.0950 67.2400
L91.2450 68.3900
" />
<path d="M91.2450 68.3900
L91.2450 107.9500
" />
<path d="M148.5150 92.2000
L148.5150 68.8663
" />
<path d="M91.2450 107.9500
L90.0950 109.1000
" />
<path d="M147.3650 67.7163
L147.3650 65.8500
" />
<path d="M148.5150 106.5600
L148.5150 92.2000
" />
<path d="M93.7850 107.9500
L92.6350 109.1000
" />
<path d="M145.9750 106.5600
L146.2000 106.3350
" />
<path d="M94.7000 69.3050
L94.7000 105.1687
" />
<path d="M93.7850 106.0837
L93.7850 107.9500
" />
<path d="M146.2000 69.4393
L144.8250 68.0643
" />
<path d="M144.8250 68.0643
L144.8250 65.8500
" />
<path d="M144.8250 65.8500
L145.9750 64.7000
" />
<path d="M94.7000 105.1687
L93.7850 106.0837
" />
<path d="M92.6350 67.2400
L94.7000 69.3050
" />
<path d="M146.2000 106.3350
L146.2000 69.4393
" />
<path d="M142.2850 65.8500
L143.4350 64.7000
" />
<path d="M96.3250 107.9500
L95.1750 109.1000
" />
<path d="M95.1750 67.2400
L96.7000 68.7650
" />
<path d="M96.7000 68.7650
L96.7000 105.7087
" />
<path d="M142.2850 67.7163
L142.2850 65.8500
" />
<path d="M143.4350 106.5600
L144.2850 105.7100
" />
<path d="M96.7000 105.7087
L96.3250 106.0837
" />
<path d="M144.2850 105.7100
L144.2850 69.7163
" />
<path d="M144.2850 69.7163
L142.2850 67.7163
" />
<path d="M96.3250 106.0837
L96.3250 107.9500
" />
<path d="M141.7450 69.7450
L139.7450 67.7450
" />
<path d="M98.8650 107.9500
L97.7150 109.1000
" />
<path d="M140.8950 106.5600
L141.7450 105.7100
" />
<path d="M139.7450 65.8500
L140.8950 64.7000
" />
<path d="M98.8650 68.3900
L98.8650 107.9500
" />
<path d="M141.7450 105.7100
L141.7450 69.7450
" />
<path d="M97.7150 67.2400
L98.8650 68.3900
" />
<path d="M139.7450 67.7450
L139.7450 65.8500
" />
<path d="M100.2550 67.2400
L102.7000 69.6850
" />
<path d="M101.5550 107.8000
L100.2550 109.1000
" />
<path d="M137.2050 67.9563
L137.2050 65.8500
" />
<path d="M137.2050 65.8500
L138.3550 64.7000
" />
<path d="M138.3550 69.1063
L137.2050 67.9563
" />
<path d="M101.5550 105.9837
L101.5550 107.8000
" />
<path d="M102.7000 69.6850
L102.7000 104.8387
" />
<path d="M138.3550 106.5600
L138.3550 69.1063
" />
<path d="M102.7000 104.8387
L101.5550 105.9837
" />
<path d="M135.8150 64.7000
L134.6650 65.8500
" />
<path d="M103.5000 105.6387
L103.9450 106.0837
" />
<path d="M135.6000 81.7000
L135.6000 82.4350
" />
<path d="M103.9450 107.9500
L102.7950 109.1000
" />
<path d="M135.8150 81.4850
L135.6000 81.7000
" />
<path d="M103.9450 106.0837
L103.9450 107.9500
" />
<path d="M135.6000 82.4350
L135.8150 82.6500
" />
<path d="M102.7950 67.2400
L103.5000 67.9450
" />
<path d="M134.6650 65.8500
L134.6650 67.7163
" />
<path d="M103.5000 67.9450
L103.5000 105.6387
" />
<path d="M135.8150 82.6500
L135.8150 106.5600
" />
<path d="M135.8150 68.8663
L135.8150 81.4850
" />
<path d="M134.6650 67.7163
L135.8150 68.8663
" />
<path d="M132.1250 67.7163
L132.1250 65.8500
" />
<path d="M106.7000 68.6050
L106.7000 107.7350
" />
<path d="M132.1250 65.8500
L133.2750 64.7000
" />
<path d="M132.4250 68.0163
L132.1250 67.7163
" />
<path d="M105.3350 67.2400
L106.7000 68.6050
" />
<path d="M132.4250 105.7100
L132.4250 68.0163
" />
<path d="M106.7000 107.7350
L105.3350 109.1000
" />
<path d="M133.2750 106.5600
L132.4250 105.7100
" />
<path d="M130.7350 106.5600
L130.2587 106.0837
" />
<path d="M109.1250 107.8500
L107.8750 109.1000
" />
<path d="M107.8750 67.2400
L109.1250 68.4900
" />
<path d="M129.5850 65.8500
L130.7350 64.7000
" />
<path d="M130.2587 68.3900
L129.5850 67.7163
" />
<path d="M130.2587 106.0837
L130.2587 68.3900
" />
<path d="M109.1250 68.4900
L109.1250 107.8500
" />
<path d="M129.5850 67.7163
L129.5850 65.8500
" />
<path d="M111.5650 106.0837
L111.5650 107.9500
" />
<path d="M111.5650 107.9500
L110.4150 109.1000
" />
<path d="M112.7000 69.5250
L112.7000 104.9487
" />
<path d="M112.7000 104.9487
L111.5650 106.0837
" />
<path d="M128.1950 76.2465
L127.0000 75.0515
" />
<path d="M127.0000 65.8950
L128.1950 64.7000
" />
<path d="M127.0000 75.0515
L127.0000 65.8950
" />
<path d="M110.4150 67.2400
L112.7000 69.5250
" />
<path d="M128.1950 106.5600
L128.1950 76.2465
" />
<path d="M114.1050 107.9500
L112.9550 109.1000
" />
<path d="M125.6550 106.5600
L125.7000 106.5150
" />
<path d="M114.1050 106.0837
L114.1050 107.9500
" />
<path d="M113.5000 105.4787
L114.1050 106.0837
" />
<path d="M113.5000 67.7850
L113.5000 105.4787
" />
<path d="M124.5050 67.9050
L124.5050 65.8500
" />
<path d="M112.9550 67.2400
L113.5000 67.7850
" />
<path d="M125.7000 69.1000
L124.5050 67.9050
" />
<path d="M125.7000 106.5150
L125.7000 69.1000
" />
<path d="M124.5050 65.8500
L125.6550 64.7000
" />
<path d="M116.7000 107.8950
L115.4950 109.1000
" />
<path d="M121.9650 107.7100
L123.1150 106.5600
" />
<path d="M121.9650 65.8500
L123.1150 64.7000
" />
<path d="M116.4087 109.1000
L117.7987 107.7100
" />
<path d="M121.9650 105.4100
L121.9650 65.8500
" />
<path d="M115.4950 109.1000
L116.4087 109.1000
" />
<path d="M117.7987 107.7100
L121.9650 107.7100
" />
<path d="M123.1150 106.5600
L121.9650 105.4100
" />
<path d="M116.7000 68.4450
L116.7000 107.8950
" />
<path d="M115.4950 67.2400
L116.7000 68.4450
" />
<path d="M114.3450 67.7163
L114.3450 65.8500
" />
<path d="M123.1150 67.2400
L124.4000 68.5250
" />
<path d="M115.4950 106.5600
L115.4950 68.8663
" />
<path d="M124.4000 107.8150
L123.1150 109.1000
" />
<path d="M114.3450 65.8500
L115.4950 64.7000
" />
<path d="M124.4000 68.5250
L124.4000 107.8150
" />
<path d="M115.4950 68.8663
L114.3450 67.7163
" />
<path d="M126.5000 105.7787
L127.0000 106.2787
" />
<path d="M127.0000 106.2787
L127.0000 107.7550
" />
<path d="M126.5000 68.0850
L126.5000 105.7787
" />
<path d="M127.0000 107.7550
L125.6550 109.1000
" />
<path d="M111.8050 65.8500
L112.9550 64.7000
" />
<path d="M112.9550 106.5600
L113.1000 106.4150
" />
<path d="M113.1000 106.4150
L113.1000 69.0113
" />
<path d="M125.6550 67.2400
L126.5000 68.0850
" />
<path d="M111.8050 67.7163
L111.8050 65.8500
" />
<path d="M113.1000 69.0113
L111.8050 67.7163
" />
<path d="M109.2650 65.8500
L110.4150 64.7000
" />
<path d="M109.2650 67.8650
L109.2650 65.8500
" />
<path d="M110.4150 106.5600
L111.2650 105.7100
" />
<path d="M129.3450 107.9500
L128.1950 109.1000
" />
<path d="M129.7000 68.7450
L129.7000 105.7287
" />
<path d="M129.3450 106.0837
L129.3450 107.9500
" />
<path d="M129.7000 105.7287
L129.3450 106.0837
" />
<path d="M128.1950 67.2400
L129.7000 68.7450
" />
<path d="M111.2650 69.8650
L109.2650 67.8650
" />
<path d="M111.2650 105.7100
L111.2650 69.8650
" />
<path d="M106.7250 65.8500
L107.8750 64.7000
" />
<path d="M107.8750 106.5600
L108.7250 105.7100
" />
<path d="M130.7350 109.1000
L131.8850 107.9500
" />
<path d="M106.7250 67.7163
L106.7250 65.8500
" />
<path d="M131.5500 88.5350
L131.8850 88.2000
" />
<path d="M108.7250 69.7163
L106.7250 67.7163
" />
<path d="M131.8850 90.5350
L131.5500 90.2000
" />
<path d="M131.8850 68.3900
L130.7350 67.2400
" />
<path d="M131.8850 107.9500
L131.8850 90.5350
" />
<path d="M131.8850 88.2000
L131.8850 68.3900
" />
<path d="M131.5500 90.2000
L131.5500 88.5350
" />
<path d="M108.7250 105.7100
L108.7250 69.7163
" />
<path d="M134.4250 107.9500
L133.2750 109.1000
" />
<path d="M104.1850 67.7163
L104.1850 65.8500
" />
<path d="M105.3350 68.8663
L104.1850 67.7163
" />
<path d="M104.1850 65.8500
L105.3350 64.7000
" />
<path d="M105.3350 106.5600
L105.3350 68.8663
" />
<path d="M133.2750 67.2400
L134.4250 68.3900
" />
<path d="M134.4250 68.3900
L134.4250 107.9500
" />
<path d="M101.6000 108.6687
L102.7950 107.4737
" />
<path d="M136.9650 107.9500
L136.9650 106.0837
" />
<path d="M135.8150 109.1000
L136.9650 107.9500
" />
<path d="M136.9650 106.0837
L136.2150 105.3337
" />
<path d="M101.6450 65.8500
L102.7950 64.7000
" />
<path d="M103.1000 106.2550
L103.1000 69.1713
" />
<path d="M136.4000 89.4850
L136.2150 89.3000
" />
<path d="M101.6000 110.0000
L101.6000 108.6687
" />
<path d="M103.1000 69.1713
L101.6450 67.7163
" />
<path d="M102.7950 106.5600
L103.1000 106.2550
" />
<path d="M136.2150 67.6400
L135.8150 67.2400
" />
<path d="M136.4000 90.3500
L136.4000 89.4850
" />
<path d="M102.7950 107.4737
L102.7950 106.5600
" />
<path d="M136.2150 105.3337
L136.2150 90.5350
" />
<path d="M136.2150 90.5350
L136.4000 90.3500
" />
<path d="M101.6450 67.7163
L101.6450 65.8500
" />
<path d="M136.2150 89.3000
L136.2150 67.6400
" />
<path d="M139.9050 110.6500
L156.2113 110.6500
" />
<path d="M138.3550 109.1000
L139.9050 110.6500
" />
<path d="M101.1050 105.7100
L101.1050 69.7163
" />
<path d="M138.3550 67.2400
L139.7000 68.5850
" />
<path d="M139.7000 68.5850
L139.7000 107.7550
" />
<path d="M157.2850 107.7100
L156.1350 106.5600
" />
<path d="M139.7000 107.7550
L138.3550 109.1000
" />
<path d="M101.1050 69.7163
L99.1050 67.7163
" />
<path d="M99.1050 65.8500
L100.2550 64.7000
" />
<path d="M99.1050 67.7163
L99.1050 65.8500
" />
<path d="M156.2113 110.6500
L157.2850 109.5763
" />
<path d="M157.2850 109.5763
L157.2850 107.7100
" />
<path d="M100.2550 106.5600
L101.1050 105.7100
" />
<path d="M142.1450 91.3500
L142.1450 107.8500
" />
<path d="M142.1500 91.3500
L142.4000 91.1000
" />
<path d="M96.5650 68.0643
L96.5650 65.8500
" />
<path d="M97.1000 105.9450
L97.1000 68.5993
" />
<path d="M142.1450 107.8500
L140.8950 109.1000
" />
<path d="M140.8950 67.2400
L142.1450 68.4900
" />
<path d="M97.7150 106.5600
L97.1000 105.9450
" />
<path d="M118.0350 67.2400
L116.6450 65.8500
" />
<path d="M96.5650 65.8500
L97.7150 64.7000
" />
<path d="M116.6450 65.8500
L116.6450 64.2237
" />
<path d="M142.4000 91.1000
L142.4000 90.2050
" />
<path d="M97.1000 68.5993
L96.5650 68.0643
" />
<path d="M115.9713 63.5500
L98.8650 63.5500
" />
<path d="M116.6450 64.2237
L115.9713 63.5500
" />
<path d="M142.1450 91.3500
L142.1500 91.3500
" />
<path d="M142.4000 90.2050
L142.1450 89.9500
" />
<path d="M98.8650 63.5500
L97.7150 64.7000
" />
<path d="M142.1450 68.4900
L142.1450 89.9500
" />
<path d="M145.5500 91.3500
L145.5500 91.9500
" />
<path d="M94.0250 67.7163
L94.0250 65.8500
" />
<path d="M143.4350 67.2400
L145.8000 69.6050
" />
<path d="M145.8000 69.6050
L145.8000 91.1000
" />
<path d="M145.8000 105.0000
L144.5850 106.2150
" />
<path d="M144.5850 107.9500
L143.4350 109.1000
" />
<path d="M95.1750 106.5600
L95.1750 68.8663
" />
<path d="M145.8000 92.2000
L145.8000 105.0000
" />
<path d="M144.5850 106.2150
L144.5850 107.9500
" />
<path d="M95.1750 68.8663
L94.0250 67.7163
" />
<path d="M145.8000 91.1000
L145.5500 91.3500
" />
<path d="M94.0250 65.8500
L95.1750 64.7000
" />
<path d="M145.5500 91.9500
L145.8000 92.2000
" />
<path d="M93.4850 69.7163
L91.4850 67.7163
" />
<path d="M147.7000 104.3000
L147.1250 104.8750
" />
<path d="M91.4850 65.8500
L92.6350 64.7000
" />
<path d="M147.1250 110.2500
L154.9850 110.2500
" />
<path d="M92.6350 106.5600
L93.4850 105.7100
" />
<path d="M91.4850 67.7163
L91.4850 65.8500
" />
<path d="M147.7000 68.9650
L147.7000 104.3000
" />
<path d="M154.9850 110.2500
L156.1350 109.1000
" />
<path d="M147.1250 107.9500
L145.9750 109.1000
" />
<path d="M147.1250 104.8750
L147.1250 107.9500
" />
<path d="M145.9750 109.1000
L147.1250 110.2500
" />
<path d="M93.4850 105.7100
L93.4850 69.7163
" />
<path d="M145.9750 67.2400
L147.7000 68.9650
" />
<path d="M149.6650 107.9500
L148.5150 109.1000
" />
<path d="M148.5150 67.2400
L149.6650 68.3900
" />
<path d="M88.9450 65.8500
L90.0950 64.7000
" />
<path d="M88.9450 67.7163
L88.9450 65.8500
" />
<path d="M149.6650 68.3900
L149.6650 107.9500
" />
<path d="M91.7950 63.0000
L90.0950 64.7000
" />
<path d="M116.3350 63.0000
L91.7950 63.0000
" />
<path d="M90.0950 106.5600
L90.0950 68.8663
" />
<path d="M118.0350 64.7000
L116.3350 63.0000
" />
<path d="M90.0950 68.8663
L88.9450 67.7163
" />
<path d="M151.0550 67.2400
L151.9050 68.0900
" />
<path d="M151.5600 74.8600
L151.5600 77.6350
" />
<path d="M151.5600 77.6350
L151.9050 77.9800
" />
<path d="M152.2050 106.0837
L152.2050 107.9500
" />
<path d="M118.4750 62.6000
L89.6550 62.6000
" />
<path d="M87.5550 106.5600
L87.5550 68.8663
" />
<path d="M151.9050 77.9800
L151.9050 105.7837
" />
<path d="M151.9050 105.7837
L152.2050 106.0837
" />
<path d="M151.9050 74.5150
L151.5600 74.8600
" />
<path d="M120.5750 64.7000
L118.4750 62.6000
" />
<path d="M86.4050 67.7163
L86.4050 65.8500
" />
<path d="M87.5550 68.8663
L86.4050 67.7163
" />
<path d="M151.9050 68.0900
L151.9050 74.5150
" />
<path d="M152.2050 107.9500
L151.0550 109.1000
" />
<path d="M89.6550 62.6000
L87.5550 64.7000
" />
<path d="M86.4050 65.8500
L87.5550 64.7000
" />
<path d="M82.8500 104.3950
L82.8500 77.8500
" />
<path d="M82.4750 109.1000
L85.0150 106.5600
" />
<path d="M82.4000 77.4000
L82.4000 73.4000
" />
<path d="M156.7500 70.3950
L156.7500 104.3187
" />
<path d="M83.8650 71.9350
L83.8650 65.8500
" />
<path d="M82.4000 73.4000
L83.8650 71.9350
" />
<path d="M154.8000 107.8950
L153.5950 109.1000
" />
<path d="M154.8000 106.2687
L154.8000 107.8950
" />
<path d="M153.5950 67.2400
L156.7500 70.3950
" />
<path d="M83.8650 65.8500
L85.0150 64.7000
" />
<path d="M85.0150 106.5600
L82.8500 104.3950
" />
<path d="M156.7500 104.3187
L154.8000 106.2687
" />
<path d="M82.8500 77.8500
L82.4000 77.4000
" />
</g> 
</svg>
