G04 #@! TF.GenerationSoftware,KiCad,Pcbnew,8.0.1*
G04 #@! TF.CreationDate,2024-08-17T14:36:57+08:00*
G04 #@! TF.ProjectId,MatchBox v0.3,4d617463-6842-46f7-9820-76302e332e6b,rev?*
G04 #@! TF.SameCoordinates,Original*
G04 #@! TF.FileFunction,Soldermask,Bot*
G04 #@! TF.FilePolarity,Negative*
%FSLAX46Y46*%
G04 Gerber Fmt 4.6, Leading zero omitted, Abs format (unit mm)*
G04 Created by KiCad (PCBNEW 8.0.1) date 2024-08-17 14:36:57*
%MOMM*%
%LPD*%
G01*
G04 APERTURE LIST*
%ADD10C,3.200000*%
%ADD11R,1.700000X1.700000*%
%ADD12O,1.700000X1.700000*%
%ADD13C,3.700000*%
G04 APERTURE END LIST*
D10*
X77200000Y-108000000D03*
D11*
X82475000Y-109100000D03*
D12*
X82475000Y-106560000D03*
X85015000Y-109100000D03*
X85015000Y-106560000D03*
X87555000Y-109100000D03*
X87555000Y-106560000D03*
X90095000Y-109100000D03*
X90095000Y-106560000D03*
X92635000Y-109100000D03*
X92635000Y-106560000D03*
X95175000Y-109100000D03*
X95175000Y-106560000D03*
X97715000Y-109100000D03*
X97715000Y-106560000D03*
X100255000Y-109100000D03*
X100255000Y-106560000D03*
X102795000Y-109100000D03*
X102795000Y-106560000D03*
X105335000Y-109100000D03*
X105335000Y-106560000D03*
X107875000Y-109100000D03*
X107875000Y-106560000D03*
X110415000Y-109100000D03*
X110415000Y-106560000D03*
X112955000Y-109100000D03*
X112955000Y-106560000D03*
X115495000Y-109100000D03*
X115495000Y-106560000D03*
X118035000Y-109100000D03*
X118035000Y-106560000D03*
X120575000Y-109100000D03*
X120575000Y-106560000D03*
X123115000Y-109100000D03*
X123115000Y-106560000D03*
X125655000Y-109100000D03*
X125655000Y-106560000D03*
X128195000Y-109100000D03*
X128195000Y-106560000D03*
X130735000Y-109100000D03*
X130735000Y-106560000D03*
X133275000Y-109100000D03*
X133275000Y-106560000D03*
X135815000Y-109100000D03*
X135815000Y-106560000D03*
X138355000Y-109100000D03*
X138355000Y-106560000D03*
X140895000Y-109100000D03*
X140895000Y-106560000D03*
X143435000Y-109100000D03*
X143435000Y-106560000D03*
X145975000Y-109100000D03*
X145975000Y-106560000D03*
X148515000Y-109100000D03*
X148515000Y-106560000D03*
X151055000Y-109100000D03*
X151055000Y-106560000D03*
X153595000Y-109100000D03*
X153595000Y-106560000D03*
X156135000Y-109100000D03*
X156135000Y-106560000D03*
D11*
X156135000Y-64700000D03*
D12*
X156135000Y-67240000D03*
X153595000Y-64700000D03*
X153595000Y-67240000D03*
X151055000Y-64700000D03*
X151055000Y-67240000D03*
X148515000Y-64700000D03*
X148515000Y-67240000D03*
X145975000Y-64700000D03*
X145975000Y-67240000D03*
X143435000Y-64700000D03*
X143435000Y-67240000D03*
X140895000Y-64700000D03*
X140895000Y-67240000D03*
X138355000Y-64700000D03*
X138355000Y-67240000D03*
X135815000Y-64700000D03*
X135815000Y-67240000D03*
X133275000Y-64700000D03*
X133275000Y-67240000D03*
X130735000Y-64700000D03*
X130735000Y-67240000D03*
X128195000Y-64700000D03*
X128195000Y-67240000D03*
X125655000Y-64700000D03*
X125655000Y-67240000D03*
X123115000Y-64700000D03*
X123115000Y-67240000D03*
X120575000Y-64700000D03*
X120575000Y-67240000D03*
X118035000Y-64700000D03*
X118035000Y-67240000D03*
X115495000Y-64700000D03*
X115495000Y-67240000D03*
X112955000Y-64700000D03*
X112955000Y-67240000D03*
X110415000Y-64700000D03*
X110415000Y-67240000D03*
X107875000Y-64700000D03*
X107875000Y-67240000D03*
X105335000Y-64700000D03*
X105335000Y-67240000D03*
X102795000Y-64700000D03*
X102795000Y-67240000D03*
X100255000Y-64700000D03*
X100255000Y-67240000D03*
X97715000Y-64700000D03*
X97715000Y-67240000D03*
X95175000Y-64700000D03*
X95175000Y-67240000D03*
X92635000Y-64700000D03*
X92635000Y-67240000D03*
X90095000Y-64700000D03*
X90095000Y-67240000D03*
X87555000Y-64700000D03*
X87555000Y-67240000D03*
X85015000Y-64700000D03*
X85015000Y-67240000D03*
X82475000Y-64700000D03*
X82475000Y-67240000D03*
D10*
X161400000Y-108000000D03*
D13*
X84750000Y-75950000D03*
D10*
X77200000Y-65800000D03*
X161400000Y-65800000D03*
D13*
X153850000Y-75950000D03*
M02*
