G04 #@! TF.GenerationSoftware,KiCad,Pcbnew,8.0.1*
G04 #@! TF.CreationDate,2024-08-17T14:36:57+08:00*
G04 #@! TF.ProjectId,MatchBox v0.3,4d617463-6842-46f7-9820-76302e332e6b,rev?*
G04 #@! TF.SameCoordinates,Original*
G04 #@! TF.FileFunction,Legend,Bot*
G04 #@! TF.FilePolarity,Positive*
%FSLAX46Y46*%
G04 Gerber Fmt 4.6, Leading zero omitted, Abs format (unit mm)*
G04 Created by KiCad (PCBNEW 8.0.1) date 2024-08-17 14:36:57*
%MOMM*%
%LPD*%
G01*
G04 APERTURE LIST*
%ADD10C,0.150000*%
%ADD11C,0.100000*%
%ADD12C,0.000000*%
%ADD13C,3.200000*%
%ADD14R,1.700000X1.700000*%
%ADD15O,1.700000X1.700000*%
%ADD16C,3.700000*%
G04 APERTURE END LIST*
D10*
X103433722Y-78244292D02*
X103433722Y-79244292D01*
X103433722Y-79244292D02*
X103767055Y-78530007D01*
X103767055Y-78530007D02*
X104100388Y-79244292D01*
X104100388Y-79244292D02*
X104100388Y-78244292D01*
X105005150Y-78244292D02*
X105005150Y-78768102D01*
X105005150Y-78768102D02*
X104957531Y-78863340D01*
X104957531Y-78863340D02*
X104862293Y-78910959D01*
X104862293Y-78910959D02*
X104671817Y-78910959D01*
X104671817Y-78910959D02*
X104576579Y-78863340D01*
X105005150Y-78291912D02*
X104909912Y-78244292D01*
X104909912Y-78244292D02*
X104671817Y-78244292D01*
X104671817Y-78244292D02*
X104576579Y-78291912D01*
X104576579Y-78291912D02*
X104528960Y-78387150D01*
X104528960Y-78387150D02*
X104528960Y-78482388D01*
X104528960Y-78482388D02*
X104576579Y-78577626D01*
X104576579Y-78577626D02*
X104671817Y-78625245D01*
X104671817Y-78625245D02*
X104909912Y-78625245D01*
X104909912Y-78625245D02*
X105005150Y-78672864D01*
X105338484Y-78910959D02*
X105719436Y-78910959D01*
X105481341Y-79244292D02*
X105481341Y-78387150D01*
X105481341Y-78387150D02*
X105528960Y-78291912D01*
X105528960Y-78291912D02*
X105624198Y-78244292D01*
X105624198Y-78244292D02*
X105719436Y-78244292D01*
X106481341Y-78291912D02*
X106386103Y-78244292D01*
X106386103Y-78244292D02*
X106195627Y-78244292D01*
X106195627Y-78244292D02*
X106100389Y-78291912D01*
X106100389Y-78291912D02*
X106052770Y-78339531D01*
X106052770Y-78339531D02*
X106005151Y-78434769D01*
X106005151Y-78434769D02*
X106005151Y-78720483D01*
X106005151Y-78720483D02*
X106052770Y-78815721D01*
X106052770Y-78815721D02*
X106100389Y-78863340D01*
X106100389Y-78863340D02*
X106195627Y-78910959D01*
X106195627Y-78910959D02*
X106386103Y-78910959D01*
X106386103Y-78910959D02*
X106481341Y-78863340D01*
X106909913Y-78244292D02*
X106909913Y-79244292D01*
X107338484Y-78244292D02*
X107338484Y-78768102D01*
X107338484Y-78768102D02*
X107290865Y-78863340D01*
X107290865Y-78863340D02*
X107195627Y-78910959D01*
X107195627Y-78910959D02*
X107052770Y-78910959D01*
X107052770Y-78910959D02*
X106957532Y-78863340D01*
X106957532Y-78863340D02*
X106909913Y-78815721D01*
X107814675Y-78244292D02*
X107814675Y-79244292D01*
X107814675Y-78863340D02*
X107909913Y-78910959D01*
X107909913Y-78910959D02*
X108100389Y-78910959D01*
X108100389Y-78910959D02*
X108195627Y-78863340D01*
X108195627Y-78863340D02*
X108243246Y-78815721D01*
X108243246Y-78815721D02*
X108290865Y-78720483D01*
X108290865Y-78720483D02*
X108290865Y-78434769D01*
X108290865Y-78434769D02*
X108243246Y-78339531D01*
X108243246Y-78339531D02*
X108195627Y-78291912D01*
X108195627Y-78291912D02*
X108100389Y-78244292D01*
X108100389Y-78244292D02*
X107909913Y-78244292D01*
X107909913Y-78244292D02*
X107814675Y-78291912D01*
X108862294Y-78244292D02*
X108767056Y-78291912D01*
X108767056Y-78291912D02*
X108719437Y-78339531D01*
X108719437Y-78339531D02*
X108671818Y-78434769D01*
X108671818Y-78434769D02*
X108671818Y-78720483D01*
X108671818Y-78720483D02*
X108719437Y-78815721D01*
X108719437Y-78815721D02*
X108767056Y-78863340D01*
X108767056Y-78863340D02*
X108862294Y-78910959D01*
X108862294Y-78910959D02*
X109005151Y-78910959D01*
X109005151Y-78910959D02*
X109100389Y-78863340D01*
X109100389Y-78863340D02*
X109148008Y-78815721D01*
X109148008Y-78815721D02*
X109195627Y-78720483D01*
X109195627Y-78720483D02*
X109195627Y-78434769D01*
X109195627Y-78434769D02*
X109148008Y-78339531D01*
X109148008Y-78339531D02*
X109100389Y-78291912D01*
X109100389Y-78291912D02*
X109005151Y-78244292D01*
X109005151Y-78244292D02*
X108862294Y-78244292D01*
X109528961Y-78244292D02*
X110052770Y-78910959D01*
X109528961Y-78910959D02*
X110052770Y-78244292D01*
X111100390Y-78910959D02*
X111338485Y-78244292D01*
X111338485Y-78244292D02*
X111576580Y-78910959D01*
X112148009Y-79244292D02*
X112243247Y-79244292D01*
X112243247Y-79244292D02*
X112338485Y-79196673D01*
X112338485Y-79196673D02*
X112386104Y-79149054D01*
X112386104Y-79149054D02*
X112433723Y-79053816D01*
X112433723Y-79053816D02*
X112481342Y-78863340D01*
X112481342Y-78863340D02*
X112481342Y-78625245D01*
X112481342Y-78625245D02*
X112433723Y-78434769D01*
X112433723Y-78434769D02*
X112386104Y-78339531D01*
X112386104Y-78339531D02*
X112338485Y-78291912D01*
X112338485Y-78291912D02*
X112243247Y-78244292D01*
X112243247Y-78244292D02*
X112148009Y-78244292D01*
X112148009Y-78244292D02*
X112052771Y-78291912D01*
X112052771Y-78291912D02*
X112005152Y-78339531D01*
X112005152Y-78339531D02*
X111957533Y-78434769D01*
X111957533Y-78434769D02*
X111909914Y-78625245D01*
X111909914Y-78625245D02*
X111909914Y-78863340D01*
X111909914Y-78863340D02*
X111957533Y-79053816D01*
X111957533Y-79053816D02*
X112005152Y-79149054D01*
X112005152Y-79149054D02*
X112052771Y-79196673D01*
X112052771Y-79196673D02*
X112148009Y-79244292D01*
X112909914Y-78339531D02*
X112957533Y-78291912D01*
X112957533Y-78291912D02*
X112909914Y-78244292D01*
X112909914Y-78244292D02*
X112862295Y-78291912D01*
X112862295Y-78291912D02*
X112909914Y-78339531D01*
X112909914Y-78339531D02*
X112909914Y-78244292D01*
X113290866Y-79244292D02*
X113909913Y-79244292D01*
X113909913Y-79244292D02*
X113576580Y-78863340D01*
X113576580Y-78863340D02*
X113719437Y-78863340D01*
X113719437Y-78863340D02*
X113814675Y-78815721D01*
X113814675Y-78815721D02*
X113862294Y-78768102D01*
X113862294Y-78768102D02*
X113909913Y-78672864D01*
X113909913Y-78672864D02*
X113909913Y-78434769D01*
X113909913Y-78434769D02*
X113862294Y-78339531D01*
X113862294Y-78339531D02*
X113814675Y-78291912D01*
X113814675Y-78291912D02*
X113719437Y-78244292D01*
X113719437Y-78244292D02*
X113433723Y-78244292D01*
X113433723Y-78244292D02*
X113338485Y-78291912D01*
X113338485Y-78291912D02*
X113290866Y-78339531D01*
X114338485Y-78339531D02*
X114386104Y-78291912D01*
X114386104Y-78291912D02*
X114338485Y-78244292D01*
X114338485Y-78244292D02*
X114290866Y-78291912D01*
X114290866Y-78291912D02*
X114338485Y-78339531D01*
X114338485Y-78339531D02*
X114338485Y-78244292D01*
X115338484Y-78244292D02*
X114767056Y-78244292D01*
X115052770Y-78244292D02*
X115052770Y-79244292D01*
X115052770Y-79244292D02*
X114957532Y-79101435D01*
X114957532Y-79101435D02*
X114862294Y-79006197D01*
X114862294Y-79006197D02*
X114767056Y-78958578D01*
X116528961Y-78244292D02*
X116528961Y-79244292D01*
X116528961Y-78863340D02*
X116624199Y-78910959D01*
X116624199Y-78910959D02*
X116814675Y-78910959D01*
X116814675Y-78910959D02*
X116909913Y-78863340D01*
X116909913Y-78863340D02*
X116957532Y-78815721D01*
X116957532Y-78815721D02*
X117005151Y-78720483D01*
X117005151Y-78720483D02*
X117005151Y-78434769D01*
X117005151Y-78434769D02*
X116957532Y-78339531D01*
X116957532Y-78339531D02*
X116909913Y-78291912D01*
X116909913Y-78291912D02*
X116814675Y-78244292D01*
X116814675Y-78244292D02*
X116624199Y-78244292D01*
X116624199Y-78244292D02*
X116528961Y-78291912D01*
X117338485Y-78910959D02*
X117576580Y-78244292D01*
X117814675Y-78910959D02*
X117576580Y-78244292D01*
X117576580Y-78244292D02*
X117481342Y-78006197D01*
X117481342Y-78006197D02*
X117433723Y-77958578D01*
X117433723Y-77958578D02*
X117338485Y-77910959D01*
X119290866Y-78768102D02*
X118957533Y-78768102D01*
X118957533Y-78244292D02*
X118957533Y-79244292D01*
X118957533Y-79244292D02*
X119433723Y-79244292D01*
X119814676Y-78244292D02*
X119814676Y-78910959D01*
X119814676Y-79244292D02*
X119767057Y-79196673D01*
X119767057Y-79196673D02*
X119814676Y-79149054D01*
X119814676Y-79149054D02*
X119862295Y-79196673D01*
X119862295Y-79196673D02*
X119814676Y-79244292D01*
X119814676Y-79244292D02*
X119814676Y-79149054D01*
X120290866Y-78244292D02*
X120290866Y-78910959D01*
X120290866Y-78720483D02*
X120338485Y-78815721D01*
X120338485Y-78815721D02*
X120386104Y-78863340D01*
X120386104Y-78863340D02*
X120481342Y-78910959D01*
X120481342Y-78910959D02*
X120576580Y-78910959D01*
X121290866Y-78291912D02*
X121195628Y-78244292D01*
X121195628Y-78244292D02*
X121005152Y-78244292D01*
X121005152Y-78244292D02*
X120909914Y-78291912D01*
X120909914Y-78291912D02*
X120862295Y-78387150D01*
X120862295Y-78387150D02*
X120862295Y-78768102D01*
X120862295Y-78768102D02*
X120909914Y-78863340D01*
X120909914Y-78863340D02*
X121005152Y-78910959D01*
X121005152Y-78910959D02*
X121195628Y-78910959D01*
X121195628Y-78910959D02*
X121290866Y-78863340D01*
X121290866Y-78863340D02*
X121338485Y-78768102D01*
X121338485Y-78768102D02*
X121338485Y-78672864D01*
X121338485Y-78672864D02*
X120862295Y-78577626D01*
X121671819Y-79244292D02*
X121909914Y-78244292D01*
X121909914Y-78244292D02*
X122100390Y-78958578D01*
X122100390Y-78958578D02*
X122290866Y-78244292D01*
X122290866Y-78244292D02*
X122528962Y-79244292D01*
X123052771Y-78244292D02*
X122957533Y-78291912D01*
X122957533Y-78291912D02*
X122909914Y-78339531D01*
X122909914Y-78339531D02*
X122862295Y-78434769D01*
X122862295Y-78434769D02*
X122862295Y-78720483D01*
X122862295Y-78720483D02*
X122909914Y-78815721D01*
X122909914Y-78815721D02*
X122957533Y-78863340D01*
X122957533Y-78863340D02*
X123052771Y-78910959D01*
X123052771Y-78910959D02*
X123195628Y-78910959D01*
X123195628Y-78910959D02*
X123290866Y-78863340D01*
X123290866Y-78863340D02*
X123338485Y-78815721D01*
X123338485Y-78815721D02*
X123386104Y-78720483D01*
X123386104Y-78720483D02*
X123386104Y-78434769D01*
X123386104Y-78434769D02*
X123338485Y-78339531D01*
X123338485Y-78339531D02*
X123290866Y-78291912D01*
X123290866Y-78291912D02*
X123195628Y-78244292D01*
X123195628Y-78244292D02*
X123052771Y-78244292D01*
X123814676Y-78244292D02*
X123814676Y-78910959D01*
X123814676Y-78720483D02*
X123862295Y-78815721D01*
X123862295Y-78815721D02*
X123909914Y-78863340D01*
X123909914Y-78863340D02*
X124005152Y-78910959D01*
X124005152Y-78910959D02*
X124100390Y-78910959D01*
X124433724Y-78244292D02*
X124433724Y-79244292D01*
X124528962Y-78625245D02*
X124814676Y-78244292D01*
X124814676Y-78910959D02*
X124433724Y-78530007D01*
X125195629Y-78291912D02*
X125290867Y-78244292D01*
X125290867Y-78244292D02*
X125481343Y-78244292D01*
X125481343Y-78244292D02*
X125576581Y-78291912D01*
X125576581Y-78291912D02*
X125624200Y-78387150D01*
X125624200Y-78387150D02*
X125624200Y-78434769D01*
X125624200Y-78434769D02*
X125576581Y-78530007D01*
X125576581Y-78530007D02*
X125481343Y-78577626D01*
X125481343Y-78577626D02*
X125338486Y-78577626D01*
X125338486Y-78577626D02*
X125243248Y-78625245D01*
X125243248Y-78625245D02*
X125195629Y-78720483D01*
X125195629Y-78720483D02*
X125195629Y-78768102D01*
X125195629Y-78768102D02*
X125243248Y-78863340D01*
X125243248Y-78863340D02*
X125338486Y-78910959D01*
X125338486Y-78910959D02*
X125481343Y-78910959D01*
X125481343Y-78910959D02*
X125576581Y-78863340D01*
X126767058Y-78291912D02*
X126909915Y-78244292D01*
X126909915Y-78244292D02*
X127148010Y-78244292D01*
X127148010Y-78244292D02*
X127243248Y-78291912D01*
X127243248Y-78291912D02*
X127290867Y-78339531D01*
X127290867Y-78339531D02*
X127338486Y-78434769D01*
X127338486Y-78434769D02*
X127338486Y-78530007D01*
X127338486Y-78530007D02*
X127290867Y-78625245D01*
X127290867Y-78625245D02*
X127243248Y-78672864D01*
X127243248Y-78672864D02*
X127148010Y-78720483D01*
X127148010Y-78720483D02*
X126957534Y-78768102D01*
X126957534Y-78768102D02*
X126862296Y-78815721D01*
X126862296Y-78815721D02*
X126814677Y-78863340D01*
X126814677Y-78863340D02*
X126767058Y-78958578D01*
X126767058Y-78958578D02*
X126767058Y-79053816D01*
X126767058Y-79053816D02*
X126814677Y-79149054D01*
X126814677Y-79149054D02*
X126862296Y-79196673D01*
X126862296Y-79196673D02*
X126957534Y-79244292D01*
X126957534Y-79244292D02*
X127195629Y-79244292D01*
X127195629Y-79244292D02*
X127338486Y-79196673D01*
X127624201Y-78910959D02*
X128005153Y-78910959D01*
X127767058Y-79244292D02*
X127767058Y-78387150D01*
X127767058Y-78387150D02*
X127814677Y-78291912D01*
X127814677Y-78291912D02*
X127909915Y-78244292D01*
X127909915Y-78244292D02*
X128005153Y-78244292D01*
X128767058Y-78910959D02*
X128767058Y-78244292D01*
X128338487Y-78910959D02*
X128338487Y-78387150D01*
X128338487Y-78387150D02*
X128386106Y-78291912D01*
X128386106Y-78291912D02*
X128481344Y-78244292D01*
X128481344Y-78244292D02*
X128624201Y-78244292D01*
X128624201Y-78244292D02*
X128719439Y-78291912D01*
X128719439Y-78291912D02*
X128767058Y-78339531D01*
X129671820Y-78244292D02*
X129671820Y-79244292D01*
X129671820Y-78291912D02*
X129576582Y-78244292D01*
X129576582Y-78244292D02*
X129386106Y-78244292D01*
X129386106Y-78244292D02*
X129290868Y-78291912D01*
X129290868Y-78291912D02*
X129243249Y-78339531D01*
X129243249Y-78339531D02*
X129195630Y-78434769D01*
X129195630Y-78434769D02*
X129195630Y-78720483D01*
X129195630Y-78720483D02*
X129243249Y-78815721D01*
X129243249Y-78815721D02*
X129290868Y-78863340D01*
X129290868Y-78863340D02*
X129386106Y-78910959D01*
X129386106Y-78910959D02*
X129576582Y-78910959D01*
X129576582Y-78910959D02*
X129671820Y-78863340D01*
X130148011Y-78244292D02*
X130148011Y-78910959D01*
X130148011Y-79244292D02*
X130100392Y-79196673D01*
X130100392Y-79196673D02*
X130148011Y-79149054D01*
X130148011Y-79149054D02*
X130195630Y-79196673D01*
X130195630Y-79196673D02*
X130148011Y-79244292D01*
X130148011Y-79244292D02*
X130148011Y-79149054D01*
X130767058Y-78244292D02*
X130671820Y-78291912D01*
X130671820Y-78291912D02*
X130624201Y-78339531D01*
X130624201Y-78339531D02*
X130576582Y-78434769D01*
X130576582Y-78434769D02*
X130576582Y-78720483D01*
X130576582Y-78720483D02*
X130624201Y-78815721D01*
X130624201Y-78815721D02*
X130671820Y-78863340D01*
X130671820Y-78863340D02*
X130767058Y-78910959D01*
X130767058Y-78910959D02*
X130909915Y-78910959D01*
X130909915Y-78910959D02*
X131005153Y-78863340D01*
X131005153Y-78863340D02*
X131052772Y-78815721D01*
X131052772Y-78815721D02*
X131100391Y-78720483D01*
X131100391Y-78720483D02*
X131100391Y-78434769D01*
X131100391Y-78434769D02*
X131052772Y-78339531D01*
X131052772Y-78339531D02*
X131005153Y-78291912D01*
X131005153Y-78291912D02*
X130909915Y-78244292D01*
X130909915Y-78244292D02*
X130767058Y-78244292D01*
X131481344Y-78291912D02*
X131576582Y-78244292D01*
X131576582Y-78244292D02*
X131767058Y-78244292D01*
X131767058Y-78244292D02*
X131862296Y-78291912D01*
X131862296Y-78291912D02*
X131909915Y-78387150D01*
X131909915Y-78387150D02*
X131909915Y-78434769D01*
X131909915Y-78434769D02*
X131862296Y-78530007D01*
X131862296Y-78530007D02*
X131767058Y-78577626D01*
X131767058Y-78577626D02*
X131624201Y-78577626D01*
X131624201Y-78577626D02*
X131528963Y-78625245D01*
X131528963Y-78625245D02*
X131481344Y-78720483D01*
X131481344Y-78720483D02*
X131481344Y-78768102D01*
X131481344Y-78768102D02*
X131528963Y-78863340D01*
X131528963Y-78863340D02*
X131624201Y-78910959D01*
X131624201Y-78910959D02*
X131767058Y-78910959D01*
X131767058Y-78910959D02*
X131862296Y-78863340D01*
X133052773Y-79149054D02*
X133100392Y-79196673D01*
X133100392Y-79196673D02*
X133195630Y-79244292D01*
X133195630Y-79244292D02*
X133433725Y-79244292D01*
X133433725Y-79244292D02*
X133528963Y-79196673D01*
X133528963Y-79196673D02*
X133576582Y-79149054D01*
X133576582Y-79149054D02*
X133624201Y-79053816D01*
X133624201Y-79053816D02*
X133624201Y-78958578D01*
X133624201Y-78958578D02*
X133576582Y-78815721D01*
X133576582Y-78815721D02*
X133005154Y-78244292D01*
X133005154Y-78244292D02*
X133624201Y-78244292D01*
X134243249Y-79244292D02*
X134338487Y-79244292D01*
X134338487Y-79244292D02*
X134433725Y-79196673D01*
X134433725Y-79196673D02*
X134481344Y-79149054D01*
X134481344Y-79149054D02*
X134528963Y-79053816D01*
X134528963Y-79053816D02*
X134576582Y-78863340D01*
X134576582Y-78863340D02*
X134576582Y-78625245D01*
X134576582Y-78625245D02*
X134528963Y-78434769D01*
X134528963Y-78434769D02*
X134481344Y-78339531D01*
X134481344Y-78339531D02*
X134433725Y-78291912D01*
X134433725Y-78291912D02*
X134338487Y-78244292D01*
X134338487Y-78244292D02*
X134243249Y-78244292D01*
X134243249Y-78244292D02*
X134148011Y-78291912D01*
X134148011Y-78291912D02*
X134100392Y-78339531D01*
X134100392Y-78339531D02*
X134052773Y-78434769D01*
X134052773Y-78434769D02*
X134005154Y-78625245D01*
X134005154Y-78625245D02*
X134005154Y-78863340D01*
X134005154Y-78863340D02*
X134052773Y-79053816D01*
X134052773Y-79053816D02*
X134100392Y-79149054D01*
X134100392Y-79149054D02*
X134148011Y-79196673D01*
X134148011Y-79196673D02*
X134243249Y-79244292D01*
X134957535Y-79149054D02*
X135005154Y-79196673D01*
X135005154Y-79196673D02*
X135100392Y-79244292D01*
X135100392Y-79244292D02*
X135338487Y-79244292D01*
X135338487Y-79244292D02*
X135433725Y-79196673D01*
X135433725Y-79196673D02*
X135481344Y-79149054D01*
X135481344Y-79149054D02*
X135528963Y-79053816D01*
X135528963Y-79053816D02*
X135528963Y-78958578D01*
X135528963Y-78958578D02*
X135481344Y-78815721D01*
X135481344Y-78815721D02*
X134909916Y-78244292D01*
X134909916Y-78244292D02*
X135528963Y-78244292D01*
X136386106Y-78910959D02*
X136386106Y-78244292D01*
X136148011Y-79291912D02*
X135909916Y-78577626D01*
X135909916Y-78577626D02*
X136528963Y-78577626D01*
D11*
X93929200Y-114173000D02*
X93929200Y-108966000D01*
X119329200Y-64770000D02*
X119329200Y-59436000D01*
X93929200Y-64770000D02*
X93929200Y-59436000D01*
X119329200Y-114173000D02*
X119329200Y-108966000D01*
X144729200Y-114300000D02*
X144729200Y-108966000D01*
X106629200Y-114173000D02*
X106629200Y-108966000D01*
X132029200Y-114173000D02*
X132029200Y-108966000D01*
X144729200Y-64770000D02*
X144729200Y-59563000D01*
X106629200Y-64770000D02*
X106629200Y-59436000D01*
X132029200Y-64770000D02*
X132029200Y-59436000D01*
X156620496Y-113910191D02*
X156620496Y-113243524D01*
X156382401Y-114291144D02*
X156144306Y-113576858D01*
X156144306Y-113576858D02*
X156763353Y-113576858D01*
X156096687Y-112633580D02*
X156763353Y-112633580D01*
X156763353Y-112633580D02*
X156334782Y-111633580D01*
X117790306Y-62078286D02*
X117837925Y-62125905D01*
X117837925Y-62125905D02*
X117933163Y-62173524D01*
X117933163Y-62173524D02*
X118171258Y-62173524D01*
X118171258Y-62173524D02*
X118266496Y-62125905D01*
X118266496Y-62125905D02*
X118314115Y-62078286D01*
X118314115Y-62078286D02*
X118361734Y-61983048D01*
X118361734Y-61983048D02*
X118361734Y-61887810D01*
X118361734Y-61887810D02*
X118314115Y-61744953D01*
X118314115Y-61744953D02*
X117742687Y-61173524D01*
X117742687Y-61173524D02*
X118361734Y-61173524D01*
X118314115Y-60563580D02*
X117837925Y-60563580D01*
X117837925Y-60563580D02*
X117790306Y-60087390D01*
X117790306Y-60087390D02*
X117837925Y-60135009D01*
X117837925Y-60135009D02*
X117933163Y-60182628D01*
X117933163Y-60182628D02*
X118171258Y-60182628D01*
X118171258Y-60182628D02*
X118266496Y-60135009D01*
X118266496Y-60135009D02*
X118314115Y-60087390D01*
X118314115Y-60087390D02*
X118361734Y-59992152D01*
X118361734Y-59992152D02*
X118361734Y-59754057D01*
X118361734Y-59754057D02*
X118314115Y-59658819D01*
X118314115Y-59658819D02*
X118266496Y-59611200D01*
X118266496Y-59611200D02*
X118171258Y-59563580D01*
X118171258Y-59563580D02*
X117933163Y-59563580D01*
X117933163Y-59563580D02*
X117837925Y-59611200D01*
X117837925Y-59611200D02*
X117790306Y-59658819D01*
X138316687Y-114243524D02*
X138983353Y-114243524D01*
X138983353Y-114243524D02*
X138554782Y-113243524D01*
X139030972Y-111633580D02*
X138554782Y-111633580D01*
X138554782Y-111633580D02*
X138554782Y-112633580D01*
X135760782Y-61744953D02*
X135665544Y-61792572D01*
X135665544Y-61792572D02*
X135617925Y-61840191D01*
X135617925Y-61840191D02*
X135570306Y-61935429D01*
X135570306Y-61935429D02*
X135570306Y-61983048D01*
X135570306Y-61983048D02*
X135617925Y-62078286D01*
X135617925Y-62078286D02*
X135665544Y-62125905D01*
X135665544Y-62125905D02*
X135760782Y-62173524D01*
X135760782Y-62173524D02*
X135951258Y-62173524D01*
X135951258Y-62173524D02*
X136046496Y-62125905D01*
X136046496Y-62125905D02*
X136094115Y-62078286D01*
X136094115Y-62078286D02*
X136141734Y-61983048D01*
X136141734Y-61983048D02*
X136141734Y-61935429D01*
X136141734Y-61935429D02*
X136094115Y-61840191D01*
X136094115Y-61840191D02*
X136046496Y-61792572D01*
X136046496Y-61792572D02*
X135951258Y-61744953D01*
X135951258Y-61744953D02*
X135760782Y-61744953D01*
X135760782Y-61744953D02*
X135665544Y-61697334D01*
X135665544Y-61697334D02*
X135617925Y-61649715D01*
X135617925Y-61649715D02*
X135570306Y-61554477D01*
X135570306Y-61554477D02*
X135570306Y-61364001D01*
X135570306Y-61364001D02*
X135617925Y-61268763D01*
X135617925Y-61268763D02*
X135665544Y-61221144D01*
X135665544Y-61221144D02*
X135760782Y-61173524D01*
X135760782Y-61173524D02*
X135951258Y-61173524D01*
X135951258Y-61173524D02*
X136046496Y-61221144D01*
X136046496Y-61221144D02*
X136094115Y-61268763D01*
X136094115Y-61268763D02*
X136141734Y-61364001D01*
X136141734Y-61364001D02*
X136141734Y-61554477D01*
X136141734Y-61554477D02*
X136094115Y-61649715D01*
X136094115Y-61649715D02*
X136046496Y-61697334D01*
X136046496Y-61697334D02*
X135951258Y-61744953D01*
X135570306Y-59563580D02*
X135570306Y-60563580D01*
X136141734Y-59563580D02*
X135713163Y-60135009D01*
X136141734Y-60563580D02*
X135570306Y-59992152D01*
X125664306Y-113243524D02*
X125664306Y-114243524D01*
X125664306Y-114243524D02*
X125902401Y-114243524D01*
X125902401Y-114243524D02*
X126045258Y-114195905D01*
X126045258Y-114195905D02*
X126140496Y-114100667D01*
X126140496Y-114100667D02*
X126188115Y-114005429D01*
X126188115Y-114005429D02*
X126235734Y-113814953D01*
X126235734Y-113814953D02*
X126235734Y-113672096D01*
X126235734Y-113672096D02*
X126188115Y-113481620D01*
X126188115Y-113481620D02*
X126140496Y-113386382D01*
X126140496Y-113386382D02*
X126045258Y-113291144D01*
X126045258Y-113291144D02*
X125902401Y-113243524D01*
X125902401Y-113243524D02*
X125664306Y-113243524D01*
X126188115Y-112585961D02*
X126092877Y-112633580D01*
X126092877Y-112633580D02*
X125950020Y-112633580D01*
X125950020Y-112633580D02*
X125807163Y-112585961D01*
X125807163Y-112585961D02*
X125711925Y-112490723D01*
X125711925Y-112490723D02*
X125664306Y-112395485D01*
X125664306Y-112395485D02*
X125616687Y-112205009D01*
X125616687Y-112205009D02*
X125616687Y-112062152D01*
X125616687Y-112062152D02*
X125664306Y-111871676D01*
X125664306Y-111871676D02*
X125711925Y-111776438D01*
X125711925Y-111776438D02*
X125807163Y-111681200D01*
X125807163Y-111681200D02*
X125950020Y-111633580D01*
X125950020Y-111633580D02*
X126045258Y-111633580D01*
X126045258Y-111633580D02*
X126188115Y-111681200D01*
X126188115Y-111681200D02*
X126235734Y-111728819D01*
X126235734Y-111728819D02*
X126235734Y-112062152D01*
X126235734Y-112062152D02*
X126045258Y-112062152D01*
X143714115Y-62173524D02*
X143237925Y-62173524D01*
X143237925Y-62173524D02*
X143190306Y-61697334D01*
X143190306Y-61697334D02*
X143237925Y-61744953D01*
X143237925Y-61744953D02*
X143333163Y-61792572D01*
X143333163Y-61792572D02*
X143571258Y-61792572D01*
X143571258Y-61792572D02*
X143666496Y-61744953D01*
X143666496Y-61744953D02*
X143714115Y-61697334D01*
X143714115Y-61697334D02*
X143761734Y-61602096D01*
X143761734Y-61602096D02*
X143761734Y-61364001D01*
X143761734Y-61364001D02*
X143714115Y-61268763D01*
X143714115Y-61268763D02*
X143666496Y-61221144D01*
X143666496Y-61221144D02*
X143571258Y-61173524D01*
X143571258Y-61173524D02*
X143333163Y-61173524D01*
X143333163Y-61173524D02*
X143237925Y-61221144D01*
X143237925Y-61221144D02*
X143190306Y-61268763D01*
X143142687Y-59563580D02*
X143142687Y-60563580D01*
X143142687Y-60563580D02*
X143714115Y-59563580D01*
X143714115Y-59563580D02*
X143714115Y-60563580D01*
X128521734Y-61268763D02*
X128474115Y-61221144D01*
X128474115Y-61221144D02*
X128331258Y-61173524D01*
X128331258Y-61173524D02*
X128236020Y-61173524D01*
X128236020Y-61173524D02*
X128093163Y-61221144D01*
X128093163Y-61221144D02*
X127997925Y-61316382D01*
X127997925Y-61316382D02*
X127950306Y-61411620D01*
X127950306Y-61411620D02*
X127902687Y-61602096D01*
X127902687Y-61602096D02*
X127902687Y-61744953D01*
X127902687Y-61744953D02*
X127950306Y-61935429D01*
X127950306Y-61935429D02*
X127997925Y-62030667D01*
X127997925Y-62030667D02*
X128093163Y-62125905D01*
X128093163Y-62125905D02*
X128236020Y-62173524D01*
X128236020Y-62173524D02*
X128331258Y-62173524D01*
X128331258Y-62173524D02*
X128474115Y-62125905D01*
X128474115Y-62125905D02*
X128521734Y-62078286D01*
X127902687Y-59563580D02*
X127902687Y-60563580D01*
X127902687Y-60087390D02*
X128474115Y-60087390D01*
X128474115Y-59563580D02*
X128474115Y-60563580D01*
X95136687Y-113243524D02*
X95136687Y-114243524D01*
X95136687Y-114243524D02*
X95708115Y-113243524D01*
X95708115Y-113243524D02*
X95708115Y-114243524D01*
X95708115Y-112633580D02*
X95231925Y-112633580D01*
X95231925Y-112633580D02*
X95184306Y-112157390D01*
X95184306Y-112157390D02*
X95231925Y-112205009D01*
X95231925Y-112205009D02*
X95327163Y-112252628D01*
X95327163Y-112252628D02*
X95565258Y-112252628D01*
X95565258Y-112252628D02*
X95660496Y-112205009D01*
X95660496Y-112205009D02*
X95708115Y-112157390D01*
X95708115Y-112157390D02*
X95755734Y-112062152D01*
X95755734Y-112062152D02*
X95755734Y-111824057D01*
X95755734Y-111824057D02*
X95708115Y-111728819D01*
X95708115Y-111728819D02*
X95660496Y-111681200D01*
X95660496Y-111681200D02*
X95565258Y-111633580D01*
X95565258Y-111633580D02*
X95327163Y-111633580D01*
X95327163Y-111633580D02*
X95231925Y-111681200D01*
X95231925Y-111681200D02*
X95184306Y-111728819D01*
X90104306Y-113243524D02*
X90104306Y-114243524D01*
X90104306Y-114243524D02*
X90485258Y-114243524D01*
X90485258Y-114243524D02*
X90580496Y-114195905D01*
X90580496Y-114195905D02*
X90628115Y-114148286D01*
X90628115Y-114148286D02*
X90675734Y-114053048D01*
X90675734Y-114053048D02*
X90675734Y-113910191D01*
X90675734Y-113910191D02*
X90628115Y-113814953D01*
X90628115Y-113814953D02*
X90580496Y-113767334D01*
X90580496Y-113767334D02*
X90485258Y-113719715D01*
X90485258Y-113719715D02*
X90104306Y-113719715D01*
X90056687Y-112633580D02*
X90675734Y-112633580D01*
X90675734Y-112633580D02*
X90342401Y-112252628D01*
X90342401Y-112252628D02*
X90485258Y-112252628D01*
X90485258Y-112252628D02*
X90580496Y-112205009D01*
X90580496Y-112205009D02*
X90628115Y-112157390D01*
X90628115Y-112157390D02*
X90675734Y-112062152D01*
X90675734Y-112062152D02*
X90675734Y-111824057D01*
X90675734Y-111824057D02*
X90628115Y-111728819D01*
X90628115Y-111728819D02*
X90580496Y-111681200D01*
X90580496Y-111681200D02*
X90485258Y-111633580D01*
X90485258Y-111633580D02*
X90199544Y-111633580D01*
X90199544Y-111633580D02*
X90104306Y-111681200D01*
X90104306Y-111681200D02*
X90056687Y-111728819D01*
X85595734Y-113243524D02*
X85262401Y-113719715D01*
X85024306Y-113243524D02*
X85024306Y-114243524D01*
X85024306Y-114243524D02*
X85405258Y-114243524D01*
X85405258Y-114243524D02*
X85500496Y-114195905D01*
X85500496Y-114195905D02*
X85548115Y-114148286D01*
X85548115Y-114148286D02*
X85595734Y-114053048D01*
X85595734Y-114053048D02*
X85595734Y-113910191D01*
X85595734Y-113910191D02*
X85548115Y-113814953D01*
X85548115Y-113814953D02*
X85500496Y-113767334D01*
X85500496Y-113767334D02*
X85405258Y-113719715D01*
X85405258Y-113719715D02*
X85024306Y-113719715D01*
X85595734Y-111633580D02*
X85024306Y-111633580D01*
X85310020Y-111633580D02*
X85310020Y-112633580D01*
X85310020Y-112633580D02*
X85214782Y-112490723D01*
X85214782Y-112490723D02*
X85119544Y-112395485D01*
X85119544Y-112395485D02*
X85024306Y-112347866D01*
X153921734Y-61173524D02*
X153350306Y-61173524D01*
X153636020Y-61173524D02*
X153636020Y-62173524D01*
X153636020Y-62173524D02*
X153540782Y-62030667D01*
X153540782Y-62030667D02*
X153445544Y-61935429D01*
X153445544Y-61935429D02*
X153350306Y-61887810D01*
X153921734Y-59563580D02*
X153588401Y-60039771D01*
X153350306Y-59563580D02*
X153350306Y-60563580D01*
X153350306Y-60563580D02*
X153731258Y-60563580D01*
X153731258Y-60563580D02*
X153826496Y-60515961D01*
X153826496Y-60515961D02*
X153874115Y-60468342D01*
X153874115Y-60468342D02*
X153921734Y-60373104D01*
X153921734Y-60373104D02*
X153921734Y-60230247D01*
X153921734Y-60230247D02*
X153874115Y-60135009D01*
X153874115Y-60135009D02*
X153826496Y-60087390D01*
X153826496Y-60087390D02*
X153731258Y-60039771D01*
X153731258Y-60039771D02*
X153350306Y-60039771D01*
X118044306Y-114148286D02*
X118091925Y-114195905D01*
X118091925Y-114195905D02*
X118187163Y-114243524D01*
X118187163Y-114243524D02*
X118425258Y-114243524D01*
X118425258Y-114243524D02*
X118520496Y-114195905D01*
X118520496Y-114195905D02*
X118568115Y-114148286D01*
X118568115Y-114148286D02*
X118615734Y-114053048D01*
X118615734Y-114053048D02*
X118615734Y-113957810D01*
X118615734Y-113957810D02*
X118568115Y-113814953D01*
X118568115Y-113814953D02*
X117996687Y-113243524D01*
X117996687Y-113243524D02*
X118615734Y-113243524D01*
X118568115Y-112633580D02*
X118091925Y-112633580D01*
X118091925Y-112633580D02*
X118044306Y-112157390D01*
X118044306Y-112157390D02*
X118091925Y-112205009D01*
X118091925Y-112205009D02*
X118187163Y-112252628D01*
X118187163Y-112252628D02*
X118425258Y-112252628D01*
X118425258Y-112252628D02*
X118520496Y-112205009D01*
X118520496Y-112205009D02*
X118568115Y-112157390D01*
X118568115Y-112157390D02*
X118615734Y-112062152D01*
X118615734Y-112062152D02*
X118615734Y-111824057D01*
X118615734Y-111824057D02*
X118568115Y-111728819D01*
X118568115Y-111728819D02*
X118520496Y-111681200D01*
X118520496Y-111681200D02*
X118425258Y-111633580D01*
X118425258Y-111633580D02*
X118187163Y-111633580D01*
X118187163Y-111633580D02*
X118091925Y-111681200D01*
X118091925Y-111681200D02*
X118044306Y-111728819D01*
X87929353Y-61078286D02*
X87834115Y-61125905D01*
X87834115Y-61125905D02*
X87738877Y-61221144D01*
X87738877Y-61221144D02*
X87596020Y-61364001D01*
X87596020Y-61364001D02*
X87500782Y-61411620D01*
X87500782Y-61411620D02*
X87405544Y-61411620D01*
X87453163Y-61173524D02*
X87357925Y-61221144D01*
X87357925Y-61221144D02*
X87262687Y-61316382D01*
X87262687Y-61316382D02*
X87215068Y-61506858D01*
X87215068Y-61506858D02*
X87215068Y-61840191D01*
X87215068Y-61840191D02*
X87262687Y-62030667D01*
X87262687Y-62030667D02*
X87357925Y-62125905D01*
X87357925Y-62125905D02*
X87453163Y-62173524D01*
X87453163Y-62173524D02*
X87643639Y-62173524D01*
X87643639Y-62173524D02*
X87738877Y-62125905D01*
X87738877Y-62125905D02*
X87834115Y-62030667D01*
X87834115Y-62030667D02*
X87881734Y-61840191D01*
X87881734Y-61840191D02*
X87881734Y-61506858D01*
X87881734Y-61506858D02*
X87834115Y-61316382D01*
X87834115Y-61316382D02*
X87738877Y-61221144D01*
X87738877Y-61221144D02*
X87643639Y-61173524D01*
X87643639Y-61173524D02*
X87453163Y-61173524D01*
X87310306Y-60468342D02*
X87357925Y-60515961D01*
X87357925Y-60515961D02*
X87453163Y-60563580D01*
X87453163Y-60563580D02*
X87691258Y-60563580D01*
X87691258Y-60563580D02*
X87786496Y-60515961D01*
X87786496Y-60515961D02*
X87834115Y-60468342D01*
X87834115Y-60468342D02*
X87881734Y-60373104D01*
X87881734Y-60373104D02*
X87881734Y-60277866D01*
X87881734Y-60277866D02*
X87834115Y-60135009D01*
X87834115Y-60135009D02*
X87262687Y-59563580D01*
X87262687Y-59563580D02*
X87881734Y-59563580D01*
X89850306Y-61173524D02*
X89850306Y-62173524D01*
X89850306Y-62173524D02*
X90231258Y-62173524D01*
X90231258Y-62173524D02*
X90326496Y-62125905D01*
X90326496Y-62125905D02*
X90374115Y-62078286D01*
X90374115Y-62078286D02*
X90421734Y-61983048D01*
X90421734Y-61983048D02*
X90421734Y-61840191D01*
X90421734Y-61840191D02*
X90374115Y-61744953D01*
X90374115Y-61744953D02*
X90326496Y-61697334D01*
X90326496Y-61697334D02*
X90231258Y-61649715D01*
X90231258Y-61649715D02*
X89850306Y-61649715D01*
X89802687Y-60563580D02*
X90421734Y-60563580D01*
X90421734Y-60563580D02*
X90088401Y-60182628D01*
X90088401Y-60182628D02*
X90231258Y-60182628D01*
X90231258Y-60182628D02*
X90326496Y-60135009D01*
X90326496Y-60135009D02*
X90374115Y-60087390D01*
X90374115Y-60087390D02*
X90421734Y-59992152D01*
X90421734Y-59992152D02*
X90421734Y-59754057D01*
X90421734Y-59754057D02*
X90374115Y-59658819D01*
X90374115Y-59658819D02*
X90326496Y-59611200D01*
X90326496Y-59611200D02*
X90231258Y-59563580D01*
X90231258Y-59563580D02*
X89945544Y-59563580D01*
X89945544Y-59563580D02*
X89850306Y-59611200D01*
X89850306Y-59611200D02*
X89802687Y-59658819D01*
X110122687Y-61173524D02*
X110122687Y-62173524D01*
X110122687Y-61697334D02*
X110694115Y-61697334D01*
X110694115Y-61173524D02*
X110694115Y-62173524D01*
X110741734Y-59658819D02*
X110694115Y-59611200D01*
X110694115Y-59611200D02*
X110551258Y-59563580D01*
X110551258Y-59563580D02*
X110456020Y-59563580D01*
X110456020Y-59563580D02*
X110313163Y-59611200D01*
X110313163Y-59611200D02*
X110217925Y-59706438D01*
X110217925Y-59706438D02*
X110170306Y-59801676D01*
X110170306Y-59801676D02*
X110122687Y-59992152D01*
X110122687Y-59992152D02*
X110122687Y-60135009D01*
X110122687Y-60135009D02*
X110170306Y-60325485D01*
X110170306Y-60325485D02*
X110217925Y-60420723D01*
X110217925Y-60420723D02*
X110313163Y-60515961D01*
X110313163Y-60515961D02*
X110456020Y-60563580D01*
X110456020Y-60563580D02*
X110551258Y-60563580D01*
X110551258Y-60563580D02*
X110694115Y-60515961D01*
X110694115Y-60515961D02*
X110741734Y-60468342D01*
X105614115Y-62173524D02*
X105614115Y-61459239D01*
X105614115Y-61459239D02*
X105566496Y-61316382D01*
X105566496Y-61316382D02*
X105471258Y-61221144D01*
X105471258Y-61221144D02*
X105328401Y-61173524D01*
X105328401Y-61173524D02*
X105233163Y-61173524D01*
X105185544Y-59849295D02*
X105661734Y-59849295D01*
X105090306Y-59563580D02*
X105423639Y-60563580D01*
X105423639Y-60563580D02*
X105756972Y-59563580D01*
X100930972Y-113243524D02*
X100454782Y-113243524D01*
X100454782Y-113243524D02*
X100454782Y-114243524D01*
X100216687Y-112633580D02*
X100883353Y-112633580D01*
X100883353Y-112633580D02*
X100454782Y-111633580D01*
X131077639Y-113767334D02*
X131220496Y-113719715D01*
X131220496Y-113719715D02*
X131268115Y-113672096D01*
X131268115Y-113672096D02*
X131315734Y-113576858D01*
X131315734Y-113576858D02*
X131315734Y-113434001D01*
X131315734Y-113434001D02*
X131268115Y-113338763D01*
X131268115Y-113338763D02*
X131220496Y-113291144D01*
X131220496Y-113291144D02*
X131125258Y-113243524D01*
X131125258Y-113243524D02*
X130744306Y-113243524D01*
X130744306Y-113243524D02*
X130744306Y-114243524D01*
X130744306Y-114243524D02*
X131077639Y-114243524D01*
X131077639Y-114243524D02*
X131172877Y-114195905D01*
X131172877Y-114195905D02*
X131220496Y-114148286D01*
X131220496Y-114148286D02*
X131268115Y-114053048D01*
X131268115Y-114053048D02*
X131268115Y-113957810D01*
X131268115Y-113957810D02*
X131220496Y-113862572D01*
X131220496Y-113862572D02*
X131172877Y-113814953D01*
X131172877Y-113814953D02*
X131077639Y-113767334D01*
X131077639Y-113767334D02*
X130744306Y-113767334D01*
X131268116Y-111633580D02*
X131268116Y-112633580D01*
X120536687Y-114243524D02*
X121155734Y-114243524D01*
X121155734Y-114243524D02*
X120822401Y-113862572D01*
X120822401Y-113862572D02*
X120965258Y-113862572D01*
X120965258Y-113862572D02*
X121060496Y-113814953D01*
X121060496Y-113814953D02*
X121108115Y-113767334D01*
X121108115Y-113767334D02*
X121155734Y-113672096D01*
X121155734Y-113672096D02*
X121155734Y-113434001D01*
X121155734Y-113434001D02*
X121108115Y-113338763D01*
X121108115Y-113338763D02*
X121060496Y-113291144D01*
X121060496Y-113291144D02*
X120965258Y-113243524D01*
X120965258Y-113243524D02*
X120679544Y-113243524D01*
X120679544Y-113243524D02*
X120584306Y-113291144D01*
X120584306Y-113291144D02*
X120536687Y-113338763D01*
X121060496Y-112633580D02*
X120870020Y-112633580D01*
X120870020Y-112633580D02*
X120774782Y-112585961D01*
X120774782Y-112585961D02*
X120727163Y-112538342D01*
X120727163Y-112538342D02*
X120631925Y-112395485D01*
X120631925Y-112395485D02*
X120584306Y-112205009D01*
X120584306Y-112205009D02*
X120584306Y-111824057D01*
X120584306Y-111824057D02*
X120631925Y-111728819D01*
X120631925Y-111728819D02*
X120679544Y-111681200D01*
X120679544Y-111681200D02*
X120774782Y-111633580D01*
X120774782Y-111633580D02*
X120965258Y-111633580D01*
X120965258Y-111633580D02*
X121060496Y-111681200D01*
X121060496Y-111681200D02*
X121108115Y-111728819D01*
X121108115Y-111728819D02*
X121155734Y-111824057D01*
X121155734Y-111824057D02*
X121155734Y-112062152D01*
X121155734Y-112062152D02*
X121108115Y-112157390D01*
X121108115Y-112157390D02*
X121060496Y-112205009D01*
X121060496Y-112205009D02*
X120965258Y-112252628D01*
X120965258Y-112252628D02*
X120774782Y-112252628D01*
X120774782Y-112252628D02*
X120679544Y-112205009D01*
X120679544Y-112205009D02*
X120631925Y-112157390D01*
X120631925Y-112157390D02*
X120584306Y-112062152D01*
X123219544Y-113767334D02*
X123552877Y-113767334D01*
X123695734Y-113243524D02*
X123219544Y-113243524D01*
X123219544Y-113243524D02*
X123219544Y-114243524D01*
X123219544Y-114243524D02*
X123695734Y-114243524D01*
X123600496Y-112157390D02*
X123267163Y-112157390D01*
X123267163Y-111633580D02*
X123267163Y-112633580D01*
X123267163Y-112633580D02*
X123743353Y-112633580D01*
X136014782Y-113814953D02*
X135919544Y-113862572D01*
X135919544Y-113862572D02*
X135871925Y-113910191D01*
X135871925Y-113910191D02*
X135824306Y-114005429D01*
X135824306Y-114005429D02*
X135824306Y-114053048D01*
X135824306Y-114053048D02*
X135871925Y-114148286D01*
X135871925Y-114148286D02*
X135919544Y-114195905D01*
X135919544Y-114195905D02*
X136014782Y-114243524D01*
X136014782Y-114243524D02*
X136205258Y-114243524D01*
X136205258Y-114243524D02*
X136300496Y-114195905D01*
X136300496Y-114195905D02*
X136348115Y-114148286D01*
X136348115Y-114148286D02*
X136395734Y-114053048D01*
X136395734Y-114053048D02*
X136395734Y-114005429D01*
X136395734Y-114005429D02*
X136348115Y-113910191D01*
X136348115Y-113910191D02*
X136300496Y-113862572D01*
X136300496Y-113862572D02*
X136205258Y-113814953D01*
X136205258Y-113814953D02*
X136014782Y-113814953D01*
X136014782Y-113814953D02*
X135919544Y-113767334D01*
X135919544Y-113767334D02*
X135871925Y-113719715D01*
X135871925Y-113719715D02*
X135824306Y-113624477D01*
X135824306Y-113624477D02*
X135824306Y-113434001D01*
X135824306Y-113434001D02*
X135871925Y-113338763D01*
X135871925Y-113338763D02*
X135919544Y-113291144D01*
X135919544Y-113291144D02*
X136014782Y-113243524D01*
X136014782Y-113243524D02*
X136205258Y-113243524D01*
X136205258Y-113243524D02*
X136300496Y-113291144D01*
X136300496Y-113291144D02*
X136348115Y-113338763D01*
X136348115Y-113338763D02*
X136395734Y-113434001D01*
X136395734Y-113434001D02*
X136395734Y-113624477D01*
X136395734Y-113624477D02*
X136348115Y-113719715D01*
X136348115Y-113719715D02*
X136300496Y-113767334D01*
X136300496Y-113767334D02*
X136205258Y-113814953D01*
X135824306Y-111633580D02*
X135824306Y-112633580D01*
X136395734Y-111633580D02*
X135967163Y-112205009D01*
X136395734Y-112633580D02*
X135824306Y-112062152D01*
X130823639Y-61697334D02*
X130966496Y-61649715D01*
X130966496Y-61649715D02*
X131014115Y-61602096D01*
X131014115Y-61602096D02*
X131061734Y-61506858D01*
X131061734Y-61506858D02*
X131061734Y-61364001D01*
X131061734Y-61364001D02*
X131014115Y-61268763D01*
X131014115Y-61268763D02*
X130966496Y-61221144D01*
X130966496Y-61221144D02*
X130871258Y-61173524D01*
X130871258Y-61173524D02*
X130490306Y-61173524D01*
X130490306Y-61173524D02*
X130490306Y-62173524D01*
X130490306Y-62173524D02*
X130823639Y-62173524D01*
X130823639Y-62173524D02*
X130918877Y-62125905D01*
X130918877Y-62125905D02*
X130966496Y-62078286D01*
X130966496Y-62078286D02*
X131014115Y-61983048D01*
X131014115Y-61983048D02*
X131014115Y-61887810D01*
X131014115Y-61887810D02*
X130966496Y-61792572D01*
X130966496Y-61792572D02*
X130918877Y-61744953D01*
X130918877Y-61744953D02*
X130823639Y-61697334D01*
X130823639Y-61697334D02*
X130490306Y-61697334D01*
X131014116Y-59563580D02*
X131014116Y-60563580D01*
X122965544Y-61697334D02*
X123298877Y-61697334D01*
X123441734Y-61173524D02*
X122965544Y-61173524D01*
X122965544Y-61173524D02*
X122965544Y-62173524D01*
X122965544Y-62173524D02*
X123441734Y-62173524D01*
X123346496Y-60087390D02*
X123013163Y-60087390D01*
X123013163Y-59563580D02*
X123013163Y-60563580D01*
X123013163Y-60563580D02*
X123489353Y-60563580D01*
X146460496Y-113910191D02*
X146460496Y-113243524D01*
X146222401Y-114291144D02*
X145984306Y-113576858D01*
X145984306Y-113576858D02*
X146603353Y-113576858D01*
X146127163Y-112633580D02*
X146317639Y-112633580D01*
X146317639Y-112633580D02*
X146412877Y-112585961D01*
X146412877Y-112585961D02*
X146508115Y-112490723D01*
X146508115Y-112490723D02*
X146555734Y-112300247D01*
X146555734Y-112300247D02*
X146555734Y-111966914D01*
X146555734Y-111966914D02*
X146508115Y-111776438D01*
X146508115Y-111776438D02*
X146412877Y-111681200D01*
X146412877Y-111681200D02*
X146317639Y-111633580D01*
X146317639Y-111633580D02*
X146127163Y-111633580D01*
X146127163Y-111633580D02*
X146031925Y-111681200D01*
X146031925Y-111681200D02*
X145936687Y-111776438D01*
X145936687Y-111776438D02*
X145889068Y-111966914D01*
X145889068Y-111966914D02*
X145889068Y-112300247D01*
X145889068Y-112300247D02*
X145936687Y-112490723D01*
X145936687Y-112490723D02*
X146031925Y-112585961D01*
X146031925Y-112585961D02*
X146127163Y-112633580D01*
X133125544Y-61459239D02*
X133601734Y-61459239D01*
X133030306Y-61173524D02*
X133363639Y-62173524D01*
X133363639Y-62173524D02*
X133696972Y-61173524D01*
X133554115Y-60563580D02*
X133554115Y-59849295D01*
X133554115Y-59849295D02*
X133506496Y-59706438D01*
X133506496Y-59706438D02*
X133411258Y-59611200D01*
X133411258Y-59611200D02*
X133268401Y-59563580D01*
X133268401Y-59563580D02*
X133173163Y-59563580D01*
X143968115Y-114243524D02*
X143491925Y-114243524D01*
X143491925Y-114243524D02*
X143444306Y-113767334D01*
X143444306Y-113767334D02*
X143491925Y-113814953D01*
X143491925Y-113814953D02*
X143587163Y-113862572D01*
X143587163Y-113862572D02*
X143825258Y-113862572D01*
X143825258Y-113862572D02*
X143920496Y-113814953D01*
X143920496Y-113814953D02*
X143968115Y-113767334D01*
X143968115Y-113767334D02*
X144015734Y-113672096D01*
X144015734Y-113672096D02*
X144015734Y-113434001D01*
X144015734Y-113434001D02*
X143968115Y-113338763D01*
X143968115Y-113338763D02*
X143920496Y-113291144D01*
X143920496Y-113291144D02*
X143825258Y-113243524D01*
X143825258Y-113243524D02*
X143587163Y-113243524D01*
X143587163Y-113243524D02*
X143491925Y-113291144D01*
X143491925Y-113291144D02*
X143444306Y-113338763D01*
X143396687Y-111633580D02*
X143396687Y-112633580D01*
X143396687Y-112633580D02*
X143968115Y-111633580D01*
X143968115Y-111633580D02*
X143968115Y-112633580D01*
X141380496Y-114243524D02*
X141190020Y-114243524D01*
X141190020Y-114243524D02*
X141094782Y-114195905D01*
X141094782Y-114195905D02*
X141047163Y-114148286D01*
X141047163Y-114148286D02*
X140951925Y-114005429D01*
X140951925Y-114005429D02*
X140904306Y-113814953D01*
X140904306Y-113814953D02*
X140904306Y-113434001D01*
X140904306Y-113434001D02*
X140951925Y-113338763D01*
X140951925Y-113338763D02*
X140999544Y-113291144D01*
X140999544Y-113291144D02*
X141094782Y-113243524D01*
X141094782Y-113243524D02*
X141285258Y-113243524D01*
X141285258Y-113243524D02*
X141380496Y-113291144D01*
X141380496Y-113291144D02*
X141428115Y-113338763D01*
X141428115Y-113338763D02*
X141475734Y-113434001D01*
X141475734Y-113434001D02*
X141475734Y-113672096D01*
X141475734Y-113672096D02*
X141428115Y-113767334D01*
X141428115Y-113767334D02*
X141380496Y-113814953D01*
X141380496Y-113814953D02*
X141285258Y-113862572D01*
X141285258Y-113862572D02*
X141094782Y-113862572D01*
X141094782Y-113862572D02*
X140999544Y-113814953D01*
X140999544Y-113814953D02*
X140951925Y-113767334D01*
X140951925Y-113767334D02*
X140904306Y-113672096D01*
X140761449Y-111633580D02*
X140761449Y-112633580D01*
X140761449Y-112633580D02*
X141094782Y-111919295D01*
X141094782Y-111919295D02*
X141428115Y-112633580D01*
X141428115Y-112633580D02*
X141428115Y-111633580D01*
X113234115Y-62125905D02*
X113138877Y-62173524D01*
X113138877Y-62173524D02*
X112996020Y-62173524D01*
X112996020Y-62173524D02*
X112853163Y-62125905D01*
X112853163Y-62125905D02*
X112757925Y-62030667D01*
X112757925Y-62030667D02*
X112710306Y-61935429D01*
X112710306Y-61935429D02*
X112662687Y-61744953D01*
X112662687Y-61744953D02*
X112662687Y-61602096D01*
X112662687Y-61602096D02*
X112710306Y-61411620D01*
X112710306Y-61411620D02*
X112757925Y-61316382D01*
X112757925Y-61316382D02*
X112853163Y-61221144D01*
X112853163Y-61221144D02*
X112996020Y-61173524D01*
X112996020Y-61173524D02*
X113091258Y-61173524D01*
X113091258Y-61173524D02*
X113234115Y-61221144D01*
X113234115Y-61221144D02*
X113281734Y-61268763D01*
X113281734Y-61268763D02*
X113281734Y-61602096D01*
X113281734Y-61602096D02*
X113091258Y-61602096D01*
X112710306Y-59563580D02*
X112710306Y-60563580D01*
X112710306Y-60563580D02*
X112948401Y-60563580D01*
X112948401Y-60563580D02*
X113091258Y-60515961D01*
X113091258Y-60515961D02*
X113186496Y-60420723D01*
X113186496Y-60420723D02*
X113234115Y-60325485D01*
X113234115Y-60325485D02*
X113281734Y-60135009D01*
X113281734Y-60135009D02*
X113281734Y-59992152D01*
X113281734Y-59992152D02*
X113234115Y-59801676D01*
X113234115Y-59801676D02*
X113186496Y-59706438D01*
X113186496Y-59706438D02*
X113091258Y-59611200D01*
X113091258Y-59611200D02*
X112948401Y-59563580D01*
X112948401Y-59563580D02*
X112710306Y-59563580D01*
X115980496Y-113767334D02*
X115647163Y-113767334D01*
X115647163Y-113243524D02*
X115647163Y-114243524D01*
X115647163Y-114243524D02*
X116123353Y-114243524D01*
X115599544Y-112157390D02*
X115932877Y-112157390D01*
X116075734Y-111633580D02*
X115599544Y-111633580D01*
X115599544Y-111633580D02*
X115599544Y-112633580D01*
X115599544Y-112633580D02*
X116075734Y-112633580D01*
X110376687Y-113243524D02*
X110376687Y-114243524D01*
X110376687Y-113767334D02*
X110948115Y-113767334D01*
X110948115Y-113243524D02*
X110948115Y-114243524D01*
X110995734Y-111728819D02*
X110948115Y-111681200D01*
X110948115Y-111681200D02*
X110805258Y-111633580D01*
X110805258Y-111633580D02*
X110710020Y-111633580D01*
X110710020Y-111633580D02*
X110567163Y-111681200D01*
X110567163Y-111681200D02*
X110471925Y-111776438D01*
X110471925Y-111776438D02*
X110424306Y-111871676D01*
X110424306Y-111871676D02*
X110376687Y-112062152D01*
X110376687Y-112062152D02*
X110376687Y-112205009D01*
X110376687Y-112205009D02*
X110424306Y-112395485D01*
X110424306Y-112395485D02*
X110471925Y-112490723D01*
X110471925Y-112490723D02*
X110567163Y-112585961D01*
X110567163Y-112585961D02*
X110710020Y-112633580D01*
X110710020Y-112633580D02*
X110805258Y-112633580D01*
X110805258Y-112633580D02*
X110948115Y-112585961D01*
X110948115Y-112585961D02*
X110995734Y-112538342D01*
X105868115Y-114243524D02*
X105868115Y-113529239D01*
X105868115Y-113529239D02*
X105820496Y-113386382D01*
X105820496Y-113386382D02*
X105725258Y-113291144D01*
X105725258Y-113291144D02*
X105582401Y-113243524D01*
X105582401Y-113243524D02*
X105487163Y-113243524D01*
X105439544Y-111919295D02*
X105915734Y-111919295D01*
X105344306Y-111633580D02*
X105677639Y-112633580D01*
X105677639Y-112633580D02*
X106010972Y-111633580D01*
X154175734Y-113243524D02*
X153604306Y-113243524D01*
X153890020Y-113243524D02*
X153890020Y-114243524D01*
X153890020Y-114243524D02*
X153794782Y-114100667D01*
X153794782Y-114100667D02*
X153699544Y-114005429D01*
X153699544Y-114005429D02*
X153604306Y-113957810D01*
X154175734Y-111633580D02*
X153842401Y-112109771D01*
X153604306Y-111633580D02*
X153604306Y-112633580D01*
X153604306Y-112633580D02*
X153985258Y-112633580D01*
X153985258Y-112633580D02*
X154080496Y-112585961D01*
X154080496Y-112585961D02*
X154128115Y-112538342D01*
X154128115Y-112538342D02*
X154175734Y-112443104D01*
X154175734Y-112443104D02*
X154175734Y-112300247D01*
X154175734Y-112300247D02*
X154128115Y-112205009D01*
X154128115Y-112205009D02*
X154080496Y-112157390D01*
X154080496Y-112157390D02*
X153985258Y-112109771D01*
X153985258Y-112109771D02*
X153604306Y-112109771D01*
X148476687Y-114243524D02*
X149095734Y-114243524D01*
X149095734Y-114243524D02*
X148762401Y-113862572D01*
X148762401Y-113862572D02*
X148905258Y-113862572D01*
X148905258Y-113862572D02*
X149000496Y-113814953D01*
X149000496Y-113814953D02*
X149048115Y-113767334D01*
X149048115Y-113767334D02*
X149095734Y-113672096D01*
X149095734Y-113672096D02*
X149095734Y-113434001D01*
X149095734Y-113434001D02*
X149048115Y-113338763D01*
X149048115Y-113338763D02*
X149000496Y-113291144D01*
X149000496Y-113291144D02*
X148905258Y-113243524D01*
X148905258Y-113243524D02*
X148619544Y-113243524D01*
X148619544Y-113243524D02*
X148524306Y-113291144D01*
X148524306Y-113291144D02*
X148476687Y-113338763D01*
X148524306Y-111633580D02*
X148524306Y-112633580D01*
X148524306Y-112633580D02*
X148905258Y-112633580D01*
X148905258Y-112633580D02*
X149000496Y-112585961D01*
X149000496Y-112585961D02*
X149048115Y-112538342D01*
X149048115Y-112538342D02*
X149095734Y-112443104D01*
X149095734Y-112443104D02*
X149095734Y-112300247D01*
X149095734Y-112300247D02*
X149048115Y-112205009D01*
X149048115Y-112205009D02*
X149000496Y-112157390D01*
X149000496Y-112157390D02*
X148905258Y-112109771D01*
X148905258Y-112109771D02*
X148524306Y-112109771D01*
X82182687Y-62173524D02*
X82849353Y-62173524D01*
X82849353Y-62173524D02*
X82420782Y-61173524D01*
X82706496Y-60230247D02*
X82706496Y-59563580D01*
X82468401Y-60611200D02*
X82230306Y-59896914D01*
X82230306Y-59896914D02*
X82849353Y-59896914D01*
X148222687Y-62173524D02*
X148841734Y-62173524D01*
X148841734Y-62173524D02*
X148508401Y-61792572D01*
X148508401Y-61792572D02*
X148651258Y-61792572D01*
X148651258Y-61792572D02*
X148746496Y-61744953D01*
X148746496Y-61744953D02*
X148794115Y-61697334D01*
X148794115Y-61697334D02*
X148841734Y-61602096D01*
X148841734Y-61602096D02*
X148841734Y-61364001D01*
X148841734Y-61364001D02*
X148794115Y-61268763D01*
X148794115Y-61268763D02*
X148746496Y-61221144D01*
X148746496Y-61221144D02*
X148651258Y-61173524D01*
X148651258Y-61173524D02*
X148365544Y-61173524D01*
X148365544Y-61173524D02*
X148270306Y-61221144D01*
X148270306Y-61221144D02*
X148222687Y-61268763D01*
X148270306Y-59563580D02*
X148270306Y-60563580D01*
X148270306Y-60563580D02*
X148651258Y-60563580D01*
X148651258Y-60563580D02*
X148746496Y-60515961D01*
X148746496Y-60515961D02*
X148794115Y-60468342D01*
X148794115Y-60468342D02*
X148841734Y-60373104D01*
X148841734Y-60373104D02*
X148841734Y-60230247D01*
X148841734Y-60230247D02*
X148794115Y-60135009D01*
X148794115Y-60135009D02*
X148746496Y-60087390D01*
X148746496Y-60087390D02*
X148651258Y-60039771D01*
X148651258Y-60039771D02*
X148270306Y-60039771D01*
X128775734Y-113338763D02*
X128728115Y-113291144D01*
X128728115Y-113291144D02*
X128585258Y-113243524D01*
X128585258Y-113243524D02*
X128490020Y-113243524D01*
X128490020Y-113243524D02*
X128347163Y-113291144D01*
X128347163Y-113291144D02*
X128251925Y-113386382D01*
X128251925Y-113386382D02*
X128204306Y-113481620D01*
X128204306Y-113481620D02*
X128156687Y-113672096D01*
X128156687Y-113672096D02*
X128156687Y-113814953D01*
X128156687Y-113814953D02*
X128204306Y-114005429D01*
X128204306Y-114005429D02*
X128251925Y-114100667D01*
X128251925Y-114100667D02*
X128347163Y-114195905D01*
X128347163Y-114195905D02*
X128490020Y-114243524D01*
X128490020Y-114243524D02*
X128585258Y-114243524D01*
X128585258Y-114243524D02*
X128728115Y-114195905D01*
X128728115Y-114195905D02*
X128775734Y-114148286D01*
X128156687Y-111633580D02*
X128156687Y-112633580D01*
X128156687Y-112157390D02*
X128728115Y-112157390D01*
X128728115Y-111633580D02*
X128728115Y-112633580D01*
X113488115Y-114195905D02*
X113392877Y-114243524D01*
X113392877Y-114243524D02*
X113250020Y-114243524D01*
X113250020Y-114243524D02*
X113107163Y-114195905D01*
X113107163Y-114195905D02*
X113011925Y-114100667D01*
X113011925Y-114100667D02*
X112964306Y-114005429D01*
X112964306Y-114005429D02*
X112916687Y-113814953D01*
X112916687Y-113814953D02*
X112916687Y-113672096D01*
X112916687Y-113672096D02*
X112964306Y-113481620D01*
X112964306Y-113481620D02*
X113011925Y-113386382D01*
X113011925Y-113386382D02*
X113107163Y-113291144D01*
X113107163Y-113291144D02*
X113250020Y-113243524D01*
X113250020Y-113243524D02*
X113345258Y-113243524D01*
X113345258Y-113243524D02*
X113488115Y-113291144D01*
X113488115Y-113291144D02*
X113535734Y-113338763D01*
X113535734Y-113338763D02*
X113535734Y-113672096D01*
X113535734Y-113672096D02*
X113345258Y-113672096D01*
X112964306Y-111633580D02*
X112964306Y-112633580D01*
X112964306Y-112633580D02*
X113202401Y-112633580D01*
X113202401Y-112633580D02*
X113345258Y-112585961D01*
X113345258Y-112585961D02*
X113440496Y-112490723D01*
X113440496Y-112490723D02*
X113488115Y-112395485D01*
X113488115Y-112395485D02*
X113535734Y-112205009D01*
X113535734Y-112205009D02*
X113535734Y-112062152D01*
X113535734Y-112062152D02*
X113488115Y-111871676D01*
X113488115Y-111871676D02*
X113440496Y-111776438D01*
X113440496Y-111776438D02*
X113345258Y-111681200D01*
X113345258Y-111681200D02*
X113202401Y-111633580D01*
X113202401Y-111633580D02*
X112964306Y-111633580D01*
X102550306Y-61173524D02*
X102550306Y-62173524D01*
X103121734Y-61173524D02*
X102693163Y-61744953D01*
X103121734Y-62173524D02*
X102550306Y-61602096D01*
X102740782Y-60135009D02*
X102645544Y-60182628D01*
X102645544Y-60182628D02*
X102597925Y-60230247D01*
X102597925Y-60230247D02*
X102550306Y-60325485D01*
X102550306Y-60325485D02*
X102550306Y-60373104D01*
X102550306Y-60373104D02*
X102597925Y-60468342D01*
X102597925Y-60468342D02*
X102645544Y-60515961D01*
X102645544Y-60515961D02*
X102740782Y-60563580D01*
X102740782Y-60563580D02*
X102931258Y-60563580D01*
X102931258Y-60563580D02*
X103026496Y-60515961D01*
X103026496Y-60515961D02*
X103074115Y-60468342D01*
X103074115Y-60468342D02*
X103121734Y-60373104D01*
X103121734Y-60373104D02*
X103121734Y-60325485D01*
X103121734Y-60325485D02*
X103074115Y-60230247D01*
X103074115Y-60230247D02*
X103026496Y-60182628D01*
X103026496Y-60182628D02*
X102931258Y-60135009D01*
X102931258Y-60135009D02*
X102740782Y-60135009D01*
X102740782Y-60135009D02*
X102645544Y-60087390D01*
X102645544Y-60087390D02*
X102597925Y-60039771D01*
X102597925Y-60039771D02*
X102550306Y-59944533D01*
X102550306Y-59944533D02*
X102550306Y-59754057D01*
X102550306Y-59754057D02*
X102597925Y-59658819D01*
X102597925Y-59658819D02*
X102645544Y-59611200D01*
X102645544Y-59611200D02*
X102740782Y-59563580D01*
X102740782Y-59563580D02*
X102931258Y-59563580D01*
X102931258Y-59563580D02*
X103026496Y-59611200D01*
X103026496Y-59611200D02*
X103074115Y-59658819D01*
X103074115Y-59658819D02*
X103121734Y-59754057D01*
X103121734Y-59754057D02*
X103121734Y-59944533D01*
X103121734Y-59944533D02*
X103074115Y-60039771D01*
X103074115Y-60039771D02*
X103026496Y-60087390D01*
X103026496Y-60087390D02*
X102931258Y-60135009D01*
X97581449Y-113243524D02*
X97581449Y-114243524D01*
X97581449Y-114243524D02*
X97914782Y-113529239D01*
X97914782Y-113529239D02*
X98248115Y-114243524D01*
X98248115Y-114243524D02*
X98248115Y-113243524D01*
X98200496Y-112633580D02*
X98010020Y-112633580D01*
X98010020Y-112633580D02*
X97914782Y-112585961D01*
X97914782Y-112585961D02*
X97867163Y-112538342D01*
X97867163Y-112538342D02*
X97771925Y-112395485D01*
X97771925Y-112395485D02*
X97724306Y-112205009D01*
X97724306Y-112205009D02*
X97724306Y-111824057D01*
X97724306Y-111824057D02*
X97771925Y-111728819D01*
X97771925Y-111728819D02*
X97819544Y-111681200D01*
X97819544Y-111681200D02*
X97914782Y-111633580D01*
X97914782Y-111633580D02*
X98105258Y-111633580D01*
X98105258Y-111633580D02*
X98200496Y-111681200D01*
X98200496Y-111681200D02*
X98248115Y-111728819D01*
X98248115Y-111728819D02*
X98295734Y-111824057D01*
X98295734Y-111824057D02*
X98295734Y-112062152D01*
X98295734Y-112062152D02*
X98248115Y-112157390D01*
X98248115Y-112157390D02*
X98200496Y-112205009D01*
X98200496Y-112205009D02*
X98105258Y-112252628D01*
X98105258Y-112252628D02*
X97914782Y-112252628D01*
X97914782Y-112252628D02*
X97819544Y-112205009D01*
X97819544Y-112205009D02*
X97771925Y-112157390D01*
X97771925Y-112157390D02*
X97724306Y-112062152D01*
X156080782Y-61744953D02*
X155985544Y-61792572D01*
X155985544Y-61792572D02*
X155937925Y-61840191D01*
X155937925Y-61840191D02*
X155890306Y-61935429D01*
X155890306Y-61935429D02*
X155890306Y-61983048D01*
X155890306Y-61983048D02*
X155937925Y-62078286D01*
X155937925Y-62078286D02*
X155985544Y-62125905D01*
X155985544Y-62125905D02*
X156080782Y-62173524D01*
X156080782Y-62173524D02*
X156271258Y-62173524D01*
X156271258Y-62173524D02*
X156366496Y-62125905D01*
X156366496Y-62125905D02*
X156414115Y-62078286D01*
X156414115Y-62078286D02*
X156461734Y-61983048D01*
X156461734Y-61983048D02*
X156461734Y-61935429D01*
X156461734Y-61935429D02*
X156414115Y-61840191D01*
X156414115Y-61840191D02*
X156366496Y-61792572D01*
X156366496Y-61792572D02*
X156271258Y-61744953D01*
X156271258Y-61744953D02*
X156080782Y-61744953D01*
X156080782Y-61744953D02*
X155985544Y-61697334D01*
X155985544Y-61697334D02*
X155937925Y-61649715D01*
X155937925Y-61649715D02*
X155890306Y-61554477D01*
X155890306Y-61554477D02*
X155890306Y-61364001D01*
X155890306Y-61364001D02*
X155937925Y-61268763D01*
X155937925Y-61268763D02*
X155985544Y-61221144D01*
X155985544Y-61221144D02*
X156080782Y-61173524D01*
X156080782Y-61173524D02*
X156271258Y-61173524D01*
X156271258Y-61173524D02*
X156366496Y-61221144D01*
X156366496Y-61221144D02*
X156414115Y-61268763D01*
X156414115Y-61268763D02*
X156461734Y-61364001D01*
X156461734Y-61364001D02*
X156461734Y-61554477D01*
X156461734Y-61554477D02*
X156414115Y-61649715D01*
X156414115Y-61649715D02*
X156366496Y-61697334D01*
X156366496Y-61697334D02*
X156271258Y-61744953D01*
X156461734Y-59563580D02*
X155890306Y-59563580D01*
X156176020Y-59563580D02*
X156176020Y-60563580D01*
X156176020Y-60563580D02*
X156080782Y-60420723D01*
X156080782Y-60420723D02*
X155985544Y-60325485D01*
X155985544Y-60325485D02*
X155890306Y-60277866D01*
X151064306Y-114148286D02*
X151111925Y-114195905D01*
X151111925Y-114195905D02*
X151207163Y-114243524D01*
X151207163Y-114243524D02*
X151445258Y-114243524D01*
X151445258Y-114243524D02*
X151540496Y-114195905D01*
X151540496Y-114195905D02*
X151588115Y-114148286D01*
X151588115Y-114148286D02*
X151635734Y-114053048D01*
X151635734Y-114053048D02*
X151635734Y-113957810D01*
X151635734Y-113957810D02*
X151588115Y-113814953D01*
X151588115Y-113814953D02*
X151016687Y-113243524D01*
X151016687Y-113243524D02*
X151635734Y-113243524D01*
X151683353Y-111538342D02*
X151588115Y-111585961D01*
X151588115Y-111585961D02*
X151492877Y-111681200D01*
X151492877Y-111681200D02*
X151350020Y-111824057D01*
X151350020Y-111824057D02*
X151254782Y-111871676D01*
X151254782Y-111871676D02*
X151159544Y-111871676D01*
X151207163Y-111633580D02*
X151111925Y-111681200D01*
X151111925Y-111681200D02*
X151016687Y-111776438D01*
X151016687Y-111776438D02*
X150969068Y-111966914D01*
X150969068Y-111966914D02*
X150969068Y-112300247D01*
X150969068Y-112300247D02*
X151016687Y-112490723D01*
X151016687Y-112490723D02*
X151111925Y-112585961D01*
X151111925Y-112585961D02*
X151207163Y-112633580D01*
X151207163Y-112633580D02*
X151397639Y-112633580D01*
X151397639Y-112633580D02*
X151492877Y-112585961D01*
X151492877Y-112585961D02*
X151588115Y-112490723D01*
X151588115Y-112490723D02*
X151635734Y-112300247D01*
X151635734Y-112300247D02*
X151635734Y-111966914D01*
X151635734Y-111966914D02*
X151588115Y-111776438D01*
X151588115Y-111776438D02*
X151492877Y-111681200D01*
X151492877Y-111681200D02*
X151397639Y-111633580D01*
X151397639Y-111633580D02*
X151207163Y-111633580D01*
X150810306Y-62078286D02*
X150857925Y-62125905D01*
X150857925Y-62125905D02*
X150953163Y-62173524D01*
X150953163Y-62173524D02*
X151191258Y-62173524D01*
X151191258Y-62173524D02*
X151286496Y-62125905D01*
X151286496Y-62125905D02*
X151334115Y-62078286D01*
X151334115Y-62078286D02*
X151381734Y-61983048D01*
X151381734Y-61983048D02*
X151381734Y-61887810D01*
X151381734Y-61887810D02*
X151334115Y-61744953D01*
X151334115Y-61744953D02*
X150762687Y-61173524D01*
X150762687Y-61173524D02*
X151381734Y-61173524D01*
X151429353Y-59468342D02*
X151334115Y-59515961D01*
X151334115Y-59515961D02*
X151238877Y-59611200D01*
X151238877Y-59611200D02*
X151096020Y-59754057D01*
X151096020Y-59754057D02*
X151000782Y-59801676D01*
X151000782Y-59801676D02*
X150905544Y-59801676D01*
X150953163Y-59563580D02*
X150857925Y-59611200D01*
X150857925Y-59611200D02*
X150762687Y-59706438D01*
X150762687Y-59706438D02*
X150715068Y-59896914D01*
X150715068Y-59896914D02*
X150715068Y-60230247D01*
X150715068Y-60230247D02*
X150762687Y-60420723D01*
X150762687Y-60420723D02*
X150857925Y-60515961D01*
X150857925Y-60515961D02*
X150953163Y-60563580D01*
X150953163Y-60563580D02*
X151143639Y-60563580D01*
X151143639Y-60563580D02*
X151238877Y-60515961D01*
X151238877Y-60515961D02*
X151334115Y-60420723D01*
X151334115Y-60420723D02*
X151381734Y-60230247D01*
X151381734Y-60230247D02*
X151381734Y-59896914D01*
X151381734Y-59896914D02*
X151334115Y-59706438D01*
X151334115Y-59706438D02*
X151238877Y-59611200D01*
X151238877Y-59611200D02*
X151143639Y-59563580D01*
X151143639Y-59563580D02*
X150953163Y-59563580D01*
X120282687Y-62173524D02*
X120901734Y-62173524D01*
X120901734Y-62173524D02*
X120568401Y-61792572D01*
X120568401Y-61792572D02*
X120711258Y-61792572D01*
X120711258Y-61792572D02*
X120806496Y-61744953D01*
X120806496Y-61744953D02*
X120854115Y-61697334D01*
X120854115Y-61697334D02*
X120901734Y-61602096D01*
X120901734Y-61602096D02*
X120901734Y-61364001D01*
X120901734Y-61364001D02*
X120854115Y-61268763D01*
X120854115Y-61268763D02*
X120806496Y-61221144D01*
X120806496Y-61221144D02*
X120711258Y-61173524D01*
X120711258Y-61173524D02*
X120425544Y-61173524D01*
X120425544Y-61173524D02*
X120330306Y-61221144D01*
X120330306Y-61221144D02*
X120282687Y-61268763D01*
X120806496Y-60563580D02*
X120616020Y-60563580D01*
X120616020Y-60563580D02*
X120520782Y-60515961D01*
X120520782Y-60515961D02*
X120473163Y-60468342D01*
X120473163Y-60468342D02*
X120377925Y-60325485D01*
X120377925Y-60325485D02*
X120330306Y-60135009D01*
X120330306Y-60135009D02*
X120330306Y-59754057D01*
X120330306Y-59754057D02*
X120377925Y-59658819D01*
X120377925Y-59658819D02*
X120425544Y-59611200D01*
X120425544Y-59611200D02*
X120520782Y-59563580D01*
X120520782Y-59563580D02*
X120711258Y-59563580D01*
X120711258Y-59563580D02*
X120806496Y-59611200D01*
X120806496Y-59611200D02*
X120854115Y-59658819D01*
X120854115Y-59658819D02*
X120901734Y-59754057D01*
X120901734Y-59754057D02*
X120901734Y-59992152D01*
X120901734Y-59992152D02*
X120854115Y-60087390D01*
X120854115Y-60087390D02*
X120806496Y-60135009D01*
X120806496Y-60135009D02*
X120711258Y-60182628D01*
X120711258Y-60182628D02*
X120520782Y-60182628D01*
X120520782Y-60182628D02*
X120425544Y-60135009D01*
X120425544Y-60135009D02*
X120377925Y-60087390D01*
X120377925Y-60087390D02*
X120330306Y-59992152D01*
X108154116Y-61173524D02*
X108154116Y-62173524D01*
X107963639Y-60087390D02*
X108106496Y-60039771D01*
X108106496Y-60039771D02*
X108154115Y-59992152D01*
X108154115Y-59992152D02*
X108201734Y-59896914D01*
X108201734Y-59896914D02*
X108201734Y-59754057D01*
X108201734Y-59754057D02*
X108154115Y-59658819D01*
X108154115Y-59658819D02*
X108106496Y-59611200D01*
X108106496Y-59611200D02*
X108011258Y-59563580D01*
X108011258Y-59563580D02*
X107630306Y-59563580D01*
X107630306Y-59563580D02*
X107630306Y-60563580D01*
X107630306Y-60563580D02*
X107963639Y-60563580D01*
X107963639Y-60563580D02*
X108058877Y-60515961D01*
X108058877Y-60515961D02*
X108106496Y-60468342D01*
X108106496Y-60468342D02*
X108154115Y-60373104D01*
X108154115Y-60373104D02*
X108154115Y-60277866D01*
X108154115Y-60277866D02*
X108106496Y-60182628D01*
X108106496Y-60182628D02*
X108058877Y-60135009D01*
X108058877Y-60135009D02*
X107963639Y-60087390D01*
X107963639Y-60087390D02*
X107630306Y-60087390D01*
X146206496Y-61840191D02*
X146206496Y-61173524D01*
X145968401Y-62221144D02*
X145730306Y-61506858D01*
X145730306Y-61506858D02*
X146349353Y-61506858D01*
X145873163Y-60563580D02*
X146063639Y-60563580D01*
X146063639Y-60563580D02*
X146158877Y-60515961D01*
X146158877Y-60515961D02*
X146254115Y-60420723D01*
X146254115Y-60420723D02*
X146301734Y-60230247D01*
X146301734Y-60230247D02*
X146301734Y-59896914D01*
X146301734Y-59896914D02*
X146254115Y-59706438D01*
X146254115Y-59706438D02*
X146158877Y-59611200D01*
X146158877Y-59611200D02*
X146063639Y-59563580D01*
X146063639Y-59563580D02*
X145873163Y-59563580D01*
X145873163Y-59563580D02*
X145777925Y-59611200D01*
X145777925Y-59611200D02*
X145682687Y-59706438D01*
X145682687Y-59706438D02*
X145635068Y-59896914D01*
X145635068Y-59896914D02*
X145635068Y-60230247D01*
X145635068Y-60230247D02*
X145682687Y-60420723D01*
X145682687Y-60420723D02*
X145777925Y-60515961D01*
X145777925Y-60515961D02*
X145873163Y-60563580D01*
X102804306Y-113243524D02*
X102804306Y-114243524D01*
X103375734Y-113243524D02*
X102947163Y-113814953D01*
X103375734Y-114243524D02*
X102804306Y-113672096D01*
X102994782Y-112205009D02*
X102899544Y-112252628D01*
X102899544Y-112252628D02*
X102851925Y-112300247D01*
X102851925Y-112300247D02*
X102804306Y-112395485D01*
X102804306Y-112395485D02*
X102804306Y-112443104D01*
X102804306Y-112443104D02*
X102851925Y-112538342D01*
X102851925Y-112538342D02*
X102899544Y-112585961D01*
X102899544Y-112585961D02*
X102994782Y-112633580D01*
X102994782Y-112633580D02*
X103185258Y-112633580D01*
X103185258Y-112633580D02*
X103280496Y-112585961D01*
X103280496Y-112585961D02*
X103328115Y-112538342D01*
X103328115Y-112538342D02*
X103375734Y-112443104D01*
X103375734Y-112443104D02*
X103375734Y-112395485D01*
X103375734Y-112395485D02*
X103328115Y-112300247D01*
X103328115Y-112300247D02*
X103280496Y-112252628D01*
X103280496Y-112252628D02*
X103185258Y-112205009D01*
X103185258Y-112205009D02*
X102994782Y-112205009D01*
X102994782Y-112205009D02*
X102899544Y-112157390D01*
X102899544Y-112157390D02*
X102851925Y-112109771D01*
X102851925Y-112109771D02*
X102804306Y-112014533D01*
X102804306Y-112014533D02*
X102804306Y-111824057D01*
X102804306Y-111824057D02*
X102851925Y-111728819D01*
X102851925Y-111728819D02*
X102899544Y-111681200D01*
X102899544Y-111681200D02*
X102994782Y-111633580D01*
X102994782Y-111633580D02*
X103185258Y-111633580D01*
X103185258Y-111633580D02*
X103280496Y-111681200D01*
X103280496Y-111681200D02*
X103328115Y-111728819D01*
X103328115Y-111728819D02*
X103375734Y-111824057D01*
X103375734Y-111824057D02*
X103375734Y-112014533D01*
X103375734Y-112014533D02*
X103328115Y-112109771D01*
X103328115Y-112109771D02*
X103280496Y-112157390D01*
X103280496Y-112157390D02*
X103185258Y-112205009D01*
X108408116Y-113243524D02*
X108408116Y-114243524D01*
X108217639Y-112157390D02*
X108360496Y-112109771D01*
X108360496Y-112109771D02*
X108408115Y-112062152D01*
X108408115Y-112062152D02*
X108455734Y-111966914D01*
X108455734Y-111966914D02*
X108455734Y-111824057D01*
X108455734Y-111824057D02*
X108408115Y-111728819D01*
X108408115Y-111728819D02*
X108360496Y-111681200D01*
X108360496Y-111681200D02*
X108265258Y-111633580D01*
X108265258Y-111633580D02*
X107884306Y-111633580D01*
X107884306Y-111633580D02*
X107884306Y-112633580D01*
X107884306Y-112633580D02*
X108217639Y-112633580D01*
X108217639Y-112633580D02*
X108312877Y-112585961D01*
X108312877Y-112585961D02*
X108360496Y-112538342D01*
X108360496Y-112538342D02*
X108408115Y-112443104D01*
X108408115Y-112443104D02*
X108408115Y-112347866D01*
X108408115Y-112347866D02*
X108360496Y-112252628D01*
X108360496Y-112252628D02*
X108312877Y-112205009D01*
X108312877Y-112205009D02*
X108217639Y-112157390D01*
X108217639Y-112157390D02*
X107884306Y-112157390D01*
X97327449Y-61173524D02*
X97327449Y-62173524D01*
X97327449Y-62173524D02*
X97660782Y-61459239D01*
X97660782Y-61459239D02*
X97994115Y-62173524D01*
X97994115Y-62173524D02*
X97994115Y-61173524D01*
X97946496Y-60563580D02*
X97756020Y-60563580D01*
X97756020Y-60563580D02*
X97660782Y-60515961D01*
X97660782Y-60515961D02*
X97613163Y-60468342D01*
X97613163Y-60468342D02*
X97517925Y-60325485D01*
X97517925Y-60325485D02*
X97470306Y-60135009D01*
X97470306Y-60135009D02*
X97470306Y-59754057D01*
X97470306Y-59754057D02*
X97517925Y-59658819D01*
X97517925Y-59658819D02*
X97565544Y-59611200D01*
X97565544Y-59611200D02*
X97660782Y-59563580D01*
X97660782Y-59563580D02*
X97851258Y-59563580D01*
X97851258Y-59563580D02*
X97946496Y-59611200D01*
X97946496Y-59611200D02*
X97994115Y-59658819D01*
X97994115Y-59658819D02*
X98041734Y-59754057D01*
X98041734Y-59754057D02*
X98041734Y-59992152D01*
X98041734Y-59992152D02*
X97994115Y-60087390D01*
X97994115Y-60087390D02*
X97946496Y-60135009D01*
X97946496Y-60135009D02*
X97851258Y-60182628D01*
X97851258Y-60182628D02*
X97660782Y-60182628D01*
X97660782Y-60182628D02*
X97565544Y-60135009D01*
X97565544Y-60135009D02*
X97517925Y-60087390D01*
X97517925Y-60087390D02*
X97470306Y-59992152D01*
X88183353Y-113148286D02*
X88088115Y-113195905D01*
X88088115Y-113195905D02*
X87992877Y-113291144D01*
X87992877Y-113291144D02*
X87850020Y-113434001D01*
X87850020Y-113434001D02*
X87754782Y-113481620D01*
X87754782Y-113481620D02*
X87659544Y-113481620D01*
X87707163Y-113243524D02*
X87611925Y-113291144D01*
X87611925Y-113291144D02*
X87516687Y-113386382D01*
X87516687Y-113386382D02*
X87469068Y-113576858D01*
X87469068Y-113576858D02*
X87469068Y-113910191D01*
X87469068Y-113910191D02*
X87516687Y-114100667D01*
X87516687Y-114100667D02*
X87611925Y-114195905D01*
X87611925Y-114195905D02*
X87707163Y-114243524D01*
X87707163Y-114243524D02*
X87897639Y-114243524D01*
X87897639Y-114243524D02*
X87992877Y-114195905D01*
X87992877Y-114195905D02*
X88088115Y-114100667D01*
X88088115Y-114100667D02*
X88135734Y-113910191D01*
X88135734Y-113910191D02*
X88135734Y-113576858D01*
X88135734Y-113576858D02*
X88088115Y-113386382D01*
X88088115Y-113386382D02*
X87992877Y-113291144D01*
X87992877Y-113291144D02*
X87897639Y-113243524D01*
X87897639Y-113243524D02*
X87707163Y-113243524D01*
X87564306Y-112538342D02*
X87611925Y-112585961D01*
X87611925Y-112585961D02*
X87707163Y-112633580D01*
X87707163Y-112633580D02*
X87945258Y-112633580D01*
X87945258Y-112633580D02*
X88040496Y-112585961D01*
X88040496Y-112585961D02*
X88088115Y-112538342D01*
X88088115Y-112538342D02*
X88135734Y-112443104D01*
X88135734Y-112443104D02*
X88135734Y-112347866D01*
X88135734Y-112347866D02*
X88088115Y-112205009D01*
X88088115Y-112205009D02*
X87516687Y-111633580D01*
X87516687Y-111633580D02*
X88135734Y-111633580D01*
X100676972Y-61173524D02*
X100200782Y-61173524D01*
X100200782Y-61173524D02*
X100200782Y-62173524D01*
X99962687Y-60563580D02*
X100629353Y-60563580D01*
X100629353Y-60563580D02*
X100200782Y-59563580D01*
X141126496Y-62173524D02*
X140936020Y-62173524D01*
X140936020Y-62173524D02*
X140840782Y-62125905D01*
X140840782Y-62125905D02*
X140793163Y-62078286D01*
X140793163Y-62078286D02*
X140697925Y-61935429D01*
X140697925Y-61935429D02*
X140650306Y-61744953D01*
X140650306Y-61744953D02*
X140650306Y-61364001D01*
X140650306Y-61364001D02*
X140697925Y-61268763D01*
X140697925Y-61268763D02*
X140745544Y-61221144D01*
X140745544Y-61221144D02*
X140840782Y-61173524D01*
X140840782Y-61173524D02*
X141031258Y-61173524D01*
X141031258Y-61173524D02*
X141126496Y-61221144D01*
X141126496Y-61221144D02*
X141174115Y-61268763D01*
X141174115Y-61268763D02*
X141221734Y-61364001D01*
X141221734Y-61364001D02*
X141221734Y-61602096D01*
X141221734Y-61602096D02*
X141174115Y-61697334D01*
X141174115Y-61697334D02*
X141126496Y-61744953D01*
X141126496Y-61744953D02*
X141031258Y-61792572D01*
X141031258Y-61792572D02*
X140840782Y-61792572D01*
X140840782Y-61792572D02*
X140745544Y-61744953D01*
X140745544Y-61744953D02*
X140697925Y-61697334D01*
X140697925Y-61697334D02*
X140650306Y-61602096D01*
X140507449Y-59563580D02*
X140507449Y-60563580D01*
X140507449Y-60563580D02*
X140840782Y-59849295D01*
X140840782Y-59849295D02*
X141174115Y-60563580D01*
X141174115Y-60563580D02*
X141174115Y-59563580D01*
X115726496Y-61697334D02*
X115393163Y-61697334D01*
X115393163Y-61173524D02*
X115393163Y-62173524D01*
X115393163Y-62173524D02*
X115869353Y-62173524D01*
X115345544Y-60087390D02*
X115678877Y-60087390D01*
X115821734Y-59563580D02*
X115345544Y-59563580D01*
X115345544Y-59563580D02*
X115345544Y-60563580D01*
X115345544Y-60563580D02*
X115821734Y-60563580D01*
X138062687Y-62173524D02*
X138729353Y-62173524D01*
X138729353Y-62173524D02*
X138300782Y-61173524D01*
X138776972Y-59563580D02*
X138300782Y-59563580D01*
X138300782Y-59563580D02*
X138300782Y-60563580D01*
X92882401Y-114243524D02*
X92977639Y-114243524D01*
X92977639Y-114243524D02*
X93072877Y-114195905D01*
X93072877Y-114195905D02*
X93120496Y-114148286D01*
X93120496Y-114148286D02*
X93168115Y-114053048D01*
X93168115Y-114053048D02*
X93215734Y-113862572D01*
X93215734Y-113862572D02*
X93215734Y-113624477D01*
X93215734Y-113624477D02*
X93168115Y-113434001D01*
X93168115Y-113434001D02*
X93120496Y-113338763D01*
X93120496Y-113338763D02*
X93072877Y-113291144D01*
X93072877Y-113291144D02*
X92977639Y-113243524D01*
X92977639Y-113243524D02*
X92882401Y-113243524D01*
X92882401Y-113243524D02*
X92787163Y-113291144D01*
X92787163Y-113291144D02*
X92739544Y-113338763D01*
X92739544Y-113338763D02*
X92691925Y-113434001D01*
X92691925Y-113434001D02*
X92644306Y-113624477D01*
X92644306Y-113624477D02*
X92644306Y-113862572D01*
X92644306Y-113862572D02*
X92691925Y-114053048D01*
X92691925Y-114053048D02*
X92739544Y-114148286D01*
X92739544Y-114148286D02*
X92787163Y-114195905D01*
X92787163Y-114195905D02*
X92882401Y-114243524D01*
X93120496Y-112300247D02*
X93120496Y-111633580D01*
X92882401Y-112681200D02*
X92644306Y-111966914D01*
X92644306Y-111966914D02*
X93263353Y-111966914D01*
X94882687Y-61173524D02*
X94882687Y-62173524D01*
X94882687Y-62173524D02*
X95454115Y-61173524D01*
X95454115Y-61173524D02*
X95454115Y-62173524D01*
X95454115Y-60563580D02*
X94977925Y-60563580D01*
X94977925Y-60563580D02*
X94930306Y-60087390D01*
X94930306Y-60087390D02*
X94977925Y-60135009D01*
X94977925Y-60135009D02*
X95073163Y-60182628D01*
X95073163Y-60182628D02*
X95311258Y-60182628D01*
X95311258Y-60182628D02*
X95406496Y-60135009D01*
X95406496Y-60135009D02*
X95454115Y-60087390D01*
X95454115Y-60087390D02*
X95501734Y-59992152D01*
X95501734Y-59992152D02*
X95501734Y-59754057D01*
X95501734Y-59754057D02*
X95454115Y-59658819D01*
X95454115Y-59658819D02*
X95406496Y-59611200D01*
X95406496Y-59611200D02*
X95311258Y-59563580D01*
X95311258Y-59563580D02*
X95073163Y-59563580D01*
X95073163Y-59563580D02*
X94977925Y-59611200D01*
X94977925Y-59611200D02*
X94930306Y-59658819D01*
X133379544Y-113529239D02*
X133855734Y-113529239D01*
X133284306Y-113243524D02*
X133617639Y-114243524D01*
X133617639Y-114243524D02*
X133950972Y-113243524D01*
X133808115Y-112633580D02*
X133808115Y-111919295D01*
X133808115Y-111919295D02*
X133760496Y-111776438D01*
X133760496Y-111776438D02*
X133665258Y-111681200D01*
X133665258Y-111681200D02*
X133522401Y-111633580D01*
X133522401Y-111633580D02*
X133427163Y-111633580D01*
X85341734Y-61173524D02*
X85008401Y-61649715D01*
X84770306Y-61173524D02*
X84770306Y-62173524D01*
X84770306Y-62173524D02*
X85151258Y-62173524D01*
X85151258Y-62173524D02*
X85246496Y-62125905D01*
X85246496Y-62125905D02*
X85294115Y-62078286D01*
X85294115Y-62078286D02*
X85341734Y-61983048D01*
X85341734Y-61983048D02*
X85341734Y-61840191D01*
X85341734Y-61840191D02*
X85294115Y-61744953D01*
X85294115Y-61744953D02*
X85246496Y-61697334D01*
X85246496Y-61697334D02*
X85151258Y-61649715D01*
X85151258Y-61649715D02*
X84770306Y-61649715D01*
X85341734Y-59563580D02*
X84770306Y-59563580D01*
X85056020Y-59563580D02*
X85056020Y-60563580D01*
X85056020Y-60563580D02*
X84960782Y-60420723D01*
X84960782Y-60420723D02*
X84865544Y-60325485D01*
X84865544Y-60325485D02*
X84770306Y-60277866D01*
X92628401Y-62173524D02*
X92723639Y-62173524D01*
X92723639Y-62173524D02*
X92818877Y-62125905D01*
X92818877Y-62125905D02*
X92866496Y-62078286D01*
X92866496Y-62078286D02*
X92914115Y-61983048D01*
X92914115Y-61983048D02*
X92961734Y-61792572D01*
X92961734Y-61792572D02*
X92961734Y-61554477D01*
X92961734Y-61554477D02*
X92914115Y-61364001D01*
X92914115Y-61364001D02*
X92866496Y-61268763D01*
X92866496Y-61268763D02*
X92818877Y-61221144D01*
X92818877Y-61221144D02*
X92723639Y-61173524D01*
X92723639Y-61173524D02*
X92628401Y-61173524D01*
X92628401Y-61173524D02*
X92533163Y-61221144D01*
X92533163Y-61221144D02*
X92485544Y-61268763D01*
X92485544Y-61268763D02*
X92437925Y-61364001D01*
X92437925Y-61364001D02*
X92390306Y-61554477D01*
X92390306Y-61554477D02*
X92390306Y-61792572D01*
X92390306Y-61792572D02*
X92437925Y-61983048D01*
X92437925Y-61983048D02*
X92485544Y-62078286D01*
X92485544Y-62078286D02*
X92533163Y-62125905D01*
X92533163Y-62125905D02*
X92628401Y-62173524D01*
X92866496Y-60230247D02*
X92866496Y-59563580D01*
X92628401Y-60611200D02*
X92390306Y-59896914D01*
X92390306Y-59896914D02*
X93009353Y-59896914D01*
X83055734Y-113243524D02*
X82484306Y-113243524D01*
X82770020Y-113243524D02*
X82770020Y-114243524D01*
X82770020Y-114243524D02*
X82674782Y-114100667D01*
X82674782Y-114100667D02*
X82579544Y-114005429D01*
X82579544Y-114005429D02*
X82484306Y-113957810D01*
X82674782Y-112205009D02*
X82579544Y-112252628D01*
X82579544Y-112252628D02*
X82531925Y-112300247D01*
X82531925Y-112300247D02*
X82484306Y-112395485D01*
X82484306Y-112395485D02*
X82484306Y-112443104D01*
X82484306Y-112443104D02*
X82531925Y-112538342D01*
X82531925Y-112538342D02*
X82579544Y-112585961D01*
X82579544Y-112585961D02*
X82674782Y-112633580D01*
X82674782Y-112633580D02*
X82865258Y-112633580D01*
X82865258Y-112633580D02*
X82960496Y-112585961D01*
X82960496Y-112585961D02*
X83008115Y-112538342D01*
X83008115Y-112538342D02*
X83055734Y-112443104D01*
X83055734Y-112443104D02*
X83055734Y-112395485D01*
X83055734Y-112395485D02*
X83008115Y-112300247D01*
X83008115Y-112300247D02*
X82960496Y-112252628D01*
X82960496Y-112252628D02*
X82865258Y-112205009D01*
X82865258Y-112205009D02*
X82674782Y-112205009D01*
X82674782Y-112205009D02*
X82579544Y-112157390D01*
X82579544Y-112157390D02*
X82531925Y-112109771D01*
X82531925Y-112109771D02*
X82484306Y-112014533D01*
X82484306Y-112014533D02*
X82484306Y-111824057D01*
X82484306Y-111824057D02*
X82531925Y-111728819D01*
X82531925Y-111728819D02*
X82579544Y-111681200D01*
X82579544Y-111681200D02*
X82674782Y-111633580D01*
X82674782Y-111633580D02*
X82865258Y-111633580D01*
X82865258Y-111633580D02*
X82960496Y-111681200D01*
X82960496Y-111681200D02*
X83008115Y-111728819D01*
X83008115Y-111728819D02*
X83055734Y-111824057D01*
X83055734Y-111824057D02*
X83055734Y-112014533D01*
X83055734Y-112014533D02*
X83008115Y-112109771D01*
X83008115Y-112109771D02*
X82960496Y-112157390D01*
X82960496Y-112157390D02*
X82865258Y-112205009D01*
X125410306Y-61173524D02*
X125410306Y-62173524D01*
X125410306Y-62173524D02*
X125648401Y-62173524D01*
X125648401Y-62173524D02*
X125791258Y-62125905D01*
X125791258Y-62125905D02*
X125886496Y-62030667D01*
X125886496Y-62030667D02*
X125934115Y-61935429D01*
X125934115Y-61935429D02*
X125981734Y-61744953D01*
X125981734Y-61744953D02*
X125981734Y-61602096D01*
X125981734Y-61602096D02*
X125934115Y-61411620D01*
X125934115Y-61411620D02*
X125886496Y-61316382D01*
X125886496Y-61316382D02*
X125791258Y-61221144D01*
X125791258Y-61221144D02*
X125648401Y-61173524D01*
X125648401Y-61173524D02*
X125410306Y-61173524D01*
X125934115Y-60515961D02*
X125838877Y-60563580D01*
X125838877Y-60563580D02*
X125696020Y-60563580D01*
X125696020Y-60563580D02*
X125553163Y-60515961D01*
X125553163Y-60515961D02*
X125457925Y-60420723D01*
X125457925Y-60420723D02*
X125410306Y-60325485D01*
X125410306Y-60325485D02*
X125362687Y-60135009D01*
X125362687Y-60135009D02*
X125362687Y-59992152D01*
X125362687Y-59992152D02*
X125410306Y-59801676D01*
X125410306Y-59801676D02*
X125457925Y-59706438D01*
X125457925Y-59706438D02*
X125553163Y-59611200D01*
X125553163Y-59611200D02*
X125696020Y-59563580D01*
X125696020Y-59563580D02*
X125791258Y-59563580D01*
X125791258Y-59563580D02*
X125934115Y-59611200D01*
X125934115Y-59611200D02*
X125981734Y-59658819D01*
X125981734Y-59658819D02*
X125981734Y-59992152D01*
X125981734Y-59992152D02*
X125791258Y-59992152D01*
D12*
G36*
X120500864Y-85400838D02*
G01*
X120635114Y-85402119D01*
X120726452Y-85403462D01*
X120887663Y-85407334D01*
X121022218Y-85413133D01*
X121137728Y-85421343D01*
X121241800Y-85432445D01*
X121342043Y-85446921D01*
X121365494Y-85450768D01*
X121806677Y-85542686D01*
X122233925Y-85669190D01*
X122645663Y-85829592D01*
X123040319Y-86023206D01*
X123416319Y-86249345D01*
X123772090Y-86507323D01*
X123863632Y-86582642D01*
X124062968Y-86763519D01*
X124264130Y-86967023D01*
X124459109Y-87184424D01*
X124639895Y-87406991D01*
X124798478Y-87625996D01*
X124846071Y-87697919D01*
X125041500Y-88027674D01*
X125216107Y-88379671D01*
X125368441Y-88748643D01*
X125497056Y-89129325D01*
X125600500Y-89516454D01*
X125677327Y-89904764D01*
X125726086Y-90288989D01*
X125745329Y-90663866D01*
X125733608Y-91024128D01*
X125702929Y-91311192D01*
X125649581Y-91612347D01*
X125573638Y-91899507D01*
X125472252Y-92183224D01*
X125342579Y-92474050D01*
X125276234Y-92605080D01*
X125134768Y-92854090D01*
X124972875Y-93102068D01*
X124788236Y-93351907D01*
X124578531Y-93606499D01*
X124341440Y-93868735D01*
X124074645Y-94141507D01*
X123775826Y-94427708D01*
X123742327Y-94458841D01*
X123648642Y-94545432D01*
X123542195Y-94643276D01*
X123426694Y-94749013D01*
X123305846Y-94859282D01*
X123183357Y-94970724D01*
X123062934Y-95079978D01*
X122948285Y-95183684D01*
X122843116Y-95278482D01*
X122751133Y-95361011D01*
X122676045Y-95427910D01*
X122621558Y-95475821D01*
X122591379Y-95501383D01*
X122580216Y-95507382D01*
X122561287Y-95504216D01*
X122534839Y-95483062D01*
X122495948Y-95439647D01*
X122439694Y-95369699D01*
X122300879Y-95211583D01*
X122103391Y-95035569D01*
X121885439Y-94889378D01*
X121650565Y-94775313D01*
X121402312Y-94695675D01*
X121344462Y-94684038D01*
X121206770Y-94669292D01*
X121034365Y-94664865D01*
X120856904Y-94672789D01*
X120640019Y-94706123D01*
X120432063Y-94767695D01*
X120225424Y-94859889D01*
X120012494Y-94985090D01*
X119905528Y-95062168D01*
X119764292Y-95182607D01*
X119625553Y-95319428D01*
X119499480Y-95462458D01*
X119396245Y-95601522D01*
X119263808Y-95820653D01*
X119134301Y-96090035D01*
X119036413Y-96368904D01*
X118969743Y-96659737D01*
X118933886Y-96965012D01*
X118928439Y-97287209D01*
X118952998Y-97628804D01*
X119007162Y-97992276D01*
X119049883Y-98225172D01*
X119003731Y-98225172D01*
X118992862Y-98224799D01*
X118920048Y-98212212D01*
X118820554Y-98183454D01*
X118699625Y-98140832D01*
X118562506Y-98086657D01*
X118414442Y-98023238D01*
X118260677Y-97952883D01*
X118106457Y-97877903D01*
X117957026Y-97800606D01*
X117817629Y-97723301D01*
X117693511Y-97648298D01*
X117534935Y-97543604D01*
X117157427Y-97263464D01*
X116793251Y-96948653D01*
X116443145Y-96600103D01*
X116107849Y-96218745D01*
X115788102Y-95805509D01*
X115484644Y-95361328D01*
X115198213Y-94887131D01*
X114929550Y-94383851D01*
X114679393Y-93852418D01*
X114558724Y-93563174D01*
X114396677Y-93105226D01*
X114272039Y-92651923D01*
X114184763Y-92203657D01*
X114134805Y-91760820D01*
X114122118Y-91323805D01*
X114146655Y-90893003D01*
X114208371Y-90468806D01*
X114307220Y-90051608D01*
X114443156Y-89641798D01*
X114616132Y-89239771D01*
X114826103Y-88845917D01*
X115073023Y-88460628D01*
X115356845Y-88084298D01*
X115416053Y-88012999D01*
X115609738Y-87796082D01*
X115828015Y-87572481D01*
X116063549Y-87349242D01*
X116309004Y-87133405D01*
X116557045Y-86932015D01*
X116560493Y-86929344D01*
X116619959Y-86884924D01*
X116696745Y-86829774D01*
X116785473Y-86767525D01*
X116880768Y-86701803D01*
X116977253Y-86636237D01*
X117069553Y-86574456D01*
X117152293Y-86520089D01*
X117220094Y-86476762D01*
X117267583Y-86448106D01*
X117289382Y-86437747D01*
X117290081Y-86437809D01*
X117311582Y-86454795D01*
X117350168Y-86498673D01*
X117402363Y-86564784D01*
X117464691Y-86648469D01*
X117533676Y-86745066D01*
X117605843Y-86849917D01*
X117677715Y-86958361D01*
X117725526Y-87033125D01*
X117789261Y-87135671D01*
X117853454Y-87241682D01*
X117915169Y-87346052D01*
X117971470Y-87443674D01*
X118019419Y-87529442D01*
X118056082Y-87598251D01*
X118078520Y-87644992D01*
X118083799Y-87664560D01*
X118083703Y-87664644D01*
X118062002Y-87664000D01*
X118010966Y-87656031D01*
X117938104Y-87642064D01*
X117850922Y-87623426D01*
X117626979Y-87573358D01*
X117344237Y-87856339D01*
X117061495Y-88139319D01*
X117257119Y-88443536D01*
X117452744Y-88747753D01*
X117343333Y-88975871D01*
X117309651Y-89048329D01*
X117239737Y-89213239D01*
X117176375Y-89381879D01*
X117122681Y-89545085D01*
X117081772Y-89693693D01*
X117056763Y-89818537D01*
X117035035Y-89967615D01*
X116729498Y-90067988D01*
X116653319Y-90093463D01*
X116558857Y-90126415D01*
X116481184Y-90155097D01*
X116426783Y-90177095D01*
X116402137Y-90189992D01*
X116399188Y-90193470D01*
X116380920Y-90234263D01*
X116359965Y-90309121D01*
X116337032Y-90414830D01*
X116312834Y-90548173D01*
X116288080Y-90705936D01*
X116277899Y-90787936D01*
X116265019Y-90947092D01*
X116256898Y-91128350D01*
X116253538Y-91322002D01*
X116254942Y-91518340D01*
X116261112Y-91707655D01*
X116272051Y-91880239D01*
X116287761Y-92026385D01*
X116289239Y-92036955D01*
X116301919Y-92125536D01*
X116312827Y-92198244D01*
X116320844Y-92247812D01*
X116324849Y-92266972D01*
X116339234Y-92261465D01*
X116384457Y-92241615D01*
X116456678Y-92209042D01*
X116551984Y-92165532D01*
X116666462Y-92112872D01*
X116796199Y-92052850D01*
X116937284Y-91987253D01*
X117060809Y-91929790D01*
X117195212Y-91867519D01*
X117316080Y-91811789D01*
X117419233Y-91764515D01*
X117500489Y-91727612D01*
X117555666Y-91702995D01*
X117580585Y-91692579D01*
X117590144Y-91691761D01*
X117617978Y-91703093D01*
X117659751Y-91734394D01*
X117719110Y-91788591D01*
X117799701Y-91868615D01*
X117966385Y-92026977D01*
X118229047Y-92235707D01*
X118508320Y-92410703D01*
X118805916Y-92552992D01*
X119123548Y-92663603D01*
X119164093Y-92675639D01*
X119233398Y-92697704D01*
X119283647Y-92715718D01*
X119306042Y-92726642D01*
X119310134Y-92738413D01*
X119321148Y-92783344D01*
X119337266Y-92856635D01*
X119357371Y-92953006D01*
X119380343Y-93067175D01*
X119405062Y-93193861D01*
X119422737Y-93285048D01*
X119446018Y-93402775D01*
X119466568Y-93503967D01*
X119483306Y-93583415D01*
X119495153Y-93635913D01*
X119501027Y-93656255D01*
X119501376Y-93656435D01*
X119524815Y-93657636D01*
X119580751Y-93657602D01*
X119664152Y-93656482D01*
X119769988Y-93654425D01*
X119893225Y-93651580D01*
X120028831Y-93648096D01*
X120171774Y-93644122D01*
X120317023Y-93639808D01*
X120459545Y-93635302D01*
X120594307Y-93630753D01*
X120716278Y-93626310D01*
X120820426Y-93622123D01*
X120901719Y-93618340D01*
X120955124Y-93615111D01*
X120975609Y-93612584D01*
X120975689Y-93612476D01*
X120980453Y-93591646D01*
X120990449Y-93539241D01*
X121004701Y-93460925D01*
X121022238Y-93362361D01*
X121042083Y-93249214D01*
X121063265Y-93127146D01*
X121084808Y-93001822D01*
X121105740Y-92878904D01*
X121125086Y-92764058D01*
X121141873Y-92662945D01*
X121155126Y-92581230D01*
X121163873Y-92524577D01*
X121167138Y-92498649D01*
X121181094Y-92486599D01*
X121222740Y-92460909D01*
X121285399Y-92425850D01*
X121362322Y-92385339D01*
X121596084Y-92255098D01*
X121848181Y-92090174D01*
X122083284Y-91910192D01*
X122296153Y-91719523D01*
X122481552Y-91522542D01*
X122634243Y-91323618D01*
X122664448Y-91282222D01*
X122697782Y-91244138D01*
X122718927Y-91229255D01*
X122733975Y-91233321D01*
X122781500Y-91249322D01*
X122856961Y-91276022D01*
X122956117Y-91311884D01*
X123074729Y-91355372D01*
X123208557Y-91404951D01*
X123353361Y-91459085D01*
X123399785Y-91476490D01*
X123565921Y-91538204D01*
X123700016Y-91586899D01*
X123804695Y-91623435D01*
X123882583Y-91648673D01*
X123936302Y-91663473D01*
X123968479Y-91668697D01*
X123981738Y-91665205D01*
X123997629Y-91620325D01*
X124011941Y-91540440D01*
X124024157Y-91429455D01*
X124034031Y-91290843D01*
X124041317Y-91128074D01*
X124045767Y-90944622D01*
X124047135Y-90743960D01*
X124046484Y-90595838D01*
X124043711Y-90435713D01*
X124037657Y-90299595D01*
X124027137Y-90179653D01*
X124010963Y-90068057D01*
X123987950Y-89956973D01*
X123956909Y-89838572D01*
X123916656Y-89705022D01*
X123866002Y-89548491D01*
X123859375Y-89528632D01*
X123817458Y-89411224D01*
X123769076Y-89286672D01*
X123717385Y-89162154D01*
X123665537Y-89044848D01*
X123616688Y-88941932D01*
X123573991Y-88860584D01*
X123540601Y-88807982D01*
X123540201Y-88807469D01*
X123528070Y-88795730D01*
X123509239Y-88787071D01*
X123478488Y-88781075D01*
X123430597Y-88777326D01*
X123360346Y-88775408D01*
X123262515Y-88774904D01*
X123131885Y-88775399D01*
X123120246Y-88775465D01*
X122992792Y-88775913D01*
X122897940Y-88775368D01*
X122830670Y-88773428D01*
X122785962Y-88769689D01*
X122758797Y-88763747D01*
X122744154Y-88755197D01*
X122737013Y-88743637D01*
X122728855Y-88724949D01*
X122696390Y-88663760D01*
X122648910Y-88583499D01*
X122591572Y-88492261D01*
X122529537Y-88398142D01*
X122467963Y-88309237D01*
X122412008Y-88233640D01*
X122407103Y-88227376D01*
X122344604Y-88152899D01*
X122264651Y-88064496D01*
X122177013Y-87972698D01*
X122091458Y-87888038D01*
X121889555Y-87695269D01*
X122059562Y-87280393D01*
X122090213Y-87204879D01*
X122133834Y-87094625D01*
X122170125Y-86999426D01*
X122197242Y-86924284D01*
X122213344Y-86874204D01*
X122216586Y-86854186D01*
X122199914Y-86846499D01*
X122152523Y-86826380D01*
X122079443Y-86795952D01*
X121985636Y-86757237D01*
X121876064Y-86712257D01*
X121755689Y-86663034D01*
X121629472Y-86611591D01*
X121502375Y-86559949D01*
X121379361Y-86510130D01*
X121265390Y-86464158D01*
X121165426Y-86424053D01*
X121084429Y-86391838D01*
X121027361Y-86369535D01*
X121025348Y-86369421D01*
X121000867Y-86385464D01*
X120955339Y-86427640D01*
X120891414Y-86493244D01*
X120811746Y-86579573D01*
X120718986Y-86683925D01*
X120675947Y-86732917D01*
X120597600Y-86821094D01*
X120529228Y-86896746D01*
X120474557Y-86955816D01*
X120437315Y-86994247D01*
X120421229Y-87007983D01*
X120417466Y-87005158D01*
X120409843Y-86976637D01*
X120406672Y-86927306D01*
X120406320Y-86912159D01*
X120396542Y-86819185D01*
X120374064Y-86695206D01*
X120339818Y-86543875D01*
X120294733Y-86368847D01*
X120239742Y-86173777D01*
X120175773Y-85962317D01*
X120103759Y-85738123D01*
X120082637Y-85673737D01*
X120052896Y-85581484D01*
X120029146Y-85505831D01*
X120013413Y-85453265D01*
X120007718Y-85430271D01*
X120010586Y-85425493D01*
X120039177Y-85413547D01*
X120088519Y-85404815D01*
X120111135Y-85403364D01*
X120173678Y-85401648D01*
X120263747Y-85400634D01*
X120374942Y-85400353D01*
X120500864Y-85400838D01*
G37*
G36*
X116713494Y-81638425D02*
G01*
X116815009Y-81658355D01*
X116860769Y-81672555D01*
X116968997Y-81714551D01*
X117055214Y-81765589D01*
X117131217Y-81833714D01*
X117208800Y-81926972D01*
X117322515Y-82078943D01*
X117630058Y-82509845D01*
X117934527Y-82964461D01*
X118229477Y-83432679D01*
X118508466Y-83904386D01*
X118765048Y-84369469D01*
X118802323Y-84440252D01*
X118898208Y-84626726D01*
X118997234Y-84824973D01*
X119097696Y-85031190D01*
X119197891Y-85241575D01*
X119296117Y-85452325D01*
X119390669Y-85659637D01*
X119479846Y-85859707D01*
X119561943Y-86048734D01*
X119635258Y-86222914D01*
X119698088Y-86378444D01*
X119748728Y-86511521D01*
X119785476Y-86618344D01*
X119806629Y-86695107D01*
X119818839Y-86752842D01*
X119566310Y-86701104D01*
X119492407Y-86685678D01*
X119392608Y-86665055D01*
X119313951Y-86652190D01*
X119250317Y-86649353D01*
X119195585Y-86658816D01*
X119143634Y-86682849D01*
X119088345Y-86723721D01*
X119023597Y-86783704D01*
X118943271Y-86865068D01*
X118841246Y-86970082D01*
X118782054Y-87030508D01*
X118698653Y-87115109D01*
X118626712Y-87187437D01*
X118569990Y-87243742D01*
X118532247Y-87280275D01*
X118517240Y-87293286D01*
X118506890Y-87278254D01*
X118481847Y-87234562D01*
X118445086Y-87167485D01*
X118399508Y-87082315D01*
X118348010Y-86984341D01*
X118092302Y-86509818D01*
X117732935Y-85893013D01*
X117360597Y-85309522D01*
X117251952Y-85150975D01*
X117118048Y-84962773D01*
X116966189Y-84755148D01*
X116799976Y-84532789D01*
X116623011Y-84300384D01*
X116438896Y-84062621D01*
X116251232Y-83824189D01*
X116063621Y-83589776D01*
X115879665Y-83364070D01*
X115702964Y-83151760D01*
X115676069Y-83119844D01*
X115586042Y-83012879D01*
X115516798Y-82929185D01*
X115465611Y-82863951D01*
X115429753Y-82812370D01*
X115406497Y-82769632D01*
X115393118Y-82730927D01*
X115386888Y-82691447D01*
X115385080Y-82646382D01*
X115384968Y-82590924D01*
X115387492Y-82501777D01*
X115411149Y-82337923D01*
X115461939Y-82194514D01*
X115542621Y-82064951D01*
X115655951Y-81942637D01*
X115696665Y-81907324D01*
X115840095Y-81809236D01*
X116007440Y-81727271D01*
X116189003Y-81666453D01*
X116197686Y-81664235D01*
X116317641Y-81642282D01*
X116452081Y-81630553D01*
X116588274Y-81629213D01*
X116713494Y-81638425D01*
G37*
G36*
X123420334Y-95477793D02*
G01*
X123430806Y-95537075D01*
X123440043Y-95631494D01*
X123444393Y-95704089D01*
X123435183Y-95947632D01*
X123391298Y-96189718D01*
X123315168Y-96426294D01*
X123209223Y-96653309D01*
X123075894Y-96866712D01*
X122917611Y-97062451D01*
X122736804Y-97236475D01*
X122535904Y-97384731D01*
X122317341Y-97503169D01*
X122308094Y-97507313D01*
X122234955Y-97539143D01*
X122139678Y-97579496D01*
X122033568Y-97623624D01*
X121927928Y-97666776D01*
X121860586Y-97695392D01*
X121715006Y-97763793D01*
X121538255Y-97853848D01*
X121330373Y-97965536D01*
X121091401Y-98098836D01*
X121024942Y-98136419D01*
X120880451Y-98217652D01*
X120764645Y-98281828D01*
X120674544Y-98330436D01*
X120607171Y-98364968D01*
X120559547Y-98386913D01*
X120528693Y-98397764D01*
X120511633Y-98399010D01*
X120505387Y-98392142D01*
X120504548Y-98375419D01*
X120511097Y-98317697D01*
X120527369Y-98235343D01*
X120551574Y-98136003D01*
X120581922Y-98027326D01*
X120616623Y-97916960D01*
X120663531Y-97788113D01*
X120780638Y-97538053D01*
X120922946Y-97316120D01*
X121090745Y-97121822D01*
X121152624Y-97062130D01*
X121215392Y-97007304D01*
X121282654Y-96955558D01*
X121359411Y-96903714D01*
X121450662Y-96848591D01*
X121561408Y-96787011D01*
X121696650Y-96715793D01*
X121861386Y-96631757D01*
X121917433Y-96603198D01*
X122049660Y-96534083D01*
X122180040Y-96463770D01*
X122300491Y-96396726D01*
X122402930Y-96337416D01*
X122479275Y-96290308D01*
X122601120Y-96207253D01*
X122816000Y-96042742D01*
X123015256Y-95866975D01*
X123191727Y-95686474D01*
X123338255Y-95507763D01*
X123357905Y-95482060D01*
X123386246Y-95453156D01*
X123406268Y-95450776D01*
X123420334Y-95477793D01*
G37*
G36*
X119498622Y-87114234D02*
G01*
X119577137Y-87140751D01*
X119684515Y-87179313D01*
X119931065Y-87273764D01*
X120236458Y-87412113D01*
X120517496Y-87564695D01*
X120772248Y-87729971D01*
X120998786Y-87906403D01*
X121195178Y-88092455D01*
X121359496Y-88286587D01*
X121489808Y-88487262D01*
X121584184Y-88692943D01*
X121610354Y-88770926D01*
X121659890Y-88972229D01*
X121688327Y-89180646D01*
X121695158Y-89386852D01*
X121679877Y-89581524D01*
X121641975Y-89755337D01*
X121636483Y-89772894D01*
X121577864Y-89929704D01*
X121505651Y-90066687D01*
X121412736Y-90195469D01*
X121292010Y-90327674D01*
X121213761Y-90402527D01*
X121072995Y-90517576D01*
X120921405Y-90615604D01*
X120752210Y-90700266D01*
X120558628Y-90775216D01*
X120333880Y-90844111D01*
X120319978Y-90847928D01*
X120239080Y-90868329D01*
X120166667Y-90881920D01*
X120091118Y-90890015D01*
X120000816Y-90893929D01*
X119884140Y-90894975D01*
X119787180Y-90894310D01*
X119689725Y-90890852D01*
X119611369Y-90883466D01*
X119541547Y-90871072D01*
X119469695Y-90852590D01*
X119372305Y-90821394D01*
X119151115Y-90723402D01*
X118950661Y-90594662D01*
X118772467Y-90436890D01*
X118618056Y-90251803D01*
X118488954Y-90041118D01*
X118386684Y-89806550D01*
X118312771Y-89549816D01*
X118305677Y-89515318D01*
X118282579Y-89323714D01*
X118281491Y-89119009D01*
X118301873Y-88915801D01*
X118343183Y-88728690D01*
X118356389Y-88685573D01*
X118460898Y-88409420D01*
X118601331Y-88127068D01*
X118776646Y-87840245D01*
X118985803Y-87550679D01*
X119227762Y-87260099D01*
X119272144Y-87209543D01*
X119320709Y-87155600D01*
X119360015Y-87120447D01*
X119397686Y-87102734D01*
X119441347Y-87101112D01*
X119498622Y-87114234D01*
G37*
%LPC*%
D13*
X77200000Y-108000000D03*
D14*
X82475000Y-109100000D03*
D15*
X82475000Y-106560000D03*
X85015000Y-109100000D03*
X85015000Y-106560000D03*
X87555000Y-109100000D03*
X87555000Y-106560000D03*
X90095000Y-109100000D03*
X90095000Y-106560000D03*
X92635000Y-109100000D03*
X92635000Y-106560000D03*
X95175000Y-109100000D03*
X95175000Y-106560000D03*
X97715000Y-109100000D03*
X97715000Y-106560000D03*
X100255000Y-109100000D03*
X100255000Y-106560000D03*
X102795000Y-109100000D03*
X102795000Y-106560000D03*
X105335000Y-109100000D03*
X105335000Y-106560000D03*
X107875000Y-109100000D03*
X107875000Y-106560000D03*
X110415000Y-109100000D03*
X110415000Y-106560000D03*
X112955000Y-109100000D03*
X112955000Y-106560000D03*
X115495000Y-109100000D03*
X115495000Y-106560000D03*
X118035000Y-109100000D03*
X118035000Y-106560000D03*
X120575000Y-109100000D03*
X120575000Y-106560000D03*
X123115000Y-109100000D03*
X123115000Y-106560000D03*
X125655000Y-109100000D03*
X125655000Y-106560000D03*
X128195000Y-109100000D03*
X128195000Y-106560000D03*
X130735000Y-109100000D03*
X130735000Y-106560000D03*
X133275000Y-109100000D03*
X133275000Y-106560000D03*
X135815000Y-109100000D03*
X135815000Y-106560000D03*
X138355000Y-109100000D03*
X138355000Y-106560000D03*
X140895000Y-109100000D03*
X140895000Y-106560000D03*
X143435000Y-109100000D03*
X143435000Y-106560000D03*
X145975000Y-109100000D03*
X145975000Y-106560000D03*
X148515000Y-109100000D03*
X148515000Y-106560000D03*
X151055000Y-109100000D03*
X151055000Y-106560000D03*
X153595000Y-109100000D03*
X153595000Y-106560000D03*
X156135000Y-109100000D03*
X156135000Y-106560000D03*
D14*
X156135000Y-64700000D03*
D15*
X156135000Y-67240000D03*
X153595000Y-64700000D03*
X153595000Y-67240000D03*
X151055000Y-64700000D03*
X151055000Y-67240000D03*
X148515000Y-64700000D03*
X148515000Y-67240000D03*
X145975000Y-64700000D03*
X145975000Y-67240000D03*
X143435000Y-64700000D03*
X143435000Y-67240000D03*
X140895000Y-64700000D03*
X140895000Y-67240000D03*
X138355000Y-64700000D03*
X138355000Y-67240000D03*
X135815000Y-64700000D03*
X135815000Y-67240000D03*
X133275000Y-64700000D03*
X133275000Y-67240000D03*
X130735000Y-64700000D03*
X130735000Y-67240000D03*
X128195000Y-64700000D03*
X128195000Y-67240000D03*
X125655000Y-64700000D03*
X125655000Y-67240000D03*
X123115000Y-64700000D03*
X123115000Y-67240000D03*
X120575000Y-64700000D03*
X120575000Y-67240000D03*
X118035000Y-64700000D03*
X118035000Y-67240000D03*
X115495000Y-64700000D03*
X115495000Y-67240000D03*
X112955000Y-64700000D03*
X112955000Y-67240000D03*
X110415000Y-64700000D03*
X110415000Y-67240000D03*
X107875000Y-64700000D03*
X107875000Y-67240000D03*
X105335000Y-64700000D03*
X105335000Y-67240000D03*
X102795000Y-64700000D03*
X102795000Y-67240000D03*
X100255000Y-64700000D03*
X100255000Y-67240000D03*
X97715000Y-64700000D03*
X97715000Y-67240000D03*
X95175000Y-64700000D03*
X95175000Y-67240000D03*
X92635000Y-64700000D03*
X92635000Y-67240000D03*
X90095000Y-64700000D03*
X90095000Y-67240000D03*
X87555000Y-64700000D03*
X87555000Y-67240000D03*
X85015000Y-64700000D03*
X85015000Y-67240000D03*
X82475000Y-64700000D03*
X82475000Y-67240000D03*
D13*
X161400000Y-108000000D03*
D16*
X84750000Y-75950000D03*
D13*
X77200000Y-65800000D03*
X161400000Y-65800000D03*
D16*
X153850000Y-75950000D03*
%LPD*%
M02*
