0
SECTION
2
HEADER
9
$INSUNITS
70
4
9
$ACADVER
1
AC1014
9
$HANDSEED
5
FFFF
0
ENDSEC
0
SECTION
2
TABLES
0
TABLE
2
VPORT
5
8
100
AcDbSymbolTable
0
ENDTAB
0
TABLE
2
LTYPE
5
5
100
AcDbSymbolTable
0
LTYPE
5
14
100
AcDbSymbolTableRecord
100
AcDbLinetypeTableRecord
2
BYBLOCK
70
0
0
LTYPE
5
15
100
AcDbSymbolTableRecord
100
AcDbLinetypeTableRecord
2
BYLAYER
70
0
0
LTYPE
5
16
100
AcDbSymbolTableRecord
100
AcDbLinetypeTableRecord
2
DASHED
70
0
3
Dashed __ __ __ __ __ __ __ __ __ __ __ __ __ _
72
65
73
2
40
0.75
49
0.5
74
0
49
-0.25
74
0
0
ENDTAB
0
TABLE
2
LAYER
5
2
100
AcDbSymbolTable
70
3
0
LAYER
5
50
100
AcDbSymbolTableRecord
100
AcDbLayerTableRecord
2
1
70
0
62
7
6
DASHED
0
LAYER
5
51
100
AcDbSymbolTableRecord
100
AcDbLayerTableRecord
2
0
70
0
62
7
6
CONTINUOUS
0
ENDTAB
0
TABLE
2
STYLE
5
3
100
AcDbSymbolTable
70
1
0
STYLE
5
11
100
AcDbSymbolTableRecord
100
AcDbTextStyleTableRecord
2
STANDARD
70
0
0
ENDTAB
0
TABLE
2
VIEW
5
6
100
AcDbSymbolTable
70
0
0
ENDTAB
0
TABLE
2
UCS
5
7
100
AcDbSymbolTable
70
0
0
ENDTAB
0
TABLE
2
APPID
5
9
100
AcDbSymbolTable
70
2
0
APPID
5
12
100
AcDbSymbolTableRecord
100
AcDbRegAppTableRecord
2
ACAD
70
0
0
ENDTAB
0
TABLE
2
DIMSTYLE
5
A
100
AcDbSymbolTable
70
1
0
ENDTAB
0
TABLE
2
BLOCK_RECORD
5
1
100
AcDbSymbolTable
70
1
0
BLOCK_RECORD
5
1F
100
AcDbSymbolTableRecord
100
AcDbBlockTableRecord
2
*MODEL_SPACE
0
BLOCK_RECORD
5
1B
100
AcDbSymbolTableRecord
100
AcDbBlockTableRecord
2
*PAPER_SPACE
0
ENDTAB
0
ENDSEC
0
SECTION
2
BLOCKS
0
BLOCK
5
20
100
AcDbEntity
100
AcDbBlockBegin
2
*MODEL_SPACE
0
ENDBLK
5
21
100
AcDbEntity
100
AcDbBlockEnd
0
BLOCK
5
1C
100
AcDbEntity
100
AcDbBlockBegin
2
*PAPER_SPACE
0
ENDBLK
5
1D
100
AcDbEntity
100
AcDbBlockEnd
0
ENDSEC
0
SECTION
2
ENTITIES
0
POINT
5
100
100
AcDbEntity
8
0
100
AcDbPoint
10
0
20
0
30
0
0
POINT
5
101
100
AcDbEntity
8
0
100
AcDbPoint
10
5.7999999999999998
20
7.5
30
0
0
POINT
5
102
100
AcDbEntity
8
0
100
AcDbPoint
10
8.9499999999999993
20
7.5
30
0
0
POINT
5
103
100
AcDbEntity
8
0
100
AcDbPoint
10
40.749999999999993
20
7.5
30
0
0
POINT
5
104
100
AcDbEntity
8
0
100
AcDbPoint
10
37.600000000000001
20
7.5
30
0
0
LWPOLYLINE
5
105
100
AcDbEntity
8
0
100
AcDbPolyline
90
10
70
1
43
0.0
10
69.5
20
-1.2325951644078309e-31
10
69.5
20
21.5
10
3.9999999999999947
20
21.5
10
3.9999999999999947
20
17.398979485566354
42
-0.35639395869260032
10
7.1662509558594818e-32
20
12.5
10
0
20
0
10
46.500000000000014
20
0
10
46.499999999999986
20
3.2499999999999951
42
-0.99999999999999989
10
53.000000000000007
20
3.2499999999999938
10
53
20
-1.8416786868591529e-22
0
LINE
5
106
100
AcDbEntity
8
1
100
AcDbLine
10
49.749999999999908
20
6.4999999999999991
30
0
11
49.749999999999901
21
-1.7287455598293002e-22
31
0
0
CIRCLE
5
107
100
AcDbEntity
8
0
100
AcDbCircle
10
7.3749999999999991
20
7.5
30
0
40
1.575
210
0
220
0
230
1
0
CIRCLE
5
108
100
AcDbEntity
8
0
100
AcDbCircle
10
39.174999999999997
20
7.5
30
0
40
1.575
210
0
220
0
230
1
0
LWPOLYLINE
5
109
100
AcDbEntity
8
0
100
AcDbPolyline
90
4
70
1
43
0.0
10
1.1907519999999998
20
3.1752500000000006
10
1.984502
20
3.1752500000000006
10
1.9845020000000002
20
0.79400000000000015
10
1.190752
20
0.79400000000000015
0
LWPOLYLINE
5
110
100
AcDbEntity
8
0
100
AcDbPolyline
90
4
70
1
43
0.0
10
3.5770945925925925
20
0.79400000000000015
10
2.7833445925925924
20
0.79400000000000015
10
2.7833445925925924
20
3.1752500000000006
10
3.5770945925925925
20
3.1752500000000006
0
LWPOLYLINE
5
111
100
AcDbEntity
8
0
100
AcDbPolyline
90
4
70
1
43
0.0
10
5.169687185185186
20
0.79400000000000015
10
4.3759371851851849
20
0.79400000000000015
10
4.3759371851851849
20
3.1752500000000006
10
5.1696871851851842
20
3.1752500000000006
0
LWPOLYLINE
5
112
100
AcDbEntity
8
0
100
AcDbPolyline
90
4
70
1
43
0.0
10
6.7622797777777777
20
0.79400000000000015
10
5.9685297777777784
20
0.79400000000000015
10
5.9685297777777784
20
3.1752500000000006
10
6.7622797777777777
20
3.1752500000000006
0
LWPOLYLINE
5
113
100
AcDbEntity
8
0
100
AcDbPolyline
90
4
70
1
43
0.0
10
8.3548723703703693
20
0.79400000000000015
10
7.56112237037037
20
0.79400000000000015
10
7.56112237037037
20
3.1752500000000006
10
8.3548723703703693
20
3.1752500000000006
0
LWPOLYLINE
5
114
100
AcDbEntity
8
0
100
AcDbPolyline
90
4
70
1
43
0.0
10
9.947464962962961
20
0.79400000000000015
10
9.1537149629629617
20
0.79400000000000015
10
9.1537149629629617
20
3.1752500000000006
10
9.947464962962961
20
3.1752500000000006
0
LWPOLYLINE
5
115
100
AcDbEntity
8
0
100
AcDbPolyline
90
4
70
1
43
0.0
10
11.540057555555556
20
0.79400000000000015
10
10.746307555555553
20
0.79400000000000015
10
10.746307555555553
20
3.1752500000000006
10
11.540057555555554
20
3.1752500000000006
0
LWPOLYLINE
5
116
100
AcDbEntity
8
0
100
AcDbPolyline
90
4
70
1
43
0.0
10
13.132650148148146
20
0.79400000000000015
10
12.338900148148147
20
0.79400000000000015
10
12.338900148148147
20
3.1752500000000006
10
13.132650148148146
20
3.1752500000000006
0
LWPOLYLINE
5
117
100
AcDbEntity
8
0
100
AcDbPolyline
90
4
70
1
43
0.0
10
14.72524274074074
20
0.79400000000000015
10
13.931492740740739
20
0.79400000000000015
10
13.931492740740739
20
3.1752500000000006
10
14.725242740740738
20
3.1752500000000006
0
LWPOLYLINE
5
118
100
AcDbEntity
8
0
100
AcDbPolyline
90
4
70
1
43
0.0
10
16.317835333333331
20
0.79400000000000015
10
15.52408533333333
20
0.79400000000000015
10
15.52408533333333
20
3.1752500000000006
10
16.317835333333331
20
3.1752500000000006
0
LWPOLYLINE
5
119
100
AcDbEntity
8
0
100
AcDbPolyline
90
4
70
1
43
0.0
10
17.910427925925923
20
0.79400000000000015
10
17.116677925925924
20
0.79400000000000015
10
17.116677925925924
20
3.1752500000000006
10
17.910427925925923
20
3.1752500000000006
0
LWPOLYLINE
5
120
100
AcDbEntity
8
0
100
AcDbPolyline
90
4
70
1
43
0.0
10
19.503020518518515
20
0.79400000000000015
10
18.709270518518515
20
0.79400000000000015
10
18.709270518518515
20
3.1752500000000006
10
19.503020518518515
20
3.1752500000000006
0
LWPOLYLINE
5
121
100
AcDbEntity
8
0
100
AcDbPolyline
90
4
70
1
43
0.0
10
21.09561311111111
20
0.79400000000000015
10
20.301863111111111
20
0.79400000000000015
10
20.301863111111111
20
3.1752500000000006
10
21.09561311111111
20
3.1752500000000006
0
LWPOLYLINE
5
122
100
AcDbEntity
8
0
100
AcDbPolyline
90
4
70
1
43
0.0
10
22.688205703703698
20
0.79400000000000015
10
21.894455703703702
20
0.79400000000000015
10
21.894455703703702
20
3.1752500000000006
10
22.688205703703698
20
3.1752500000000006
0
LWPOLYLINE
5
123
100
AcDbEntity
8
0
100
AcDbPolyline
90
4
70
1
43
0.0
10
24.280798296296293
20
0.79400000000000015
10
23.487048296296294
20
0.79400000000000015
10
23.487048296296294
20
3.1752500000000006
10
24.280798296296293
20
3.1752500000000006
0
LWPOLYLINE
5
124
100
AcDbEntity
8
0
100
AcDbPolyline
90
4
70
1
43
0.0
10
25.873390888888885
20
0.79400000000000015
10
25.079640888888886
20
0.79400000000000015
10
25.079640888888886
20
3.1752500000000006
10
25.873390888888885
20
3.1752500000000006
0
LWPOLYLINE
5
125
100
AcDbEntity
8
0
100
AcDbPolyline
90
4
70
1
43
0.0
10
27.465983481481477
20
0.79400000000000015
10
26.672233481481481
20
0.79400000000000015
10
26.672233481481481
20
3.1752500000000006
10
27.465983481481477
20
3.1752500000000006
0
LWPOLYLINE
5
126
100
AcDbEntity
8
0
100
AcDbPolyline
90
4
70
1
43
0.0
10
29.058576074074072
20
0.79400000000000015
10
28.264826074074072
20
0.79400000000000015
10
28.264826074074072
20
3.1752500000000006
10
29.058576074074072
20
3.1752500000000006
0
LWPOLYLINE
5
127
100
AcDbEntity
8
0
100
AcDbPolyline
90
4
70
1
43
0.0
10
30.651168666666663
20
0.79400000000000015
10
29.857418666666664
20
0.79400000000000015
10
29.857418666666664
20
3.1752500000000006
10
30.651168666666663
20
3.1752500000000006
0
LWPOLYLINE
5
128
100
AcDbEntity
8
0
100
AcDbPolyline
90
4
70
1
43
0.0
10
32.243761259259259
20
0.79400000000000015
10
31.450011259259259
20
0.79400000000000015
10
31.450011259259259
20
3.1752500000000006
10
32.243761259259259
20
3.1752500000000006
0
LWPOLYLINE
5
129
100
AcDbEntity
8
0
100
AcDbPolyline
90
4
70
1
43
0.0
10
33.836353851851847
20
0.79400000000000015
10
33.042603851851851
20
0.79400000000000015
10
33.042603851851851
20
3.1752500000000006
10
33.836353851851847
20
3.1752500000000006
0
LWPOLYLINE
5
130
100
AcDbEntity
8
0
100
AcDbPolyline
90
4
70
1
43
0.0
10
35.428946444444442
20
0.79400000000000015
10
34.635196444444446
20
0.79400000000000015
10
34.635196444444446
20
3.1752500000000006
10
35.428946444444442
20
3.1752500000000006
0
LWPOLYLINE
5
131
100
AcDbEntity
8
0
100
AcDbPolyline
90
4
70
1
43
0.0
10
37.02153903703703
20
0.79400000000000015
10
36.227789037037034
20
0.79400000000000015
10
36.227789037037034
20
3.1752500000000006
10
37.02153903703703
20
3.1752500000000006
0
LWPOLYLINE
5
132
100
AcDbEntity
8
0
100
AcDbPolyline
90
4
70
1
43
0.0
10
38.614131629629625
20
0.79400000000000015
10
37.82038162962963
20
0.79400000000000015
10
37.82038162962963
20
3.1752500000000006
10
38.614131629629625
20
3.1752500000000006
0
LWPOLYLINE
5
133
100
AcDbEntity
8
0
100
AcDbPolyline
90
4
70
1
43
0.0
10
40.206724222222221
20
0.79400000000000015
10
39.412974222222218
20
0.79400000000000015
10
39.412974222222218
20
3.1752500000000006
10
40.206724222222221
20
3.1752500000000006
0
LWPOLYLINE
5
134
100
AcDbEntity
8
0
100
AcDbPolyline
90
4
70
1
43
0.0
10
41.799316814814809
20
0.79400000000000015
10
41.005566814814813
20
0.79400000000000015
10
41.005566814814813
20
3.1752500000000006
10
41.799316814814809
20
3.1752500000000006
0
LWPOLYLINE
5
135
100
AcDbEntity
8
0
100
AcDbPolyline
90
4
70
1
43
0.0
10
43.391909407407397
20
0.79400000000000015
10
42.598159407407401
20
0.79400000000000015
10
42.598159407407401
20
3.1752500000000006
10
43.391909407407397
20
3.1752500000000006
0
LWPOLYLINE
5
136
100
AcDbEntity
8
0
100
AcDbPolyline
90
4
70
1
43
0.0
10
44.984501999999999
20
0.79400000000000015
10
44.190752000000003
20
0.79400000000000015
10
44.190752000000003
20
3.1752500000000006
10
44.984501999999999
20
3.1752500000000006
0
ENDSEC
0
SECTION
2
OBJECTS
0
DICTIONARY
5
C
100
AcDbDictionary
3
ACAD_GROUP
350
D
3
ACAD_MLINESTYLE
350
17
0
DICTIONARY
5
D
100
AcDbDictionary
0
DICTIONARY
5
1A
330
C
100
AcDbDictionary
0
DICTIONARY
5
17
100
AcDbDictionary
0
ENDSEC
0
EOF
