M48
; DRILL file {KiCad 8.0.1} date 2024-07-23T13:12:59+0800
; FORMAT={-:-/ absolute / metric / decimal}
; #@! TF.CreationDate,2024-07-23T13:12:59+08:00
; #@! TF.GenerationSoftware,Kicad,Pcbnew,8.0.1
; #@! TF.FileFunction,Plated,1,2,PTH
FMAT,2
METRIC
; #@! TA.AperFunction,Plated,PTH,ComponentDrill
T1C1.000
%
G90
G05
T1
X123.0Y-74.0
X125.54Y-74.0
X128.08Y-74.0
X130.62Y-74.0
X133.16Y-74.0
X135.7Y-74.0
X138.24Y-74.0
X140.78Y-74.0
X143.32Y-74.0
X145.86Y-74.0
X148.4Y-74.0
X150.94Y-74.0
X153.48Y-74.0
X156.02Y-74.0
X158.56Y-74.0
X161.1Y-74.0
X163.64Y-74.0
X166.18Y-74.0
X168.72Y-74.0
X171.26Y-74.0
X173.8Y-74.0
M30
