<?xml version="1.0" standalone="no"?>
 <!DOCTYPE svg PUBLIC "-//W3C//DTD SVG 1.1//EN" 
 "http://www.w3.org/Graphics/SVG/1.1/DTD/svg11.dtd"> 
<svg
  xmlns:svg="http://www.w3.org/2000/svg"
  xmlns="http://www.w3.org/2000/svg"
  xmlns:xlink="http://www.w3.org/1999/xlink"
  version="1.1"
  width="297.0022mm" height="210.0072mm" viewBox="0.0000 0.0000 297.0022 210.0072">
<title>SVG Image created as MatchBox v0.3-B_Mask.svg date 2024/08/17 16:06:36 </title>
  <desc>Image generated by PCBNEW </desc>
<g style="fill:#000000; fill-opacity:1.0000;stroke:#000000; stroke-opacity:1.0000;
stroke-linecap:round; stroke-linejoin:round;"
 transform="translate(0 0) scale(1 1)">
</g>
<g style="fill:#000000; fill-opacity:1.0000; stroke:none;">
<circle cx="77.2000" cy="108.0000" r="1.6000" /> 
<path style="fill:#000000; fill-opacity:1.0000; stroke:none;fill-rule:evenodd;"
d="M 83.3250,109.9500
81.6250,109.9500
81.6250,108.2500
83.3250,108.2500
Z" /> 
</g>
<g style="fill:#000000; fill-opacity:1.0000; stroke:none;">
<circle cx="82.4750" cy="106.5600" r="0.8500" /> 
<circle cx="85.0150" cy="109.1000" r="0.8500" /> 
<circle cx="85.0150" cy="106.5600" r="0.8500" /> 
<circle cx="87.5550" cy="109.1000" r="0.8500" /> 
<circle cx="87.5550" cy="106.5600" r="0.8500" /> 
<circle cx="90.0950" cy="109.1000" r="0.8500" /> 
<circle cx="90.0950" cy="106.5600" r="0.8500" /> 
<circle cx="92.6350" cy="109.1000" r="0.8500" /> 
<circle cx="92.6350" cy="106.5600" r="0.8500" /> 
<circle cx="95.1750" cy="109.1000" r="0.8500" /> 
<circle cx="95.1750" cy="106.5600" r="0.8500" /> 
<circle cx="97.7150" cy="109.1000" r="0.8500" /> 
<circle cx="97.7150" cy="106.5600" r="0.8500" /> 
<circle cx="100.2550" cy="109.1000" r="0.8500" /> 
<circle cx="100.2550" cy="106.5600" r="0.8500" /> 
<circle cx="102.7950" cy="109.1000" r="0.8500" /> 
<circle cx="102.7950" cy="106.5600" r="0.8500" /> 
<circle cx="105.3350" cy="109.1000" r="0.8500" /> 
<circle cx="105.3350" cy="106.5600" r="0.8500" /> 
<circle cx="107.8750" cy="109.1000" r="0.8500" /> 
<circle cx="107.8750" cy="106.5600" r="0.8500" /> 
<circle cx="110.4150" cy="109.1000" r="0.8500" /> 
<circle cx="110.4150" cy="106.5600" r="0.8500" /> 
<circle cx="112.9550" cy="109.1000" r="0.8500" /> 
<circle cx="112.9550" cy="106.5600" r="0.8500" /> 
<circle cx="115.4950" cy="109.1000" r="0.8500" /> 
<circle cx="115.4950" cy="106.5600" r="0.8500" /> 
<circle cx="118.0350" cy="109.1000" r="0.8500" /> 
<circle cx="118.0350" cy="106.5600" r="0.8500" /> 
<circle cx="120.5750" cy="109.1000" r="0.8500" /> 
<circle cx="120.5750" cy="106.5600" r="0.8500" /> 
<circle cx="123.1150" cy="109.1000" r="0.8500" /> 
<circle cx="123.1150" cy="106.5600" r="0.8500" /> 
<circle cx="125.6550" cy="109.1000" r="0.8500" /> 
<circle cx="125.6550" cy="106.5600" r="0.8500" /> 
<circle cx="128.1950" cy="109.1000" r="0.8500" /> 
<circle cx="128.1950" cy="106.5600" r="0.8500" /> 
<circle cx="130.7350" cy="109.1000" r="0.8500" /> 
<circle cx="130.7350" cy="106.5600" r="0.8500" /> 
<circle cx="133.2750" cy="109.1000" r="0.8500" /> 
<circle cx="133.2750" cy="106.5600" r="0.8500" /> 
<circle cx="135.8150" cy="109.1000" r="0.8500" /> 
<circle cx="135.8150" cy="106.5600" r="0.8500" /> 
<circle cx="138.3550" cy="109.1000" r="0.8500" /> 
<circle cx="138.3550" cy="106.5600" r="0.8500" /> 
<circle cx="140.8950" cy="109.1000" r="0.8500" /> 
<circle cx="140.8950" cy="106.5600" r="0.8500" /> 
<circle cx="143.4350" cy="109.1000" r="0.8500" /> 
<circle cx="143.4350" cy="106.5600" r="0.8500" /> 
<circle cx="145.9750" cy="109.1000" r="0.8500" /> 
<circle cx="145.9750" cy="106.5600" r="0.8500" /> 
<circle cx="148.5150" cy="109.1000" r="0.8500" /> 
<circle cx="148.5150" cy="106.5600" r="0.8500" /> 
<circle cx="151.0550" cy="109.1000" r="0.8500" /> 
<circle cx="151.0550" cy="106.5600" r="0.8500" /> 
<circle cx="153.5950" cy="109.1000" r="0.8500" /> 
<circle cx="153.5950" cy="106.5600" r="0.8500" /> 
<circle cx="156.1350" cy="109.1000" r="0.8500" /> 
<circle cx="156.1350" cy="106.5600" r="0.8500" /> 
<path style="fill:#000000; fill-opacity:1.0000; stroke:none;fill-rule:evenodd;"
d="M 155.2850,63.8500
156.9850,63.8500
156.9850,65.5500
155.2850,65.5500
Z" /> 
<circle cx="156.1350" cy="67.2400" r="0.8500" /> 
<circle cx="153.5950" cy="64.7000" r="0.8500" /> 
<circle cx="153.5950" cy="67.2400" r="0.8500" /> 
<circle cx="151.0550" cy="64.7000" r="0.8500" /> 
<circle cx="151.0550" cy="67.2400" r="0.8500" /> 
<circle cx="148.5150" cy="64.7000" r="0.8500" /> 
<circle cx="148.5150" cy="67.2400" r="0.8500" /> 
<circle cx="145.9750" cy="64.7000" r="0.8500" /> 
<circle cx="145.9750" cy="67.2400" r="0.8500" /> 
<circle cx="143.4350" cy="64.7000" r="0.8500" /> 
<circle cx="143.4350" cy="67.2400" r="0.8500" /> 
<circle cx="140.8950" cy="64.7000" r="0.8500" /> 
<circle cx="140.8950" cy="67.2400" r="0.8500" /> 
<circle cx="138.3550" cy="64.7000" r="0.8500" /> 
<circle cx="138.3550" cy="67.2400" r="0.8500" /> 
<circle cx="135.8150" cy="64.7000" r="0.8500" /> 
<circle cx="135.8150" cy="67.2400" r="0.8500" /> 
<circle cx="133.2750" cy="64.7000" r="0.8500" /> 
<circle cx="133.2750" cy="67.2400" r="0.8500" /> 
<circle cx="130.7350" cy="64.7000" r="0.8500" /> 
<circle cx="130.7350" cy="67.2400" r="0.8500" /> 
<circle cx="128.1950" cy="64.7000" r="0.8500" /> 
<circle cx="128.1950" cy="67.2400" r="0.8500" /> 
<circle cx="125.6550" cy="64.7000" r="0.8500" /> 
<circle cx="125.6550" cy="67.2400" r="0.8500" /> 
<circle cx="123.1150" cy="64.7000" r="0.8500" /> 
<circle cx="123.1150" cy="67.2400" r="0.8500" /> 
<circle cx="120.5750" cy="64.7000" r="0.8500" /> 
<circle cx="120.5750" cy="67.2400" r="0.8500" /> 
<circle cx="118.0350" cy="64.7000" r="0.8500" /> 
<circle cx="118.0350" cy="67.2400" r="0.8500" /> 
<circle cx="115.4950" cy="64.7000" r="0.8500" /> 
<circle cx="115.4950" cy="67.2400" r="0.8500" /> 
<circle cx="112.9550" cy="64.7000" r="0.8500" /> 
<circle cx="112.9550" cy="67.2400" r="0.8500" /> 
<circle cx="110.4150" cy="64.7000" r="0.8500" /> 
<circle cx="110.4150" cy="67.2400" r="0.8500" /> 
<circle cx="107.8750" cy="64.7000" r="0.8500" /> 
<circle cx="107.8750" cy="67.2400" r="0.8500" /> 
<circle cx="105.3350" cy="64.7000" r="0.8500" /> 
<circle cx="105.3350" cy="67.2400" r="0.8500" /> 
<circle cx="102.7950" cy="64.7000" r="0.8500" /> 
<circle cx="102.7950" cy="67.2400" r="0.8500" /> 
<circle cx="100.2550" cy="64.7000" r="0.8500" /> 
<circle cx="100.2550" cy="67.2400" r="0.8500" /> 
<circle cx="97.7150" cy="64.7000" r="0.8500" /> 
<circle cx="97.7150" cy="67.2400" r="0.8500" /> 
<circle cx="95.1750" cy="64.7000" r="0.8500" /> 
<circle cx="95.1750" cy="67.2400" r="0.8500" /> 
<circle cx="92.6350" cy="64.7000" r="0.8500" /> 
<circle cx="92.6350" cy="67.2400" r="0.8500" /> 
<circle cx="90.0950" cy="64.7000" r="0.8500" /> 
<circle cx="90.0950" cy="67.2400" r="0.8500" /> 
<circle cx="87.5550" cy="64.7000" r="0.8500" /> 
<circle cx="87.5550" cy="67.2400" r="0.8500" /> 
<circle cx="85.0150" cy="64.7000" r="0.8500" /> 
<circle cx="85.0150" cy="67.2400" r="0.8500" /> 
<circle cx="82.4750" cy="64.7000" r="0.8500" /> 
<circle cx="82.4750" cy="67.2400" r="0.8500" /> 
<circle cx="161.4000" cy="108.0000" r="1.6000" /> 
</g>
<g style="fill:#000000; fill-opacity:1.0000; stroke:none;">
<circle cx="84.7500" cy="75.9500" r="1.8500" /> 
</g>
<g style="fill:#000000; fill-opacity:1.0000; stroke:none;">
<circle cx="77.2000" cy="65.8000" r="1.6000" /> 
</g>
<g style="fill:#000000; fill-opacity:1.0000; stroke:none;">
<circle cx="161.4000" cy="65.8000" r="1.6000" /> 
</g>
<g style="fill:#000000; fill-opacity:1.0000; stroke:none;">
<circle cx="153.8500" cy="75.9500" r="1.8500" /> 
</g> 
</svg>
