<?xml version="1.0" standalone="no"?>
 <!DOCTYPE svg PUBLIC "-//W3C//DTD SVG 1.1//EN" 
 "http://www.w3.org/Graphics/SVG/1.1/DTD/svg11.dtd"> 
<svg
  xmlns:svg="http://www.w3.org/2000/svg"
  xmlns="http://www.w3.org/2000/svg"
  xmlns:xlink="http://www.w3.org/1999/xlink"
  version="1.1"
  width="297.0022mm" height="210.0072mm" viewBox="0.0000 0.0000 297.0022 210.0072">
<title>SVG Image created as MatchBox v0.3-F_Cu.svg date 2024/08/17 16:06:36 </title>
  <desc>Image generated by PCBNEW </desc>
<g style="fill:#000000; fill-opacity:1.0000;stroke:#000000; stroke-opacity:1.0000;
stroke-linecap:round; stroke-linejoin:round;"
 transform="translate(0 0) scale(1 1)">
<path style="fill:#000000; fill-opacity:1.0000; stroke:none;fill-rule:evenodd;"
d="M 111.3000,76.4500
112.3000,76.4500
112.3000,78.7275
111.3000,78.7275
Z" /> 
<path style="fill:#000000; fill-opacity:1.0000; stroke:none;fill-rule:evenodd;"
d="M 83.3250,109.9500
81.6250,109.9500
81.6250,108.2500
83.3250,108.2500
Z" /> 
</g>
<g style="fill:#000000; fill-opacity:1.0000; stroke:none;">
<circle cx="82.4750" cy="106.5600" r="0.8500" /> 
<circle cx="85.0150" cy="109.1000" r="0.8500" /> 
<circle cx="85.0150" cy="106.5600" r="0.8500" /> 
<circle cx="87.5550" cy="109.1000" r="0.8500" /> 
<circle cx="87.5550" cy="106.5600" r="0.8500" /> 
<circle cx="90.0950" cy="109.1000" r="0.8500" /> 
<circle cx="90.0950" cy="106.5600" r="0.8500" /> 
<circle cx="92.6350" cy="109.1000" r="0.8500" /> 
<circle cx="92.6350" cy="106.5600" r="0.8500" /> 
<circle cx="95.1750" cy="109.1000" r="0.8500" /> 
<circle cx="95.1750" cy="106.5600" r="0.8500" /> 
<circle cx="97.7150" cy="109.1000" r="0.8500" /> 
<circle cx="97.7150" cy="106.5600" r="0.8500" /> 
<circle cx="100.2550" cy="109.1000" r="0.8500" /> 
<circle cx="100.2550" cy="106.5600" r="0.8500" /> 
<circle cx="102.7950" cy="109.1000" r="0.8500" /> 
<circle cx="102.7950" cy="106.5600" r="0.8500" /> 
<circle cx="105.3350" cy="109.1000" r="0.8500" /> 
<circle cx="105.3350" cy="106.5600" r="0.8500" /> 
<circle cx="107.8750" cy="109.1000" r="0.8500" /> 
<circle cx="107.8750" cy="106.5600" r="0.8500" /> 
<circle cx="110.4150" cy="109.1000" r="0.8500" /> 
<circle cx="110.4150" cy="106.5600" r="0.8500" /> 
<circle cx="112.9550" cy="109.1000" r="0.8500" /> 
<circle cx="112.9550" cy="106.5600" r="0.8500" /> 
<circle cx="115.4950" cy="109.1000" r="0.8500" /> 
<circle cx="115.4950" cy="106.5600" r="0.8500" /> 
<circle cx="118.0350" cy="109.1000" r="0.8500" /> 
<circle cx="118.0350" cy="106.5600" r="0.8500" /> 
<circle cx="120.5750" cy="109.1000" r="0.8500" /> 
<circle cx="120.5750" cy="106.5600" r="0.8500" /> 
<circle cx="123.1150" cy="109.1000" r="0.8500" /> 
<circle cx="123.1150" cy="106.5600" r="0.8500" /> 
<circle cx="125.6550" cy="109.1000" r="0.8500" /> 
<circle cx="125.6550" cy="106.5600" r="0.8500" /> 
<circle cx="128.1950" cy="109.1000" r="0.8500" /> 
<circle cx="128.1950" cy="106.5600" r="0.8500" /> 
<circle cx="130.7350" cy="109.1000" r="0.8500" /> 
<circle cx="130.7350" cy="106.5600" r="0.8500" /> 
<circle cx="133.2750" cy="109.1000" r="0.8500" /> 
<circle cx="133.2750" cy="106.5600" r="0.8500" /> 
<circle cx="135.8150" cy="109.1000" r="0.8500" /> 
<circle cx="135.8150" cy="106.5600" r="0.8500" /> 
<circle cx="138.3550" cy="109.1000" r="0.8500" /> 
<circle cx="138.3550" cy="106.5600" r="0.8500" /> 
<circle cx="140.8950" cy="109.1000" r="0.8500" /> 
<circle cx="140.8950" cy="106.5600" r="0.8500" /> 
<circle cx="143.4350" cy="109.1000" r="0.8500" /> 
<circle cx="143.4350" cy="106.5600" r="0.8500" /> 
<circle cx="145.9750" cy="109.1000" r="0.8500" /> 
<circle cx="145.9750" cy="106.5600" r="0.8500" /> 
<circle cx="148.5150" cy="109.1000" r="0.8500" /> 
<circle cx="148.5150" cy="106.5600" r="0.8500" /> 
<circle cx="151.0550" cy="109.1000" r="0.8500" /> 
<circle cx="151.0550" cy="106.5600" r="0.8500" /> 
<circle cx="153.5950" cy="109.1000" r="0.8500" /> 
<circle cx="153.5950" cy="106.5600" r="0.8500" /> 
<circle cx="156.1350" cy="109.1000" r="0.8500" /> 
<circle cx="156.1350" cy="106.5600" r="0.8500" /> 
<path style="fill:#000000; fill-opacity:1.0000; stroke:none;fill-rule:evenodd;"
d="M 109.3000,76.4500
110.3000,76.4500
110.3000,78.7275
109.3000,78.7275
Z" /> 
<path style="fill:#000000; fill-opacity:1.0000; stroke:none;fill-rule:evenodd;"
d="M 115.3000,76.4500
116.3000,76.4500
116.3000,78.7275
115.3000,78.7275
Z" /> 
<path style="fill:#000000; fill-opacity:1.0000; stroke:none;fill-rule:evenodd;"
d="M 99.3000,76.4500
100.3000,76.4500
100.3000,78.7275
99.3000,78.7275
Z" /> 
<path style="fill:#000000; fill-opacity:1.0000; stroke:none;fill-rule:evenodd;"
d="M 103.3000,76.4500
104.3000,76.4500
104.3000,78.7275
103.3000,78.7275
Z" /> 
<path style="fill:#000000; fill-opacity:1.0000; stroke:none;fill-rule:evenodd;"
d="M 144.3000,76.4500
145.3000,76.4500
145.3000,78.7275
144.3000,78.7275
Z" /> 
<path style="fill:#000000; fill-opacity:1.0000; stroke:none;fill-rule:evenodd;"
d="M 97.3000,76.4500
98.3000,76.4500
98.3000,78.7275
97.3000,78.7275
Z" /> 
<path style="fill:#000000; fill-opacity:1.0000; stroke:none;fill-rule:evenodd;"
d="M 155.2850,63.8500
156.9850,63.8500
156.9850,65.5500
155.2850,65.5500
Z" /> 
<circle cx="156.1350" cy="67.2400" r="0.8500" /> 
<circle cx="153.5950" cy="64.7000" r="0.8500" /> 
<circle cx="153.5950" cy="67.2400" r="0.8500" /> 
<circle cx="151.0550" cy="64.7000" r="0.8500" /> 
<circle cx="151.0550" cy="67.2400" r="0.8500" /> 
<circle cx="148.5150" cy="64.7000" r="0.8500" /> 
<circle cx="148.5150" cy="67.2400" r="0.8500" /> 
<circle cx="145.9750" cy="64.7000" r="0.8500" /> 
<circle cx="145.9750" cy="67.2400" r="0.8500" /> 
<circle cx="143.4350" cy="64.7000" r="0.8500" /> 
<circle cx="143.4350" cy="67.2400" r="0.8500" /> 
<circle cx="140.8950" cy="64.7000" r="0.8500" /> 
<circle cx="140.8950" cy="67.2400" r="0.8500" /> 
<circle cx="138.3550" cy="64.7000" r="0.8500" /> 
<circle cx="138.3550" cy="67.2400" r="0.8500" /> 
<circle cx="135.8150" cy="64.7000" r="0.8500" /> 
<circle cx="135.8150" cy="67.2400" r="0.8500" /> 
<circle cx="133.2750" cy="64.7000" r="0.8500" /> 
<circle cx="133.2750" cy="67.2400" r="0.8500" /> 
<circle cx="130.7350" cy="64.7000" r="0.8500" /> 
<circle cx="130.7350" cy="67.2400" r="0.8500" /> 
<circle cx="128.1950" cy="64.7000" r="0.8500" /> 
<circle cx="128.1950" cy="67.2400" r="0.8500" /> 
<circle cx="125.6550" cy="64.7000" r="0.8500" /> 
<circle cx="125.6550" cy="67.2400" r="0.8500" /> 
<circle cx="123.1150" cy="64.7000" r="0.8500" /> 
<circle cx="123.1150" cy="67.2400" r="0.8500" /> 
<circle cx="120.5750" cy="64.7000" r="0.8500" /> 
<circle cx="120.5750" cy="67.2400" r="0.8500" /> 
<circle cx="118.0350" cy="64.7000" r="0.8500" /> 
<circle cx="118.0350" cy="67.2400" r="0.8500" /> 
<circle cx="115.4950" cy="64.7000" r="0.8500" /> 
<circle cx="115.4950" cy="67.2400" r="0.8500" /> 
<circle cx="112.9550" cy="64.7000" r="0.8500" /> 
<circle cx="112.9550" cy="67.2400" r="0.8500" /> 
<circle cx="110.4150" cy="64.7000" r="0.8500" /> 
<circle cx="110.4150" cy="67.2400" r="0.8500" /> 
<circle cx="107.8750" cy="64.7000" r="0.8500" /> 
<circle cx="107.8750" cy="67.2400" r="0.8500" /> 
<circle cx="105.3350" cy="64.7000" r="0.8500" /> 
<circle cx="105.3350" cy="67.2400" r="0.8500" /> 
<circle cx="102.7950" cy="64.7000" r="0.8500" /> 
<circle cx="102.7950" cy="67.2400" r="0.8500" /> 
<circle cx="100.2550" cy="64.7000" r="0.8500" /> 
<circle cx="100.2550" cy="67.2400" r="0.8500" /> 
<circle cx="97.7150" cy="64.7000" r="0.8500" /> 
<circle cx="97.7150" cy="67.2400" r="0.8500" /> 
<circle cx="95.1750" cy="64.7000" r="0.8500" /> 
<circle cx="95.1750" cy="67.2400" r="0.8500" /> 
<circle cx="92.6350" cy="64.7000" r="0.8500" /> 
<circle cx="92.6350" cy="67.2400" r="0.8500" /> 
<circle cx="90.0950" cy="64.7000" r="0.8500" /> 
<circle cx="90.0950" cy="67.2400" r="0.8500" /> 
<circle cx="87.5550" cy="64.7000" r="0.8500" /> 
<circle cx="87.5550" cy="67.2400" r="0.8500" /> 
<circle cx="85.0150" cy="64.7000" r="0.8500" /> 
<circle cx="85.0150" cy="67.2400" r="0.8500" /> 
<circle cx="82.4750" cy="64.7000" r="0.8500" /> 
<circle cx="82.4750" cy="67.2400" r="0.8500" /> 
<path style="fill:#000000; fill-opacity:1.0000; stroke:none;fill-rule:evenodd;"
d="M 95.3000,76.4500
96.3000,76.4500
96.3000,78.7275
95.3000,78.7275
Z" /> 
<path style="fill:#000000; fill-opacity:1.0000; stroke:none;fill-rule:evenodd;"
d="M 91.3000,76.4500
92.3000,76.4500
92.3000,78.7275
91.3000,78.7275
Z" /> 
<path style="fill:#000000; fill-opacity:1.0000; stroke:none;fill-rule:evenodd;"
d="M 132.3000,76.4500
133.3000,76.4500
133.3000,78.7275
132.3000,78.7275
Z" /> 
<path style="fill:#000000; fill-opacity:1.0000; stroke:none;fill-rule:evenodd;"
d="M 128.3000,76.4500
129.3000,76.4500
129.3000,78.7275
128.3000,78.7275
Z" /> 
<path style="fill:#000000; fill-opacity:1.0000; stroke:none;fill-rule:evenodd;"
d="M 93.3000,76.4500
94.3000,76.4500
94.3000,78.7275
93.3000,78.7275
Z" /> 
<path style="fill:#000000; fill-opacity:1.0000; stroke:none;fill-rule:evenodd;"
d="M 122.3000,76.4500
123.3000,76.4500
123.3000,78.7275
122.3000,78.7275
Z" /> 
<path style="fill:#000000; fill-opacity:1.0000; stroke:none;fill-rule:evenodd;"
d="M 124.3000,76.4500
125.3000,76.4500
125.3000,78.7275
124.3000,78.7275
Z" /> 
<path style="fill:#000000; fill-opacity:1.0000; stroke:none;fill-rule:evenodd;"
d="M 146.3000,76.4500
147.3000,76.4500
147.3000,78.7275
146.3000,78.7275
Z" /> 
<path style="fill:#000000; fill-opacity:1.0000; stroke:none;fill-rule:evenodd;"
d="M 136.3000,76.4500
137.3000,76.4500
137.3000,78.7275
136.3000,78.7275
Z" /> 
<path style="fill:#000000; fill-opacity:1.0000; stroke:none;fill-rule:evenodd;"
d="M 142.3000,76.4500
143.3000,76.4500
143.3000,78.7275
142.3000,78.7275
Z" /> 
<path style="fill:#000000; fill-opacity:1.0000; stroke:none;fill-rule:evenodd;"
d="M 134.3000,76.4500
135.3000,76.4500
135.3000,78.7275
134.3000,78.7275
Z" /> 
<path style="fill:#000000; fill-opacity:1.0000; stroke:none;fill-rule:evenodd;"
d="M 130.3000,76.4500
131.3000,76.4500
131.3000,78.7275
130.3000,78.7275
Z" /> 
<path style="fill:#000000; fill-opacity:1.0000; stroke:none;fill-rule:evenodd;"
d="M 140.3000,76.4500
141.3000,76.4500
141.3000,78.7275
140.3000,78.7275
Z" /> 
<path style="fill:#000000; fill-opacity:1.0000; stroke:none;fill-rule:evenodd;"
d="M 113.3000,76.4500
114.3000,76.4500
114.3000,78.7275
113.3000,78.7275
Z" /> 
<path style="fill:#000000; fill-opacity:1.0000; stroke:none;fill-rule:evenodd;"
d="M 138.3000,76.4500
139.3000,76.4500
139.3000,78.7275
138.3000,78.7275
Z" /> 
<path style="fill:#000000; fill-opacity:1.0000; stroke:none;fill-rule:evenodd;"
d="M 101.3000,76.4500
102.3000,76.4500
102.3000,78.7275
101.3000,78.7275
Z" /> 
<path style="fill:#000000; fill-opacity:1.0000; stroke:none;fill-rule:evenodd;"
d="M 105.3000,76.4500
106.3000,76.4500
106.3000,78.7275
105.3000,78.7275
Z" /> 
<path style="fill:#000000; fill-opacity:1.0000; stroke:none;fill-rule:evenodd;"
d="M 126.3000,76.4500
127.3000,76.4500
127.3000,78.7275
126.3000,78.7275
Z" /> 
<path style="fill:#000000; fill-opacity:1.0000; stroke:none;fill-rule:evenodd;"
d="M 107.3000,76.4500
108.3000,76.4500
108.3000,78.7275
107.3000,78.7275
Z" /> 
<circle cx="155.4000" cy="93.2000" r="0.2500" /> 
</g>
<g style="fill:#000000; fill-opacity:1.0000; stroke:none;">
<circle cx="150.4000" cy="92.6000" r="0.2500" /> 
</g>
<g style="fill:#000000; fill-opacity:1.0000; stroke:none;">
<circle cx="148.5150" cy="92.2000" r="0.2500" /> 
</g>
<g style="fill:#000000; fill-opacity:1.0000; stroke:none;">
<circle cx="146.2000" cy="91.6500" r="0.2500" /> 
</g>
<g style="fill:#000000; fill-opacity:1.0000; stroke:none;">
<circle cx="144.2850" cy="91.1000" r="0.2500" /> 
</g>
<g style="fill:#000000; fill-opacity:1.0000; stroke:none;">
<circle cx="141.7450" cy="90.6500" r="0.2500" /> 
</g>
<g style="fill:#000000; fill-opacity:1.0000; stroke:none;">
<circle cx="138.3550" cy="90.3000" r="0.2500" /> 
</g>
<g style="fill:#000000; fill-opacity:1.0000; stroke:none;">
<circle cx="135.7768" cy="89.8541" r="0.2500" /> 
</g>
<g style="fill:#000000; fill-opacity:1.0000; stroke:none;">
<circle cx="132.3868" cy="89.2541" r="0.2500" /> 
</g>
<g style="fill:#000000; fill-opacity:1.0000; stroke:none;">
<circle cx="130.2587" cy="88.8000" r="0.2500" /> 
</g>
<g style="fill:#000000; fill-opacity:1.0000; stroke:none;">
<circle cx="128.1568" cy="88.2541" r="0.2500" /> 
</g>
<g style="fill:#000000; fill-opacity:1.0000; stroke:none;">
<circle cx="125.6618" cy="87.9541" r="0.2500" /> 
</g>
<g style="fill:#000000; fill-opacity:1.0000; stroke:none;">
<circle cx="121.9268" cy="87.4541" r="0.2500" /> 
</g>
<g style="fill:#000000; fill-opacity:1.0000; stroke:none;">
<circle cx="136.2650" cy="82.0000" r="0.2500" /> 
</g>
<g style="fill:#000000; fill-opacity:1.0000; stroke:none;">
<circle cx="101.6000" cy="110.0000" r="0.2500" /> 
</g>
<g style="fill:none; 
stroke:#000000; stroke-width:0.2000; stroke-opacity:1; 
stroke-linecap:round; stroke-linejoin:round;">
<path d="M92.1000 93.3000
L155.3000 93.3000
" />
<path d="M155.3000 93.3000
L155.4000 93.2000
" />
<path d="M92.1000 74.3250
L85.0150 67.2400
" />
<path d="M92.1000 77.5887
L92.1000 93.3000
" />
<path d="M92.1000 77.5887
L92.1000 74.3250
" />
<path d="M150.2000 92.8000
L94.1000 92.8000
" />
<path d="M94.1000 73.7850
L87.5550 67.2400
" />
<path d="M94.1000 92.8000
L94.1000 73.7850
" />
<path d="M150.4000 92.6000
L150.2000 92.8000
" />
<path d="M96.1000 73.2450
L90.0950 67.2400
" />
<path d="M148.4150 92.3000
L148.5150 92.2000
" />
<path d="M96.1000 77.5887
L96.1000 92.3000
" />
<path d="M96.1000 92.3000
L148.4150 92.3000
" />
<path d="M96.1000 77.5887
L96.1000 73.2450
" />
<path d="M146.0500 91.8000
L98.1000 91.8000
" />
<path d="M98.1000 91.8000
L98.1000 72.7050
" />
<path d="M98.1000 72.7050
L92.6350 67.2400
" />
<path d="M146.2000 91.6500
L146.0500 91.8000
" />
<path d="M100.1500 91.3500
L100.1000 91.3000
" />
<path d="M144.0350 91.3500
L100.1500 91.3500
" />
<path d="M100.1000 91.3000
L100.1000 72.1650
" />
<path d="M100.1000 72.1650
L95.1750 67.2400
" />
<path d="M144.2850 91.1000
L144.0350 91.3500
" />
<path d="M141.4450 90.9500
L102.2000 90.9500
" />
<path d="M102.1000 71.6250
L97.7150 67.2400
" />
<path d="M102.2000 90.9500
L102.1000 90.8500
" />
<path d="M141.7450 90.6500
L141.4450 90.9500
" />
<path d="M102.1000 90.8500
L102.1000 71.6250
" />
<path d="M138.3550 90.3000
L138.1050 90.5500
" />
<path d="M104.1000 71.0850
L100.2550 67.2400
" />
<path d="M104.1500 90.5500
L104.1000 90.5000
" />
<path d="M138.1050 90.5500
L104.1500 90.5500
" />
<path d="M104.1000 90.5000
L104.1000 71.0850
" />
<path d="M106.1000 70.5450
L102.7950 67.2400
" />
<path d="M135.6150 90.0500
L106.1000 90.0500
" />
<path d="M106.1000 90.0500
L106.1000 70.5450
" />
<path d="M135.8150 89.8500
L135.6150 90.0500
" />
<path d="M108.1000 70.0050
L105.3350 67.2400
" />
<path d="M108.1000 89.5500
L108.1000 70.0050
" />
<path d="M132.4250 89.2500
L132.1250 89.5500
" />
<path d="M132.1250 89.5500
L108.1000 89.5500
" />
<path d="M130.0587 89.0500
L110.1000 89.0500
" />
<path d="M110.1000 69.4650
L107.8750 67.2400
" />
<path d="M130.2587 88.8500
L130.0587 89.0500
" />
<path d="M110.1000 89.0500
L110.1000 69.4650
" />
<path d="M112.1000 88.6500
L112.1000 68.9250
" />
<path d="M112.1000 68.9250
L110.4150 67.2400
" />
<path d="M128.1950 88.2500
L127.7950 88.6500
" />
<path d="M127.7950 88.6500
L112.1000 88.6500
" />
<path d="M114.1000 68.3850
L112.9550 67.2400
" />
<path d="M125.7000 87.9500
L125.4000 88.2500
" />
<path d="M125.4000 88.2500
L114.1000 88.2500
" />
<path d="M114.1000 88.2500
L114.1000 68.3850
" />
<path d="M116.2500 87.8500
L116.1000 87.7000
" />
<path d="M116.1000 67.8450
L115.4950 67.2400
" />
<path d="M116.3000 87.8000
L116.2500 87.8500
" />
<path d="M121.6150 87.8000
L116.3000 87.8000
" />
<path d="M116.1000 87.7000
L116.1000 67.8450
" />
<path d="M121.9650 87.4500
L121.6150 87.8000
" />
<path d="M124.4000 107.8150
L123.1150 109.1000
" />
<path d="M115.4950 106.5600
L115.4950 98.9200
" />
<path d="M115.6000 98.8150
L124.4000 98.8150
" />
<path d="M123.1000 67.2550
L123.1150 67.2400
" />
<path d="M124.4000 98.8150
L124.4000 107.8150
" />
<path d="M123.1000 77.5887
L123.1000 67.2550
" />
<path d="M115.4950 98.9200
L115.6000 98.8150
" />
<path d="M112.9550 106.5600
L112.9550 98.4450
" />
<path d="M112.9850 98.4150
L126.4000 98.4150
" />
<path d="M112.9550 98.4450
L112.9850 98.4150
" />
<path d="M126.8050 107.9500
L125.6550 109.1000
" />
<path d="M125.1000 67.7950
L125.6550 67.2400
" />
<path d="M126.4000 98.4150
L126.8050 98.8200
" />
<path d="M125.1000 77.5887
L125.1000 67.7950
" />
<path d="M126.8050 98.8200
L126.8050 107.9500
" />
<path d="M110.4300 98.0150
L129.4000 98.0150
" />
<path d="M129.4000 107.8950
L128.1950 109.1000
" />
<path d="M127.1000 77.5887
L127.1000 68.3350
" />
<path d="M110.4150 106.5600
L110.4150 98.0300
" />
<path d="M110.4150 98.0300
L110.4300 98.0150
" />
<path d="M127.1000 68.3350
L128.1950 67.2400
" />
<path d="M129.4000 98.0150
L129.4000 107.8950
" />
<path d="M129.1000 77.5887
L129.1000 68.8750
" />
<path d="M132.0000 107.8350
L130.7350 109.1000
" />
<path d="M107.8750 97.7250
L107.9850 97.6150
" />
<path d="M129.1000 68.8750
L130.7350 67.2400
" />
<path d="M107.8750 106.5600
L107.8750 97.7250
" />
<path d="M132.0000 97.6150
L132.0000 107.8350
" />
<path d="M107.9850 97.6150
L132.0000 97.6150
" />
<path d="M105.3350 97.2650
L105.3850 97.2150
" />
<path d="M134.4250 97.6400
L134.4250 107.9500
" />
<path d="M131.1000 69.4150
L133.2750 67.2400
" />
<path d="M134.0000 97.2150
L134.4250 97.6400
" />
<path d="M134.4250 107.9500
L133.2750 109.1000
" />
<path d="M105.3350 106.5600
L105.3350 97.2650
" />
<path d="M131.1000 77.5887
L131.1000 69.4150
" />
<path d="M105.3850 97.2150
L134.0000 97.2150
" />
<path d="M133.1000 69.9550
L135.8150 67.2400
" />
<path d="M133.1000 77.5887
L133.1000 69.9550
" />
<path d="M101.4000 110.0000
L101.1500 110.2500
" />
<path d="M83.7150 107.8000
L82.4750 106.5600
" />
<path d="M102.7950 97.0050
L102.9850 96.8150
" />
<path d="M136.9650 107.9500
L135.8150 109.1000
" />
<path d="M101.6000 110.0000
L101.4000 110.0000
" />
<path d="M96.4000 108.6000
L95.6000 107.8000
" />
<path d="M96.6500 110.2500
L96.4000 110.0000
" />
<path d="M156.1350 67.2400
L157.4000 68.5050
" />
<path d="M102.9850 96.8150
L136.4000 96.8150
" />
<path d="M136.4000 96.8150
L136.9650 97.3800
" />
<path d="M95.6000 107.8000
L83.7150 107.8000
" />
<path d="M102.7950 106.5600
L102.7950 97.0050
" />
<path d="M96.4000 110.0000
L96.4000 108.6000
" />
<path d="M157.4000 68.5050
L157.4000 82.0000
" />
<path d="M157.4000 82.0000
L136.2650 82.0000
" />
<path d="M101.1500 110.2500
L96.6500 110.2500
" />
<path d="M136.9650 97.3800
L136.9650 107.9500
" />
<path d="M139.5050 96.7200
L139.5050 107.9500
" />
<path d="M100.2550 96.5450
L100.3850 96.4150
" />
<path d="M135.1000 70.4950
L138.3550 67.2400
" />
<path d="M139.2000 96.4150
L139.5050 96.7200
" />
<path d="M81.3250 66.0900
L81.3250 64.2237
" />
<path d="M99.1050 63.5500
L100.2550 64.7000
" />
<path d="M100.3850 96.4150
L139.2000 96.4150
" />
<path d="M81.3250 64.2237
L81.9987 63.5500
" />
<path d="M135.1000 77.5887
L135.1000 70.4950
" />
<path d="M82.4750 67.2400
L81.3250 66.0900
" />
<path d="M100.2550 106.5600
L100.2550 96.5450
" />
<path d="M81.9987 63.5500
L99.1050 63.5500
" />
<path d="M139.5050 107.9500
L138.3550 109.1000
" />
<path d="M120.5750 106.5600
L121.9650 107.9500
" />
<path d="M137.1000 77.5887
L137.1000 71.0350
" />
<path d="M121.9650 109.5763
L122.6387 110.2500
" />
<path d="M142.2850 96.3300
L142.2850 107.7100
" />
<path d="M142.2850 107.7100
L140.8950 109.1000
" />
<path d="M97.7850 96.0150
L142.6000 96.0150
" />
<path d="M97.7150 106.5600
L97.7150 96.0850
" />
<path d="M142.6000 96.0150
L142.2850 96.3300
" />
<path d="M122.6387 110.2500
L139.7450 110.2500
" />
<path d="M139.7450 110.2500
L140.8950 109.1000
" />
<path d="M121.9650 107.9500
L121.9650 109.5763
" />
<path d="M137.1000 71.0350
L140.8950 67.2400
" />
<path d="M97.7150 96.0850
L97.7850 96.0150
" />
<path d="M116.8850 107.7100
L96.3250 107.7100
" />
<path d="M144.8250 95.6400
L144.8250 107.7100
" />
<path d="M96.3250 107.7100
L95.1750 106.5600
" />
<path d="M142.2850 66.0900
L143.4350 67.2400
" />
<path d="M95.1750 106.5600
L95.1750 95.6250
" />
<path d="M144.8000 95.6150
L144.8250 95.6400
" />
<path d="M120.5750 67.2400
L121.7250 66.0900
" />
<path d="M139.1000 77.5887
L139.1000 71.5750
" />
<path d="M118.0350 106.5600
L116.8850 107.7100
" />
<path d="M95.1850 95.6150
L144.8000 95.6150
" />
<path d="M139.1000 71.5750
L143.4350 67.2400
" />
<path d="M95.1750 95.6250
L95.1850 95.6150
" />
<path d="M121.7250 66.0900
L142.2850 66.0900
" />
<path d="M144.8250 107.7100
L143.4350 109.1000
" />
<path d="M147.3650 95.2500
L147.3650 107.7100
" />
<path d="M147.3650 107.7100
L145.9750 109.1000
" />
<path d="M82.4750 64.7000
L83.6250 65.8500
" />
<path d="M147.4000 95.2150
L147.3650 95.2500
" />
<path d="M141.1000 77.5887
L141.1000 72.1150
" />
<path d="M92.7850 95.2150
L147.4000 95.2150
" />
<path d="M91.4850 65.8500
L92.6350 64.7000
" />
<path d="M92.6350 106.5600
L92.6350 95.3650
" />
<path d="M83.6250 65.8500
L91.4850 65.8500
" />
<path d="M141.1000 72.1150
L145.9750 67.2400
" />
<path d="M92.6350 95.3650
L92.7850 95.2150
" />
<path d="M149.6650 95.0800
L149.6650 107.9500
" />
<path d="M143.1000 77.5887
L143.1000 72.6550
" />
<path d="M90.0950 106.5600
L90.0950 94.9200
" />
<path d="M143.1000 72.6550
L148.5150 67.2400
" />
<path d="M90.0950 94.9200
L90.2000 94.8150
" />
<path d="M120.5750 109.1000
L122.1250 110.6500
" />
<path d="M146.9650 110.6500
L148.5150 109.1000
" />
<path d="M149.6650 107.9500
L148.5150 109.1000
" />
<path d="M122.1250 110.6500
L146.9650 110.6500
" />
<path d="M90.2000 94.8150
L149.4000 94.8150
" />
<path d="M149.4000 94.8150
L149.6650 95.0800
" />
<path d="M118.0350 109.1000
L119.9850 111.0500
" />
<path d="M152.0000 94.6000
L152.2050 94.8050
" />
<path d="M152.0000 94.4150
L152.0000 94.6000
" />
<path d="M87.5550 106.5600
L87.5550 94.4600
" />
<path d="M119.9850 111.0500
L149.1050 111.0500
" />
<path d="M145.1000 77.5887
L145.1000 73.1950
" />
<path d="M145.1000 73.1950
L151.0550 67.2400
" />
<path d="M87.7850 94.4150
L152.0000 94.4150
" />
<path d="M152.2050 94.8050
L152.2050 107.9500
" />
<path d="M87.7400 94.4600
L87.7850 94.4150
" />
<path d="M152.2050 107.9500
L151.0550 109.1000
" />
<path d="M149.1050 111.0500
L151.0550 109.1000
" />
<path d="M87.5550 94.4600
L87.7400 94.4600
" />
<path d="M85.0150 94.0150
L153.9850 94.0150
" />
<path d="M147.1000 73.7350
L153.5950 67.2400
" />
<path d="M154.7450 107.9500
L153.5950 109.1000
" />
<path d="M154.7450 94.7750
L154.7450 107.9500
" />
<path d="M153.9850 94.0150
L154.7450 94.7750
" />
<path d="M153.5950 67.2400
L156.1350 64.7000
" />
<path d="M147.1000 77.5887
L147.1000 73.7350
" />
<path d="M85.0150 106.5600
L85.0150 94.0150
" />
</g> 
</svg>
