<?xml version="1.0" standalone="no"?>
 <!DOCTYPE svg PUBLIC "-//W3C//DTD SVG 1.1//EN" 
 "http://www.w3.org/Graphics/SVG/1.1/DTD/svg11.dtd"> 
<svg
  xmlns:svg="http://www.w3.org/2000/svg"
  xmlns="http://www.w3.org/2000/svg"
  xmlns:xlink="http://www.w3.org/1999/xlink"
  version="1.1"
  width="297.0022mm" height="210.0072mm" viewBox="0.0000 0.0000 297.0022 210.0072">
<title>SVG Image created as MatchBox v0.3-F_Paste.svg date 2024/08/17 16:06:36 </title>
  <desc>Image generated by PCBNEW </desc>
<g style="fill:#000000; fill-opacity:1.0000;stroke:#000000; stroke-opacity:1.0000;
stroke-linecap:round; stroke-linejoin:round;"
 transform="translate(0 0) scale(1 1)">
<path style="fill:#000000; fill-opacity:1.0000; stroke:none;fill-rule:evenodd;"
d="M 111.3000,76.4500
112.3000,76.4500
112.3000,78.7275
111.3000,78.7275
Z" /> 
<path style="fill:#000000; fill-opacity:1.0000; stroke:none;fill-rule:evenodd;"
d="M 109.3000,76.4500
110.3000,76.4500
110.3000,78.7275
109.3000,78.7275
Z" /> 
<path style="fill:#000000; fill-opacity:1.0000; stroke:none;fill-rule:evenodd;"
d="M 115.3000,76.4500
116.3000,76.4500
116.3000,78.7275
115.3000,78.7275
Z" /> 
<path style="fill:#000000; fill-opacity:1.0000; stroke:none;fill-rule:evenodd;"
d="M 99.3000,76.4500
100.3000,76.4500
100.3000,78.7275
99.3000,78.7275
Z" /> 
<path style="fill:#000000; fill-opacity:1.0000; stroke:none;fill-rule:evenodd;"
d="M 103.3000,76.4500
104.3000,76.4500
104.3000,78.7275
103.3000,78.7275
Z" /> 
<path style="fill:#000000; fill-opacity:1.0000; stroke:none;fill-rule:evenodd;"
d="M 144.3000,76.4500
145.3000,76.4500
145.3000,78.7275
144.3000,78.7275
Z" /> 
<path style="fill:#000000; fill-opacity:1.0000; stroke:none;fill-rule:evenodd;"
d="M 97.3000,76.4500
98.3000,76.4500
98.3000,78.7275
97.3000,78.7275
Z" /> 
<path style="fill:#000000; fill-opacity:1.0000; stroke:none;fill-rule:evenodd;"
d="M 95.3000,76.4500
96.3000,76.4500
96.3000,78.7275
95.3000,78.7275
Z" /> 
<path style="fill:#000000; fill-opacity:1.0000; stroke:none;fill-rule:evenodd;"
d="M 91.3000,76.4500
92.3000,76.4500
92.3000,78.7275
91.3000,78.7275
Z" /> 
<path style="fill:#000000; fill-opacity:1.0000; stroke:none;fill-rule:evenodd;"
d="M 132.3000,76.4500
133.3000,76.4500
133.3000,78.7275
132.3000,78.7275
Z" /> 
<path style="fill:#000000; fill-opacity:1.0000; stroke:none;fill-rule:evenodd;"
d="M 128.3000,76.4500
129.3000,76.4500
129.3000,78.7275
128.3000,78.7275
Z" /> 
<path style="fill:#000000; fill-opacity:1.0000; stroke:none;fill-rule:evenodd;"
d="M 93.3000,76.4500
94.3000,76.4500
94.3000,78.7275
93.3000,78.7275
Z" /> 
<path style="fill:#000000; fill-opacity:1.0000; stroke:none;fill-rule:evenodd;"
d="M 122.3000,76.4500
123.3000,76.4500
123.3000,78.7275
122.3000,78.7275
Z" /> 
<path style="fill:#000000; fill-opacity:1.0000; stroke:none;fill-rule:evenodd;"
d="M 124.3000,76.4500
125.3000,76.4500
125.3000,78.7275
124.3000,78.7275
Z" /> 
<path style="fill:#000000; fill-opacity:1.0000; stroke:none;fill-rule:evenodd;"
d="M 146.3000,76.4500
147.3000,76.4500
147.3000,78.7275
146.3000,78.7275
Z" /> 
<path style="fill:#000000; fill-opacity:1.0000; stroke:none;fill-rule:evenodd;"
d="M 136.3000,76.4500
137.3000,76.4500
137.3000,78.7275
136.3000,78.7275
Z" /> 
<path style="fill:#000000; fill-opacity:1.0000; stroke:none;fill-rule:evenodd;"
d="M 142.3000,76.4500
143.3000,76.4500
143.3000,78.7275
142.3000,78.7275
Z" /> 
<path style="fill:#000000; fill-opacity:1.0000; stroke:none;fill-rule:evenodd;"
d="M 134.3000,76.4500
135.3000,76.4500
135.3000,78.7275
134.3000,78.7275
Z" /> 
<path style="fill:#000000; fill-opacity:1.0000; stroke:none;fill-rule:evenodd;"
d="M 130.3000,76.4500
131.3000,76.4500
131.3000,78.7275
130.3000,78.7275
Z" /> 
<path style="fill:#000000; fill-opacity:1.0000; stroke:none;fill-rule:evenodd;"
d="M 140.3000,76.4500
141.3000,76.4500
141.3000,78.7275
140.3000,78.7275
Z" /> 
<path style="fill:#000000; fill-opacity:1.0000; stroke:none;fill-rule:evenodd;"
d="M 113.3000,76.4500
114.3000,76.4500
114.3000,78.7275
113.3000,78.7275
Z" /> 
<path style="fill:#000000; fill-opacity:1.0000; stroke:none;fill-rule:evenodd;"
d="M 138.3000,76.4500
139.3000,76.4500
139.3000,78.7275
138.3000,78.7275
Z" /> 
<path style="fill:#000000; fill-opacity:1.0000; stroke:none;fill-rule:evenodd;"
d="M 101.3000,76.4500
102.3000,76.4500
102.3000,78.7275
101.3000,78.7275
Z" /> 
<path style="fill:#000000; fill-opacity:1.0000; stroke:none;fill-rule:evenodd;"
d="M 105.3000,76.4500
106.3000,76.4500
106.3000,78.7275
105.3000,78.7275
Z" /> 
<path style="fill:#000000; fill-opacity:1.0000; stroke:none;fill-rule:evenodd;"
d="M 126.3000,76.4500
127.3000,76.4500
127.3000,78.7275
126.3000,78.7275
Z" /> 
<path style="fill:#000000; fill-opacity:1.0000; stroke:none;fill-rule:evenodd;"
d="M 107.3000,76.4500
108.3000,76.4500
108.3000,78.7275
107.3000,78.7275
Z" /> 
</g> 
</svg>
