<?xml version="1.0" standalone="no"?>
 <!DOCTYPE svg PUBLIC "-//W3C//DTD SVG 1.1//EN" 
 "http://www.w3.org/Graphics/SVG/1.1/DTD/svg11.dtd"> 
<svg
  xmlns:svg="http://www.w3.org/2000/svg"
  xmlns="http://www.w3.org/2000/svg"
  xmlns:xlink="http://www.w3.org/1999/xlink"
  version="1.1"
  width="297.0022mm" height="210.0072mm" viewBox="0.0000 0.0000 297.0022 210.0072">
<title>SVG Image created as MatchBox v0.3-F_Mask.svg date 2024/08/17 16:06:36 </title>
  <desc>Image generated by PCBNEW </desc>
<g style="fill:#000000; fill-opacity:1.0000;stroke:#000000; stroke-opacity:1.0000;
stroke-linecap:round; stroke-linejoin:round;"
 transform="translate(0 0) scale(1 1)">
</g>
<g style="fill:#000000; fill-opacity:1.0000; stroke:none;">
<circle cx="77.2000" cy="108.0000" r="1.6000" /> 
<path style="fill:#000000; fill-opacity:1.0000; stroke:none;fill-rule:evenodd;"
d="M 112.3000,76.3480
112.3390,76.3558
112.3721,76.3779
112.3942,76.4110
112.4020,76.4500
112.4020,78.7275
112.3942,78.7665
112.3721,78.7996
112.3390,78.8217
112.3000,78.8295
111.3000,78.8295
111.2610,78.8217
111.2279,78.7996
111.2058,78.7665
111.1980,78.7275
111.1980,76.4500
111.2058,76.4110
111.2279,76.3779
111.2610,76.3558
111.3000,76.3480
Z" /> 
<path style="fill:#000000; fill-opacity:1.0000; stroke:none;fill-rule:evenodd;"
d="M 83.3250,109.9500
81.6250,109.9500
81.6250,108.2500
83.3250,108.2500
Z" /> 
</g>
<g style="fill:#000000; fill-opacity:1.0000; stroke:none;">
<circle cx="82.4750" cy="106.5600" r="0.8500" /> 
<circle cx="85.0150" cy="109.1000" r="0.8500" /> 
<circle cx="85.0150" cy="106.5600" r="0.8500" /> 
<circle cx="87.5550" cy="109.1000" r="0.8500" /> 
<circle cx="87.5550" cy="106.5600" r="0.8500" /> 
<circle cx="90.0950" cy="109.1000" r="0.8500" /> 
<circle cx="90.0950" cy="106.5600" r="0.8500" /> 
<circle cx="92.6350" cy="109.1000" r="0.8500" /> 
<circle cx="92.6350" cy="106.5600" r="0.8500" /> 
<circle cx="95.1750" cy="109.1000" r="0.8500" /> 
<circle cx="95.1750" cy="106.5600" r="0.8500" /> 
<circle cx="97.7150" cy="109.1000" r="0.8500" /> 
<circle cx="97.7150" cy="106.5600" r="0.8500" /> 
<circle cx="100.2550" cy="109.1000" r="0.8500" /> 
<circle cx="100.2550" cy="106.5600" r="0.8500" /> 
<circle cx="102.7950" cy="109.1000" r="0.8500" /> 
<circle cx="102.7950" cy="106.5600" r="0.8500" /> 
<circle cx="105.3350" cy="109.1000" r="0.8500" /> 
<circle cx="105.3350" cy="106.5600" r="0.8500" /> 
<circle cx="107.8750" cy="109.1000" r="0.8500" /> 
<circle cx="107.8750" cy="106.5600" r="0.8500" /> 
<circle cx="110.4150" cy="109.1000" r="0.8500" /> 
<circle cx="110.4150" cy="106.5600" r="0.8500" /> 
<circle cx="112.9550" cy="109.1000" r="0.8500" /> 
<circle cx="112.9550" cy="106.5600" r="0.8500" /> 
<circle cx="115.4950" cy="109.1000" r="0.8500" /> 
<circle cx="115.4950" cy="106.5600" r="0.8500" /> 
<circle cx="118.0350" cy="109.1000" r="0.8500" /> 
<circle cx="118.0350" cy="106.5600" r="0.8500" /> 
<circle cx="120.5750" cy="109.1000" r="0.8500" /> 
<circle cx="120.5750" cy="106.5600" r="0.8500" /> 
<circle cx="123.1150" cy="109.1000" r="0.8500" /> 
<circle cx="123.1150" cy="106.5600" r="0.8500" /> 
<circle cx="125.6550" cy="109.1000" r="0.8500" /> 
<circle cx="125.6550" cy="106.5600" r="0.8500" /> 
<circle cx="128.1950" cy="109.1000" r="0.8500" /> 
<circle cx="128.1950" cy="106.5600" r="0.8500" /> 
<circle cx="130.7350" cy="109.1000" r="0.8500" /> 
<circle cx="130.7350" cy="106.5600" r="0.8500" /> 
<circle cx="133.2750" cy="109.1000" r="0.8500" /> 
<circle cx="133.2750" cy="106.5600" r="0.8500" /> 
<circle cx="135.8150" cy="109.1000" r="0.8500" /> 
<circle cx="135.8150" cy="106.5600" r="0.8500" /> 
<circle cx="138.3550" cy="109.1000" r="0.8500" /> 
<circle cx="138.3550" cy="106.5600" r="0.8500" /> 
<circle cx="140.8950" cy="109.1000" r="0.8500" /> 
<circle cx="140.8950" cy="106.5600" r="0.8500" /> 
<circle cx="143.4350" cy="109.1000" r="0.8500" /> 
<circle cx="143.4350" cy="106.5600" r="0.8500" /> 
<circle cx="145.9750" cy="109.1000" r="0.8500" /> 
<circle cx="145.9750" cy="106.5600" r="0.8500" /> 
<circle cx="148.5150" cy="109.1000" r="0.8500" /> 
<circle cx="148.5150" cy="106.5600" r="0.8500" /> 
<circle cx="151.0550" cy="109.1000" r="0.8500" /> 
<circle cx="151.0550" cy="106.5600" r="0.8500" /> 
<circle cx="153.5950" cy="109.1000" r="0.8500" /> 
<circle cx="153.5950" cy="106.5600" r="0.8500" /> 
<circle cx="156.1350" cy="109.1000" r="0.8500" /> 
<circle cx="156.1350" cy="106.5600" r="0.8500" /> 
<path style="fill:#000000; fill-opacity:1.0000; stroke:none;fill-rule:evenodd;"
d="M 110.3000,76.3480
110.3390,76.3558
110.3721,76.3779
110.3942,76.4110
110.4020,76.4500
110.4020,78.7275
110.3942,78.7665
110.3721,78.7996
110.3390,78.8217
110.3000,78.8295
109.3000,78.8295
109.2610,78.8217
109.2279,78.7996
109.2058,78.7665
109.1980,78.7275
109.1980,76.4500
109.2058,76.4110
109.2279,76.3779
109.2610,76.3558
109.3000,76.3480
Z" /> 
<path style="fill:#000000; fill-opacity:1.0000; stroke:none;fill-rule:evenodd;"
d="M 116.3000,76.3480
116.3390,76.3558
116.3721,76.3779
116.3942,76.4110
116.4020,76.4500
116.4020,78.7275
116.3942,78.7665
116.3721,78.7996
116.3390,78.8217
116.3000,78.8295
115.3000,78.8295
115.2610,78.8217
115.2279,78.7996
115.2058,78.7665
115.1980,78.7275
115.1980,76.4500
115.2058,76.4110
115.2279,76.3779
115.2610,76.3558
115.3000,76.3480
Z" /> 
<path style="fill:#000000; fill-opacity:1.0000; stroke:none;fill-rule:evenodd;"
d="M 100.3000,76.3480
100.3390,76.3558
100.3721,76.3779
100.3942,76.4110
100.4020,76.4500
100.4020,78.7275
100.3942,78.7665
100.3721,78.7996
100.3390,78.8217
100.3000,78.8295
99.3000,78.8295
99.2610,78.8217
99.2279,78.7996
99.2058,78.7665
99.1980,78.7275
99.1980,76.4500
99.2058,76.4110
99.2279,76.3779
99.2610,76.3558
99.3000,76.3480
Z" /> 
<path style="fill:#000000; fill-opacity:1.0000; stroke:none;fill-rule:evenodd;"
d="M 104.3000,76.3480
104.3390,76.3558
104.3721,76.3779
104.3942,76.4110
104.4020,76.4500
104.4020,78.7275
104.3942,78.7665
104.3721,78.7996
104.3390,78.8217
104.3000,78.8295
103.3000,78.8295
103.2610,78.8217
103.2279,78.7996
103.2058,78.7665
103.1980,78.7275
103.1980,76.4500
103.2058,76.4110
103.2279,76.3779
103.2610,76.3558
103.3000,76.3480
Z" /> 
<path style="fill:#000000; fill-opacity:1.0000; stroke:none;fill-rule:evenodd;"
d="M 145.3000,76.3480
145.3390,76.3558
145.3721,76.3779
145.3942,76.4110
145.4020,76.4500
145.4020,78.7275
145.3942,78.7665
145.3721,78.7996
145.3390,78.8217
145.3000,78.8295
144.3000,78.8295
144.2610,78.8217
144.2279,78.7996
144.2058,78.7665
144.1980,78.7275
144.1980,76.4500
144.2058,76.4110
144.2279,76.3779
144.2610,76.3558
144.3000,76.3480
Z" /> 
<path style="fill:#000000; fill-opacity:1.0000; stroke:none;fill-rule:evenodd;"
d="M 98.3000,76.3480
98.3390,76.3558
98.3721,76.3779
98.3942,76.4110
98.4020,76.4500
98.4020,78.7275
98.3942,78.7665
98.3721,78.7996
98.3390,78.8217
98.3000,78.8295
97.3000,78.8295
97.2610,78.8217
97.2279,78.7996
97.2058,78.7665
97.1980,78.7275
97.1980,76.4500
97.2058,76.4110
97.2279,76.3779
97.2610,76.3558
97.3000,76.3480
Z" /> 
<path style="fill:#000000; fill-opacity:1.0000; stroke:none;fill-rule:evenodd;"
d="M 155.2850,63.8500
156.9850,63.8500
156.9850,65.5500
155.2850,65.5500
Z" /> 
<circle cx="156.1350" cy="67.2400" r="0.8500" /> 
<circle cx="153.5950" cy="64.7000" r="0.8500" /> 
<circle cx="153.5950" cy="67.2400" r="0.8500" /> 
<circle cx="151.0550" cy="64.7000" r="0.8500" /> 
<circle cx="151.0550" cy="67.2400" r="0.8500" /> 
<circle cx="148.5150" cy="64.7000" r="0.8500" /> 
<circle cx="148.5150" cy="67.2400" r="0.8500" /> 
<circle cx="145.9750" cy="64.7000" r="0.8500" /> 
<circle cx="145.9750" cy="67.2400" r="0.8500" /> 
<circle cx="143.4350" cy="64.7000" r="0.8500" /> 
<circle cx="143.4350" cy="67.2400" r="0.8500" /> 
<circle cx="140.8950" cy="64.7000" r="0.8500" /> 
<circle cx="140.8950" cy="67.2400" r="0.8500" /> 
<circle cx="138.3550" cy="64.7000" r="0.8500" /> 
<circle cx="138.3550" cy="67.2400" r="0.8500" /> 
<circle cx="135.8150" cy="64.7000" r="0.8500" /> 
<circle cx="135.8150" cy="67.2400" r="0.8500" /> 
<circle cx="133.2750" cy="64.7000" r="0.8500" /> 
<circle cx="133.2750" cy="67.2400" r="0.8500" /> 
<circle cx="130.7350" cy="64.7000" r="0.8500" /> 
<circle cx="130.7350" cy="67.2400" r="0.8500" /> 
<circle cx="128.1950" cy="64.7000" r="0.8500" /> 
<circle cx="128.1950" cy="67.2400" r="0.8500" /> 
<circle cx="125.6550" cy="64.7000" r="0.8500" /> 
<circle cx="125.6550" cy="67.2400" r="0.8500" /> 
<circle cx="123.1150" cy="64.7000" r="0.8500" /> 
<circle cx="123.1150" cy="67.2400" r="0.8500" /> 
<circle cx="120.5750" cy="64.7000" r="0.8500" /> 
<circle cx="120.5750" cy="67.2400" r="0.8500" /> 
<circle cx="118.0350" cy="64.7000" r="0.8500" /> 
<circle cx="118.0350" cy="67.2400" r="0.8500" /> 
<circle cx="115.4950" cy="64.7000" r="0.8500" /> 
<circle cx="115.4950" cy="67.2400" r="0.8500" /> 
<circle cx="112.9550" cy="64.7000" r="0.8500" /> 
<circle cx="112.9550" cy="67.2400" r="0.8500" /> 
<circle cx="110.4150" cy="64.7000" r="0.8500" /> 
<circle cx="110.4150" cy="67.2400" r="0.8500" /> 
<circle cx="107.8750" cy="64.7000" r="0.8500" /> 
<circle cx="107.8750" cy="67.2400" r="0.8500" /> 
<circle cx="105.3350" cy="64.7000" r="0.8500" /> 
<circle cx="105.3350" cy="67.2400" r="0.8500" /> 
<circle cx="102.7950" cy="64.7000" r="0.8500" /> 
<circle cx="102.7950" cy="67.2400" r="0.8500" /> 
<circle cx="100.2550" cy="64.7000" r="0.8500" /> 
<circle cx="100.2550" cy="67.2400" r="0.8500" /> 
<circle cx="97.7150" cy="64.7000" r="0.8500" /> 
<circle cx="97.7150" cy="67.2400" r="0.8500" /> 
<circle cx="95.1750" cy="64.7000" r="0.8500" /> 
<circle cx="95.1750" cy="67.2400" r="0.8500" /> 
<circle cx="92.6350" cy="64.7000" r="0.8500" /> 
<circle cx="92.6350" cy="67.2400" r="0.8500" /> 
<circle cx="90.0950" cy="64.7000" r="0.8500" /> 
<circle cx="90.0950" cy="67.2400" r="0.8500" /> 
<circle cx="87.5550" cy="64.7000" r="0.8500" /> 
<circle cx="87.5550" cy="67.2400" r="0.8500" /> 
<circle cx="85.0150" cy="64.7000" r="0.8500" /> 
<circle cx="85.0150" cy="67.2400" r="0.8500" /> 
<circle cx="82.4750" cy="64.7000" r="0.8500" /> 
<circle cx="82.4750" cy="67.2400" r="0.8500" /> 
<circle cx="161.4000" cy="108.0000" r="1.6000" /> 
<path style="fill:#000000; fill-opacity:1.0000; stroke:none;fill-rule:evenodd;"
d="M 96.3000,76.3480
96.3390,76.3558
96.3721,76.3779
96.3942,76.4110
96.4020,76.4500
96.4020,78.7275
96.3942,78.7665
96.3721,78.7996
96.3390,78.8217
96.3000,78.8295
95.3000,78.8295
95.2610,78.8217
95.2279,78.7996
95.2058,78.7665
95.1980,78.7275
95.1980,76.4500
95.2058,76.4110
95.2279,76.3779
95.2610,76.3558
95.3000,76.3480
Z" /> 
<path style="fill:#000000; fill-opacity:1.0000; stroke:none;fill-rule:evenodd;"
d="M 92.3000,76.3480
92.3390,76.3558
92.3721,76.3779
92.3942,76.4110
92.4020,76.4500
92.4020,78.7275
92.3942,78.7665
92.3721,78.7996
92.3390,78.8217
92.3000,78.8295
91.3000,78.8295
91.2610,78.8217
91.2279,78.7996
91.2058,78.7665
91.1980,78.7275
91.1980,76.4500
91.2058,76.4110
91.2279,76.3779
91.2610,76.3558
91.3000,76.3480
Z" /> 
<path style="fill:#000000; fill-opacity:1.0000; stroke:none;fill-rule:evenodd;"
d="M 133.3000,76.3480
133.3390,76.3558
133.3721,76.3779
133.3942,76.4110
133.4020,76.4500
133.4020,78.7275
133.3942,78.7665
133.3721,78.7996
133.3390,78.8217
133.3000,78.8295
132.3000,78.8295
132.2610,78.8217
132.2279,78.7996
132.2058,78.7665
132.1980,78.7275
132.1980,76.4500
132.2058,76.4110
132.2279,76.3779
132.2610,76.3558
132.3000,76.3480
Z" /> 
</g>
<g style="fill:#000000; fill-opacity:1.0000; stroke:none;">
<circle cx="84.7500" cy="75.9500" r="1.8500" /> 
<path style="fill:#000000; fill-opacity:1.0000; stroke:none;fill-rule:evenodd;"
d="M 129.3000,76.3480
129.3390,76.3558
129.3721,76.3779
129.3942,76.4110
129.4020,76.4500
129.4020,78.7275
129.3942,78.7665
129.3721,78.7996
129.3390,78.8217
129.3000,78.8295
128.3000,78.8295
128.2610,78.8217
128.2279,78.7996
128.2058,78.7665
128.1980,78.7275
128.1980,76.4500
128.2058,76.4110
128.2279,76.3779
128.2610,76.3558
128.3000,76.3480
Z" /> 
<path style="fill:#000000; fill-opacity:1.0000; stroke:none;fill-rule:evenodd;"
d="M 94.3000,76.3480
94.3390,76.3558
94.3721,76.3779
94.3942,76.4110
94.4020,76.4500
94.4020,78.7275
94.3942,78.7665
94.3721,78.7996
94.3390,78.8217
94.3000,78.8295
93.3000,78.8295
93.2610,78.8217
93.2279,78.7996
93.2058,78.7665
93.1980,78.7275
93.1980,76.4500
93.2058,76.4110
93.2279,76.3779
93.2610,76.3558
93.3000,76.3480
Z" /> 
<path style="fill:#000000; fill-opacity:1.0000; stroke:none;fill-rule:evenodd;"
d="M 123.3000,76.3480
123.3390,76.3558
123.3721,76.3779
123.3942,76.4110
123.4020,76.4500
123.4020,78.7275
123.3942,78.7665
123.3721,78.7996
123.3390,78.8217
123.3000,78.8295
122.3000,78.8295
122.2610,78.8217
122.2279,78.7996
122.2058,78.7665
122.1980,78.7275
122.1980,76.4500
122.2058,76.4110
122.2279,76.3779
122.2610,76.3558
122.3000,76.3480
Z" /> 
</g>
<g style="fill:#000000; fill-opacity:1.0000; stroke:none;">
<circle cx="77.2000" cy="65.8000" r="1.6000" /> 
<path style="fill:#000000; fill-opacity:1.0000; stroke:none;fill-rule:evenodd;"
d="M 125.3000,76.3480
125.3390,76.3558
125.3721,76.3779
125.3942,76.4110
125.4020,76.4500
125.4020,78.7275
125.3942,78.7665
125.3721,78.7996
125.3390,78.8217
125.3000,78.8295
124.3000,78.8295
124.2610,78.8217
124.2279,78.7996
124.2058,78.7665
124.1980,78.7275
124.1980,76.4500
124.2058,76.4110
124.2279,76.3779
124.2610,76.3558
124.3000,76.3480
Z" /> 
</g>
<g style="fill:#000000; fill-opacity:1.0000; stroke:none;">
<circle cx="161.4000" cy="65.8000" r="1.6000" /> 
</g>
<g style="fill:#000000; fill-opacity:1.0000; stroke:none;">
<circle cx="153.8500" cy="75.9500" r="1.8500" /> 
<path style="fill:#000000; fill-opacity:1.0000; stroke:none;fill-rule:evenodd;"
d="M 147.3000,76.3480
147.3390,76.3558
147.3721,76.3779
147.3942,76.4110
147.4020,76.4500
147.4020,78.7275
147.3942,78.7665
147.3721,78.7996
147.3390,78.8217
147.3000,78.8295
146.3000,78.8295
146.2610,78.8217
146.2279,78.7996
146.2058,78.7665
146.1980,78.7275
146.1980,76.4500
146.2058,76.4110
146.2279,76.3779
146.2610,76.3558
146.3000,76.3480
Z" /> 
<path style="fill:#000000; fill-opacity:1.0000; stroke:none;fill-rule:evenodd;"
d="M 137.3000,76.3480
137.3390,76.3558
137.3721,76.3779
137.3942,76.4110
137.4020,76.4500
137.4020,78.7275
137.3942,78.7665
137.3721,78.7996
137.3390,78.8217
137.3000,78.8295
136.3000,78.8295
136.2610,78.8217
136.2279,78.7996
136.2058,78.7665
136.1980,78.7275
136.1980,76.4500
136.2058,76.4110
136.2279,76.3779
136.2610,76.3558
136.3000,76.3480
Z" /> 
<path style="fill:#000000; fill-opacity:1.0000; stroke:none;fill-rule:evenodd;"
d="M 143.3000,76.3480
143.3390,76.3558
143.3721,76.3779
143.3942,76.4110
143.4020,76.4500
143.4020,78.7275
143.3942,78.7665
143.3721,78.7996
143.3390,78.8217
143.3000,78.8295
142.3000,78.8295
142.2610,78.8217
142.2279,78.7996
142.2058,78.7665
142.1980,78.7275
142.1980,76.4500
142.2058,76.4110
142.2279,76.3779
142.2610,76.3558
142.3000,76.3480
Z" /> 
<path style="fill:#000000; fill-opacity:1.0000; stroke:none;fill-rule:evenodd;"
d="M 135.3000,76.3480
135.3390,76.3558
135.3721,76.3779
135.3942,76.4110
135.4020,76.4500
135.4020,78.7275
135.3942,78.7665
135.3721,78.7996
135.3390,78.8217
135.3000,78.8295
134.3000,78.8295
134.2610,78.8217
134.2279,78.7996
134.2058,78.7665
134.1980,78.7275
134.1980,76.4500
134.2058,76.4110
134.2279,76.3779
134.2610,76.3558
134.3000,76.3480
Z" /> 
<path style="fill:#000000; fill-opacity:1.0000; stroke:none;fill-rule:evenodd;"
d="M 131.3000,76.3480
131.3390,76.3558
131.3721,76.3779
131.3942,76.4110
131.4020,76.4500
131.4020,78.7275
131.3942,78.7665
131.3721,78.7996
131.3390,78.8217
131.3000,78.8295
130.3000,78.8295
130.2610,78.8217
130.2279,78.7996
130.2058,78.7665
130.1980,78.7275
130.1980,76.4500
130.2058,76.4110
130.2279,76.3779
130.2610,76.3558
130.3000,76.3480
Z" /> 
<path style="fill:#000000; fill-opacity:1.0000; stroke:none;fill-rule:evenodd;"
d="M 141.3000,76.3480
141.3390,76.3558
141.3721,76.3779
141.3942,76.4110
141.4020,76.4500
141.4020,78.7275
141.3942,78.7665
141.3721,78.7996
141.3390,78.8217
141.3000,78.8295
140.3000,78.8295
140.2610,78.8217
140.2279,78.7996
140.2058,78.7665
140.1980,78.7275
140.1980,76.4500
140.2058,76.4110
140.2279,76.3779
140.2610,76.3558
140.3000,76.3480
Z" /> 
<path style="fill:#000000; fill-opacity:1.0000; stroke:none;fill-rule:evenodd;"
d="M 114.3000,76.3480
114.3390,76.3558
114.3721,76.3779
114.3942,76.4110
114.4020,76.4500
114.4020,78.7275
114.3942,78.7665
114.3721,78.7996
114.3390,78.8217
114.3000,78.8295
113.3000,78.8295
113.2610,78.8217
113.2279,78.7996
113.2058,78.7665
113.1980,78.7275
113.1980,76.4500
113.2058,76.4110
113.2279,76.3779
113.2610,76.3558
113.3000,76.3480
Z" /> 
<path style="fill:#000000; fill-opacity:1.0000; stroke:none;fill-rule:evenodd;"
d="M 139.3000,76.3480
139.3390,76.3558
139.3721,76.3779
139.3942,76.4110
139.4020,76.4500
139.4020,78.7275
139.3942,78.7665
139.3721,78.7996
139.3390,78.8217
139.3000,78.8295
138.3000,78.8295
138.2610,78.8217
138.2279,78.7996
138.2058,78.7665
138.1980,78.7275
138.1980,76.4500
138.2058,76.4110
138.2279,76.3779
138.2610,76.3558
138.3000,76.3480
Z" /> 
<path style="fill:#000000; fill-opacity:1.0000; stroke:none;fill-rule:evenodd;"
d="M 102.3000,76.3480
102.3390,76.3558
102.3721,76.3779
102.3942,76.4110
102.4020,76.4500
102.4020,78.7275
102.3942,78.7665
102.3721,78.7996
102.3390,78.8217
102.3000,78.8295
101.3000,78.8295
101.2610,78.8217
101.2279,78.7996
101.2058,78.7665
101.1980,78.7275
101.1980,76.4500
101.2058,76.4110
101.2279,76.3779
101.2610,76.3558
101.3000,76.3480
Z" /> 
<path style="fill:#000000; fill-opacity:1.0000; stroke:none;fill-rule:evenodd;"
d="M 106.3000,76.3480
106.3390,76.3558
106.3721,76.3779
106.3942,76.4110
106.4020,76.4500
106.4020,78.7275
106.3942,78.7665
106.3721,78.7996
106.3390,78.8217
106.3000,78.8295
105.3000,78.8295
105.2610,78.8217
105.2279,78.7996
105.2058,78.7665
105.1980,78.7275
105.1980,76.4500
105.2058,76.4110
105.2279,76.3779
105.2610,76.3558
105.3000,76.3480
Z" /> 
<path style="fill:#000000; fill-opacity:1.0000; stroke:none;fill-rule:evenodd;"
d="M 127.3000,76.3480
127.3390,76.3558
127.3721,76.3779
127.3942,76.4110
127.4020,76.4500
127.4020,78.7275
127.3942,78.7665
127.3721,78.7996
127.3390,78.8217
127.3000,78.8295
126.3000,78.8295
126.2610,78.8217
126.2279,78.7996
126.2058,78.7665
126.1980,78.7275
126.1980,76.4500
126.2058,76.4110
126.2279,76.3779
126.2610,76.3558
126.3000,76.3480
Z" /> 
<path style="fill:#000000; fill-opacity:1.0000; stroke:none;fill-rule:evenodd;"
d="M 108.3000,76.3480
108.3390,76.3558
108.3721,76.3779
108.3942,76.4110
108.4020,76.4500
108.4020,78.7275
108.3942,78.7665
108.3721,78.7996
108.3390,78.8217
108.3000,78.8295
107.3000,78.8295
107.2610,78.8217
107.2279,78.7996
107.2058,78.7665
107.1980,78.7275
107.1980,76.4500
107.2058,76.4110
107.2279,76.3779
107.2610,76.3558
107.3000,76.3480
Z" /> 
</g> 
</svg>
