G04 #@! TF.GenerationSoftware,KiCad,Pcbnew,8.0.1*
G04 #@! TF.CreationDate,2024-08-06T23:19:39+08:00*
G04 #@! TF.ProjectId,MatchBox v0.3,4d617463-6842-46f7-9820-76302e332e6b,rev?*
G04 #@! TF.SameCoordinates,Original*
G04 #@! TF.FileFunction,Legend,Bot*
G04 #@! TF.FilePolarity,Positive*
%FSLAX46Y46*%
G04 Gerber Fmt 4.6, Leading zero omitted, Abs format (unit mm)*
G04 Created by KiCad (PCBNEW 8.0.1) date 2024-08-06 23:19:39*
%MOMM*%
%LPD*%
G01*
G04 APERTURE LIST*
%ADD10C,0.100000*%
%ADD11C,3.200000*%
%ADD12C,3.700000*%
%ADD13R,1.700000X1.700000*%
%ADD14O,1.700000X1.700000*%
G04 APERTURE END LIST*
D10*
X130696503Y-112562475D02*
X130696503Y-111562475D01*
X130886980Y-113648609D02*
X130744123Y-113696228D01*
X130744123Y-113696228D02*
X130696504Y-113743847D01*
X130696504Y-113743847D02*
X130648885Y-113839085D01*
X130648885Y-113839085D02*
X130648885Y-113981942D01*
X130648885Y-113981942D02*
X130696504Y-114077180D01*
X130696504Y-114077180D02*
X130744123Y-114124800D01*
X130744123Y-114124800D02*
X130839361Y-114172419D01*
X130839361Y-114172419D02*
X131220313Y-114172419D01*
X131220313Y-114172419D02*
X131220313Y-113172419D01*
X131220313Y-113172419D02*
X130886980Y-113172419D01*
X130886980Y-113172419D02*
X130791742Y-113220038D01*
X130791742Y-113220038D02*
X130744123Y-113267657D01*
X130744123Y-113267657D02*
X130696504Y-113362895D01*
X130696504Y-113362895D02*
X130696504Y-113458133D01*
X130696504Y-113458133D02*
X130744123Y-113553371D01*
X130744123Y-113553371D02*
X130791742Y-113600990D01*
X130791742Y-113600990D02*
X130886980Y-113648609D01*
X130886980Y-113648609D02*
X131220313Y-113648609D01*
X103089837Y-111991046D02*
X103185075Y-111943427D01*
X103185075Y-111943427D02*
X103232694Y-111895808D01*
X103232694Y-111895808D02*
X103280313Y-111800570D01*
X103280313Y-111800570D02*
X103280313Y-111752951D01*
X103280313Y-111752951D02*
X103232694Y-111657713D01*
X103232694Y-111657713D02*
X103185075Y-111610094D01*
X103185075Y-111610094D02*
X103089837Y-111562475D01*
X103089837Y-111562475D02*
X102899361Y-111562475D01*
X102899361Y-111562475D02*
X102804123Y-111610094D01*
X102804123Y-111610094D02*
X102756504Y-111657713D01*
X102756504Y-111657713D02*
X102708885Y-111752951D01*
X102708885Y-111752951D02*
X102708885Y-111800570D01*
X102708885Y-111800570D02*
X102756504Y-111895808D01*
X102756504Y-111895808D02*
X102804123Y-111943427D01*
X102804123Y-111943427D02*
X102899361Y-111991046D01*
X102899361Y-111991046D02*
X103089837Y-111991046D01*
X103089837Y-111991046D02*
X103185075Y-112038665D01*
X103185075Y-112038665D02*
X103232694Y-112086284D01*
X103232694Y-112086284D02*
X103280313Y-112181522D01*
X103280313Y-112181522D02*
X103280313Y-112371998D01*
X103280313Y-112371998D02*
X103232694Y-112467236D01*
X103232694Y-112467236D02*
X103185075Y-112514856D01*
X103185075Y-112514856D02*
X103089837Y-112562475D01*
X103089837Y-112562475D02*
X102899361Y-112562475D01*
X102899361Y-112562475D02*
X102804123Y-112514856D01*
X102804123Y-112514856D02*
X102756504Y-112467236D01*
X102756504Y-112467236D02*
X102708885Y-112371998D01*
X102708885Y-112371998D02*
X102708885Y-112181522D01*
X102708885Y-112181522D02*
X102756504Y-112086284D01*
X102756504Y-112086284D02*
X102804123Y-112038665D01*
X102804123Y-112038665D02*
X102899361Y-111991046D01*
X103280313Y-114172419D02*
X103280313Y-113172419D01*
X102708885Y-114172419D02*
X103137456Y-113600990D01*
X102708885Y-113172419D02*
X103280313Y-113743847D01*
X143967932Y-112562475D02*
X143967932Y-111562475D01*
X143967932Y-111562475D02*
X143396504Y-112562475D01*
X143396504Y-112562475D02*
X143396504Y-111562475D01*
X143396504Y-113172419D02*
X143872694Y-113172419D01*
X143872694Y-113172419D02*
X143920313Y-113648609D01*
X143920313Y-113648609D02*
X143872694Y-113600990D01*
X143872694Y-113600990D02*
X143777456Y-113553371D01*
X143777456Y-113553371D02*
X143539361Y-113553371D01*
X143539361Y-113553371D02*
X143444123Y-113600990D01*
X143444123Y-113600990D02*
X143396504Y-113648609D01*
X143396504Y-113648609D02*
X143348885Y-113743847D01*
X143348885Y-113743847D02*
X143348885Y-113981942D01*
X143348885Y-113981942D02*
X143396504Y-114077180D01*
X143396504Y-114077180D02*
X143444123Y-114124800D01*
X143444123Y-114124800D02*
X143539361Y-114172419D01*
X143539361Y-114172419D02*
X143777456Y-114172419D01*
X143777456Y-114172419D02*
X143872694Y-114124800D01*
X143872694Y-114124800D02*
X143920313Y-114077180D01*
X146222218Y-111562475D02*
X146126980Y-111562475D01*
X146126980Y-111562475D02*
X146031742Y-111610094D01*
X146031742Y-111610094D02*
X145984123Y-111657713D01*
X145984123Y-111657713D02*
X145936504Y-111752951D01*
X145936504Y-111752951D02*
X145888885Y-111943427D01*
X145888885Y-111943427D02*
X145888885Y-112181522D01*
X145888885Y-112181522D02*
X145936504Y-112371998D01*
X145936504Y-112371998D02*
X145984123Y-112467236D01*
X145984123Y-112467236D02*
X146031742Y-112514856D01*
X146031742Y-112514856D02*
X146126980Y-112562475D01*
X146126980Y-112562475D02*
X146222218Y-112562475D01*
X146222218Y-112562475D02*
X146317456Y-112514856D01*
X146317456Y-112514856D02*
X146365075Y-112467236D01*
X146365075Y-112467236D02*
X146412694Y-112371998D01*
X146412694Y-112371998D02*
X146460313Y-112181522D01*
X146460313Y-112181522D02*
X146460313Y-111943427D01*
X146460313Y-111943427D02*
X146412694Y-111752951D01*
X146412694Y-111752951D02*
X146365075Y-111657713D01*
X146365075Y-111657713D02*
X146317456Y-111610094D01*
X146317456Y-111610094D02*
X146222218Y-111562475D01*
X145984123Y-113505752D02*
X145984123Y-114172419D01*
X146222218Y-113124800D02*
X146460313Y-113839085D01*
X146460313Y-113839085D02*
X145841266Y-113839085D01*
X136300313Y-112562475D02*
X136300313Y-111562475D01*
X135728885Y-112562475D02*
X136157456Y-111991046D01*
X135728885Y-111562475D02*
X136300313Y-112133903D01*
X136109837Y-113600990D02*
X136205075Y-113553371D01*
X136205075Y-113553371D02*
X136252694Y-113505752D01*
X136252694Y-113505752D02*
X136300313Y-113410514D01*
X136300313Y-113410514D02*
X136300313Y-113362895D01*
X136300313Y-113362895D02*
X136252694Y-113267657D01*
X136252694Y-113267657D02*
X136205075Y-113220038D01*
X136205075Y-113220038D02*
X136109837Y-113172419D01*
X136109837Y-113172419D02*
X135919361Y-113172419D01*
X135919361Y-113172419D02*
X135824123Y-113220038D01*
X135824123Y-113220038D02*
X135776504Y-113267657D01*
X135776504Y-113267657D02*
X135728885Y-113362895D01*
X135728885Y-113362895D02*
X135728885Y-113410514D01*
X135728885Y-113410514D02*
X135776504Y-113505752D01*
X135776504Y-113505752D02*
X135824123Y-113553371D01*
X135824123Y-113553371D02*
X135919361Y-113600990D01*
X135919361Y-113600990D02*
X136109837Y-113600990D01*
X136109837Y-113600990D02*
X136205075Y-113648609D01*
X136205075Y-113648609D02*
X136252694Y-113696228D01*
X136252694Y-113696228D02*
X136300313Y-113791466D01*
X136300313Y-113791466D02*
X136300313Y-113981942D01*
X136300313Y-113981942D02*
X136252694Y-114077180D01*
X136252694Y-114077180D02*
X136205075Y-114124800D01*
X136205075Y-114124800D02*
X136109837Y-114172419D01*
X136109837Y-114172419D02*
X135919361Y-114172419D01*
X135919361Y-114172419D02*
X135824123Y-114124800D01*
X135824123Y-114124800D02*
X135776504Y-114077180D01*
X135776504Y-114077180D02*
X135728885Y-113981942D01*
X135728885Y-113981942D02*
X135728885Y-113791466D01*
X135728885Y-113791466D02*
X135776504Y-113696228D01*
X135776504Y-113696228D02*
X135824123Y-113648609D01*
X135824123Y-113648609D02*
X135919361Y-113600990D01*
X125616504Y-111610094D02*
X125711742Y-111562475D01*
X125711742Y-111562475D02*
X125854599Y-111562475D01*
X125854599Y-111562475D02*
X125997456Y-111610094D01*
X125997456Y-111610094D02*
X126092694Y-111705332D01*
X126092694Y-111705332D02*
X126140313Y-111800570D01*
X126140313Y-111800570D02*
X126187932Y-111991046D01*
X126187932Y-111991046D02*
X126187932Y-112133903D01*
X126187932Y-112133903D02*
X126140313Y-112324379D01*
X126140313Y-112324379D02*
X126092694Y-112419617D01*
X126092694Y-112419617D02*
X125997456Y-112514856D01*
X125997456Y-112514856D02*
X125854599Y-112562475D01*
X125854599Y-112562475D02*
X125759361Y-112562475D01*
X125759361Y-112562475D02*
X125616504Y-112514856D01*
X125616504Y-112514856D02*
X125568885Y-112467236D01*
X125568885Y-112467236D02*
X125568885Y-112133903D01*
X125568885Y-112133903D02*
X125759361Y-112133903D01*
X126140313Y-114172419D02*
X126140313Y-113172419D01*
X126140313Y-113172419D02*
X125902218Y-113172419D01*
X125902218Y-113172419D02*
X125759361Y-113220038D01*
X125759361Y-113220038D02*
X125664123Y-113315276D01*
X125664123Y-113315276D02*
X125616504Y-113410514D01*
X125616504Y-113410514D02*
X125568885Y-113600990D01*
X125568885Y-113600990D02*
X125568885Y-113743847D01*
X125568885Y-113743847D02*
X125616504Y-113934323D01*
X125616504Y-113934323D02*
X125664123Y-114029561D01*
X125664123Y-114029561D02*
X125759361Y-114124800D01*
X125759361Y-114124800D02*
X125902218Y-114172419D01*
X125902218Y-114172419D02*
X126140313Y-114172419D01*
X138173647Y-112562475D02*
X138649837Y-112562475D01*
X138649837Y-112562475D02*
X138649837Y-111562475D01*
X138887932Y-113172419D02*
X138221266Y-113172419D01*
X138221266Y-113172419D02*
X138649837Y-114172419D01*
X88040313Y-111657713D02*
X87992694Y-111610094D01*
X87992694Y-111610094D02*
X87897456Y-111562475D01*
X87897456Y-111562475D02*
X87659361Y-111562475D01*
X87659361Y-111562475D02*
X87564123Y-111610094D01*
X87564123Y-111610094D02*
X87516504Y-111657713D01*
X87516504Y-111657713D02*
X87468885Y-111752951D01*
X87468885Y-111752951D02*
X87468885Y-111848189D01*
X87468885Y-111848189D02*
X87516504Y-111991046D01*
X87516504Y-111991046D02*
X88087932Y-112562475D01*
X88087932Y-112562475D02*
X87468885Y-112562475D01*
X87421266Y-114267657D02*
X87516504Y-114220038D01*
X87516504Y-114220038D02*
X87611742Y-114124800D01*
X87611742Y-114124800D02*
X87754599Y-113981942D01*
X87754599Y-113981942D02*
X87849837Y-113934323D01*
X87849837Y-113934323D02*
X87945075Y-113934323D01*
X87897456Y-114172419D02*
X87992694Y-114124800D01*
X87992694Y-114124800D02*
X88087932Y-114029561D01*
X88087932Y-114029561D02*
X88135551Y-113839085D01*
X88135551Y-113839085D02*
X88135551Y-113505752D01*
X88135551Y-113505752D02*
X88087932Y-113315276D01*
X88087932Y-113315276D02*
X87992694Y-113220038D01*
X87992694Y-113220038D02*
X87897456Y-113172419D01*
X87897456Y-113172419D02*
X87706980Y-113172419D01*
X87706980Y-113172419D02*
X87611742Y-113220038D01*
X87611742Y-113220038D02*
X87516504Y-113315276D01*
X87516504Y-113315276D02*
X87468885Y-113505752D01*
X87468885Y-113505752D02*
X87468885Y-113839085D01*
X87468885Y-113839085D02*
X87516504Y-114029561D01*
X87516504Y-114029561D02*
X87611742Y-114124800D01*
X87611742Y-114124800D02*
X87706980Y-114172419D01*
X87706980Y-114172419D02*
X87897456Y-114172419D01*
X123124123Y-112038665D02*
X123457456Y-112038665D01*
X123457456Y-112562475D02*
X123457456Y-111562475D01*
X123457456Y-111562475D02*
X122981266Y-111562475D01*
X123505075Y-113648609D02*
X123171742Y-113648609D01*
X123028885Y-114172419D02*
X123505075Y-114172419D01*
X123505075Y-114172419D02*
X123505075Y-113172419D01*
X123505075Y-113172419D02*
X123028885Y-113172419D01*
X141523170Y-112562475D02*
X141523170Y-111562475D01*
X141523170Y-111562475D02*
X141189837Y-112276760D01*
X141189837Y-112276760D02*
X140856504Y-111562475D01*
X140856504Y-111562475D02*
X140856504Y-112562475D01*
X140904123Y-113172419D02*
X141094599Y-113172419D01*
X141094599Y-113172419D02*
X141189837Y-113220038D01*
X141189837Y-113220038D02*
X141237456Y-113267657D01*
X141237456Y-113267657D02*
X141332694Y-113410514D01*
X141332694Y-113410514D02*
X141380313Y-113600990D01*
X141380313Y-113600990D02*
X141380313Y-113981942D01*
X141380313Y-113981942D02*
X141332694Y-114077180D01*
X141332694Y-114077180D02*
X141285075Y-114124800D01*
X141285075Y-114124800D02*
X141189837Y-114172419D01*
X141189837Y-114172419D02*
X140999361Y-114172419D01*
X140999361Y-114172419D02*
X140904123Y-114124800D01*
X140904123Y-114124800D02*
X140856504Y-114077180D01*
X140856504Y-114077180D02*
X140808885Y-113981942D01*
X140808885Y-113981942D02*
X140808885Y-113743847D01*
X140808885Y-113743847D02*
X140856504Y-113648609D01*
X140856504Y-113648609D02*
X140904123Y-113600990D01*
X140904123Y-113600990D02*
X140999361Y-113553371D01*
X140999361Y-113553371D02*
X141189837Y-113553371D01*
X141189837Y-113553371D02*
X141285075Y-113600990D01*
X141285075Y-113600990D02*
X141332694Y-113648609D01*
X141332694Y-113648609D02*
X141380313Y-113743847D01*
X120584123Y-111562475D02*
X120774599Y-111562475D01*
X120774599Y-111562475D02*
X120869837Y-111610094D01*
X120869837Y-111610094D02*
X120917456Y-111657713D01*
X120917456Y-111657713D02*
X121012694Y-111800570D01*
X121012694Y-111800570D02*
X121060313Y-111991046D01*
X121060313Y-111991046D02*
X121060313Y-112371998D01*
X121060313Y-112371998D02*
X121012694Y-112467236D01*
X121012694Y-112467236D02*
X120965075Y-112514856D01*
X120965075Y-112514856D02*
X120869837Y-112562475D01*
X120869837Y-112562475D02*
X120679361Y-112562475D01*
X120679361Y-112562475D02*
X120584123Y-112514856D01*
X120584123Y-112514856D02*
X120536504Y-112467236D01*
X120536504Y-112467236D02*
X120488885Y-112371998D01*
X120488885Y-112371998D02*
X120488885Y-112133903D01*
X120488885Y-112133903D02*
X120536504Y-112038665D01*
X120536504Y-112038665D02*
X120584123Y-111991046D01*
X120584123Y-111991046D02*
X120679361Y-111943427D01*
X120679361Y-111943427D02*
X120869837Y-111943427D01*
X120869837Y-111943427D02*
X120965075Y-111991046D01*
X120965075Y-111991046D02*
X121012694Y-112038665D01*
X121012694Y-112038665D02*
X121060313Y-112133903D01*
X121107932Y-113172419D02*
X120488885Y-113172419D01*
X120488885Y-113172419D02*
X120822218Y-113553371D01*
X120822218Y-113553371D02*
X120679361Y-113553371D01*
X120679361Y-113553371D02*
X120584123Y-113600990D01*
X120584123Y-113600990D02*
X120536504Y-113648609D01*
X120536504Y-113648609D02*
X120488885Y-113743847D01*
X120488885Y-113743847D02*
X120488885Y-113981942D01*
X120488885Y-113981942D02*
X120536504Y-114077180D01*
X120536504Y-114077180D02*
X120584123Y-114124800D01*
X120584123Y-114124800D02*
X120679361Y-114172419D01*
X120679361Y-114172419D02*
X120965075Y-114172419D01*
X120965075Y-114172419D02*
X121060313Y-114124800D01*
X121060313Y-114124800D02*
X121107932Y-114077180D01*
X97724123Y-111562475D02*
X97914599Y-111562475D01*
X97914599Y-111562475D02*
X98009837Y-111610094D01*
X98009837Y-111610094D02*
X98057456Y-111657713D01*
X98057456Y-111657713D02*
X98152694Y-111800570D01*
X98152694Y-111800570D02*
X98200313Y-111991046D01*
X98200313Y-111991046D02*
X98200313Y-112371998D01*
X98200313Y-112371998D02*
X98152694Y-112467236D01*
X98152694Y-112467236D02*
X98105075Y-112514856D01*
X98105075Y-112514856D02*
X98009837Y-112562475D01*
X98009837Y-112562475D02*
X97819361Y-112562475D01*
X97819361Y-112562475D02*
X97724123Y-112514856D01*
X97724123Y-112514856D02*
X97676504Y-112467236D01*
X97676504Y-112467236D02*
X97628885Y-112371998D01*
X97628885Y-112371998D02*
X97628885Y-112133903D01*
X97628885Y-112133903D02*
X97676504Y-112038665D01*
X97676504Y-112038665D02*
X97724123Y-111991046D01*
X97724123Y-111991046D02*
X97819361Y-111943427D01*
X97819361Y-111943427D02*
X98009837Y-111943427D01*
X98009837Y-111943427D02*
X98105075Y-111991046D01*
X98105075Y-111991046D02*
X98152694Y-112038665D01*
X98152694Y-112038665D02*
X98200313Y-112133903D01*
X98343170Y-114172419D02*
X98343170Y-113172419D01*
X98343170Y-113172419D02*
X98009837Y-113886704D01*
X98009837Y-113886704D02*
X97676504Y-113172419D01*
X97676504Y-113172419D02*
X97676504Y-114172419D01*
X95136504Y-111562475D02*
X95612694Y-111562475D01*
X95612694Y-111562475D02*
X95660313Y-112038665D01*
X95660313Y-112038665D02*
X95612694Y-111991046D01*
X95612694Y-111991046D02*
X95517456Y-111943427D01*
X95517456Y-111943427D02*
X95279361Y-111943427D01*
X95279361Y-111943427D02*
X95184123Y-111991046D01*
X95184123Y-111991046D02*
X95136504Y-112038665D01*
X95136504Y-112038665D02*
X95088885Y-112133903D01*
X95088885Y-112133903D02*
X95088885Y-112371998D01*
X95088885Y-112371998D02*
X95136504Y-112467236D01*
X95136504Y-112467236D02*
X95184123Y-112514856D01*
X95184123Y-112514856D02*
X95279361Y-112562475D01*
X95279361Y-112562475D02*
X95517456Y-112562475D01*
X95517456Y-112562475D02*
X95612694Y-112514856D01*
X95612694Y-112514856D02*
X95660313Y-112467236D01*
X95707932Y-114172419D02*
X95707932Y-113172419D01*
X95707932Y-113172419D02*
X95136504Y-114172419D01*
X95136504Y-114172419D02*
X95136504Y-113172419D01*
X156667932Y-111562475D02*
X156001266Y-111562475D01*
X156001266Y-111562475D02*
X156429837Y-112562475D01*
X156144123Y-113505752D02*
X156144123Y-114172419D01*
X156382218Y-113124800D02*
X156620313Y-113839085D01*
X156620313Y-113839085D02*
X156001266Y-113839085D01*
X105725075Y-112276760D02*
X105248885Y-112276760D01*
X105820313Y-112562475D02*
X105486980Y-111562475D01*
X105486980Y-111562475D02*
X105153647Y-112562475D01*
X105296504Y-113172419D02*
X105296504Y-113886704D01*
X105296504Y-113886704D02*
X105344123Y-114029561D01*
X105344123Y-114029561D02*
X105439361Y-114124800D01*
X105439361Y-114124800D02*
X105582218Y-114172419D01*
X105582218Y-114172419D02*
X105677456Y-114172419D01*
X108026980Y-112038665D02*
X107884123Y-112086284D01*
X107884123Y-112086284D02*
X107836504Y-112133903D01*
X107836504Y-112133903D02*
X107788885Y-112229141D01*
X107788885Y-112229141D02*
X107788885Y-112371998D01*
X107788885Y-112371998D02*
X107836504Y-112467236D01*
X107836504Y-112467236D02*
X107884123Y-112514856D01*
X107884123Y-112514856D02*
X107979361Y-112562475D01*
X107979361Y-112562475D02*
X108360313Y-112562475D01*
X108360313Y-112562475D02*
X108360313Y-111562475D01*
X108360313Y-111562475D02*
X108026980Y-111562475D01*
X108026980Y-111562475D02*
X107931742Y-111610094D01*
X107931742Y-111610094D02*
X107884123Y-111657713D01*
X107884123Y-111657713D02*
X107836504Y-111752951D01*
X107836504Y-111752951D02*
X107836504Y-111848189D01*
X107836504Y-111848189D02*
X107884123Y-111943427D01*
X107884123Y-111943427D02*
X107931742Y-111991046D01*
X107931742Y-111991046D02*
X108026980Y-112038665D01*
X108026980Y-112038665D02*
X108360313Y-112038665D01*
X107836503Y-114172419D02*
X107836503Y-113172419D01*
X117996504Y-111562475D02*
X118472694Y-111562475D01*
X118472694Y-111562475D02*
X118520313Y-112038665D01*
X118520313Y-112038665D02*
X118472694Y-111991046D01*
X118472694Y-111991046D02*
X118377456Y-111943427D01*
X118377456Y-111943427D02*
X118139361Y-111943427D01*
X118139361Y-111943427D02*
X118044123Y-111991046D01*
X118044123Y-111991046D02*
X117996504Y-112038665D01*
X117996504Y-112038665D02*
X117948885Y-112133903D01*
X117948885Y-112133903D02*
X117948885Y-112371998D01*
X117948885Y-112371998D02*
X117996504Y-112467236D01*
X117996504Y-112467236D02*
X118044123Y-112514856D01*
X118044123Y-112514856D02*
X118139361Y-112562475D01*
X118139361Y-112562475D02*
X118377456Y-112562475D01*
X118377456Y-112562475D02*
X118472694Y-112514856D01*
X118472694Y-112514856D02*
X118520313Y-112467236D01*
X118520313Y-113267657D02*
X118472694Y-113220038D01*
X118472694Y-113220038D02*
X118377456Y-113172419D01*
X118377456Y-113172419D02*
X118139361Y-113172419D01*
X118139361Y-113172419D02*
X118044123Y-113220038D01*
X118044123Y-113220038D02*
X117996504Y-113267657D01*
X117996504Y-113267657D02*
X117948885Y-113362895D01*
X117948885Y-113362895D02*
X117948885Y-113458133D01*
X117948885Y-113458133D02*
X117996504Y-113600990D01*
X117996504Y-113600990D02*
X118567932Y-114172419D01*
X118567932Y-114172419D02*
X117948885Y-114172419D01*
X128727932Y-112562475D02*
X128727932Y-111562475D01*
X128727932Y-112038665D02*
X128156504Y-112038665D01*
X128156504Y-112562475D02*
X128156504Y-111562475D01*
X128108885Y-114077180D02*
X128156504Y-114124800D01*
X128156504Y-114124800D02*
X128299361Y-114172419D01*
X128299361Y-114172419D02*
X128394599Y-114172419D01*
X128394599Y-114172419D02*
X128537456Y-114124800D01*
X128537456Y-114124800D02*
X128632694Y-114029561D01*
X128632694Y-114029561D02*
X128680313Y-113934323D01*
X128680313Y-113934323D02*
X128727932Y-113743847D01*
X128727932Y-113743847D02*
X128727932Y-113600990D01*
X128727932Y-113600990D02*
X128680313Y-113410514D01*
X128680313Y-113410514D02*
X128632694Y-113315276D01*
X128632694Y-113315276D02*
X128537456Y-113220038D01*
X128537456Y-113220038D02*
X128394599Y-113172419D01*
X128394599Y-113172419D02*
X128299361Y-113172419D01*
X128299361Y-113172419D02*
X128156504Y-113220038D01*
X128156504Y-113220038D02*
X128108885Y-113267657D01*
X149000313Y-112562475D02*
X149000313Y-111562475D01*
X149000313Y-111562475D02*
X148619361Y-111562475D01*
X148619361Y-111562475D02*
X148524123Y-111610094D01*
X148524123Y-111610094D02*
X148476504Y-111657713D01*
X148476504Y-111657713D02*
X148428885Y-111752951D01*
X148428885Y-111752951D02*
X148428885Y-111895808D01*
X148428885Y-111895808D02*
X148476504Y-111991046D01*
X148476504Y-111991046D02*
X148524123Y-112038665D01*
X148524123Y-112038665D02*
X148619361Y-112086284D01*
X148619361Y-112086284D02*
X149000313Y-112086284D01*
X149047932Y-113172419D02*
X148428885Y-113172419D01*
X148428885Y-113172419D02*
X148762218Y-113553371D01*
X148762218Y-113553371D02*
X148619361Y-113553371D01*
X148619361Y-113553371D02*
X148524123Y-113600990D01*
X148524123Y-113600990D02*
X148476504Y-113648609D01*
X148476504Y-113648609D02*
X148428885Y-113743847D01*
X148428885Y-113743847D02*
X148428885Y-113981942D01*
X148428885Y-113981942D02*
X148476504Y-114077180D01*
X148476504Y-114077180D02*
X148524123Y-114124800D01*
X148524123Y-114124800D02*
X148619361Y-114172419D01*
X148619361Y-114172419D02*
X148905075Y-114172419D01*
X148905075Y-114172419D02*
X149000313Y-114124800D01*
X149000313Y-114124800D02*
X149047932Y-114077180D01*
X153508885Y-112562475D02*
X153842218Y-112086284D01*
X154080313Y-112562475D02*
X154080313Y-111562475D01*
X154080313Y-111562475D02*
X153699361Y-111562475D01*
X153699361Y-111562475D02*
X153604123Y-111610094D01*
X153604123Y-111610094D02*
X153556504Y-111657713D01*
X153556504Y-111657713D02*
X153508885Y-111752951D01*
X153508885Y-111752951D02*
X153508885Y-111895808D01*
X153508885Y-111895808D02*
X153556504Y-111991046D01*
X153556504Y-111991046D02*
X153604123Y-112038665D01*
X153604123Y-112038665D02*
X153699361Y-112086284D01*
X153699361Y-112086284D02*
X154080313Y-112086284D01*
X153508885Y-114172419D02*
X154080313Y-114172419D01*
X153794599Y-114172419D02*
X153794599Y-113172419D01*
X153794599Y-113172419D02*
X153889837Y-113315276D01*
X153889837Y-113315276D02*
X153985075Y-113410514D01*
X153985075Y-113410514D02*
X154080313Y-113458133D01*
X90627932Y-111562475D02*
X90008885Y-111562475D01*
X90008885Y-111562475D02*
X90342218Y-111943427D01*
X90342218Y-111943427D02*
X90199361Y-111943427D01*
X90199361Y-111943427D02*
X90104123Y-111991046D01*
X90104123Y-111991046D02*
X90056504Y-112038665D01*
X90056504Y-112038665D02*
X90008885Y-112133903D01*
X90008885Y-112133903D02*
X90008885Y-112371998D01*
X90008885Y-112371998D02*
X90056504Y-112467236D01*
X90056504Y-112467236D02*
X90104123Y-112514856D01*
X90104123Y-112514856D02*
X90199361Y-112562475D01*
X90199361Y-112562475D02*
X90485075Y-112562475D01*
X90485075Y-112562475D02*
X90580313Y-112514856D01*
X90580313Y-112514856D02*
X90627932Y-112467236D01*
X90580313Y-114172419D02*
X90580313Y-113172419D01*
X90580313Y-113172419D02*
X90199361Y-113172419D01*
X90199361Y-113172419D02*
X90104123Y-113220038D01*
X90104123Y-113220038D02*
X90056504Y-113267657D01*
X90056504Y-113267657D02*
X90008885Y-113362895D01*
X90008885Y-113362895D02*
X90008885Y-113505752D01*
X90008885Y-113505752D02*
X90056504Y-113600990D01*
X90056504Y-113600990D02*
X90104123Y-113648609D01*
X90104123Y-113648609D02*
X90199361Y-113696228D01*
X90199361Y-113696228D02*
X90580313Y-113696228D01*
X113440313Y-112562475D02*
X113440313Y-111562475D01*
X113440313Y-111562475D02*
X113202218Y-111562475D01*
X113202218Y-111562475D02*
X113059361Y-111610094D01*
X113059361Y-111610094D02*
X112964123Y-111705332D01*
X112964123Y-111705332D02*
X112916504Y-111800570D01*
X112916504Y-111800570D02*
X112868885Y-111991046D01*
X112868885Y-111991046D02*
X112868885Y-112133903D01*
X112868885Y-112133903D02*
X112916504Y-112324379D01*
X112916504Y-112324379D02*
X112964123Y-112419617D01*
X112964123Y-112419617D02*
X113059361Y-112514856D01*
X113059361Y-112514856D02*
X113202218Y-112562475D01*
X113202218Y-112562475D02*
X113440313Y-112562475D01*
X112916504Y-113220038D02*
X113011742Y-113172419D01*
X113011742Y-113172419D02*
X113154599Y-113172419D01*
X113154599Y-113172419D02*
X113297456Y-113220038D01*
X113297456Y-113220038D02*
X113392694Y-113315276D01*
X113392694Y-113315276D02*
X113440313Y-113410514D01*
X113440313Y-113410514D02*
X113487932Y-113600990D01*
X113487932Y-113600990D02*
X113487932Y-113743847D01*
X113487932Y-113743847D02*
X113440313Y-113934323D01*
X113440313Y-113934323D02*
X113392694Y-114029561D01*
X113392694Y-114029561D02*
X113297456Y-114124800D01*
X113297456Y-114124800D02*
X113154599Y-114172419D01*
X113154599Y-114172419D02*
X113059361Y-114172419D01*
X113059361Y-114172419D02*
X112916504Y-114124800D01*
X112916504Y-114124800D02*
X112868885Y-114077180D01*
X112868885Y-114077180D02*
X112868885Y-113743847D01*
X112868885Y-113743847D02*
X113059361Y-113743847D01*
X133236504Y-111562475D02*
X133236504Y-112276760D01*
X133236504Y-112276760D02*
X133284123Y-112419617D01*
X133284123Y-112419617D02*
X133379361Y-112514856D01*
X133379361Y-112514856D02*
X133522218Y-112562475D01*
X133522218Y-112562475D02*
X133617456Y-112562475D01*
X133665075Y-113886704D02*
X133188885Y-113886704D01*
X133760313Y-114172419D02*
X133426980Y-113172419D01*
X133426980Y-113172419D02*
X133093647Y-114172419D01*
X150921266Y-112657713D02*
X151016504Y-112610094D01*
X151016504Y-112610094D02*
X151111742Y-112514856D01*
X151111742Y-112514856D02*
X151254599Y-112371998D01*
X151254599Y-112371998D02*
X151349837Y-112324379D01*
X151349837Y-112324379D02*
X151445075Y-112324379D01*
X151397456Y-112562475D02*
X151492694Y-112514856D01*
X151492694Y-112514856D02*
X151587932Y-112419617D01*
X151587932Y-112419617D02*
X151635551Y-112229141D01*
X151635551Y-112229141D02*
X151635551Y-111895808D01*
X151635551Y-111895808D02*
X151587932Y-111705332D01*
X151587932Y-111705332D02*
X151492694Y-111610094D01*
X151492694Y-111610094D02*
X151397456Y-111562475D01*
X151397456Y-111562475D02*
X151206980Y-111562475D01*
X151206980Y-111562475D02*
X151111742Y-111610094D01*
X151111742Y-111610094D02*
X151016504Y-111705332D01*
X151016504Y-111705332D02*
X150968885Y-111895808D01*
X150968885Y-111895808D02*
X150968885Y-112229141D01*
X150968885Y-112229141D02*
X151016504Y-112419617D01*
X151016504Y-112419617D02*
X151111742Y-112514856D01*
X151111742Y-112514856D02*
X151206980Y-112562475D01*
X151206980Y-112562475D02*
X151397456Y-112562475D01*
X151540313Y-113267657D02*
X151492694Y-113220038D01*
X151492694Y-113220038D02*
X151397456Y-113172419D01*
X151397456Y-113172419D02*
X151159361Y-113172419D01*
X151159361Y-113172419D02*
X151064123Y-113220038D01*
X151064123Y-113220038D02*
X151016504Y-113267657D01*
X151016504Y-113267657D02*
X150968885Y-113362895D01*
X150968885Y-113362895D02*
X150968885Y-113458133D01*
X150968885Y-113458133D02*
X151016504Y-113600990D01*
X151016504Y-113600990D02*
X151587932Y-114172419D01*
X151587932Y-114172419D02*
X150968885Y-114172419D01*
X110328885Y-112467236D02*
X110376504Y-112514856D01*
X110376504Y-112514856D02*
X110519361Y-112562475D01*
X110519361Y-112562475D02*
X110614599Y-112562475D01*
X110614599Y-112562475D02*
X110757456Y-112514856D01*
X110757456Y-112514856D02*
X110852694Y-112419617D01*
X110852694Y-112419617D02*
X110900313Y-112324379D01*
X110900313Y-112324379D02*
X110947932Y-112133903D01*
X110947932Y-112133903D02*
X110947932Y-111991046D01*
X110947932Y-111991046D02*
X110900313Y-111800570D01*
X110900313Y-111800570D02*
X110852694Y-111705332D01*
X110852694Y-111705332D02*
X110757456Y-111610094D01*
X110757456Y-111610094D02*
X110614599Y-111562475D01*
X110614599Y-111562475D02*
X110519361Y-111562475D01*
X110519361Y-111562475D02*
X110376504Y-111610094D01*
X110376504Y-111610094D02*
X110328885Y-111657713D01*
X110947932Y-114172419D02*
X110947932Y-113172419D01*
X110947932Y-113648609D02*
X110376504Y-113648609D01*
X110376504Y-114172419D02*
X110376504Y-113172419D01*
X82769837Y-111991046D02*
X82865075Y-111943427D01*
X82865075Y-111943427D02*
X82912694Y-111895808D01*
X82912694Y-111895808D02*
X82960313Y-111800570D01*
X82960313Y-111800570D02*
X82960313Y-111752951D01*
X82960313Y-111752951D02*
X82912694Y-111657713D01*
X82912694Y-111657713D02*
X82865075Y-111610094D01*
X82865075Y-111610094D02*
X82769837Y-111562475D01*
X82769837Y-111562475D02*
X82579361Y-111562475D01*
X82579361Y-111562475D02*
X82484123Y-111610094D01*
X82484123Y-111610094D02*
X82436504Y-111657713D01*
X82436504Y-111657713D02*
X82388885Y-111752951D01*
X82388885Y-111752951D02*
X82388885Y-111800570D01*
X82388885Y-111800570D02*
X82436504Y-111895808D01*
X82436504Y-111895808D02*
X82484123Y-111943427D01*
X82484123Y-111943427D02*
X82579361Y-111991046D01*
X82579361Y-111991046D02*
X82769837Y-111991046D01*
X82769837Y-111991046D02*
X82865075Y-112038665D01*
X82865075Y-112038665D02*
X82912694Y-112086284D01*
X82912694Y-112086284D02*
X82960313Y-112181522D01*
X82960313Y-112181522D02*
X82960313Y-112371998D01*
X82960313Y-112371998D02*
X82912694Y-112467236D01*
X82912694Y-112467236D02*
X82865075Y-112514856D01*
X82865075Y-112514856D02*
X82769837Y-112562475D01*
X82769837Y-112562475D02*
X82579361Y-112562475D01*
X82579361Y-112562475D02*
X82484123Y-112514856D01*
X82484123Y-112514856D02*
X82436504Y-112467236D01*
X82436504Y-112467236D02*
X82388885Y-112371998D01*
X82388885Y-112371998D02*
X82388885Y-112181522D01*
X82388885Y-112181522D02*
X82436504Y-112086284D01*
X82436504Y-112086284D02*
X82484123Y-112038665D01*
X82484123Y-112038665D02*
X82579361Y-111991046D01*
X82388885Y-114172419D02*
X82960313Y-114172419D01*
X82674599Y-114172419D02*
X82674599Y-113172419D01*
X82674599Y-113172419D02*
X82769837Y-113315276D01*
X82769837Y-113315276D02*
X82865075Y-113410514D01*
X82865075Y-113410514D02*
X82960313Y-113458133D01*
X92644123Y-111895808D02*
X92644123Y-112562475D01*
X92882218Y-111514856D02*
X93120313Y-112229141D01*
X93120313Y-112229141D02*
X92501266Y-112229141D01*
X92977456Y-113172419D02*
X92786980Y-113172419D01*
X92786980Y-113172419D02*
X92691742Y-113220038D01*
X92691742Y-113220038D02*
X92596504Y-113315276D01*
X92596504Y-113315276D02*
X92548885Y-113505752D01*
X92548885Y-113505752D02*
X92548885Y-113839085D01*
X92548885Y-113839085D02*
X92596504Y-114029561D01*
X92596504Y-114029561D02*
X92691742Y-114124800D01*
X92691742Y-114124800D02*
X92786980Y-114172419D01*
X92786980Y-114172419D02*
X92977456Y-114172419D01*
X92977456Y-114172419D02*
X93072694Y-114124800D01*
X93072694Y-114124800D02*
X93167932Y-114029561D01*
X93167932Y-114029561D02*
X93215551Y-113839085D01*
X93215551Y-113839085D02*
X93215551Y-113505752D01*
X93215551Y-113505752D02*
X93167932Y-113315276D01*
X93167932Y-113315276D02*
X93072694Y-113220038D01*
X93072694Y-113220038D02*
X92977456Y-113172419D01*
X84928885Y-112562475D02*
X85500313Y-112562475D01*
X85214599Y-112562475D02*
X85214599Y-111562475D01*
X85214599Y-111562475D02*
X85309837Y-111705332D01*
X85309837Y-111705332D02*
X85405075Y-111800570D01*
X85405075Y-111800570D02*
X85500313Y-111848189D01*
X84928885Y-114172419D02*
X85262218Y-113696228D01*
X85500313Y-114172419D02*
X85500313Y-113172419D01*
X85500313Y-113172419D02*
X85119361Y-113172419D01*
X85119361Y-113172419D02*
X85024123Y-113220038D01*
X85024123Y-113220038D02*
X84976504Y-113267657D01*
X84976504Y-113267657D02*
X84928885Y-113362895D01*
X84928885Y-113362895D02*
X84928885Y-113505752D01*
X84928885Y-113505752D02*
X84976504Y-113600990D01*
X84976504Y-113600990D02*
X85024123Y-113648609D01*
X85024123Y-113648609D02*
X85119361Y-113696228D01*
X85119361Y-113696228D02*
X85500313Y-113696228D01*
X115885075Y-112038665D02*
X115551742Y-112038665D01*
X115408885Y-112562475D02*
X115885075Y-112562475D01*
X115885075Y-112562475D02*
X115885075Y-111562475D01*
X115885075Y-111562475D02*
X115408885Y-111562475D01*
X115504123Y-113648609D02*
X115837456Y-113648609D01*
X115837456Y-114172419D02*
X115837456Y-113172419D01*
X115837456Y-113172419D02*
X115361266Y-113172419D01*
X100787932Y-111562475D02*
X100121266Y-111562475D01*
X100121266Y-111562475D02*
X100549837Y-112562475D01*
X100073647Y-114172419D02*
X100549837Y-114172419D01*
X100549837Y-114172419D02*
X100549837Y-113172419D01*
X113440313Y-60492475D02*
X113440313Y-59492475D01*
X113440313Y-59492475D02*
X113202218Y-59492475D01*
X113202218Y-59492475D02*
X113059361Y-59540094D01*
X113059361Y-59540094D02*
X112964123Y-59635332D01*
X112964123Y-59635332D02*
X112916504Y-59730570D01*
X112916504Y-59730570D02*
X112868885Y-59921046D01*
X112868885Y-59921046D02*
X112868885Y-60063903D01*
X112868885Y-60063903D02*
X112916504Y-60254379D01*
X112916504Y-60254379D02*
X112964123Y-60349617D01*
X112964123Y-60349617D02*
X113059361Y-60444856D01*
X113059361Y-60444856D02*
X113202218Y-60492475D01*
X113202218Y-60492475D02*
X113440313Y-60492475D01*
X112916504Y-61150038D02*
X113011742Y-61102419D01*
X113011742Y-61102419D02*
X113154599Y-61102419D01*
X113154599Y-61102419D02*
X113297456Y-61150038D01*
X113297456Y-61150038D02*
X113392694Y-61245276D01*
X113392694Y-61245276D02*
X113440313Y-61340514D01*
X113440313Y-61340514D02*
X113487932Y-61530990D01*
X113487932Y-61530990D02*
X113487932Y-61673847D01*
X113487932Y-61673847D02*
X113440313Y-61864323D01*
X113440313Y-61864323D02*
X113392694Y-61959561D01*
X113392694Y-61959561D02*
X113297456Y-62054800D01*
X113297456Y-62054800D02*
X113154599Y-62102419D01*
X113154599Y-62102419D02*
X113059361Y-62102419D01*
X113059361Y-62102419D02*
X112916504Y-62054800D01*
X112916504Y-62054800D02*
X112868885Y-62007180D01*
X112868885Y-62007180D02*
X112868885Y-61673847D01*
X112868885Y-61673847D02*
X113059361Y-61673847D01*
X121060313Y-59587713D02*
X121012694Y-59540094D01*
X121012694Y-59540094D02*
X120917456Y-59492475D01*
X120917456Y-59492475D02*
X120679361Y-59492475D01*
X120679361Y-59492475D02*
X120584123Y-59540094D01*
X120584123Y-59540094D02*
X120536504Y-59587713D01*
X120536504Y-59587713D02*
X120488885Y-59682951D01*
X120488885Y-59682951D02*
X120488885Y-59778189D01*
X120488885Y-59778189D02*
X120536504Y-59921046D01*
X120536504Y-59921046D02*
X121107932Y-60492475D01*
X121107932Y-60492475D02*
X120488885Y-60492475D01*
X120536504Y-61102419D02*
X121012694Y-61102419D01*
X121012694Y-61102419D02*
X121060313Y-61578609D01*
X121060313Y-61578609D02*
X121012694Y-61530990D01*
X121012694Y-61530990D02*
X120917456Y-61483371D01*
X120917456Y-61483371D02*
X120679361Y-61483371D01*
X120679361Y-61483371D02*
X120584123Y-61530990D01*
X120584123Y-61530990D02*
X120536504Y-61578609D01*
X120536504Y-61578609D02*
X120488885Y-61673847D01*
X120488885Y-61673847D02*
X120488885Y-61911942D01*
X120488885Y-61911942D02*
X120536504Y-62007180D01*
X120536504Y-62007180D02*
X120584123Y-62054800D01*
X120584123Y-62054800D02*
X120679361Y-62102419D01*
X120679361Y-62102419D02*
X120917456Y-62102419D01*
X120917456Y-62102419D02*
X121012694Y-62054800D01*
X121012694Y-62054800D02*
X121060313Y-62007180D01*
X125616504Y-59540094D02*
X125711742Y-59492475D01*
X125711742Y-59492475D02*
X125854599Y-59492475D01*
X125854599Y-59492475D02*
X125997456Y-59540094D01*
X125997456Y-59540094D02*
X126092694Y-59635332D01*
X126092694Y-59635332D02*
X126140313Y-59730570D01*
X126140313Y-59730570D02*
X126187932Y-59921046D01*
X126187932Y-59921046D02*
X126187932Y-60063903D01*
X126187932Y-60063903D02*
X126140313Y-60254379D01*
X126140313Y-60254379D02*
X126092694Y-60349617D01*
X126092694Y-60349617D02*
X125997456Y-60444856D01*
X125997456Y-60444856D02*
X125854599Y-60492475D01*
X125854599Y-60492475D02*
X125759361Y-60492475D01*
X125759361Y-60492475D02*
X125616504Y-60444856D01*
X125616504Y-60444856D02*
X125568885Y-60397236D01*
X125568885Y-60397236D02*
X125568885Y-60063903D01*
X125568885Y-60063903D02*
X125759361Y-60063903D01*
X126140313Y-62102419D02*
X126140313Y-61102419D01*
X126140313Y-61102419D02*
X125902218Y-61102419D01*
X125902218Y-61102419D02*
X125759361Y-61150038D01*
X125759361Y-61150038D02*
X125664123Y-61245276D01*
X125664123Y-61245276D02*
X125616504Y-61340514D01*
X125616504Y-61340514D02*
X125568885Y-61530990D01*
X125568885Y-61530990D02*
X125568885Y-61673847D01*
X125568885Y-61673847D02*
X125616504Y-61864323D01*
X125616504Y-61864323D02*
X125664123Y-61959561D01*
X125664123Y-61959561D02*
X125759361Y-62054800D01*
X125759361Y-62054800D02*
X125902218Y-62102419D01*
X125902218Y-62102419D02*
X126140313Y-62102419D01*
X141523170Y-60492475D02*
X141523170Y-59492475D01*
X141523170Y-59492475D02*
X141189837Y-60206760D01*
X141189837Y-60206760D02*
X140856504Y-59492475D01*
X140856504Y-59492475D02*
X140856504Y-60492475D01*
X140904123Y-61102419D02*
X141094599Y-61102419D01*
X141094599Y-61102419D02*
X141189837Y-61150038D01*
X141189837Y-61150038D02*
X141237456Y-61197657D01*
X141237456Y-61197657D02*
X141332694Y-61340514D01*
X141332694Y-61340514D02*
X141380313Y-61530990D01*
X141380313Y-61530990D02*
X141380313Y-61911942D01*
X141380313Y-61911942D02*
X141332694Y-62007180D01*
X141332694Y-62007180D02*
X141285075Y-62054800D01*
X141285075Y-62054800D02*
X141189837Y-62102419D01*
X141189837Y-62102419D02*
X140999361Y-62102419D01*
X140999361Y-62102419D02*
X140904123Y-62054800D01*
X140904123Y-62054800D02*
X140856504Y-62007180D01*
X140856504Y-62007180D02*
X140808885Y-61911942D01*
X140808885Y-61911942D02*
X140808885Y-61673847D01*
X140808885Y-61673847D02*
X140856504Y-61578609D01*
X140856504Y-61578609D02*
X140904123Y-61530990D01*
X140904123Y-61530990D02*
X140999361Y-61483371D01*
X140999361Y-61483371D02*
X141189837Y-61483371D01*
X141189837Y-61483371D02*
X141285075Y-61530990D01*
X141285075Y-61530990D02*
X141332694Y-61578609D01*
X141332694Y-61578609D02*
X141380313Y-61673847D01*
X133236504Y-59492475D02*
X133236504Y-60206760D01*
X133236504Y-60206760D02*
X133284123Y-60349617D01*
X133284123Y-60349617D02*
X133379361Y-60444856D01*
X133379361Y-60444856D02*
X133522218Y-60492475D01*
X133522218Y-60492475D02*
X133617456Y-60492475D01*
X133665075Y-61816704D02*
X133188885Y-61816704D01*
X133760313Y-62102419D02*
X133426980Y-61102419D01*
X133426980Y-61102419D02*
X133093647Y-62102419D01*
X130696503Y-60492475D02*
X130696503Y-59492475D01*
X130886980Y-61578609D02*
X130744123Y-61626228D01*
X130744123Y-61626228D02*
X130696504Y-61673847D01*
X130696504Y-61673847D02*
X130648885Y-61769085D01*
X130648885Y-61769085D02*
X130648885Y-61911942D01*
X130648885Y-61911942D02*
X130696504Y-62007180D01*
X130696504Y-62007180D02*
X130744123Y-62054800D01*
X130744123Y-62054800D02*
X130839361Y-62102419D01*
X130839361Y-62102419D02*
X131220313Y-62102419D01*
X131220313Y-62102419D02*
X131220313Y-61102419D01*
X131220313Y-61102419D02*
X130886980Y-61102419D01*
X130886980Y-61102419D02*
X130791742Y-61150038D01*
X130791742Y-61150038D02*
X130744123Y-61197657D01*
X130744123Y-61197657D02*
X130696504Y-61292895D01*
X130696504Y-61292895D02*
X130696504Y-61388133D01*
X130696504Y-61388133D02*
X130744123Y-61483371D01*
X130744123Y-61483371D02*
X130791742Y-61530990D01*
X130791742Y-61530990D02*
X130886980Y-61578609D01*
X130886980Y-61578609D02*
X131220313Y-61578609D01*
X153508885Y-60492475D02*
X153842218Y-60016284D01*
X154080313Y-60492475D02*
X154080313Y-59492475D01*
X154080313Y-59492475D02*
X153699361Y-59492475D01*
X153699361Y-59492475D02*
X153604123Y-59540094D01*
X153604123Y-59540094D02*
X153556504Y-59587713D01*
X153556504Y-59587713D02*
X153508885Y-59682951D01*
X153508885Y-59682951D02*
X153508885Y-59825808D01*
X153508885Y-59825808D02*
X153556504Y-59921046D01*
X153556504Y-59921046D02*
X153604123Y-59968665D01*
X153604123Y-59968665D02*
X153699361Y-60016284D01*
X153699361Y-60016284D02*
X154080313Y-60016284D01*
X153508885Y-62102419D02*
X154080313Y-62102419D01*
X153794599Y-62102419D02*
X153794599Y-61102419D01*
X153794599Y-61102419D02*
X153889837Y-61245276D01*
X153889837Y-61245276D02*
X153985075Y-61340514D01*
X153985075Y-61340514D02*
X154080313Y-61388133D01*
X136300313Y-60492475D02*
X136300313Y-59492475D01*
X135728885Y-60492475D02*
X136157456Y-59921046D01*
X135728885Y-59492475D02*
X136300313Y-60063903D01*
X136109837Y-61530990D02*
X136205075Y-61483371D01*
X136205075Y-61483371D02*
X136252694Y-61435752D01*
X136252694Y-61435752D02*
X136300313Y-61340514D01*
X136300313Y-61340514D02*
X136300313Y-61292895D01*
X136300313Y-61292895D02*
X136252694Y-61197657D01*
X136252694Y-61197657D02*
X136205075Y-61150038D01*
X136205075Y-61150038D02*
X136109837Y-61102419D01*
X136109837Y-61102419D02*
X135919361Y-61102419D01*
X135919361Y-61102419D02*
X135824123Y-61150038D01*
X135824123Y-61150038D02*
X135776504Y-61197657D01*
X135776504Y-61197657D02*
X135728885Y-61292895D01*
X135728885Y-61292895D02*
X135728885Y-61340514D01*
X135728885Y-61340514D02*
X135776504Y-61435752D01*
X135776504Y-61435752D02*
X135824123Y-61483371D01*
X135824123Y-61483371D02*
X135919361Y-61530990D01*
X135919361Y-61530990D02*
X136109837Y-61530990D01*
X136109837Y-61530990D02*
X136205075Y-61578609D01*
X136205075Y-61578609D02*
X136252694Y-61626228D01*
X136252694Y-61626228D02*
X136300313Y-61721466D01*
X136300313Y-61721466D02*
X136300313Y-61911942D01*
X136300313Y-61911942D02*
X136252694Y-62007180D01*
X136252694Y-62007180D02*
X136205075Y-62054800D01*
X136205075Y-62054800D02*
X136109837Y-62102419D01*
X136109837Y-62102419D02*
X135919361Y-62102419D01*
X135919361Y-62102419D02*
X135824123Y-62054800D01*
X135824123Y-62054800D02*
X135776504Y-62007180D01*
X135776504Y-62007180D02*
X135728885Y-61911942D01*
X135728885Y-61911942D02*
X135728885Y-61721466D01*
X135728885Y-61721466D02*
X135776504Y-61626228D01*
X135776504Y-61626228D02*
X135824123Y-61578609D01*
X135824123Y-61578609D02*
X135919361Y-61530990D01*
X108026980Y-59968665D02*
X107884123Y-60016284D01*
X107884123Y-60016284D02*
X107836504Y-60063903D01*
X107836504Y-60063903D02*
X107788885Y-60159141D01*
X107788885Y-60159141D02*
X107788885Y-60301998D01*
X107788885Y-60301998D02*
X107836504Y-60397236D01*
X107836504Y-60397236D02*
X107884123Y-60444856D01*
X107884123Y-60444856D02*
X107979361Y-60492475D01*
X107979361Y-60492475D02*
X108360313Y-60492475D01*
X108360313Y-60492475D02*
X108360313Y-59492475D01*
X108360313Y-59492475D02*
X108026980Y-59492475D01*
X108026980Y-59492475D02*
X107931742Y-59540094D01*
X107931742Y-59540094D02*
X107884123Y-59587713D01*
X107884123Y-59587713D02*
X107836504Y-59682951D01*
X107836504Y-59682951D02*
X107836504Y-59778189D01*
X107836504Y-59778189D02*
X107884123Y-59873427D01*
X107884123Y-59873427D02*
X107931742Y-59921046D01*
X107931742Y-59921046D02*
X108026980Y-59968665D01*
X108026980Y-59968665D02*
X108360313Y-59968665D01*
X107836503Y-62102419D02*
X107836503Y-61102419D01*
X118567932Y-59492475D02*
X117948885Y-59492475D01*
X117948885Y-59492475D02*
X118282218Y-59873427D01*
X118282218Y-59873427D02*
X118139361Y-59873427D01*
X118139361Y-59873427D02*
X118044123Y-59921046D01*
X118044123Y-59921046D02*
X117996504Y-59968665D01*
X117996504Y-59968665D02*
X117948885Y-60063903D01*
X117948885Y-60063903D02*
X117948885Y-60301998D01*
X117948885Y-60301998D02*
X117996504Y-60397236D01*
X117996504Y-60397236D02*
X118044123Y-60444856D01*
X118044123Y-60444856D02*
X118139361Y-60492475D01*
X118139361Y-60492475D02*
X118425075Y-60492475D01*
X118425075Y-60492475D02*
X118520313Y-60444856D01*
X118520313Y-60444856D02*
X118567932Y-60397236D01*
X118044123Y-61102419D02*
X118234599Y-61102419D01*
X118234599Y-61102419D02*
X118329837Y-61150038D01*
X118329837Y-61150038D02*
X118377456Y-61197657D01*
X118377456Y-61197657D02*
X118472694Y-61340514D01*
X118472694Y-61340514D02*
X118520313Y-61530990D01*
X118520313Y-61530990D02*
X118520313Y-61911942D01*
X118520313Y-61911942D02*
X118472694Y-62007180D01*
X118472694Y-62007180D02*
X118425075Y-62054800D01*
X118425075Y-62054800D02*
X118329837Y-62102419D01*
X118329837Y-62102419D02*
X118139361Y-62102419D01*
X118139361Y-62102419D02*
X118044123Y-62054800D01*
X118044123Y-62054800D02*
X117996504Y-62007180D01*
X117996504Y-62007180D02*
X117948885Y-61911942D01*
X117948885Y-61911942D02*
X117948885Y-61673847D01*
X117948885Y-61673847D02*
X117996504Y-61578609D01*
X117996504Y-61578609D02*
X118044123Y-61530990D01*
X118044123Y-61530990D02*
X118139361Y-61483371D01*
X118139361Y-61483371D02*
X118329837Y-61483371D01*
X118329837Y-61483371D02*
X118425075Y-61530990D01*
X118425075Y-61530990D02*
X118472694Y-61578609D01*
X118472694Y-61578609D02*
X118520313Y-61673847D01*
X90627932Y-59492475D02*
X90008885Y-59492475D01*
X90008885Y-59492475D02*
X90342218Y-59873427D01*
X90342218Y-59873427D02*
X90199361Y-59873427D01*
X90199361Y-59873427D02*
X90104123Y-59921046D01*
X90104123Y-59921046D02*
X90056504Y-59968665D01*
X90056504Y-59968665D02*
X90008885Y-60063903D01*
X90008885Y-60063903D02*
X90008885Y-60301998D01*
X90008885Y-60301998D02*
X90056504Y-60397236D01*
X90056504Y-60397236D02*
X90104123Y-60444856D01*
X90104123Y-60444856D02*
X90199361Y-60492475D01*
X90199361Y-60492475D02*
X90485075Y-60492475D01*
X90485075Y-60492475D02*
X90580313Y-60444856D01*
X90580313Y-60444856D02*
X90627932Y-60397236D01*
X90580313Y-62102419D02*
X90580313Y-61102419D01*
X90580313Y-61102419D02*
X90199361Y-61102419D01*
X90199361Y-61102419D02*
X90104123Y-61150038D01*
X90104123Y-61150038D02*
X90056504Y-61197657D01*
X90056504Y-61197657D02*
X90008885Y-61292895D01*
X90008885Y-61292895D02*
X90008885Y-61435752D01*
X90008885Y-61435752D02*
X90056504Y-61530990D01*
X90056504Y-61530990D02*
X90104123Y-61578609D01*
X90104123Y-61578609D02*
X90199361Y-61626228D01*
X90199361Y-61626228D02*
X90580313Y-61626228D01*
X103089837Y-59921046D02*
X103185075Y-59873427D01*
X103185075Y-59873427D02*
X103232694Y-59825808D01*
X103232694Y-59825808D02*
X103280313Y-59730570D01*
X103280313Y-59730570D02*
X103280313Y-59682951D01*
X103280313Y-59682951D02*
X103232694Y-59587713D01*
X103232694Y-59587713D02*
X103185075Y-59540094D01*
X103185075Y-59540094D02*
X103089837Y-59492475D01*
X103089837Y-59492475D02*
X102899361Y-59492475D01*
X102899361Y-59492475D02*
X102804123Y-59540094D01*
X102804123Y-59540094D02*
X102756504Y-59587713D01*
X102756504Y-59587713D02*
X102708885Y-59682951D01*
X102708885Y-59682951D02*
X102708885Y-59730570D01*
X102708885Y-59730570D02*
X102756504Y-59825808D01*
X102756504Y-59825808D02*
X102804123Y-59873427D01*
X102804123Y-59873427D02*
X102899361Y-59921046D01*
X102899361Y-59921046D02*
X103089837Y-59921046D01*
X103089837Y-59921046D02*
X103185075Y-59968665D01*
X103185075Y-59968665D02*
X103232694Y-60016284D01*
X103232694Y-60016284D02*
X103280313Y-60111522D01*
X103280313Y-60111522D02*
X103280313Y-60301998D01*
X103280313Y-60301998D02*
X103232694Y-60397236D01*
X103232694Y-60397236D02*
X103185075Y-60444856D01*
X103185075Y-60444856D02*
X103089837Y-60492475D01*
X103089837Y-60492475D02*
X102899361Y-60492475D01*
X102899361Y-60492475D02*
X102804123Y-60444856D01*
X102804123Y-60444856D02*
X102756504Y-60397236D01*
X102756504Y-60397236D02*
X102708885Y-60301998D01*
X102708885Y-60301998D02*
X102708885Y-60111522D01*
X102708885Y-60111522D02*
X102756504Y-60016284D01*
X102756504Y-60016284D02*
X102804123Y-59968665D01*
X102804123Y-59968665D02*
X102899361Y-59921046D01*
X103280313Y-62102419D02*
X103280313Y-61102419D01*
X102708885Y-62102419D02*
X103137456Y-61530990D01*
X102708885Y-61102419D02*
X103280313Y-61673847D01*
X128727932Y-60492475D02*
X128727932Y-59492475D01*
X128727932Y-59968665D02*
X128156504Y-59968665D01*
X128156504Y-60492475D02*
X128156504Y-59492475D01*
X128108885Y-62007180D02*
X128156504Y-62054800D01*
X128156504Y-62054800D02*
X128299361Y-62102419D01*
X128299361Y-62102419D02*
X128394599Y-62102419D01*
X128394599Y-62102419D02*
X128537456Y-62054800D01*
X128537456Y-62054800D02*
X128632694Y-61959561D01*
X128632694Y-61959561D02*
X128680313Y-61864323D01*
X128680313Y-61864323D02*
X128727932Y-61673847D01*
X128727932Y-61673847D02*
X128727932Y-61530990D01*
X128727932Y-61530990D02*
X128680313Y-61340514D01*
X128680313Y-61340514D02*
X128632694Y-61245276D01*
X128632694Y-61245276D02*
X128537456Y-61150038D01*
X128537456Y-61150038D02*
X128394599Y-61102419D01*
X128394599Y-61102419D02*
X128299361Y-61102419D01*
X128299361Y-61102419D02*
X128156504Y-61150038D01*
X128156504Y-61150038D02*
X128108885Y-61197657D01*
X149000313Y-60492475D02*
X149000313Y-59492475D01*
X149000313Y-59492475D02*
X148619361Y-59492475D01*
X148619361Y-59492475D02*
X148524123Y-59540094D01*
X148524123Y-59540094D02*
X148476504Y-59587713D01*
X148476504Y-59587713D02*
X148428885Y-59682951D01*
X148428885Y-59682951D02*
X148428885Y-59825808D01*
X148428885Y-59825808D02*
X148476504Y-59921046D01*
X148476504Y-59921046D02*
X148524123Y-59968665D01*
X148524123Y-59968665D02*
X148619361Y-60016284D01*
X148619361Y-60016284D02*
X149000313Y-60016284D01*
X149047932Y-61102419D02*
X148428885Y-61102419D01*
X148428885Y-61102419D02*
X148762218Y-61483371D01*
X148762218Y-61483371D02*
X148619361Y-61483371D01*
X148619361Y-61483371D02*
X148524123Y-61530990D01*
X148524123Y-61530990D02*
X148476504Y-61578609D01*
X148476504Y-61578609D02*
X148428885Y-61673847D01*
X148428885Y-61673847D02*
X148428885Y-61911942D01*
X148428885Y-61911942D02*
X148476504Y-62007180D01*
X148476504Y-62007180D02*
X148524123Y-62054800D01*
X148524123Y-62054800D02*
X148619361Y-62102419D01*
X148619361Y-62102419D02*
X148905075Y-62102419D01*
X148905075Y-62102419D02*
X149000313Y-62054800D01*
X149000313Y-62054800D02*
X149047932Y-62007180D01*
X150921266Y-60587713D02*
X151016504Y-60540094D01*
X151016504Y-60540094D02*
X151111742Y-60444856D01*
X151111742Y-60444856D02*
X151254599Y-60301998D01*
X151254599Y-60301998D02*
X151349837Y-60254379D01*
X151349837Y-60254379D02*
X151445075Y-60254379D01*
X151397456Y-60492475D02*
X151492694Y-60444856D01*
X151492694Y-60444856D02*
X151587932Y-60349617D01*
X151587932Y-60349617D02*
X151635551Y-60159141D01*
X151635551Y-60159141D02*
X151635551Y-59825808D01*
X151635551Y-59825808D02*
X151587932Y-59635332D01*
X151587932Y-59635332D02*
X151492694Y-59540094D01*
X151492694Y-59540094D02*
X151397456Y-59492475D01*
X151397456Y-59492475D02*
X151206980Y-59492475D01*
X151206980Y-59492475D02*
X151111742Y-59540094D01*
X151111742Y-59540094D02*
X151016504Y-59635332D01*
X151016504Y-59635332D02*
X150968885Y-59825808D01*
X150968885Y-59825808D02*
X150968885Y-60159141D01*
X150968885Y-60159141D02*
X151016504Y-60349617D01*
X151016504Y-60349617D02*
X151111742Y-60444856D01*
X151111742Y-60444856D02*
X151206980Y-60492475D01*
X151206980Y-60492475D02*
X151397456Y-60492475D01*
X151540313Y-61197657D02*
X151492694Y-61150038D01*
X151492694Y-61150038D02*
X151397456Y-61102419D01*
X151397456Y-61102419D02*
X151159361Y-61102419D01*
X151159361Y-61102419D02*
X151064123Y-61150038D01*
X151064123Y-61150038D02*
X151016504Y-61197657D01*
X151016504Y-61197657D02*
X150968885Y-61292895D01*
X150968885Y-61292895D02*
X150968885Y-61388133D01*
X150968885Y-61388133D02*
X151016504Y-61530990D01*
X151016504Y-61530990D02*
X151587932Y-62102419D01*
X151587932Y-62102419D02*
X150968885Y-62102419D01*
X138173647Y-60492475D02*
X138649837Y-60492475D01*
X138649837Y-60492475D02*
X138649837Y-59492475D01*
X138887932Y-61102419D02*
X138221266Y-61102419D01*
X138221266Y-61102419D02*
X138649837Y-62102419D01*
X105725075Y-60206760D02*
X105248885Y-60206760D01*
X105820313Y-60492475D02*
X105486980Y-59492475D01*
X105486980Y-59492475D02*
X105153647Y-60492475D01*
X105296504Y-61102419D02*
X105296504Y-61816704D01*
X105296504Y-61816704D02*
X105344123Y-61959561D01*
X105344123Y-61959561D02*
X105439361Y-62054800D01*
X105439361Y-62054800D02*
X105582218Y-62102419D01*
X105582218Y-62102419D02*
X105677456Y-62102419D01*
X143967932Y-60492475D02*
X143967932Y-59492475D01*
X143967932Y-59492475D02*
X143396504Y-60492475D01*
X143396504Y-60492475D02*
X143396504Y-59492475D01*
X143396504Y-61102419D02*
X143872694Y-61102419D01*
X143872694Y-61102419D02*
X143920313Y-61578609D01*
X143920313Y-61578609D02*
X143872694Y-61530990D01*
X143872694Y-61530990D02*
X143777456Y-61483371D01*
X143777456Y-61483371D02*
X143539361Y-61483371D01*
X143539361Y-61483371D02*
X143444123Y-61530990D01*
X143444123Y-61530990D02*
X143396504Y-61578609D01*
X143396504Y-61578609D02*
X143348885Y-61673847D01*
X143348885Y-61673847D02*
X143348885Y-61911942D01*
X143348885Y-61911942D02*
X143396504Y-62007180D01*
X143396504Y-62007180D02*
X143444123Y-62054800D01*
X143444123Y-62054800D02*
X143539361Y-62102419D01*
X143539361Y-62102419D02*
X143777456Y-62102419D01*
X143777456Y-62102419D02*
X143872694Y-62054800D01*
X143872694Y-62054800D02*
X143920313Y-62007180D01*
X95136504Y-59492475D02*
X95612694Y-59492475D01*
X95612694Y-59492475D02*
X95660313Y-59968665D01*
X95660313Y-59968665D02*
X95612694Y-59921046D01*
X95612694Y-59921046D02*
X95517456Y-59873427D01*
X95517456Y-59873427D02*
X95279361Y-59873427D01*
X95279361Y-59873427D02*
X95184123Y-59921046D01*
X95184123Y-59921046D02*
X95136504Y-59968665D01*
X95136504Y-59968665D02*
X95088885Y-60063903D01*
X95088885Y-60063903D02*
X95088885Y-60301998D01*
X95088885Y-60301998D02*
X95136504Y-60397236D01*
X95136504Y-60397236D02*
X95184123Y-60444856D01*
X95184123Y-60444856D02*
X95279361Y-60492475D01*
X95279361Y-60492475D02*
X95517456Y-60492475D01*
X95517456Y-60492475D02*
X95612694Y-60444856D01*
X95612694Y-60444856D02*
X95660313Y-60397236D01*
X95707932Y-62102419D02*
X95707932Y-61102419D01*
X95707932Y-61102419D02*
X95136504Y-62102419D01*
X95136504Y-62102419D02*
X95136504Y-61102419D01*
X88040313Y-59587713D02*
X87992694Y-59540094D01*
X87992694Y-59540094D02*
X87897456Y-59492475D01*
X87897456Y-59492475D02*
X87659361Y-59492475D01*
X87659361Y-59492475D02*
X87564123Y-59540094D01*
X87564123Y-59540094D02*
X87516504Y-59587713D01*
X87516504Y-59587713D02*
X87468885Y-59682951D01*
X87468885Y-59682951D02*
X87468885Y-59778189D01*
X87468885Y-59778189D02*
X87516504Y-59921046D01*
X87516504Y-59921046D02*
X88087932Y-60492475D01*
X88087932Y-60492475D02*
X87468885Y-60492475D01*
X87421266Y-62197657D02*
X87516504Y-62150038D01*
X87516504Y-62150038D02*
X87611742Y-62054800D01*
X87611742Y-62054800D02*
X87754599Y-61911942D01*
X87754599Y-61911942D02*
X87849837Y-61864323D01*
X87849837Y-61864323D02*
X87945075Y-61864323D01*
X87897456Y-62102419D02*
X87992694Y-62054800D01*
X87992694Y-62054800D02*
X88087932Y-61959561D01*
X88087932Y-61959561D02*
X88135551Y-61769085D01*
X88135551Y-61769085D02*
X88135551Y-61435752D01*
X88135551Y-61435752D02*
X88087932Y-61245276D01*
X88087932Y-61245276D02*
X87992694Y-61150038D01*
X87992694Y-61150038D02*
X87897456Y-61102419D01*
X87897456Y-61102419D02*
X87706980Y-61102419D01*
X87706980Y-61102419D02*
X87611742Y-61150038D01*
X87611742Y-61150038D02*
X87516504Y-61245276D01*
X87516504Y-61245276D02*
X87468885Y-61435752D01*
X87468885Y-61435752D02*
X87468885Y-61769085D01*
X87468885Y-61769085D02*
X87516504Y-61959561D01*
X87516504Y-61959561D02*
X87611742Y-62054800D01*
X87611742Y-62054800D02*
X87706980Y-62102419D01*
X87706980Y-62102419D02*
X87897456Y-62102419D01*
X97724123Y-59492475D02*
X97914599Y-59492475D01*
X97914599Y-59492475D02*
X98009837Y-59540094D01*
X98009837Y-59540094D02*
X98057456Y-59587713D01*
X98057456Y-59587713D02*
X98152694Y-59730570D01*
X98152694Y-59730570D02*
X98200313Y-59921046D01*
X98200313Y-59921046D02*
X98200313Y-60301998D01*
X98200313Y-60301998D02*
X98152694Y-60397236D01*
X98152694Y-60397236D02*
X98105075Y-60444856D01*
X98105075Y-60444856D02*
X98009837Y-60492475D01*
X98009837Y-60492475D02*
X97819361Y-60492475D01*
X97819361Y-60492475D02*
X97724123Y-60444856D01*
X97724123Y-60444856D02*
X97676504Y-60397236D01*
X97676504Y-60397236D02*
X97628885Y-60301998D01*
X97628885Y-60301998D02*
X97628885Y-60063903D01*
X97628885Y-60063903D02*
X97676504Y-59968665D01*
X97676504Y-59968665D02*
X97724123Y-59921046D01*
X97724123Y-59921046D02*
X97819361Y-59873427D01*
X97819361Y-59873427D02*
X98009837Y-59873427D01*
X98009837Y-59873427D02*
X98105075Y-59921046D01*
X98105075Y-59921046D02*
X98152694Y-59968665D01*
X98152694Y-59968665D02*
X98200313Y-60063903D01*
X98343170Y-62102419D02*
X98343170Y-61102419D01*
X98343170Y-61102419D02*
X98009837Y-61816704D01*
X98009837Y-61816704D02*
X97676504Y-61102419D01*
X97676504Y-61102419D02*
X97676504Y-62102419D01*
X123124123Y-59968665D02*
X123457456Y-59968665D01*
X123457456Y-60492475D02*
X123457456Y-59492475D01*
X123457456Y-59492475D02*
X122981266Y-59492475D01*
X123505075Y-61578609D02*
X123171742Y-61578609D01*
X123028885Y-62102419D02*
X123505075Y-62102419D01*
X123505075Y-62102419D02*
X123505075Y-61102419D01*
X123505075Y-61102419D02*
X123028885Y-61102419D01*
X156048885Y-60492475D02*
X156620313Y-60492475D01*
X156334599Y-60492475D02*
X156334599Y-59492475D01*
X156334599Y-59492475D02*
X156429837Y-59635332D01*
X156429837Y-59635332D02*
X156525075Y-59730570D01*
X156525075Y-59730570D02*
X156620313Y-59778189D01*
X156429837Y-61530990D02*
X156525075Y-61483371D01*
X156525075Y-61483371D02*
X156572694Y-61435752D01*
X156572694Y-61435752D02*
X156620313Y-61340514D01*
X156620313Y-61340514D02*
X156620313Y-61292895D01*
X156620313Y-61292895D02*
X156572694Y-61197657D01*
X156572694Y-61197657D02*
X156525075Y-61150038D01*
X156525075Y-61150038D02*
X156429837Y-61102419D01*
X156429837Y-61102419D02*
X156239361Y-61102419D01*
X156239361Y-61102419D02*
X156144123Y-61150038D01*
X156144123Y-61150038D02*
X156096504Y-61197657D01*
X156096504Y-61197657D02*
X156048885Y-61292895D01*
X156048885Y-61292895D02*
X156048885Y-61340514D01*
X156048885Y-61340514D02*
X156096504Y-61435752D01*
X156096504Y-61435752D02*
X156144123Y-61483371D01*
X156144123Y-61483371D02*
X156239361Y-61530990D01*
X156239361Y-61530990D02*
X156429837Y-61530990D01*
X156429837Y-61530990D02*
X156525075Y-61578609D01*
X156525075Y-61578609D02*
X156572694Y-61626228D01*
X156572694Y-61626228D02*
X156620313Y-61721466D01*
X156620313Y-61721466D02*
X156620313Y-61911942D01*
X156620313Y-61911942D02*
X156572694Y-62007180D01*
X156572694Y-62007180D02*
X156525075Y-62054800D01*
X156525075Y-62054800D02*
X156429837Y-62102419D01*
X156429837Y-62102419D02*
X156239361Y-62102419D01*
X156239361Y-62102419D02*
X156144123Y-62054800D01*
X156144123Y-62054800D02*
X156096504Y-62007180D01*
X156096504Y-62007180D02*
X156048885Y-61911942D01*
X156048885Y-61911942D02*
X156048885Y-61721466D01*
X156048885Y-61721466D02*
X156096504Y-61626228D01*
X156096504Y-61626228D02*
X156144123Y-61578609D01*
X156144123Y-61578609D02*
X156239361Y-61530990D01*
X146222218Y-59492475D02*
X146126980Y-59492475D01*
X146126980Y-59492475D02*
X146031742Y-59540094D01*
X146031742Y-59540094D02*
X145984123Y-59587713D01*
X145984123Y-59587713D02*
X145936504Y-59682951D01*
X145936504Y-59682951D02*
X145888885Y-59873427D01*
X145888885Y-59873427D02*
X145888885Y-60111522D01*
X145888885Y-60111522D02*
X145936504Y-60301998D01*
X145936504Y-60301998D02*
X145984123Y-60397236D01*
X145984123Y-60397236D02*
X146031742Y-60444856D01*
X146031742Y-60444856D02*
X146126980Y-60492475D01*
X146126980Y-60492475D02*
X146222218Y-60492475D01*
X146222218Y-60492475D02*
X146317456Y-60444856D01*
X146317456Y-60444856D02*
X146365075Y-60397236D01*
X146365075Y-60397236D02*
X146412694Y-60301998D01*
X146412694Y-60301998D02*
X146460313Y-60111522D01*
X146460313Y-60111522D02*
X146460313Y-59873427D01*
X146460313Y-59873427D02*
X146412694Y-59682951D01*
X146412694Y-59682951D02*
X146365075Y-59587713D01*
X146365075Y-59587713D02*
X146317456Y-59540094D01*
X146317456Y-59540094D02*
X146222218Y-59492475D01*
X145984123Y-61435752D02*
X145984123Y-62102419D01*
X146222218Y-61054800D02*
X146460313Y-61769085D01*
X146460313Y-61769085D02*
X145841266Y-61769085D01*
X100787932Y-59492475D02*
X100121266Y-59492475D01*
X100121266Y-59492475D02*
X100549837Y-60492475D01*
X100073647Y-62102419D02*
X100549837Y-62102419D01*
X100549837Y-62102419D02*
X100549837Y-61102419D01*
X84928885Y-60492475D02*
X85500313Y-60492475D01*
X85214599Y-60492475D02*
X85214599Y-59492475D01*
X85214599Y-59492475D02*
X85309837Y-59635332D01*
X85309837Y-59635332D02*
X85405075Y-59730570D01*
X85405075Y-59730570D02*
X85500313Y-59778189D01*
X84928885Y-62102419D02*
X85262218Y-61626228D01*
X85500313Y-62102419D02*
X85500313Y-61102419D01*
X85500313Y-61102419D02*
X85119361Y-61102419D01*
X85119361Y-61102419D02*
X85024123Y-61150038D01*
X85024123Y-61150038D02*
X84976504Y-61197657D01*
X84976504Y-61197657D02*
X84928885Y-61292895D01*
X84928885Y-61292895D02*
X84928885Y-61435752D01*
X84928885Y-61435752D02*
X84976504Y-61530990D01*
X84976504Y-61530990D02*
X85024123Y-61578609D01*
X85024123Y-61578609D02*
X85119361Y-61626228D01*
X85119361Y-61626228D02*
X85500313Y-61626228D01*
X115885075Y-59968665D02*
X115551742Y-59968665D01*
X115408885Y-60492475D02*
X115885075Y-60492475D01*
X115885075Y-60492475D02*
X115885075Y-59492475D01*
X115885075Y-59492475D02*
X115408885Y-59492475D01*
X115504123Y-61578609D02*
X115837456Y-61578609D01*
X115837456Y-62102419D02*
X115837456Y-61102419D01*
X115837456Y-61102419D02*
X115361266Y-61102419D01*
X92644123Y-59825808D02*
X92644123Y-60492475D01*
X92882218Y-59444856D02*
X93120313Y-60159141D01*
X93120313Y-60159141D02*
X92501266Y-60159141D01*
X92977456Y-61102419D02*
X92786980Y-61102419D01*
X92786980Y-61102419D02*
X92691742Y-61150038D01*
X92691742Y-61150038D02*
X92596504Y-61245276D01*
X92596504Y-61245276D02*
X92548885Y-61435752D01*
X92548885Y-61435752D02*
X92548885Y-61769085D01*
X92548885Y-61769085D02*
X92596504Y-61959561D01*
X92596504Y-61959561D02*
X92691742Y-62054800D01*
X92691742Y-62054800D02*
X92786980Y-62102419D01*
X92786980Y-62102419D02*
X92977456Y-62102419D01*
X92977456Y-62102419D02*
X93072694Y-62054800D01*
X93072694Y-62054800D02*
X93167932Y-61959561D01*
X93167932Y-61959561D02*
X93215551Y-61769085D01*
X93215551Y-61769085D02*
X93215551Y-61435752D01*
X93215551Y-61435752D02*
X93167932Y-61245276D01*
X93167932Y-61245276D02*
X93072694Y-61150038D01*
X93072694Y-61150038D02*
X92977456Y-61102419D01*
X110328885Y-60397236D02*
X110376504Y-60444856D01*
X110376504Y-60444856D02*
X110519361Y-60492475D01*
X110519361Y-60492475D02*
X110614599Y-60492475D01*
X110614599Y-60492475D02*
X110757456Y-60444856D01*
X110757456Y-60444856D02*
X110852694Y-60349617D01*
X110852694Y-60349617D02*
X110900313Y-60254379D01*
X110900313Y-60254379D02*
X110947932Y-60063903D01*
X110947932Y-60063903D02*
X110947932Y-59921046D01*
X110947932Y-59921046D02*
X110900313Y-59730570D01*
X110900313Y-59730570D02*
X110852694Y-59635332D01*
X110852694Y-59635332D02*
X110757456Y-59540094D01*
X110757456Y-59540094D02*
X110614599Y-59492475D01*
X110614599Y-59492475D02*
X110519361Y-59492475D01*
X110519361Y-59492475D02*
X110376504Y-59540094D01*
X110376504Y-59540094D02*
X110328885Y-59587713D01*
X110947932Y-62102419D02*
X110947932Y-61102419D01*
X110947932Y-61578609D02*
X110376504Y-61578609D01*
X110376504Y-62102419D02*
X110376504Y-61102419D01*
X82484123Y-59825808D02*
X82484123Y-60492475D01*
X82722218Y-59444856D02*
X82960313Y-60159141D01*
X82960313Y-60159141D02*
X82341266Y-60159141D01*
X83007932Y-61102419D02*
X82341266Y-61102419D01*
X82341266Y-61102419D02*
X82769837Y-62102419D01*
%LPC*%
D11*
X77200000Y-108000000D03*
X161400000Y-108000000D03*
X77200000Y-65800000D03*
X161400000Y-65800000D03*
D12*
X153850000Y-75950000D03*
X84750000Y-75950000D03*
D13*
X82475000Y-109100000D03*
D14*
X82475000Y-106560000D03*
X85015000Y-109100000D03*
X85015000Y-106560000D03*
X87555000Y-109100000D03*
X87555000Y-106560000D03*
X90095000Y-109100000D03*
X90095000Y-106560000D03*
X92635000Y-109100000D03*
X92635000Y-106560000D03*
X95175000Y-109100000D03*
X95175000Y-106560000D03*
X97715000Y-109100000D03*
X97715000Y-106560000D03*
X100255000Y-109100000D03*
X100255000Y-106560000D03*
X102795000Y-109100000D03*
X102795000Y-106560000D03*
X105335000Y-109100000D03*
X105335000Y-106560000D03*
X107875000Y-109100000D03*
X107875000Y-106560000D03*
X110415000Y-109100000D03*
X110415000Y-106560000D03*
X112955000Y-109100000D03*
X112955000Y-106560000D03*
X115495000Y-109100000D03*
X115495000Y-106560000D03*
X118035000Y-109100000D03*
X118035000Y-106560000D03*
X120575000Y-109100000D03*
X120575000Y-106560000D03*
X123115000Y-109100000D03*
X123115000Y-106560000D03*
X125655000Y-109100000D03*
X125655000Y-106560000D03*
X128195000Y-109100000D03*
X128195000Y-106560000D03*
X130735000Y-109100000D03*
X130735000Y-106560000D03*
X133275000Y-109100000D03*
X133275000Y-106560000D03*
X135815000Y-109100000D03*
X135815000Y-106560000D03*
X138355000Y-109100000D03*
X138355000Y-106560000D03*
X140895000Y-109100000D03*
X140895000Y-106560000D03*
X143435000Y-109100000D03*
X143435000Y-106560000D03*
X145975000Y-109100000D03*
X145975000Y-106560000D03*
X148515000Y-109100000D03*
X148515000Y-106560000D03*
X151055000Y-109100000D03*
X151055000Y-106560000D03*
X153595000Y-109100000D03*
X153595000Y-106560000D03*
X156135000Y-109100000D03*
X156135000Y-106560000D03*
X82475000Y-67240000D03*
X82475000Y-64700000D03*
X85015000Y-67240000D03*
X85015000Y-64700000D03*
X87555000Y-67240000D03*
X87555000Y-64700000D03*
X90095000Y-67240000D03*
X90095000Y-64700000D03*
X92635000Y-67240000D03*
X92635000Y-64700000D03*
X95175000Y-67240000D03*
X95175000Y-64700000D03*
X97715000Y-67240000D03*
X97715000Y-64700000D03*
X100255000Y-67240000D03*
X100255000Y-64700000D03*
X102795000Y-67240000D03*
X102795000Y-64700000D03*
X105335000Y-67240000D03*
X105335000Y-64700000D03*
X107875000Y-67240000D03*
X107875000Y-64700000D03*
X110415000Y-67240000D03*
X110415000Y-64700000D03*
X112955000Y-67240000D03*
X112955000Y-64700000D03*
X115495000Y-67240000D03*
X115495000Y-64700000D03*
X118035000Y-67240000D03*
X118035000Y-64700000D03*
X120575000Y-67240000D03*
X120575000Y-64700000D03*
X123115000Y-67240000D03*
X123115000Y-64700000D03*
X125655000Y-67240000D03*
X125655000Y-64700000D03*
X128195000Y-67240000D03*
X128195000Y-64700000D03*
X130735000Y-67240000D03*
X130735000Y-64700000D03*
X133275000Y-67240000D03*
X133275000Y-64700000D03*
X135815000Y-67240000D03*
X135815000Y-64700000D03*
X138355000Y-67240000D03*
X138355000Y-64700000D03*
X140895000Y-67240000D03*
X140895000Y-64700000D03*
X143435000Y-67240000D03*
X143435000Y-64700000D03*
X145975000Y-67240000D03*
X145975000Y-64700000D03*
X148515000Y-67240000D03*
X148515000Y-64700000D03*
X151055000Y-67240000D03*
X151055000Y-64700000D03*
X153595000Y-67240000D03*
X153595000Y-64700000D03*
X156135000Y-67240000D03*
D13*
X156135000Y-64700000D03*
%LPD*%
M02*
