M48
; DRILL file {KiCad 8.0.1} date 2024-08-08T10:35:33+0800
; FORMAT={-:-/ absolute / metric / decimal}
; #@! TF.CreationDate,2024-08-08T10:35:33+08:00
; #@! TF.GenerationSoftware,Kicad,Pcbnew,8.0.1
; #@! TF.FileFunction,Plated,1,2,PTH
FMAT,2
METRIC
; #@! TA.AperFunction,Plated,PTH,ViaDrill
T1C0.300
; #@! TA.AperFunction,Plated,PTH,ComponentDrill
T2C1.000
%
G90
G05
T1
X101.6Y-110.0
X121.965Y-87.45
X125.7Y-87.95
X128.195Y-88.25
X130.259Y-88.85
X132.425Y-89.25
X135.815Y-89.85
X136.265Y-82.0
X138.355Y-90.3
X141.745Y-90.65
X144.285Y-91.1
X146.2Y-91.65
X148.515Y-92.2
X150.4Y-92.6
X155.4Y-93.2
T2
X82.475Y-64.7
X82.475Y-67.24
X82.475Y-106.56
X82.475Y-109.1
X85.015Y-64.7
X85.015Y-67.24
X85.015Y-106.56
X85.015Y-109.1
X87.555Y-64.7
X87.555Y-67.24
X87.555Y-106.56
X87.555Y-109.1
X90.095Y-64.7
X90.095Y-67.24
X90.095Y-106.56
X90.095Y-109.1
X92.635Y-64.7
X92.635Y-67.24
X92.635Y-106.56
X92.635Y-109.1
X95.175Y-64.7
X95.175Y-67.24
X95.175Y-106.56
X95.175Y-109.1
X97.715Y-64.7
X97.715Y-67.24
X97.715Y-106.56
X97.715Y-109.1
X100.255Y-64.7
X100.255Y-67.24
X100.255Y-106.56
X100.255Y-109.1
X102.795Y-64.7
X102.795Y-67.24
X102.795Y-106.56
X102.795Y-109.1
X105.335Y-64.7
X105.335Y-67.24
X105.335Y-106.56
X105.335Y-109.1
X107.875Y-64.7
X107.875Y-67.24
X107.875Y-106.56
X107.875Y-109.1
X110.415Y-64.7
X110.415Y-67.24
X110.415Y-106.56
X110.415Y-109.1
X112.955Y-64.7
X112.955Y-67.24
X112.955Y-106.56
X112.955Y-109.1
X115.495Y-64.7
X115.495Y-67.24
X115.495Y-106.56
X115.495Y-109.1
X118.035Y-64.7
X118.035Y-67.24
X118.035Y-106.56
X118.035Y-109.1
X120.575Y-64.7
X120.575Y-67.24
X120.575Y-106.56
X120.575Y-109.1
X123.115Y-64.7
X123.115Y-67.24
X123.115Y-106.56
X123.115Y-109.1
X125.655Y-64.7
X125.655Y-67.24
X125.655Y-106.56
X125.655Y-109.1
X128.195Y-64.7
X128.195Y-67.24
X128.195Y-106.56
X128.195Y-109.1
X130.735Y-64.7
X130.735Y-67.24
X130.735Y-106.56
X130.735Y-109.1
X133.275Y-64.7
X133.275Y-67.24
X133.275Y-106.56
X133.275Y-109.1
X135.815Y-64.7
X135.815Y-67.24
X135.815Y-106.56
X135.815Y-109.1
X138.355Y-64.7
X138.355Y-67.24
X138.355Y-106.56
X138.355Y-109.1
X140.895Y-64.7
X140.895Y-67.24
X140.895Y-106.56
X140.895Y-109.1
X143.435Y-64.7
X143.435Y-67.24
X143.435Y-106.56
X143.435Y-109.1
X145.975Y-64.7
X145.975Y-67.24
X145.975Y-106.56
X145.975Y-109.1
X148.515Y-64.7
X148.515Y-67.24
X148.515Y-106.56
X148.515Y-109.1
X151.055Y-64.7
X151.055Y-67.24
X151.055Y-106.56
X151.055Y-109.1
X153.595Y-64.7
X153.595Y-67.24
X153.595Y-106.56
X153.595Y-109.1
X156.135Y-64.7
X156.135Y-67.24
X156.135Y-106.56
X156.135Y-109.1
M30
