G04 #@! TF.GenerationSoftware,KiCad,Pcbnew,8.0.1*
G04 #@! TF.CreationDate,2024-08-17T14:36:12+08:00*
G04 #@! TF.ProjectId,MatchBox v0.3,4d617463-6842-46f7-9820-76302e332e6b,rev?*
G04 #@! TF.SameCoordinates,Original*
G04 #@! TF.FileFunction,Legend,Top*
G04 #@! TF.FilePolarity,Positive*
%FSLAX46Y46*%
G04 Gerber Fmt 4.6, Leading zero omitted, Abs format (unit mm)*
G04 Created by KiCad (PCBNEW 8.0.1) date 2024-08-17 14:36:12*
%MOMM*%
%LPD*%
G01*
G04 APERTURE LIST*
G04 Aperture macros list*
%AMRoundRect*
0 Rectangle with rounded corners*
0 $1 Rounding radius*
0 $2 $3 $4 $5 $6 $7 $8 $9 X,Y pos of 4 corners*
0 Add a 4 corners polygon primitive as box body*
4,1,4,$2,$3,$4,$5,$6,$7,$8,$9,$2,$3,0*
0 Add four circle primitives for the rounded corners*
1,1,$1+$1,$2,$3*
1,1,$1+$1,$4,$5*
1,1,$1+$1,$6,$7*
1,1,$1+$1,$8,$9*
0 Add four rect primitives between the rounded corners*
20,1,$1+$1,$2,$3,$4,$5,0*
20,1,$1+$1,$4,$5,$6,$7,0*
20,1,$1+$1,$6,$7,$8,$9,0*
20,1,$1+$1,$8,$9,$2,$3,0*%
G04 Aperture macros list end*
%ADD10C,0.100000*%
%ADD11C,0.150000*%
%ADD12C,0.000000*%
%ADD13C,0.127000*%
%ADD14C,0.120000*%
%ADD15C,3.200000*%
%ADD16RoundRect,0.102000X-0.500000X1.138750X-0.500000X-1.138750X0.500000X-1.138750X0.500000X1.138750X0*%
%ADD17R,1.700000X1.700000*%
%ADD18O,1.700000X1.700000*%
%ADD19C,3.700000*%
G04 APERTURE END LIST*
D10*
X102681741Y-59921046D02*
X102586503Y-59873427D01*
X102586503Y-59873427D02*
X102538884Y-59825808D01*
X102538884Y-59825808D02*
X102491265Y-59730570D01*
X102491265Y-59730570D02*
X102491265Y-59682951D01*
X102491265Y-59682951D02*
X102538884Y-59587713D01*
X102538884Y-59587713D02*
X102586503Y-59540094D01*
X102586503Y-59540094D02*
X102681741Y-59492475D01*
X102681741Y-59492475D02*
X102872217Y-59492475D01*
X102872217Y-59492475D02*
X102967455Y-59540094D01*
X102967455Y-59540094D02*
X103015074Y-59587713D01*
X103015074Y-59587713D02*
X103062693Y-59682951D01*
X103062693Y-59682951D02*
X103062693Y-59730570D01*
X103062693Y-59730570D02*
X103015074Y-59825808D01*
X103015074Y-59825808D02*
X102967455Y-59873427D01*
X102967455Y-59873427D02*
X102872217Y-59921046D01*
X102872217Y-59921046D02*
X102681741Y-59921046D01*
X102681741Y-59921046D02*
X102586503Y-59968665D01*
X102586503Y-59968665D02*
X102538884Y-60016284D01*
X102538884Y-60016284D02*
X102491265Y-60111522D01*
X102491265Y-60111522D02*
X102491265Y-60301998D01*
X102491265Y-60301998D02*
X102538884Y-60397236D01*
X102538884Y-60397236D02*
X102586503Y-60444856D01*
X102586503Y-60444856D02*
X102681741Y-60492475D01*
X102681741Y-60492475D02*
X102872217Y-60492475D01*
X102872217Y-60492475D02*
X102967455Y-60444856D01*
X102967455Y-60444856D02*
X103015074Y-60397236D01*
X103015074Y-60397236D02*
X103062693Y-60301998D01*
X103062693Y-60301998D02*
X103062693Y-60111522D01*
X103062693Y-60111522D02*
X103015074Y-60016284D01*
X103015074Y-60016284D02*
X102967455Y-59968665D01*
X102967455Y-59968665D02*
X102872217Y-59921046D01*
X102538884Y-62102419D02*
X102538884Y-61102419D01*
X103110312Y-62102419D02*
X102681741Y-61530990D01*
X103110312Y-61102419D02*
X102538884Y-61673847D01*
X145909360Y-59492475D02*
X146004598Y-59492475D01*
X146004598Y-59492475D02*
X146099836Y-59540094D01*
X146099836Y-59540094D02*
X146147455Y-59587713D01*
X146147455Y-59587713D02*
X146195074Y-59682951D01*
X146195074Y-59682951D02*
X146242693Y-59873427D01*
X146242693Y-59873427D02*
X146242693Y-60111522D01*
X146242693Y-60111522D02*
X146195074Y-60301998D01*
X146195074Y-60301998D02*
X146147455Y-60397236D01*
X146147455Y-60397236D02*
X146099836Y-60444856D01*
X146099836Y-60444856D02*
X146004598Y-60492475D01*
X146004598Y-60492475D02*
X145909360Y-60492475D01*
X145909360Y-60492475D02*
X145814122Y-60444856D01*
X145814122Y-60444856D02*
X145766503Y-60397236D01*
X145766503Y-60397236D02*
X145718884Y-60301998D01*
X145718884Y-60301998D02*
X145671265Y-60111522D01*
X145671265Y-60111522D02*
X145671265Y-59873427D01*
X145671265Y-59873427D02*
X145718884Y-59682951D01*
X145718884Y-59682951D02*
X145766503Y-59587713D01*
X145766503Y-59587713D02*
X145814122Y-59540094D01*
X145814122Y-59540094D02*
X145909360Y-59492475D01*
X146147455Y-61435752D02*
X146147455Y-62102419D01*
X145909360Y-61054800D02*
X145671265Y-61769085D01*
X145671265Y-61769085D02*
X146290312Y-61769085D01*
X115238884Y-112038665D02*
X115572217Y-112038665D01*
X115715074Y-112562475D02*
X115238884Y-112562475D01*
X115238884Y-112562475D02*
X115238884Y-111562475D01*
X115238884Y-111562475D02*
X115715074Y-111562475D01*
X115572217Y-113648609D02*
X115238884Y-113648609D01*
X115238884Y-114172419D02*
X115238884Y-113172419D01*
X115238884Y-113172419D02*
X115715074Y-113172419D01*
X110730312Y-112467236D02*
X110682693Y-112514856D01*
X110682693Y-112514856D02*
X110539836Y-112562475D01*
X110539836Y-112562475D02*
X110444598Y-112562475D01*
X110444598Y-112562475D02*
X110301741Y-112514856D01*
X110301741Y-112514856D02*
X110206503Y-112419617D01*
X110206503Y-112419617D02*
X110158884Y-112324379D01*
X110158884Y-112324379D02*
X110111265Y-112133903D01*
X110111265Y-112133903D02*
X110111265Y-111991046D01*
X110111265Y-111991046D02*
X110158884Y-111800570D01*
X110158884Y-111800570D02*
X110206503Y-111705332D01*
X110206503Y-111705332D02*
X110301741Y-111610094D01*
X110301741Y-111610094D02*
X110444598Y-111562475D01*
X110444598Y-111562475D02*
X110539836Y-111562475D01*
X110539836Y-111562475D02*
X110682693Y-111610094D01*
X110682693Y-111610094D02*
X110730312Y-111657713D01*
X110158884Y-114172419D02*
X110158884Y-113172419D01*
X110158884Y-113648609D02*
X110730312Y-113648609D01*
X110730312Y-114172419D02*
X110730312Y-113172419D01*
X156402693Y-60492475D02*
X155831265Y-60492475D01*
X156116979Y-60492475D02*
X156116979Y-59492475D01*
X156116979Y-59492475D02*
X156021741Y-59635332D01*
X156021741Y-59635332D02*
X155926503Y-59730570D01*
X155926503Y-59730570D02*
X155831265Y-59778189D01*
X156021741Y-61530990D02*
X155926503Y-61483371D01*
X155926503Y-61483371D02*
X155878884Y-61435752D01*
X155878884Y-61435752D02*
X155831265Y-61340514D01*
X155831265Y-61340514D02*
X155831265Y-61292895D01*
X155831265Y-61292895D02*
X155878884Y-61197657D01*
X155878884Y-61197657D02*
X155926503Y-61150038D01*
X155926503Y-61150038D02*
X156021741Y-61102419D01*
X156021741Y-61102419D02*
X156212217Y-61102419D01*
X156212217Y-61102419D02*
X156307455Y-61150038D01*
X156307455Y-61150038D02*
X156355074Y-61197657D01*
X156355074Y-61197657D02*
X156402693Y-61292895D01*
X156402693Y-61292895D02*
X156402693Y-61340514D01*
X156402693Y-61340514D02*
X156355074Y-61435752D01*
X156355074Y-61435752D02*
X156307455Y-61483371D01*
X156307455Y-61483371D02*
X156212217Y-61530990D01*
X156212217Y-61530990D02*
X156021741Y-61530990D01*
X156021741Y-61530990D02*
X155926503Y-61578609D01*
X155926503Y-61578609D02*
X155878884Y-61626228D01*
X155878884Y-61626228D02*
X155831265Y-61721466D01*
X155831265Y-61721466D02*
X155831265Y-61911942D01*
X155831265Y-61911942D02*
X155878884Y-62007180D01*
X155878884Y-62007180D02*
X155926503Y-62054800D01*
X155926503Y-62054800D02*
X156021741Y-62102419D01*
X156021741Y-62102419D02*
X156212217Y-62102419D01*
X156212217Y-62102419D02*
X156307455Y-62054800D01*
X156307455Y-62054800D02*
X156355074Y-62007180D01*
X156355074Y-62007180D02*
X156402693Y-61911942D01*
X156402693Y-61911942D02*
X156402693Y-61721466D01*
X156402693Y-61721466D02*
X156355074Y-61626228D01*
X156355074Y-61626228D02*
X156307455Y-61578609D01*
X156307455Y-61578609D02*
X156212217Y-61530990D01*
X138575074Y-112562475D02*
X138098884Y-112562475D01*
X138098884Y-112562475D02*
X138098884Y-111562475D01*
X138003646Y-113172419D02*
X138670312Y-113172419D01*
X138670312Y-113172419D02*
X138241741Y-114172419D01*
X82361741Y-111991046D02*
X82266503Y-111943427D01*
X82266503Y-111943427D02*
X82218884Y-111895808D01*
X82218884Y-111895808D02*
X82171265Y-111800570D01*
X82171265Y-111800570D02*
X82171265Y-111752951D01*
X82171265Y-111752951D02*
X82218884Y-111657713D01*
X82218884Y-111657713D02*
X82266503Y-111610094D01*
X82266503Y-111610094D02*
X82361741Y-111562475D01*
X82361741Y-111562475D02*
X82552217Y-111562475D01*
X82552217Y-111562475D02*
X82647455Y-111610094D01*
X82647455Y-111610094D02*
X82695074Y-111657713D01*
X82695074Y-111657713D02*
X82742693Y-111752951D01*
X82742693Y-111752951D02*
X82742693Y-111800570D01*
X82742693Y-111800570D02*
X82695074Y-111895808D01*
X82695074Y-111895808D02*
X82647455Y-111943427D01*
X82647455Y-111943427D02*
X82552217Y-111991046D01*
X82552217Y-111991046D02*
X82361741Y-111991046D01*
X82361741Y-111991046D02*
X82266503Y-112038665D01*
X82266503Y-112038665D02*
X82218884Y-112086284D01*
X82218884Y-112086284D02*
X82171265Y-112181522D01*
X82171265Y-112181522D02*
X82171265Y-112371998D01*
X82171265Y-112371998D02*
X82218884Y-112467236D01*
X82218884Y-112467236D02*
X82266503Y-112514856D01*
X82266503Y-112514856D02*
X82361741Y-112562475D01*
X82361741Y-112562475D02*
X82552217Y-112562475D01*
X82552217Y-112562475D02*
X82647455Y-112514856D01*
X82647455Y-112514856D02*
X82695074Y-112467236D01*
X82695074Y-112467236D02*
X82742693Y-112371998D01*
X82742693Y-112371998D02*
X82742693Y-112181522D01*
X82742693Y-112181522D02*
X82695074Y-112086284D01*
X82695074Y-112086284D02*
X82647455Y-112038665D01*
X82647455Y-112038665D02*
X82552217Y-111991046D01*
X82742693Y-114172419D02*
X82171265Y-114172419D01*
X82456979Y-114172419D02*
X82456979Y-113172419D01*
X82456979Y-113172419D02*
X82361741Y-113315276D01*
X82361741Y-113315276D02*
X82266503Y-113410514D01*
X82266503Y-113410514D02*
X82171265Y-113458133D01*
X138575074Y-60492475D02*
X138098884Y-60492475D01*
X138098884Y-60492475D02*
X138098884Y-59492475D01*
X138003646Y-61102419D02*
X138670312Y-61102419D01*
X138670312Y-61102419D02*
X138241741Y-62102419D01*
X127938884Y-112562475D02*
X127938884Y-111562475D01*
X127938884Y-112038665D02*
X128510312Y-112038665D01*
X128510312Y-112562475D02*
X128510312Y-111562475D01*
X128510312Y-114077180D02*
X128462693Y-114124800D01*
X128462693Y-114124800D02*
X128319836Y-114172419D01*
X128319836Y-114172419D02*
X128224598Y-114172419D01*
X128224598Y-114172419D02*
X128081741Y-114124800D01*
X128081741Y-114124800D02*
X127986503Y-114029561D01*
X127986503Y-114029561D02*
X127938884Y-113934323D01*
X127938884Y-113934323D02*
X127891265Y-113743847D01*
X127891265Y-113743847D02*
X127891265Y-113600990D01*
X127891265Y-113600990D02*
X127938884Y-113410514D01*
X127938884Y-113410514D02*
X127986503Y-113315276D01*
X127986503Y-113315276D02*
X128081741Y-113220038D01*
X128081741Y-113220038D02*
X128224598Y-113172419D01*
X128224598Y-113172419D02*
X128319836Y-113172419D01*
X128319836Y-113172419D02*
X128462693Y-113220038D01*
X128462693Y-113220038D02*
X128510312Y-113267657D01*
X85282693Y-60492475D02*
X84711265Y-60492475D01*
X84996979Y-60492475D02*
X84996979Y-59492475D01*
X84996979Y-59492475D02*
X84901741Y-59635332D01*
X84901741Y-59635332D02*
X84806503Y-59730570D01*
X84806503Y-59730570D02*
X84711265Y-59778189D01*
X85330312Y-62102419D02*
X84996979Y-61626228D01*
X84758884Y-62102419D02*
X84758884Y-61102419D01*
X84758884Y-61102419D02*
X85139836Y-61102419D01*
X85139836Y-61102419D02*
X85235074Y-61150038D01*
X85235074Y-61150038D02*
X85282693Y-61197657D01*
X85282693Y-61197657D02*
X85330312Y-61292895D01*
X85330312Y-61292895D02*
X85330312Y-61435752D01*
X85330312Y-61435752D02*
X85282693Y-61530990D01*
X85282693Y-61530990D02*
X85235074Y-61578609D01*
X85235074Y-61578609D02*
X85139836Y-61626228D01*
X85139836Y-61626228D02*
X84758884Y-61626228D01*
X95395074Y-111562475D02*
X94918884Y-111562475D01*
X94918884Y-111562475D02*
X94871265Y-112038665D01*
X94871265Y-112038665D02*
X94918884Y-111991046D01*
X94918884Y-111991046D02*
X95014122Y-111943427D01*
X95014122Y-111943427D02*
X95252217Y-111943427D01*
X95252217Y-111943427D02*
X95347455Y-111991046D01*
X95347455Y-111991046D02*
X95395074Y-112038665D01*
X95395074Y-112038665D02*
X95442693Y-112133903D01*
X95442693Y-112133903D02*
X95442693Y-112371998D01*
X95442693Y-112371998D02*
X95395074Y-112467236D01*
X95395074Y-112467236D02*
X95347455Y-112514856D01*
X95347455Y-112514856D02*
X95252217Y-112562475D01*
X95252217Y-112562475D02*
X95014122Y-112562475D01*
X95014122Y-112562475D02*
X94918884Y-112514856D01*
X94918884Y-112514856D02*
X94871265Y-112467236D01*
X94918884Y-114172419D02*
X94918884Y-113172419D01*
X94918884Y-113172419D02*
X95490312Y-114172419D01*
X95490312Y-114172419D02*
X95490312Y-113172419D01*
X153910312Y-112562475D02*
X153576979Y-112086284D01*
X153338884Y-112562475D02*
X153338884Y-111562475D01*
X153338884Y-111562475D02*
X153719836Y-111562475D01*
X153719836Y-111562475D02*
X153815074Y-111610094D01*
X153815074Y-111610094D02*
X153862693Y-111657713D01*
X153862693Y-111657713D02*
X153910312Y-111752951D01*
X153910312Y-111752951D02*
X153910312Y-111895808D01*
X153910312Y-111895808D02*
X153862693Y-111991046D01*
X153862693Y-111991046D02*
X153815074Y-112038665D01*
X153815074Y-112038665D02*
X153719836Y-112086284D01*
X153719836Y-112086284D02*
X153338884Y-112086284D01*
X153862693Y-114172419D02*
X153291265Y-114172419D01*
X153576979Y-114172419D02*
X153576979Y-113172419D01*
X153576979Y-113172419D02*
X153481741Y-113315276D01*
X153481741Y-113315276D02*
X153386503Y-113410514D01*
X153386503Y-113410514D02*
X153291265Y-113458133D01*
X140638884Y-112562475D02*
X140638884Y-111562475D01*
X140638884Y-111562475D02*
X140972217Y-112276760D01*
X140972217Y-112276760D02*
X141305550Y-111562475D01*
X141305550Y-111562475D02*
X141305550Y-112562475D01*
X141067455Y-113172419D02*
X140876979Y-113172419D01*
X140876979Y-113172419D02*
X140781741Y-113220038D01*
X140781741Y-113220038D02*
X140734122Y-113267657D01*
X140734122Y-113267657D02*
X140638884Y-113410514D01*
X140638884Y-113410514D02*
X140591265Y-113600990D01*
X140591265Y-113600990D02*
X140591265Y-113981942D01*
X140591265Y-113981942D02*
X140638884Y-114077180D01*
X140638884Y-114077180D02*
X140686503Y-114124800D01*
X140686503Y-114124800D02*
X140781741Y-114172419D01*
X140781741Y-114172419D02*
X140972217Y-114172419D01*
X140972217Y-114172419D02*
X141067455Y-114124800D01*
X141067455Y-114124800D02*
X141115074Y-114077180D01*
X141115074Y-114077180D02*
X141162693Y-113981942D01*
X141162693Y-113981942D02*
X141162693Y-113743847D01*
X141162693Y-113743847D02*
X141115074Y-113648609D01*
X141115074Y-113648609D02*
X141067455Y-113600990D01*
X141067455Y-113600990D02*
X140972217Y-113553371D01*
X140972217Y-113553371D02*
X140781741Y-113553371D01*
X140781741Y-113553371D02*
X140686503Y-113600990D01*
X140686503Y-113600990D02*
X140638884Y-113648609D01*
X140638884Y-113648609D02*
X140591265Y-113743847D01*
D11*
X102799998Y-103369819D02*
X102799998Y-102369819D01*
X102799998Y-102369819D02*
X103133331Y-103084104D01*
X103133331Y-103084104D02*
X103466664Y-102369819D01*
X103466664Y-102369819D02*
X103466664Y-103369819D01*
X104371426Y-103369819D02*
X104371426Y-102846009D01*
X104371426Y-102846009D02*
X104323807Y-102750771D01*
X104323807Y-102750771D02*
X104228569Y-102703152D01*
X104228569Y-102703152D02*
X104038093Y-102703152D01*
X104038093Y-102703152D02*
X103942855Y-102750771D01*
X104371426Y-103322200D02*
X104276188Y-103369819D01*
X104276188Y-103369819D02*
X104038093Y-103369819D01*
X104038093Y-103369819D02*
X103942855Y-103322200D01*
X103942855Y-103322200D02*
X103895236Y-103226961D01*
X103895236Y-103226961D02*
X103895236Y-103131723D01*
X103895236Y-103131723D02*
X103942855Y-103036485D01*
X103942855Y-103036485D02*
X104038093Y-102988866D01*
X104038093Y-102988866D02*
X104276188Y-102988866D01*
X104276188Y-102988866D02*
X104371426Y-102941247D01*
X104704760Y-102703152D02*
X105085712Y-102703152D01*
X104847617Y-102369819D02*
X104847617Y-103226961D01*
X104847617Y-103226961D02*
X104895236Y-103322200D01*
X104895236Y-103322200D02*
X104990474Y-103369819D01*
X104990474Y-103369819D02*
X105085712Y-103369819D01*
X105847617Y-103322200D02*
X105752379Y-103369819D01*
X105752379Y-103369819D02*
X105561903Y-103369819D01*
X105561903Y-103369819D02*
X105466665Y-103322200D01*
X105466665Y-103322200D02*
X105419046Y-103274580D01*
X105419046Y-103274580D02*
X105371427Y-103179342D01*
X105371427Y-103179342D02*
X105371427Y-102893628D01*
X105371427Y-102893628D02*
X105419046Y-102798390D01*
X105419046Y-102798390D02*
X105466665Y-102750771D01*
X105466665Y-102750771D02*
X105561903Y-102703152D01*
X105561903Y-102703152D02*
X105752379Y-102703152D01*
X105752379Y-102703152D02*
X105847617Y-102750771D01*
X106276189Y-103369819D02*
X106276189Y-102369819D01*
X106704760Y-103369819D02*
X106704760Y-102846009D01*
X106704760Y-102846009D02*
X106657141Y-102750771D01*
X106657141Y-102750771D02*
X106561903Y-102703152D01*
X106561903Y-102703152D02*
X106419046Y-102703152D01*
X106419046Y-102703152D02*
X106323808Y-102750771D01*
X106323808Y-102750771D02*
X106276189Y-102798390D01*
X107180951Y-103369819D02*
X107180951Y-102369819D01*
X107180951Y-102750771D02*
X107276189Y-102703152D01*
X107276189Y-102703152D02*
X107466665Y-102703152D01*
X107466665Y-102703152D02*
X107561903Y-102750771D01*
X107561903Y-102750771D02*
X107609522Y-102798390D01*
X107609522Y-102798390D02*
X107657141Y-102893628D01*
X107657141Y-102893628D02*
X107657141Y-103179342D01*
X107657141Y-103179342D02*
X107609522Y-103274580D01*
X107609522Y-103274580D02*
X107561903Y-103322200D01*
X107561903Y-103322200D02*
X107466665Y-103369819D01*
X107466665Y-103369819D02*
X107276189Y-103369819D01*
X107276189Y-103369819D02*
X107180951Y-103322200D01*
X108228570Y-103369819D02*
X108133332Y-103322200D01*
X108133332Y-103322200D02*
X108085713Y-103274580D01*
X108085713Y-103274580D02*
X108038094Y-103179342D01*
X108038094Y-103179342D02*
X108038094Y-102893628D01*
X108038094Y-102893628D02*
X108085713Y-102798390D01*
X108085713Y-102798390D02*
X108133332Y-102750771D01*
X108133332Y-102750771D02*
X108228570Y-102703152D01*
X108228570Y-102703152D02*
X108371427Y-102703152D01*
X108371427Y-102703152D02*
X108466665Y-102750771D01*
X108466665Y-102750771D02*
X108514284Y-102798390D01*
X108514284Y-102798390D02*
X108561903Y-102893628D01*
X108561903Y-102893628D02*
X108561903Y-103179342D01*
X108561903Y-103179342D02*
X108514284Y-103274580D01*
X108514284Y-103274580D02*
X108466665Y-103322200D01*
X108466665Y-103322200D02*
X108371427Y-103369819D01*
X108371427Y-103369819D02*
X108228570Y-103369819D01*
X108895237Y-103369819D02*
X109419046Y-102703152D01*
X108895237Y-102703152D02*
X109419046Y-103369819D01*
X110466666Y-102703152D02*
X110704761Y-103369819D01*
X110704761Y-103369819D02*
X110942856Y-102703152D01*
X111514285Y-102369819D02*
X111609523Y-102369819D01*
X111609523Y-102369819D02*
X111704761Y-102417438D01*
X111704761Y-102417438D02*
X111752380Y-102465057D01*
X111752380Y-102465057D02*
X111799999Y-102560295D01*
X111799999Y-102560295D02*
X111847618Y-102750771D01*
X111847618Y-102750771D02*
X111847618Y-102988866D01*
X111847618Y-102988866D02*
X111799999Y-103179342D01*
X111799999Y-103179342D02*
X111752380Y-103274580D01*
X111752380Y-103274580D02*
X111704761Y-103322200D01*
X111704761Y-103322200D02*
X111609523Y-103369819D01*
X111609523Y-103369819D02*
X111514285Y-103369819D01*
X111514285Y-103369819D02*
X111419047Y-103322200D01*
X111419047Y-103322200D02*
X111371428Y-103274580D01*
X111371428Y-103274580D02*
X111323809Y-103179342D01*
X111323809Y-103179342D02*
X111276190Y-102988866D01*
X111276190Y-102988866D02*
X111276190Y-102750771D01*
X111276190Y-102750771D02*
X111323809Y-102560295D01*
X111323809Y-102560295D02*
X111371428Y-102465057D01*
X111371428Y-102465057D02*
X111419047Y-102417438D01*
X111419047Y-102417438D02*
X111514285Y-102369819D01*
X112276190Y-103274580D02*
X112323809Y-103322200D01*
X112323809Y-103322200D02*
X112276190Y-103369819D01*
X112276190Y-103369819D02*
X112228571Y-103322200D01*
X112228571Y-103322200D02*
X112276190Y-103274580D01*
X112276190Y-103274580D02*
X112276190Y-103369819D01*
X112657142Y-102369819D02*
X113276189Y-102369819D01*
X113276189Y-102369819D02*
X112942856Y-102750771D01*
X112942856Y-102750771D02*
X113085713Y-102750771D01*
X113085713Y-102750771D02*
X113180951Y-102798390D01*
X113180951Y-102798390D02*
X113228570Y-102846009D01*
X113228570Y-102846009D02*
X113276189Y-102941247D01*
X113276189Y-102941247D02*
X113276189Y-103179342D01*
X113276189Y-103179342D02*
X113228570Y-103274580D01*
X113228570Y-103274580D02*
X113180951Y-103322200D01*
X113180951Y-103322200D02*
X113085713Y-103369819D01*
X113085713Y-103369819D02*
X112799999Y-103369819D01*
X112799999Y-103369819D02*
X112704761Y-103322200D01*
X112704761Y-103322200D02*
X112657142Y-103274580D01*
X113704761Y-103274580D02*
X113752380Y-103322200D01*
X113752380Y-103322200D02*
X113704761Y-103369819D01*
X113704761Y-103369819D02*
X113657142Y-103322200D01*
X113657142Y-103322200D02*
X113704761Y-103274580D01*
X113704761Y-103274580D02*
X113704761Y-103369819D01*
X114704760Y-103369819D02*
X114133332Y-103369819D01*
X114419046Y-103369819D02*
X114419046Y-102369819D01*
X114419046Y-102369819D02*
X114323808Y-102512676D01*
X114323808Y-102512676D02*
X114228570Y-102607914D01*
X114228570Y-102607914D02*
X114133332Y-102655533D01*
X115895237Y-103369819D02*
X115895237Y-102369819D01*
X115895237Y-102750771D02*
X115990475Y-102703152D01*
X115990475Y-102703152D02*
X116180951Y-102703152D01*
X116180951Y-102703152D02*
X116276189Y-102750771D01*
X116276189Y-102750771D02*
X116323808Y-102798390D01*
X116323808Y-102798390D02*
X116371427Y-102893628D01*
X116371427Y-102893628D02*
X116371427Y-103179342D01*
X116371427Y-103179342D02*
X116323808Y-103274580D01*
X116323808Y-103274580D02*
X116276189Y-103322200D01*
X116276189Y-103322200D02*
X116180951Y-103369819D01*
X116180951Y-103369819D02*
X115990475Y-103369819D01*
X115990475Y-103369819D02*
X115895237Y-103322200D01*
X116704761Y-102703152D02*
X116942856Y-103369819D01*
X117180951Y-102703152D02*
X116942856Y-103369819D01*
X116942856Y-103369819D02*
X116847618Y-103607914D01*
X116847618Y-103607914D02*
X116799999Y-103655533D01*
X116799999Y-103655533D02*
X116704761Y-103703152D01*
X118657142Y-102846009D02*
X118323809Y-102846009D01*
X118323809Y-103369819D02*
X118323809Y-102369819D01*
X118323809Y-102369819D02*
X118799999Y-102369819D01*
X119180952Y-103369819D02*
X119180952Y-102703152D01*
X119180952Y-102369819D02*
X119133333Y-102417438D01*
X119133333Y-102417438D02*
X119180952Y-102465057D01*
X119180952Y-102465057D02*
X119228571Y-102417438D01*
X119228571Y-102417438D02*
X119180952Y-102369819D01*
X119180952Y-102369819D02*
X119180952Y-102465057D01*
X119657142Y-103369819D02*
X119657142Y-102703152D01*
X119657142Y-102893628D02*
X119704761Y-102798390D01*
X119704761Y-102798390D02*
X119752380Y-102750771D01*
X119752380Y-102750771D02*
X119847618Y-102703152D01*
X119847618Y-102703152D02*
X119942856Y-102703152D01*
X120657142Y-103322200D02*
X120561904Y-103369819D01*
X120561904Y-103369819D02*
X120371428Y-103369819D01*
X120371428Y-103369819D02*
X120276190Y-103322200D01*
X120276190Y-103322200D02*
X120228571Y-103226961D01*
X120228571Y-103226961D02*
X120228571Y-102846009D01*
X120228571Y-102846009D02*
X120276190Y-102750771D01*
X120276190Y-102750771D02*
X120371428Y-102703152D01*
X120371428Y-102703152D02*
X120561904Y-102703152D01*
X120561904Y-102703152D02*
X120657142Y-102750771D01*
X120657142Y-102750771D02*
X120704761Y-102846009D01*
X120704761Y-102846009D02*
X120704761Y-102941247D01*
X120704761Y-102941247D02*
X120228571Y-103036485D01*
X121038095Y-102369819D02*
X121276190Y-103369819D01*
X121276190Y-103369819D02*
X121466666Y-102655533D01*
X121466666Y-102655533D02*
X121657142Y-103369819D01*
X121657142Y-103369819D02*
X121895238Y-102369819D01*
X122419047Y-103369819D02*
X122323809Y-103322200D01*
X122323809Y-103322200D02*
X122276190Y-103274580D01*
X122276190Y-103274580D02*
X122228571Y-103179342D01*
X122228571Y-103179342D02*
X122228571Y-102893628D01*
X122228571Y-102893628D02*
X122276190Y-102798390D01*
X122276190Y-102798390D02*
X122323809Y-102750771D01*
X122323809Y-102750771D02*
X122419047Y-102703152D01*
X122419047Y-102703152D02*
X122561904Y-102703152D01*
X122561904Y-102703152D02*
X122657142Y-102750771D01*
X122657142Y-102750771D02*
X122704761Y-102798390D01*
X122704761Y-102798390D02*
X122752380Y-102893628D01*
X122752380Y-102893628D02*
X122752380Y-103179342D01*
X122752380Y-103179342D02*
X122704761Y-103274580D01*
X122704761Y-103274580D02*
X122657142Y-103322200D01*
X122657142Y-103322200D02*
X122561904Y-103369819D01*
X122561904Y-103369819D02*
X122419047Y-103369819D01*
X123180952Y-103369819D02*
X123180952Y-102703152D01*
X123180952Y-102893628D02*
X123228571Y-102798390D01*
X123228571Y-102798390D02*
X123276190Y-102750771D01*
X123276190Y-102750771D02*
X123371428Y-102703152D01*
X123371428Y-102703152D02*
X123466666Y-102703152D01*
X123800000Y-103369819D02*
X123800000Y-102369819D01*
X123895238Y-102988866D02*
X124180952Y-103369819D01*
X124180952Y-102703152D02*
X123800000Y-103084104D01*
X124561905Y-103322200D02*
X124657143Y-103369819D01*
X124657143Y-103369819D02*
X124847619Y-103369819D01*
X124847619Y-103369819D02*
X124942857Y-103322200D01*
X124942857Y-103322200D02*
X124990476Y-103226961D01*
X124990476Y-103226961D02*
X124990476Y-103179342D01*
X124990476Y-103179342D02*
X124942857Y-103084104D01*
X124942857Y-103084104D02*
X124847619Y-103036485D01*
X124847619Y-103036485D02*
X124704762Y-103036485D01*
X124704762Y-103036485D02*
X124609524Y-102988866D01*
X124609524Y-102988866D02*
X124561905Y-102893628D01*
X124561905Y-102893628D02*
X124561905Y-102846009D01*
X124561905Y-102846009D02*
X124609524Y-102750771D01*
X124609524Y-102750771D02*
X124704762Y-102703152D01*
X124704762Y-102703152D02*
X124847619Y-102703152D01*
X124847619Y-102703152D02*
X124942857Y-102750771D01*
X126133334Y-103322200D02*
X126276191Y-103369819D01*
X126276191Y-103369819D02*
X126514286Y-103369819D01*
X126514286Y-103369819D02*
X126609524Y-103322200D01*
X126609524Y-103322200D02*
X126657143Y-103274580D01*
X126657143Y-103274580D02*
X126704762Y-103179342D01*
X126704762Y-103179342D02*
X126704762Y-103084104D01*
X126704762Y-103084104D02*
X126657143Y-102988866D01*
X126657143Y-102988866D02*
X126609524Y-102941247D01*
X126609524Y-102941247D02*
X126514286Y-102893628D01*
X126514286Y-102893628D02*
X126323810Y-102846009D01*
X126323810Y-102846009D02*
X126228572Y-102798390D01*
X126228572Y-102798390D02*
X126180953Y-102750771D01*
X126180953Y-102750771D02*
X126133334Y-102655533D01*
X126133334Y-102655533D02*
X126133334Y-102560295D01*
X126133334Y-102560295D02*
X126180953Y-102465057D01*
X126180953Y-102465057D02*
X126228572Y-102417438D01*
X126228572Y-102417438D02*
X126323810Y-102369819D01*
X126323810Y-102369819D02*
X126561905Y-102369819D01*
X126561905Y-102369819D02*
X126704762Y-102417438D01*
X126990477Y-102703152D02*
X127371429Y-102703152D01*
X127133334Y-102369819D02*
X127133334Y-103226961D01*
X127133334Y-103226961D02*
X127180953Y-103322200D01*
X127180953Y-103322200D02*
X127276191Y-103369819D01*
X127276191Y-103369819D02*
X127371429Y-103369819D01*
X128133334Y-102703152D02*
X128133334Y-103369819D01*
X127704763Y-102703152D02*
X127704763Y-103226961D01*
X127704763Y-103226961D02*
X127752382Y-103322200D01*
X127752382Y-103322200D02*
X127847620Y-103369819D01*
X127847620Y-103369819D02*
X127990477Y-103369819D01*
X127990477Y-103369819D02*
X128085715Y-103322200D01*
X128085715Y-103322200D02*
X128133334Y-103274580D01*
X129038096Y-103369819D02*
X129038096Y-102369819D01*
X129038096Y-103322200D02*
X128942858Y-103369819D01*
X128942858Y-103369819D02*
X128752382Y-103369819D01*
X128752382Y-103369819D02*
X128657144Y-103322200D01*
X128657144Y-103322200D02*
X128609525Y-103274580D01*
X128609525Y-103274580D02*
X128561906Y-103179342D01*
X128561906Y-103179342D02*
X128561906Y-102893628D01*
X128561906Y-102893628D02*
X128609525Y-102798390D01*
X128609525Y-102798390D02*
X128657144Y-102750771D01*
X128657144Y-102750771D02*
X128752382Y-102703152D01*
X128752382Y-102703152D02*
X128942858Y-102703152D01*
X128942858Y-102703152D02*
X129038096Y-102750771D01*
X129514287Y-103369819D02*
X129514287Y-102703152D01*
X129514287Y-102369819D02*
X129466668Y-102417438D01*
X129466668Y-102417438D02*
X129514287Y-102465057D01*
X129514287Y-102465057D02*
X129561906Y-102417438D01*
X129561906Y-102417438D02*
X129514287Y-102369819D01*
X129514287Y-102369819D02*
X129514287Y-102465057D01*
X130133334Y-103369819D02*
X130038096Y-103322200D01*
X130038096Y-103322200D02*
X129990477Y-103274580D01*
X129990477Y-103274580D02*
X129942858Y-103179342D01*
X129942858Y-103179342D02*
X129942858Y-102893628D01*
X129942858Y-102893628D02*
X129990477Y-102798390D01*
X129990477Y-102798390D02*
X130038096Y-102750771D01*
X130038096Y-102750771D02*
X130133334Y-102703152D01*
X130133334Y-102703152D02*
X130276191Y-102703152D01*
X130276191Y-102703152D02*
X130371429Y-102750771D01*
X130371429Y-102750771D02*
X130419048Y-102798390D01*
X130419048Y-102798390D02*
X130466667Y-102893628D01*
X130466667Y-102893628D02*
X130466667Y-103179342D01*
X130466667Y-103179342D02*
X130419048Y-103274580D01*
X130419048Y-103274580D02*
X130371429Y-103322200D01*
X130371429Y-103322200D02*
X130276191Y-103369819D01*
X130276191Y-103369819D02*
X130133334Y-103369819D01*
X130847620Y-103322200D02*
X130942858Y-103369819D01*
X130942858Y-103369819D02*
X131133334Y-103369819D01*
X131133334Y-103369819D02*
X131228572Y-103322200D01*
X131228572Y-103322200D02*
X131276191Y-103226961D01*
X131276191Y-103226961D02*
X131276191Y-103179342D01*
X131276191Y-103179342D02*
X131228572Y-103084104D01*
X131228572Y-103084104D02*
X131133334Y-103036485D01*
X131133334Y-103036485D02*
X130990477Y-103036485D01*
X130990477Y-103036485D02*
X130895239Y-102988866D01*
X130895239Y-102988866D02*
X130847620Y-102893628D01*
X130847620Y-102893628D02*
X130847620Y-102846009D01*
X130847620Y-102846009D02*
X130895239Y-102750771D01*
X130895239Y-102750771D02*
X130990477Y-102703152D01*
X130990477Y-102703152D02*
X131133334Y-102703152D01*
X131133334Y-102703152D02*
X131228572Y-102750771D01*
X132419049Y-102465057D02*
X132466668Y-102417438D01*
X132466668Y-102417438D02*
X132561906Y-102369819D01*
X132561906Y-102369819D02*
X132800001Y-102369819D01*
X132800001Y-102369819D02*
X132895239Y-102417438D01*
X132895239Y-102417438D02*
X132942858Y-102465057D01*
X132942858Y-102465057D02*
X132990477Y-102560295D01*
X132990477Y-102560295D02*
X132990477Y-102655533D01*
X132990477Y-102655533D02*
X132942858Y-102798390D01*
X132942858Y-102798390D02*
X132371430Y-103369819D01*
X132371430Y-103369819D02*
X132990477Y-103369819D01*
X133609525Y-102369819D02*
X133704763Y-102369819D01*
X133704763Y-102369819D02*
X133800001Y-102417438D01*
X133800001Y-102417438D02*
X133847620Y-102465057D01*
X133847620Y-102465057D02*
X133895239Y-102560295D01*
X133895239Y-102560295D02*
X133942858Y-102750771D01*
X133942858Y-102750771D02*
X133942858Y-102988866D01*
X133942858Y-102988866D02*
X133895239Y-103179342D01*
X133895239Y-103179342D02*
X133847620Y-103274580D01*
X133847620Y-103274580D02*
X133800001Y-103322200D01*
X133800001Y-103322200D02*
X133704763Y-103369819D01*
X133704763Y-103369819D02*
X133609525Y-103369819D01*
X133609525Y-103369819D02*
X133514287Y-103322200D01*
X133514287Y-103322200D02*
X133466668Y-103274580D01*
X133466668Y-103274580D02*
X133419049Y-103179342D01*
X133419049Y-103179342D02*
X133371430Y-102988866D01*
X133371430Y-102988866D02*
X133371430Y-102750771D01*
X133371430Y-102750771D02*
X133419049Y-102560295D01*
X133419049Y-102560295D02*
X133466668Y-102465057D01*
X133466668Y-102465057D02*
X133514287Y-102417438D01*
X133514287Y-102417438D02*
X133609525Y-102369819D01*
X134323811Y-102465057D02*
X134371430Y-102417438D01*
X134371430Y-102417438D02*
X134466668Y-102369819D01*
X134466668Y-102369819D02*
X134704763Y-102369819D01*
X134704763Y-102369819D02*
X134800001Y-102417438D01*
X134800001Y-102417438D02*
X134847620Y-102465057D01*
X134847620Y-102465057D02*
X134895239Y-102560295D01*
X134895239Y-102560295D02*
X134895239Y-102655533D01*
X134895239Y-102655533D02*
X134847620Y-102798390D01*
X134847620Y-102798390D02*
X134276192Y-103369819D01*
X134276192Y-103369819D02*
X134895239Y-103369819D01*
X135752382Y-102703152D02*
X135752382Y-103369819D01*
X135514287Y-102322200D02*
X135276192Y-103036485D01*
X135276192Y-103036485D02*
X135895239Y-103036485D01*
D10*
X89743646Y-59492475D02*
X90362693Y-59492475D01*
X90362693Y-59492475D02*
X90029360Y-59873427D01*
X90029360Y-59873427D02*
X90172217Y-59873427D01*
X90172217Y-59873427D02*
X90267455Y-59921046D01*
X90267455Y-59921046D02*
X90315074Y-59968665D01*
X90315074Y-59968665D02*
X90362693Y-60063903D01*
X90362693Y-60063903D02*
X90362693Y-60301998D01*
X90362693Y-60301998D02*
X90315074Y-60397236D01*
X90315074Y-60397236D02*
X90267455Y-60444856D01*
X90267455Y-60444856D02*
X90172217Y-60492475D01*
X90172217Y-60492475D02*
X89886503Y-60492475D01*
X89886503Y-60492475D02*
X89791265Y-60444856D01*
X89791265Y-60444856D02*
X89743646Y-60397236D01*
X89838884Y-62102419D02*
X89838884Y-61102419D01*
X89838884Y-61102419D02*
X90219836Y-61102419D01*
X90219836Y-61102419D02*
X90315074Y-61150038D01*
X90315074Y-61150038D02*
X90362693Y-61197657D01*
X90362693Y-61197657D02*
X90410312Y-61292895D01*
X90410312Y-61292895D02*
X90410312Y-61435752D01*
X90410312Y-61435752D02*
X90362693Y-61530990D01*
X90362693Y-61530990D02*
X90315074Y-61578609D01*
X90315074Y-61578609D02*
X90219836Y-61626228D01*
X90219836Y-61626228D02*
X89838884Y-61626228D01*
X97887455Y-111562475D02*
X97696979Y-111562475D01*
X97696979Y-111562475D02*
X97601741Y-111610094D01*
X97601741Y-111610094D02*
X97554122Y-111657713D01*
X97554122Y-111657713D02*
X97458884Y-111800570D01*
X97458884Y-111800570D02*
X97411265Y-111991046D01*
X97411265Y-111991046D02*
X97411265Y-112371998D01*
X97411265Y-112371998D02*
X97458884Y-112467236D01*
X97458884Y-112467236D02*
X97506503Y-112514856D01*
X97506503Y-112514856D02*
X97601741Y-112562475D01*
X97601741Y-112562475D02*
X97792217Y-112562475D01*
X97792217Y-112562475D02*
X97887455Y-112514856D01*
X97887455Y-112514856D02*
X97935074Y-112467236D01*
X97935074Y-112467236D02*
X97982693Y-112371998D01*
X97982693Y-112371998D02*
X97982693Y-112133903D01*
X97982693Y-112133903D02*
X97935074Y-112038665D01*
X97935074Y-112038665D02*
X97887455Y-111991046D01*
X97887455Y-111991046D02*
X97792217Y-111943427D01*
X97792217Y-111943427D02*
X97601741Y-111943427D01*
X97601741Y-111943427D02*
X97506503Y-111991046D01*
X97506503Y-111991046D02*
X97458884Y-112038665D01*
X97458884Y-112038665D02*
X97411265Y-112133903D01*
X97458884Y-114172419D02*
X97458884Y-113172419D01*
X97458884Y-113172419D02*
X97792217Y-113886704D01*
X97792217Y-113886704D02*
X98125550Y-113172419D01*
X98125550Y-113172419D02*
X98125550Y-114172419D01*
X143178884Y-60492475D02*
X143178884Y-59492475D01*
X143178884Y-59492475D02*
X143750312Y-60492475D01*
X143750312Y-60492475D02*
X143750312Y-59492475D01*
X143655074Y-61102419D02*
X143178884Y-61102419D01*
X143178884Y-61102419D02*
X143131265Y-61578609D01*
X143131265Y-61578609D02*
X143178884Y-61530990D01*
X143178884Y-61530990D02*
X143274122Y-61483371D01*
X143274122Y-61483371D02*
X143512217Y-61483371D01*
X143512217Y-61483371D02*
X143607455Y-61530990D01*
X143607455Y-61530990D02*
X143655074Y-61578609D01*
X143655074Y-61578609D02*
X143702693Y-61673847D01*
X143702693Y-61673847D02*
X143702693Y-61911942D01*
X143702693Y-61911942D02*
X143655074Y-62007180D01*
X143655074Y-62007180D02*
X143607455Y-62054800D01*
X143607455Y-62054800D02*
X143512217Y-62102419D01*
X143512217Y-62102419D02*
X143274122Y-62102419D01*
X143274122Y-62102419D02*
X143178884Y-62054800D01*
X143178884Y-62054800D02*
X143131265Y-62007180D01*
X123192217Y-59968665D02*
X122858884Y-59968665D01*
X122858884Y-60492475D02*
X122858884Y-59492475D01*
X122858884Y-59492475D02*
X123335074Y-59492475D01*
X122858884Y-61578609D02*
X123192217Y-61578609D01*
X123335074Y-62102419D02*
X122858884Y-62102419D01*
X122858884Y-62102419D02*
X122858884Y-61102419D01*
X122858884Y-61102419D02*
X123335074Y-61102419D01*
X102681741Y-111991046D02*
X102586503Y-111943427D01*
X102586503Y-111943427D02*
X102538884Y-111895808D01*
X102538884Y-111895808D02*
X102491265Y-111800570D01*
X102491265Y-111800570D02*
X102491265Y-111752951D01*
X102491265Y-111752951D02*
X102538884Y-111657713D01*
X102538884Y-111657713D02*
X102586503Y-111610094D01*
X102586503Y-111610094D02*
X102681741Y-111562475D01*
X102681741Y-111562475D02*
X102872217Y-111562475D01*
X102872217Y-111562475D02*
X102967455Y-111610094D01*
X102967455Y-111610094D02*
X103015074Y-111657713D01*
X103015074Y-111657713D02*
X103062693Y-111752951D01*
X103062693Y-111752951D02*
X103062693Y-111800570D01*
X103062693Y-111800570D02*
X103015074Y-111895808D01*
X103015074Y-111895808D02*
X102967455Y-111943427D01*
X102967455Y-111943427D02*
X102872217Y-111991046D01*
X102872217Y-111991046D02*
X102681741Y-111991046D01*
X102681741Y-111991046D02*
X102586503Y-112038665D01*
X102586503Y-112038665D02*
X102538884Y-112086284D01*
X102538884Y-112086284D02*
X102491265Y-112181522D01*
X102491265Y-112181522D02*
X102491265Y-112371998D01*
X102491265Y-112371998D02*
X102538884Y-112467236D01*
X102538884Y-112467236D02*
X102586503Y-112514856D01*
X102586503Y-112514856D02*
X102681741Y-112562475D01*
X102681741Y-112562475D02*
X102872217Y-112562475D01*
X102872217Y-112562475D02*
X102967455Y-112514856D01*
X102967455Y-112514856D02*
X103015074Y-112467236D01*
X103015074Y-112467236D02*
X103062693Y-112371998D01*
X103062693Y-112371998D02*
X103062693Y-112181522D01*
X103062693Y-112181522D02*
X103015074Y-112086284D01*
X103015074Y-112086284D02*
X102967455Y-112038665D01*
X102967455Y-112038665D02*
X102872217Y-111991046D01*
X102538884Y-114172419D02*
X102538884Y-113172419D01*
X103110312Y-114172419D02*
X102681741Y-113600990D01*
X103110312Y-113172419D02*
X102538884Y-113743847D01*
X133304598Y-111562475D02*
X133304598Y-112276760D01*
X133304598Y-112276760D02*
X133256979Y-112419617D01*
X133256979Y-112419617D02*
X133161741Y-112514856D01*
X133161741Y-112514856D02*
X133018884Y-112562475D01*
X133018884Y-112562475D02*
X132923646Y-112562475D01*
X132971265Y-113886704D02*
X133447455Y-113886704D01*
X132876027Y-114172419D02*
X133209360Y-113172419D01*
X133209360Y-113172419D02*
X133542693Y-114172419D01*
X125922693Y-59540094D02*
X125827455Y-59492475D01*
X125827455Y-59492475D02*
X125684598Y-59492475D01*
X125684598Y-59492475D02*
X125541741Y-59540094D01*
X125541741Y-59540094D02*
X125446503Y-59635332D01*
X125446503Y-59635332D02*
X125398884Y-59730570D01*
X125398884Y-59730570D02*
X125351265Y-59921046D01*
X125351265Y-59921046D02*
X125351265Y-60063903D01*
X125351265Y-60063903D02*
X125398884Y-60254379D01*
X125398884Y-60254379D02*
X125446503Y-60349617D01*
X125446503Y-60349617D02*
X125541741Y-60444856D01*
X125541741Y-60444856D02*
X125684598Y-60492475D01*
X125684598Y-60492475D02*
X125779836Y-60492475D01*
X125779836Y-60492475D02*
X125922693Y-60444856D01*
X125922693Y-60444856D02*
X125970312Y-60397236D01*
X125970312Y-60397236D02*
X125970312Y-60063903D01*
X125970312Y-60063903D02*
X125779836Y-60063903D01*
X125398884Y-62102419D02*
X125398884Y-61102419D01*
X125398884Y-61102419D02*
X125636979Y-61102419D01*
X125636979Y-61102419D02*
X125779836Y-61150038D01*
X125779836Y-61150038D02*
X125875074Y-61245276D01*
X125875074Y-61245276D02*
X125922693Y-61340514D01*
X125922693Y-61340514D02*
X125970312Y-61530990D01*
X125970312Y-61530990D02*
X125970312Y-61673847D01*
X125970312Y-61673847D02*
X125922693Y-61864323D01*
X125922693Y-61864323D02*
X125875074Y-61959561D01*
X125875074Y-61959561D02*
X125779836Y-62054800D01*
X125779836Y-62054800D02*
X125636979Y-62102419D01*
X125636979Y-62102419D02*
X125398884Y-62102419D01*
X95395074Y-59492475D02*
X94918884Y-59492475D01*
X94918884Y-59492475D02*
X94871265Y-59968665D01*
X94871265Y-59968665D02*
X94918884Y-59921046D01*
X94918884Y-59921046D02*
X95014122Y-59873427D01*
X95014122Y-59873427D02*
X95252217Y-59873427D01*
X95252217Y-59873427D02*
X95347455Y-59921046D01*
X95347455Y-59921046D02*
X95395074Y-59968665D01*
X95395074Y-59968665D02*
X95442693Y-60063903D01*
X95442693Y-60063903D02*
X95442693Y-60301998D01*
X95442693Y-60301998D02*
X95395074Y-60397236D01*
X95395074Y-60397236D02*
X95347455Y-60444856D01*
X95347455Y-60444856D02*
X95252217Y-60492475D01*
X95252217Y-60492475D02*
X95014122Y-60492475D01*
X95014122Y-60492475D02*
X94918884Y-60444856D01*
X94918884Y-60444856D02*
X94871265Y-60397236D01*
X94918884Y-62102419D02*
X94918884Y-61102419D01*
X94918884Y-61102419D02*
X95490312Y-62102419D01*
X95490312Y-62102419D02*
X95490312Y-61102419D01*
X153910312Y-60492475D02*
X153576979Y-60016284D01*
X153338884Y-60492475D02*
X153338884Y-59492475D01*
X153338884Y-59492475D02*
X153719836Y-59492475D01*
X153719836Y-59492475D02*
X153815074Y-59540094D01*
X153815074Y-59540094D02*
X153862693Y-59587713D01*
X153862693Y-59587713D02*
X153910312Y-59682951D01*
X153910312Y-59682951D02*
X153910312Y-59825808D01*
X153910312Y-59825808D02*
X153862693Y-59921046D01*
X153862693Y-59921046D02*
X153815074Y-59968665D01*
X153815074Y-59968665D02*
X153719836Y-60016284D01*
X153719836Y-60016284D02*
X153338884Y-60016284D01*
X153862693Y-62102419D02*
X153291265Y-62102419D01*
X153576979Y-62102419D02*
X153576979Y-61102419D01*
X153576979Y-61102419D02*
X153481741Y-61245276D01*
X153481741Y-61245276D02*
X153386503Y-61340514D01*
X153386503Y-61340514D02*
X153291265Y-61388133D01*
X151465550Y-112657713D02*
X151370312Y-112610094D01*
X151370312Y-112610094D02*
X151275074Y-112514856D01*
X151275074Y-112514856D02*
X151132217Y-112371998D01*
X151132217Y-112371998D02*
X151036979Y-112324379D01*
X151036979Y-112324379D02*
X150941741Y-112324379D01*
X150989360Y-112562475D02*
X150894122Y-112514856D01*
X150894122Y-112514856D02*
X150798884Y-112419617D01*
X150798884Y-112419617D02*
X150751265Y-112229141D01*
X150751265Y-112229141D02*
X150751265Y-111895808D01*
X150751265Y-111895808D02*
X150798884Y-111705332D01*
X150798884Y-111705332D02*
X150894122Y-111610094D01*
X150894122Y-111610094D02*
X150989360Y-111562475D01*
X150989360Y-111562475D02*
X151179836Y-111562475D01*
X151179836Y-111562475D02*
X151275074Y-111610094D01*
X151275074Y-111610094D02*
X151370312Y-111705332D01*
X151370312Y-111705332D02*
X151417931Y-111895808D01*
X151417931Y-111895808D02*
X151417931Y-112229141D01*
X151417931Y-112229141D02*
X151370312Y-112419617D01*
X151370312Y-112419617D02*
X151275074Y-112514856D01*
X151275074Y-112514856D02*
X151179836Y-112562475D01*
X151179836Y-112562475D02*
X150989360Y-112562475D01*
X150751265Y-113267657D02*
X150798884Y-113220038D01*
X150798884Y-113220038D02*
X150894122Y-113172419D01*
X150894122Y-113172419D02*
X151132217Y-113172419D01*
X151132217Y-113172419D02*
X151227455Y-113220038D01*
X151227455Y-113220038D02*
X151275074Y-113267657D01*
X151275074Y-113267657D02*
X151322693Y-113362895D01*
X151322693Y-113362895D02*
X151322693Y-113458133D01*
X151322693Y-113458133D02*
X151275074Y-113600990D01*
X151275074Y-113600990D02*
X150703646Y-114172419D01*
X150703646Y-114172419D02*
X151322693Y-114172419D01*
X135558884Y-112562475D02*
X135558884Y-111562475D01*
X136130312Y-112562475D02*
X135701741Y-111991046D01*
X136130312Y-111562475D02*
X135558884Y-112133903D01*
X135701741Y-113600990D02*
X135606503Y-113553371D01*
X135606503Y-113553371D02*
X135558884Y-113505752D01*
X135558884Y-113505752D02*
X135511265Y-113410514D01*
X135511265Y-113410514D02*
X135511265Y-113362895D01*
X135511265Y-113362895D02*
X135558884Y-113267657D01*
X135558884Y-113267657D02*
X135606503Y-113220038D01*
X135606503Y-113220038D02*
X135701741Y-113172419D01*
X135701741Y-113172419D02*
X135892217Y-113172419D01*
X135892217Y-113172419D02*
X135987455Y-113220038D01*
X135987455Y-113220038D02*
X136035074Y-113267657D01*
X136035074Y-113267657D02*
X136082693Y-113362895D01*
X136082693Y-113362895D02*
X136082693Y-113410514D01*
X136082693Y-113410514D02*
X136035074Y-113505752D01*
X136035074Y-113505752D02*
X135987455Y-113553371D01*
X135987455Y-113553371D02*
X135892217Y-113600990D01*
X135892217Y-113600990D02*
X135701741Y-113600990D01*
X135701741Y-113600990D02*
X135606503Y-113648609D01*
X135606503Y-113648609D02*
X135558884Y-113696228D01*
X135558884Y-113696228D02*
X135511265Y-113791466D01*
X135511265Y-113791466D02*
X135511265Y-113981942D01*
X135511265Y-113981942D02*
X135558884Y-114077180D01*
X135558884Y-114077180D02*
X135606503Y-114124800D01*
X135606503Y-114124800D02*
X135701741Y-114172419D01*
X135701741Y-114172419D02*
X135892217Y-114172419D01*
X135892217Y-114172419D02*
X135987455Y-114124800D01*
X135987455Y-114124800D02*
X136035074Y-114077180D01*
X136035074Y-114077180D02*
X136082693Y-113981942D01*
X136082693Y-113981942D02*
X136082693Y-113791466D01*
X136082693Y-113791466D02*
X136035074Y-113696228D01*
X136035074Y-113696228D02*
X135987455Y-113648609D01*
X135987455Y-113648609D02*
X135892217Y-113600990D01*
X115238884Y-59968665D02*
X115572217Y-59968665D01*
X115715074Y-60492475D02*
X115238884Y-60492475D01*
X115238884Y-60492475D02*
X115238884Y-59492475D01*
X115238884Y-59492475D02*
X115715074Y-59492475D01*
X115572217Y-61578609D02*
X115238884Y-61578609D01*
X115238884Y-62102419D02*
X115238884Y-61102419D01*
X115238884Y-61102419D02*
X115715074Y-61102419D01*
X89743646Y-111562475D02*
X90362693Y-111562475D01*
X90362693Y-111562475D02*
X90029360Y-111943427D01*
X90029360Y-111943427D02*
X90172217Y-111943427D01*
X90172217Y-111943427D02*
X90267455Y-111991046D01*
X90267455Y-111991046D02*
X90315074Y-112038665D01*
X90315074Y-112038665D02*
X90362693Y-112133903D01*
X90362693Y-112133903D02*
X90362693Y-112371998D01*
X90362693Y-112371998D02*
X90315074Y-112467236D01*
X90315074Y-112467236D02*
X90267455Y-112514856D01*
X90267455Y-112514856D02*
X90172217Y-112562475D01*
X90172217Y-112562475D02*
X89886503Y-112562475D01*
X89886503Y-112562475D02*
X89791265Y-112514856D01*
X89791265Y-112514856D02*
X89743646Y-112467236D01*
X89838884Y-114172419D02*
X89838884Y-113172419D01*
X89838884Y-113172419D02*
X90219836Y-113172419D01*
X90219836Y-113172419D02*
X90315074Y-113220038D01*
X90315074Y-113220038D02*
X90362693Y-113267657D01*
X90362693Y-113267657D02*
X90410312Y-113362895D01*
X90410312Y-113362895D02*
X90410312Y-113505752D01*
X90410312Y-113505752D02*
X90362693Y-113600990D01*
X90362693Y-113600990D02*
X90315074Y-113648609D01*
X90315074Y-113648609D02*
X90219836Y-113696228D01*
X90219836Y-113696228D02*
X89838884Y-113696228D01*
X120271265Y-59587713D02*
X120318884Y-59540094D01*
X120318884Y-59540094D02*
X120414122Y-59492475D01*
X120414122Y-59492475D02*
X120652217Y-59492475D01*
X120652217Y-59492475D02*
X120747455Y-59540094D01*
X120747455Y-59540094D02*
X120795074Y-59587713D01*
X120795074Y-59587713D02*
X120842693Y-59682951D01*
X120842693Y-59682951D02*
X120842693Y-59778189D01*
X120842693Y-59778189D02*
X120795074Y-59921046D01*
X120795074Y-59921046D02*
X120223646Y-60492475D01*
X120223646Y-60492475D02*
X120842693Y-60492475D01*
X120795074Y-61102419D02*
X120318884Y-61102419D01*
X120318884Y-61102419D02*
X120271265Y-61578609D01*
X120271265Y-61578609D02*
X120318884Y-61530990D01*
X120318884Y-61530990D02*
X120414122Y-61483371D01*
X120414122Y-61483371D02*
X120652217Y-61483371D01*
X120652217Y-61483371D02*
X120747455Y-61530990D01*
X120747455Y-61530990D02*
X120795074Y-61578609D01*
X120795074Y-61578609D02*
X120842693Y-61673847D01*
X120842693Y-61673847D02*
X120842693Y-61911942D01*
X120842693Y-61911942D02*
X120795074Y-62007180D01*
X120795074Y-62007180D02*
X120747455Y-62054800D01*
X120747455Y-62054800D02*
X120652217Y-62102419D01*
X120652217Y-62102419D02*
X120414122Y-62102419D01*
X120414122Y-62102419D02*
X120318884Y-62054800D01*
X120318884Y-62054800D02*
X120271265Y-62007180D01*
X107952217Y-59968665D02*
X108095074Y-60016284D01*
X108095074Y-60016284D02*
X108142693Y-60063903D01*
X108142693Y-60063903D02*
X108190312Y-60159141D01*
X108190312Y-60159141D02*
X108190312Y-60301998D01*
X108190312Y-60301998D02*
X108142693Y-60397236D01*
X108142693Y-60397236D02*
X108095074Y-60444856D01*
X108095074Y-60444856D02*
X107999836Y-60492475D01*
X107999836Y-60492475D02*
X107618884Y-60492475D01*
X107618884Y-60492475D02*
X107618884Y-59492475D01*
X107618884Y-59492475D02*
X107952217Y-59492475D01*
X107952217Y-59492475D02*
X108047455Y-59540094D01*
X108047455Y-59540094D02*
X108095074Y-59587713D01*
X108095074Y-59587713D02*
X108142693Y-59682951D01*
X108142693Y-59682951D02*
X108142693Y-59778189D01*
X108142693Y-59778189D02*
X108095074Y-59873427D01*
X108095074Y-59873427D02*
X108047455Y-59921046D01*
X108047455Y-59921046D02*
X107952217Y-59968665D01*
X107952217Y-59968665D02*
X107618884Y-59968665D01*
X107618884Y-62102419D02*
X107618884Y-61102419D01*
X107952217Y-112038665D02*
X108095074Y-112086284D01*
X108095074Y-112086284D02*
X108142693Y-112133903D01*
X108142693Y-112133903D02*
X108190312Y-112229141D01*
X108190312Y-112229141D02*
X108190312Y-112371998D01*
X108190312Y-112371998D02*
X108142693Y-112467236D01*
X108142693Y-112467236D02*
X108095074Y-112514856D01*
X108095074Y-112514856D02*
X107999836Y-112562475D01*
X107999836Y-112562475D02*
X107618884Y-112562475D01*
X107618884Y-112562475D02*
X107618884Y-111562475D01*
X107618884Y-111562475D02*
X107952217Y-111562475D01*
X107952217Y-111562475D02*
X108047455Y-111610094D01*
X108047455Y-111610094D02*
X108095074Y-111657713D01*
X108095074Y-111657713D02*
X108142693Y-111752951D01*
X108142693Y-111752951D02*
X108142693Y-111848189D01*
X108142693Y-111848189D02*
X108095074Y-111943427D01*
X108095074Y-111943427D02*
X108047455Y-111991046D01*
X108047455Y-111991046D02*
X107952217Y-112038665D01*
X107952217Y-112038665D02*
X107618884Y-112038665D01*
X107618884Y-114172419D02*
X107618884Y-113172419D01*
X148258884Y-60492475D02*
X148258884Y-59492475D01*
X148258884Y-59492475D02*
X148639836Y-59492475D01*
X148639836Y-59492475D02*
X148735074Y-59540094D01*
X148735074Y-59540094D02*
X148782693Y-59587713D01*
X148782693Y-59587713D02*
X148830312Y-59682951D01*
X148830312Y-59682951D02*
X148830312Y-59825808D01*
X148830312Y-59825808D02*
X148782693Y-59921046D01*
X148782693Y-59921046D02*
X148735074Y-59968665D01*
X148735074Y-59968665D02*
X148639836Y-60016284D01*
X148639836Y-60016284D02*
X148258884Y-60016284D01*
X148163646Y-61102419D02*
X148782693Y-61102419D01*
X148782693Y-61102419D02*
X148449360Y-61483371D01*
X148449360Y-61483371D02*
X148592217Y-61483371D01*
X148592217Y-61483371D02*
X148687455Y-61530990D01*
X148687455Y-61530990D02*
X148735074Y-61578609D01*
X148735074Y-61578609D02*
X148782693Y-61673847D01*
X148782693Y-61673847D02*
X148782693Y-61911942D01*
X148782693Y-61911942D02*
X148735074Y-62007180D01*
X148735074Y-62007180D02*
X148687455Y-62054800D01*
X148687455Y-62054800D02*
X148592217Y-62102419D01*
X148592217Y-62102419D02*
X148306503Y-62102419D01*
X148306503Y-62102419D02*
X148211265Y-62054800D01*
X148211265Y-62054800D02*
X148163646Y-62007180D01*
X99903646Y-111562475D02*
X100570312Y-111562475D01*
X100570312Y-111562475D02*
X100141741Y-112562475D01*
X100475074Y-114172419D02*
X99998884Y-114172419D01*
X99998884Y-114172419D02*
X99998884Y-113172419D01*
X145909360Y-111562475D02*
X146004598Y-111562475D01*
X146004598Y-111562475D02*
X146099836Y-111610094D01*
X146099836Y-111610094D02*
X146147455Y-111657713D01*
X146147455Y-111657713D02*
X146195074Y-111752951D01*
X146195074Y-111752951D02*
X146242693Y-111943427D01*
X146242693Y-111943427D02*
X146242693Y-112181522D01*
X146242693Y-112181522D02*
X146195074Y-112371998D01*
X146195074Y-112371998D02*
X146147455Y-112467236D01*
X146147455Y-112467236D02*
X146099836Y-112514856D01*
X146099836Y-112514856D02*
X146004598Y-112562475D01*
X146004598Y-112562475D02*
X145909360Y-112562475D01*
X145909360Y-112562475D02*
X145814122Y-112514856D01*
X145814122Y-112514856D02*
X145766503Y-112467236D01*
X145766503Y-112467236D02*
X145718884Y-112371998D01*
X145718884Y-112371998D02*
X145671265Y-112181522D01*
X145671265Y-112181522D02*
X145671265Y-111943427D01*
X145671265Y-111943427D02*
X145718884Y-111752951D01*
X145718884Y-111752951D02*
X145766503Y-111657713D01*
X145766503Y-111657713D02*
X145814122Y-111610094D01*
X145814122Y-111610094D02*
X145909360Y-111562475D01*
X146147455Y-113505752D02*
X146147455Y-114172419D01*
X145909360Y-113124800D02*
X145671265Y-113839085D01*
X145671265Y-113839085D02*
X146290312Y-113839085D01*
X135558884Y-60492475D02*
X135558884Y-59492475D01*
X136130312Y-60492475D02*
X135701741Y-59921046D01*
X136130312Y-59492475D02*
X135558884Y-60063903D01*
X135701741Y-61530990D02*
X135606503Y-61483371D01*
X135606503Y-61483371D02*
X135558884Y-61435752D01*
X135558884Y-61435752D02*
X135511265Y-61340514D01*
X135511265Y-61340514D02*
X135511265Y-61292895D01*
X135511265Y-61292895D02*
X135558884Y-61197657D01*
X135558884Y-61197657D02*
X135606503Y-61150038D01*
X135606503Y-61150038D02*
X135701741Y-61102419D01*
X135701741Y-61102419D02*
X135892217Y-61102419D01*
X135892217Y-61102419D02*
X135987455Y-61150038D01*
X135987455Y-61150038D02*
X136035074Y-61197657D01*
X136035074Y-61197657D02*
X136082693Y-61292895D01*
X136082693Y-61292895D02*
X136082693Y-61340514D01*
X136082693Y-61340514D02*
X136035074Y-61435752D01*
X136035074Y-61435752D02*
X135987455Y-61483371D01*
X135987455Y-61483371D02*
X135892217Y-61530990D01*
X135892217Y-61530990D02*
X135701741Y-61530990D01*
X135701741Y-61530990D02*
X135606503Y-61578609D01*
X135606503Y-61578609D02*
X135558884Y-61626228D01*
X135558884Y-61626228D02*
X135511265Y-61721466D01*
X135511265Y-61721466D02*
X135511265Y-61911942D01*
X135511265Y-61911942D02*
X135558884Y-62007180D01*
X135558884Y-62007180D02*
X135606503Y-62054800D01*
X135606503Y-62054800D02*
X135701741Y-62102419D01*
X135701741Y-62102419D02*
X135892217Y-62102419D01*
X135892217Y-62102419D02*
X135987455Y-62054800D01*
X135987455Y-62054800D02*
X136035074Y-62007180D01*
X136035074Y-62007180D02*
X136082693Y-61911942D01*
X136082693Y-61911942D02*
X136082693Y-61721466D01*
X136082693Y-61721466D02*
X136035074Y-61626228D01*
X136035074Y-61626228D02*
X135987455Y-61578609D01*
X135987455Y-61578609D02*
X135892217Y-61530990D01*
X99903646Y-59492475D02*
X100570312Y-59492475D01*
X100570312Y-59492475D02*
X100141741Y-60492475D01*
X100475074Y-62102419D02*
X99998884Y-62102419D01*
X99998884Y-62102419D02*
X99998884Y-61102419D01*
X125922693Y-111610094D02*
X125827455Y-111562475D01*
X125827455Y-111562475D02*
X125684598Y-111562475D01*
X125684598Y-111562475D02*
X125541741Y-111610094D01*
X125541741Y-111610094D02*
X125446503Y-111705332D01*
X125446503Y-111705332D02*
X125398884Y-111800570D01*
X125398884Y-111800570D02*
X125351265Y-111991046D01*
X125351265Y-111991046D02*
X125351265Y-112133903D01*
X125351265Y-112133903D02*
X125398884Y-112324379D01*
X125398884Y-112324379D02*
X125446503Y-112419617D01*
X125446503Y-112419617D02*
X125541741Y-112514856D01*
X125541741Y-112514856D02*
X125684598Y-112562475D01*
X125684598Y-112562475D02*
X125779836Y-112562475D01*
X125779836Y-112562475D02*
X125922693Y-112514856D01*
X125922693Y-112514856D02*
X125970312Y-112467236D01*
X125970312Y-112467236D02*
X125970312Y-112133903D01*
X125970312Y-112133903D02*
X125779836Y-112133903D01*
X125398884Y-114172419D02*
X125398884Y-113172419D01*
X125398884Y-113172419D02*
X125636979Y-113172419D01*
X125636979Y-113172419D02*
X125779836Y-113220038D01*
X125779836Y-113220038D02*
X125875074Y-113315276D01*
X125875074Y-113315276D02*
X125922693Y-113410514D01*
X125922693Y-113410514D02*
X125970312Y-113600990D01*
X125970312Y-113600990D02*
X125970312Y-113743847D01*
X125970312Y-113743847D02*
X125922693Y-113934323D01*
X125922693Y-113934323D02*
X125875074Y-114029561D01*
X125875074Y-114029561D02*
X125779836Y-114124800D01*
X125779836Y-114124800D02*
X125636979Y-114172419D01*
X125636979Y-114172419D02*
X125398884Y-114172419D01*
X148258884Y-112562475D02*
X148258884Y-111562475D01*
X148258884Y-111562475D02*
X148639836Y-111562475D01*
X148639836Y-111562475D02*
X148735074Y-111610094D01*
X148735074Y-111610094D02*
X148782693Y-111657713D01*
X148782693Y-111657713D02*
X148830312Y-111752951D01*
X148830312Y-111752951D02*
X148830312Y-111895808D01*
X148830312Y-111895808D02*
X148782693Y-111991046D01*
X148782693Y-111991046D02*
X148735074Y-112038665D01*
X148735074Y-112038665D02*
X148639836Y-112086284D01*
X148639836Y-112086284D02*
X148258884Y-112086284D01*
X148163646Y-113172419D02*
X148782693Y-113172419D01*
X148782693Y-113172419D02*
X148449360Y-113553371D01*
X148449360Y-113553371D02*
X148592217Y-113553371D01*
X148592217Y-113553371D02*
X148687455Y-113600990D01*
X148687455Y-113600990D02*
X148735074Y-113648609D01*
X148735074Y-113648609D02*
X148782693Y-113743847D01*
X148782693Y-113743847D02*
X148782693Y-113981942D01*
X148782693Y-113981942D02*
X148735074Y-114077180D01*
X148735074Y-114077180D02*
X148687455Y-114124800D01*
X148687455Y-114124800D02*
X148592217Y-114172419D01*
X148592217Y-114172419D02*
X148306503Y-114172419D01*
X148306503Y-114172419D02*
X148211265Y-114124800D01*
X148211265Y-114124800D02*
X148163646Y-114077180D01*
X82647455Y-59825808D02*
X82647455Y-60492475D01*
X82409360Y-59444856D02*
X82171265Y-60159141D01*
X82171265Y-60159141D02*
X82790312Y-60159141D01*
X82123646Y-61102419D02*
X82790312Y-61102419D01*
X82790312Y-61102419D02*
X82361741Y-62102419D01*
X112698884Y-60492475D02*
X112698884Y-59492475D01*
X112698884Y-59492475D02*
X112936979Y-59492475D01*
X112936979Y-59492475D02*
X113079836Y-59540094D01*
X113079836Y-59540094D02*
X113175074Y-59635332D01*
X113175074Y-59635332D02*
X113222693Y-59730570D01*
X113222693Y-59730570D02*
X113270312Y-59921046D01*
X113270312Y-59921046D02*
X113270312Y-60063903D01*
X113270312Y-60063903D02*
X113222693Y-60254379D01*
X113222693Y-60254379D02*
X113175074Y-60349617D01*
X113175074Y-60349617D02*
X113079836Y-60444856D01*
X113079836Y-60444856D02*
X112936979Y-60492475D01*
X112936979Y-60492475D02*
X112698884Y-60492475D01*
X113222693Y-61150038D02*
X113127455Y-61102419D01*
X113127455Y-61102419D02*
X112984598Y-61102419D01*
X112984598Y-61102419D02*
X112841741Y-61150038D01*
X112841741Y-61150038D02*
X112746503Y-61245276D01*
X112746503Y-61245276D02*
X112698884Y-61340514D01*
X112698884Y-61340514D02*
X112651265Y-61530990D01*
X112651265Y-61530990D02*
X112651265Y-61673847D01*
X112651265Y-61673847D02*
X112698884Y-61864323D01*
X112698884Y-61864323D02*
X112746503Y-61959561D01*
X112746503Y-61959561D02*
X112841741Y-62054800D01*
X112841741Y-62054800D02*
X112984598Y-62102419D01*
X112984598Y-62102419D02*
X113079836Y-62102419D01*
X113079836Y-62102419D02*
X113222693Y-62054800D01*
X113222693Y-62054800D02*
X113270312Y-62007180D01*
X113270312Y-62007180D02*
X113270312Y-61673847D01*
X113270312Y-61673847D02*
X113079836Y-61673847D01*
X143178884Y-112562475D02*
X143178884Y-111562475D01*
X143178884Y-111562475D02*
X143750312Y-112562475D01*
X143750312Y-112562475D02*
X143750312Y-111562475D01*
X143655074Y-113172419D02*
X143178884Y-113172419D01*
X143178884Y-113172419D02*
X143131265Y-113648609D01*
X143131265Y-113648609D02*
X143178884Y-113600990D01*
X143178884Y-113600990D02*
X143274122Y-113553371D01*
X143274122Y-113553371D02*
X143512217Y-113553371D01*
X143512217Y-113553371D02*
X143607455Y-113600990D01*
X143607455Y-113600990D02*
X143655074Y-113648609D01*
X143655074Y-113648609D02*
X143702693Y-113743847D01*
X143702693Y-113743847D02*
X143702693Y-113981942D01*
X143702693Y-113981942D02*
X143655074Y-114077180D01*
X143655074Y-114077180D02*
X143607455Y-114124800D01*
X143607455Y-114124800D02*
X143512217Y-114172419D01*
X143512217Y-114172419D02*
X143274122Y-114172419D01*
X143274122Y-114172419D02*
X143178884Y-114124800D01*
X143178884Y-114124800D02*
X143131265Y-114077180D01*
X87251265Y-59587713D02*
X87298884Y-59540094D01*
X87298884Y-59540094D02*
X87394122Y-59492475D01*
X87394122Y-59492475D02*
X87632217Y-59492475D01*
X87632217Y-59492475D02*
X87727455Y-59540094D01*
X87727455Y-59540094D02*
X87775074Y-59587713D01*
X87775074Y-59587713D02*
X87822693Y-59682951D01*
X87822693Y-59682951D02*
X87822693Y-59778189D01*
X87822693Y-59778189D02*
X87775074Y-59921046D01*
X87775074Y-59921046D02*
X87203646Y-60492475D01*
X87203646Y-60492475D02*
X87822693Y-60492475D01*
X87965550Y-62197657D02*
X87870312Y-62150038D01*
X87870312Y-62150038D02*
X87775074Y-62054800D01*
X87775074Y-62054800D02*
X87632217Y-61911942D01*
X87632217Y-61911942D02*
X87536979Y-61864323D01*
X87536979Y-61864323D02*
X87441741Y-61864323D01*
X87489360Y-62102419D02*
X87394122Y-62054800D01*
X87394122Y-62054800D02*
X87298884Y-61959561D01*
X87298884Y-61959561D02*
X87251265Y-61769085D01*
X87251265Y-61769085D02*
X87251265Y-61435752D01*
X87251265Y-61435752D02*
X87298884Y-61245276D01*
X87298884Y-61245276D02*
X87394122Y-61150038D01*
X87394122Y-61150038D02*
X87489360Y-61102419D01*
X87489360Y-61102419D02*
X87679836Y-61102419D01*
X87679836Y-61102419D02*
X87775074Y-61150038D01*
X87775074Y-61150038D02*
X87870312Y-61245276D01*
X87870312Y-61245276D02*
X87917931Y-61435752D01*
X87917931Y-61435752D02*
X87917931Y-61769085D01*
X87917931Y-61769085D02*
X87870312Y-61959561D01*
X87870312Y-61959561D02*
X87775074Y-62054800D01*
X87775074Y-62054800D02*
X87679836Y-62102419D01*
X87679836Y-62102419D02*
X87489360Y-62102419D01*
X123192217Y-112038665D02*
X122858884Y-112038665D01*
X122858884Y-112562475D02*
X122858884Y-111562475D01*
X122858884Y-111562475D02*
X123335074Y-111562475D01*
X122858884Y-113648609D02*
X123192217Y-113648609D01*
X123335074Y-114172419D02*
X122858884Y-114172419D01*
X122858884Y-114172419D02*
X122858884Y-113172419D01*
X122858884Y-113172419D02*
X123335074Y-113172419D01*
X140638884Y-60492475D02*
X140638884Y-59492475D01*
X140638884Y-59492475D02*
X140972217Y-60206760D01*
X140972217Y-60206760D02*
X141305550Y-59492475D01*
X141305550Y-59492475D02*
X141305550Y-60492475D01*
X141067455Y-61102419D02*
X140876979Y-61102419D01*
X140876979Y-61102419D02*
X140781741Y-61150038D01*
X140781741Y-61150038D02*
X140734122Y-61197657D01*
X140734122Y-61197657D02*
X140638884Y-61340514D01*
X140638884Y-61340514D02*
X140591265Y-61530990D01*
X140591265Y-61530990D02*
X140591265Y-61911942D01*
X140591265Y-61911942D02*
X140638884Y-62007180D01*
X140638884Y-62007180D02*
X140686503Y-62054800D01*
X140686503Y-62054800D02*
X140781741Y-62102419D01*
X140781741Y-62102419D02*
X140972217Y-62102419D01*
X140972217Y-62102419D02*
X141067455Y-62054800D01*
X141067455Y-62054800D02*
X141115074Y-62007180D01*
X141115074Y-62007180D02*
X141162693Y-61911942D01*
X141162693Y-61911942D02*
X141162693Y-61673847D01*
X141162693Y-61673847D02*
X141115074Y-61578609D01*
X141115074Y-61578609D02*
X141067455Y-61530990D01*
X141067455Y-61530990D02*
X140972217Y-61483371D01*
X140972217Y-61483371D02*
X140781741Y-61483371D01*
X140781741Y-61483371D02*
X140686503Y-61530990D01*
X140686503Y-61530990D02*
X140638884Y-61578609D01*
X140638884Y-61578609D02*
X140591265Y-61673847D01*
X110730312Y-60397236D02*
X110682693Y-60444856D01*
X110682693Y-60444856D02*
X110539836Y-60492475D01*
X110539836Y-60492475D02*
X110444598Y-60492475D01*
X110444598Y-60492475D02*
X110301741Y-60444856D01*
X110301741Y-60444856D02*
X110206503Y-60349617D01*
X110206503Y-60349617D02*
X110158884Y-60254379D01*
X110158884Y-60254379D02*
X110111265Y-60063903D01*
X110111265Y-60063903D02*
X110111265Y-59921046D01*
X110111265Y-59921046D02*
X110158884Y-59730570D01*
X110158884Y-59730570D02*
X110206503Y-59635332D01*
X110206503Y-59635332D02*
X110301741Y-59540094D01*
X110301741Y-59540094D02*
X110444598Y-59492475D01*
X110444598Y-59492475D02*
X110539836Y-59492475D01*
X110539836Y-59492475D02*
X110682693Y-59540094D01*
X110682693Y-59540094D02*
X110730312Y-59587713D01*
X110158884Y-62102419D02*
X110158884Y-61102419D01*
X110158884Y-61578609D02*
X110730312Y-61578609D01*
X110730312Y-62102419D02*
X110730312Y-61102419D01*
X87251265Y-111657713D02*
X87298884Y-111610094D01*
X87298884Y-111610094D02*
X87394122Y-111562475D01*
X87394122Y-111562475D02*
X87632217Y-111562475D01*
X87632217Y-111562475D02*
X87727455Y-111610094D01*
X87727455Y-111610094D02*
X87775074Y-111657713D01*
X87775074Y-111657713D02*
X87822693Y-111752951D01*
X87822693Y-111752951D02*
X87822693Y-111848189D01*
X87822693Y-111848189D02*
X87775074Y-111991046D01*
X87775074Y-111991046D02*
X87203646Y-112562475D01*
X87203646Y-112562475D02*
X87822693Y-112562475D01*
X87965550Y-114267657D02*
X87870312Y-114220038D01*
X87870312Y-114220038D02*
X87775074Y-114124800D01*
X87775074Y-114124800D02*
X87632217Y-113981942D01*
X87632217Y-113981942D02*
X87536979Y-113934323D01*
X87536979Y-113934323D02*
X87441741Y-113934323D01*
X87489360Y-114172419D02*
X87394122Y-114124800D01*
X87394122Y-114124800D02*
X87298884Y-114029561D01*
X87298884Y-114029561D02*
X87251265Y-113839085D01*
X87251265Y-113839085D02*
X87251265Y-113505752D01*
X87251265Y-113505752D02*
X87298884Y-113315276D01*
X87298884Y-113315276D02*
X87394122Y-113220038D01*
X87394122Y-113220038D02*
X87489360Y-113172419D01*
X87489360Y-113172419D02*
X87679836Y-113172419D01*
X87679836Y-113172419D02*
X87775074Y-113220038D01*
X87775074Y-113220038D02*
X87870312Y-113315276D01*
X87870312Y-113315276D02*
X87917931Y-113505752D01*
X87917931Y-113505752D02*
X87917931Y-113839085D01*
X87917931Y-113839085D02*
X87870312Y-114029561D01*
X87870312Y-114029561D02*
X87775074Y-114124800D01*
X87775074Y-114124800D02*
X87679836Y-114172419D01*
X87679836Y-114172419D02*
X87489360Y-114172419D01*
X155783646Y-111562475D02*
X156450312Y-111562475D01*
X156450312Y-111562475D02*
X156021741Y-112562475D01*
X156307455Y-113505752D02*
X156307455Y-114172419D01*
X156069360Y-113124800D02*
X155831265Y-113839085D01*
X155831265Y-113839085D02*
X156450312Y-113839085D01*
X112698884Y-112562475D02*
X112698884Y-111562475D01*
X112698884Y-111562475D02*
X112936979Y-111562475D01*
X112936979Y-111562475D02*
X113079836Y-111610094D01*
X113079836Y-111610094D02*
X113175074Y-111705332D01*
X113175074Y-111705332D02*
X113222693Y-111800570D01*
X113222693Y-111800570D02*
X113270312Y-111991046D01*
X113270312Y-111991046D02*
X113270312Y-112133903D01*
X113270312Y-112133903D02*
X113222693Y-112324379D01*
X113222693Y-112324379D02*
X113175074Y-112419617D01*
X113175074Y-112419617D02*
X113079836Y-112514856D01*
X113079836Y-112514856D02*
X112936979Y-112562475D01*
X112936979Y-112562475D02*
X112698884Y-112562475D01*
X113222693Y-113220038D02*
X113127455Y-113172419D01*
X113127455Y-113172419D02*
X112984598Y-113172419D01*
X112984598Y-113172419D02*
X112841741Y-113220038D01*
X112841741Y-113220038D02*
X112746503Y-113315276D01*
X112746503Y-113315276D02*
X112698884Y-113410514D01*
X112698884Y-113410514D02*
X112651265Y-113600990D01*
X112651265Y-113600990D02*
X112651265Y-113743847D01*
X112651265Y-113743847D02*
X112698884Y-113934323D01*
X112698884Y-113934323D02*
X112746503Y-114029561D01*
X112746503Y-114029561D02*
X112841741Y-114124800D01*
X112841741Y-114124800D02*
X112984598Y-114172419D01*
X112984598Y-114172419D02*
X113079836Y-114172419D01*
X113079836Y-114172419D02*
X113222693Y-114124800D01*
X113222693Y-114124800D02*
X113270312Y-114077180D01*
X113270312Y-114077180D02*
X113270312Y-113743847D01*
X113270312Y-113743847D02*
X113079836Y-113743847D01*
X97887455Y-59492475D02*
X97696979Y-59492475D01*
X97696979Y-59492475D02*
X97601741Y-59540094D01*
X97601741Y-59540094D02*
X97554122Y-59587713D01*
X97554122Y-59587713D02*
X97458884Y-59730570D01*
X97458884Y-59730570D02*
X97411265Y-59921046D01*
X97411265Y-59921046D02*
X97411265Y-60301998D01*
X97411265Y-60301998D02*
X97458884Y-60397236D01*
X97458884Y-60397236D02*
X97506503Y-60444856D01*
X97506503Y-60444856D02*
X97601741Y-60492475D01*
X97601741Y-60492475D02*
X97792217Y-60492475D01*
X97792217Y-60492475D02*
X97887455Y-60444856D01*
X97887455Y-60444856D02*
X97935074Y-60397236D01*
X97935074Y-60397236D02*
X97982693Y-60301998D01*
X97982693Y-60301998D02*
X97982693Y-60063903D01*
X97982693Y-60063903D02*
X97935074Y-59968665D01*
X97935074Y-59968665D02*
X97887455Y-59921046D01*
X97887455Y-59921046D02*
X97792217Y-59873427D01*
X97792217Y-59873427D02*
X97601741Y-59873427D01*
X97601741Y-59873427D02*
X97506503Y-59921046D01*
X97506503Y-59921046D02*
X97458884Y-59968665D01*
X97458884Y-59968665D02*
X97411265Y-60063903D01*
X97458884Y-62102419D02*
X97458884Y-61102419D01*
X97458884Y-61102419D02*
X97792217Y-61816704D01*
X97792217Y-61816704D02*
X98125550Y-61102419D01*
X98125550Y-61102419D02*
X98125550Y-62102419D01*
X130478884Y-60492475D02*
X130478884Y-59492475D01*
X130812217Y-61578609D02*
X130955074Y-61626228D01*
X130955074Y-61626228D02*
X131002693Y-61673847D01*
X131002693Y-61673847D02*
X131050312Y-61769085D01*
X131050312Y-61769085D02*
X131050312Y-61911942D01*
X131050312Y-61911942D02*
X131002693Y-62007180D01*
X131002693Y-62007180D02*
X130955074Y-62054800D01*
X130955074Y-62054800D02*
X130859836Y-62102419D01*
X130859836Y-62102419D02*
X130478884Y-62102419D01*
X130478884Y-62102419D02*
X130478884Y-61102419D01*
X130478884Y-61102419D02*
X130812217Y-61102419D01*
X130812217Y-61102419D02*
X130907455Y-61150038D01*
X130907455Y-61150038D02*
X130955074Y-61197657D01*
X130955074Y-61197657D02*
X131002693Y-61292895D01*
X131002693Y-61292895D02*
X131002693Y-61388133D01*
X131002693Y-61388133D02*
X130955074Y-61483371D01*
X130955074Y-61483371D02*
X130907455Y-61530990D01*
X130907455Y-61530990D02*
X130812217Y-61578609D01*
X130812217Y-61578609D02*
X130478884Y-61578609D01*
X151465550Y-60587713D02*
X151370312Y-60540094D01*
X151370312Y-60540094D02*
X151275074Y-60444856D01*
X151275074Y-60444856D02*
X151132217Y-60301998D01*
X151132217Y-60301998D02*
X151036979Y-60254379D01*
X151036979Y-60254379D02*
X150941741Y-60254379D01*
X150989360Y-60492475D02*
X150894122Y-60444856D01*
X150894122Y-60444856D02*
X150798884Y-60349617D01*
X150798884Y-60349617D02*
X150751265Y-60159141D01*
X150751265Y-60159141D02*
X150751265Y-59825808D01*
X150751265Y-59825808D02*
X150798884Y-59635332D01*
X150798884Y-59635332D02*
X150894122Y-59540094D01*
X150894122Y-59540094D02*
X150989360Y-59492475D01*
X150989360Y-59492475D02*
X151179836Y-59492475D01*
X151179836Y-59492475D02*
X151275074Y-59540094D01*
X151275074Y-59540094D02*
X151370312Y-59635332D01*
X151370312Y-59635332D02*
X151417931Y-59825808D01*
X151417931Y-59825808D02*
X151417931Y-60159141D01*
X151417931Y-60159141D02*
X151370312Y-60349617D01*
X151370312Y-60349617D02*
X151275074Y-60444856D01*
X151275074Y-60444856D02*
X151179836Y-60492475D01*
X151179836Y-60492475D02*
X150989360Y-60492475D01*
X150751265Y-61197657D02*
X150798884Y-61150038D01*
X150798884Y-61150038D02*
X150894122Y-61102419D01*
X150894122Y-61102419D02*
X151132217Y-61102419D01*
X151132217Y-61102419D02*
X151227455Y-61150038D01*
X151227455Y-61150038D02*
X151275074Y-61197657D01*
X151275074Y-61197657D02*
X151322693Y-61292895D01*
X151322693Y-61292895D02*
X151322693Y-61388133D01*
X151322693Y-61388133D02*
X151275074Y-61530990D01*
X151275074Y-61530990D02*
X150703646Y-62102419D01*
X150703646Y-62102419D02*
X151322693Y-62102419D01*
X130478884Y-112562475D02*
X130478884Y-111562475D01*
X130812217Y-113648609D02*
X130955074Y-113696228D01*
X130955074Y-113696228D02*
X131002693Y-113743847D01*
X131002693Y-113743847D02*
X131050312Y-113839085D01*
X131050312Y-113839085D02*
X131050312Y-113981942D01*
X131050312Y-113981942D02*
X131002693Y-114077180D01*
X131002693Y-114077180D02*
X130955074Y-114124800D01*
X130955074Y-114124800D02*
X130859836Y-114172419D01*
X130859836Y-114172419D02*
X130478884Y-114172419D01*
X130478884Y-114172419D02*
X130478884Y-113172419D01*
X130478884Y-113172419D02*
X130812217Y-113172419D01*
X130812217Y-113172419D02*
X130907455Y-113220038D01*
X130907455Y-113220038D02*
X130955074Y-113267657D01*
X130955074Y-113267657D02*
X131002693Y-113362895D01*
X131002693Y-113362895D02*
X131002693Y-113458133D01*
X131002693Y-113458133D02*
X130955074Y-113553371D01*
X130955074Y-113553371D02*
X130907455Y-113600990D01*
X130907455Y-113600990D02*
X130812217Y-113648609D01*
X130812217Y-113648609D02*
X130478884Y-113648609D01*
X85282693Y-112562475D02*
X84711265Y-112562475D01*
X84996979Y-112562475D02*
X84996979Y-111562475D01*
X84996979Y-111562475D02*
X84901741Y-111705332D01*
X84901741Y-111705332D02*
X84806503Y-111800570D01*
X84806503Y-111800570D02*
X84711265Y-111848189D01*
X85330312Y-114172419D02*
X84996979Y-113696228D01*
X84758884Y-114172419D02*
X84758884Y-113172419D01*
X84758884Y-113172419D02*
X85139836Y-113172419D01*
X85139836Y-113172419D02*
X85235074Y-113220038D01*
X85235074Y-113220038D02*
X85282693Y-113267657D01*
X85282693Y-113267657D02*
X85330312Y-113362895D01*
X85330312Y-113362895D02*
X85330312Y-113505752D01*
X85330312Y-113505752D02*
X85282693Y-113600990D01*
X85282693Y-113600990D02*
X85235074Y-113648609D01*
X85235074Y-113648609D02*
X85139836Y-113696228D01*
X85139836Y-113696228D02*
X84758884Y-113696228D01*
X127938884Y-60492475D02*
X127938884Y-59492475D01*
X127938884Y-59968665D02*
X128510312Y-59968665D01*
X128510312Y-60492475D02*
X128510312Y-59492475D01*
X128510312Y-62007180D02*
X128462693Y-62054800D01*
X128462693Y-62054800D02*
X128319836Y-62102419D01*
X128319836Y-62102419D02*
X128224598Y-62102419D01*
X128224598Y-62102419D02*
X128081741Y-62054800D01*
X128081741Y-62054800D02*
X127986503Y-61959561D01*
X127986503Y-61959561D02*
X127938884Y-61864323D01*
X127938884Y-61864323D02*
X127891265Y-61673847D01*
X127891265Y-61673847D02*
X127891265Y-61530990D01*
X127891265Y-61530990D02*
X127938884Y-61340514D01*
X127938884Y-61340514D02*
X127986503Y-61245276D01*
X127986503Y-61245276D02*
X128081741Y-61150038D01*
X128081741Y-61150038D02*
X128224598Y-61102419D01*
X128224598Y-61102419D02*
X128319836Y-61102419D01*
X128319836Y-61102419D02*
X128462693Y-61150038D01*
X128462693Y-61150038D02*
X128510312Y-61197657D01*
X92807455Y-59825808D02*
X92807455Y-60492475D01*
X92569360Y-59444856D02*
X92331265Y-60159141D01*
X92331265Y-60159141D02*
X92950312Y-60159141D01*
X92569360Y-61102419D02*
X92759836Y-61102419D01*
X92759836Y-61102419D02*
X92855074Y-61150038D01*
X92855074Y-61150038D02*
X92950312Y-61245276D01*
X92950312Y-61245276D02*
X92997931Y-61435752D01*
X92997931Y-61435752D02*
X92997931Y-61769085D01*
X92997931Y-61769085D02*
X92950312Y-61959561D01*
X92950312Y-61959561D02*
X92855074Y-62054800D01*
X92855074Y-62054800D02*
X92759836Y-62102419D01*
X92759836Y-62102419D02*
X92569360Y-62102419D01*
X92569360Y-62102419D02*
X92474122Y-62054800D01*
X92474122Y-62054800D02*
X92378884Y-61959561D01*
X92378884Y-61959561D02*
X92331265Y-61769085D01*
X92331265Y-61769085D02*
X92331265Y-61435752D01*
X92331265Y-61435752D02*
X92378884Y-61245276D01*
X92378884Y-61245276D02*
X92474122Y-61150038D01*
X92474122Y-61150038D02*
X92569360Y-61102419D01*
X105031265Y-112276760D02*
X105507455Y-112276760D01*
X104936027Y-112562475D02*
X105269360Y-111562475D01*
X105269360Y-111562475D02*
X105602693Y-112562475D01*
X105364598Y-113172419D02*
X105364598Y-113886704D01*
X105364598Y-113886704D02*
X105316979Y-114029561D01*
X105316979Y-114029561D02*
X105221741Y-114124800D01*
X105221741Y-114124800D02*
X105078884Y-114172419D01*
X105078884Y-114172419D02*
X104983646Y-114172419D01*
X133304598Y-59492475D02*
X133304598Y-60206760D01*
X133304598Y-60206760D02*
X133256979Y-60349617D01*
X133256979Y-60349617D02*
X133161741Y-60444856D01*
X133161741Y-60444856D02*
X133018884Y-60492475D01*
X133018884Y-60492475D02*
X132923646Y-60492475D01*
X132971265Y-61816704D02*
X133447455Y-61816704D01*
X132876027Y-62102419D02*
X133209360Y-61102419D01*
X133209360Y-61102419D02*
X133542693Y-62102419D01*
X105031265Y-60206760D02*
X105507455Y-60206760D01*
X104936027Y-60492475D02*
X105269360Y-59492475D01*
X105269360Y-59492475D02*
X105602693Y-60492475D01*
X105364598Y-61102419D02*
X105364598Y-61816704D01*
X105364598Y-61816704D02*
X105316979Y-61959561D01*
X105316979Y-61959561D02*
X105221741Y-62054800D01*
X105221741Y-62054800D02*
X105078884Y-62102419D01*
X105078884Y-62102419D02*
X104983646Y-62102419D01*
X118255074Y-111562475D02*
X117778884Y-111562475D01*
X117778884Y-111562475D02*
X117731265Y-112038665D01*
X117731265Y-112038665D02*
X117778884Y-111991046D01*
X117778884Y-111991046D02*
X117874122Y-111943427D01*
X117874122Y-111943427D02*
X118112217Y-111943427D01*
X118112217Y-111943427D02*
X118207455Y-111991046D01*
X118207455Y-111991046D02*
X118255074Y-112038665D01*
X118255074Y-112038665D02*
X118302693Y-112133903D01*
X118302693Y-112133903D02*
X118302693Y-112371998D01*
X118302693Y-112371998D02*
X118255074Y-112467236D01*
X118255074Y-112467236D02*
X118207455Y-112514856D01*
X118207455Y-112514856D02*
X118112217Y-112562475D01*
X118112217Y-112562475D02*
X117874122Y-112562475D01*
X117874122Y-112562475D02*
X117778884Y-112514856D01*
X117778884Y-112514856D02*
X117731265Y-112467236D01*
X117731265Y-113267657D02*
X117778884Y-113220038D01*
X117778884Y-113220038D02*
X117874122Y-113172419D01*
X117874122Y-113172419D02*
X118112217Y-113172419D01*
X118112217Y-113172419D02*
X118207455Y-113220038D01*
X118207455Y-113220038D02*
X118255074Y-113267657D01*
X118255074Y-113267657D02*
X118302693Y-113362895D01*
X118302693Y-113362895D02*
X118302693Y-113458133D01*
X118302693Y-113458133D02*
X118255074Y-113600990D01*
X118255074Y-113600990D02*
X117683646Y-114172419D01*
X117683646Y-114172419D02*
X118302693Y-114172419D01*
X120747455Y-111562475D02*
X120556979Y-111562475D01*
X120556979Y-111562475D02*
X120461741Y-111610094D01*
X120461741Y-111610094D02*
X120414122Y-111657713D01*
X120414122Y-111657713D02*
X120318884Y-111800570D01*
X120318884Y-111800570D02*
X120271265Y-111991046D01*
X120271265Y-111991046D02*
X120271265Y-112371998D01*
X120271265Y-112371998D02*
X120318884Y-112467236D01*
X120318884Y-112467236D02*
X120366503Y-112514856D01*
X120366503Y-112514856D02*
X120461741Y-112562475D01*
X120461741Y-112562475D02*
X120652217Y-112562475D01*
X120652217Y-112562475D02*
X120747455Y-112514856D01*
X120747455Y-112514856D02*
X120795074Y-112467236D01*
X120795074Y-112467236D02*
X120842693Y-112371998D01*
X120842693Y-112371998D02*
X120842693Y-112133903D01*
X120842693Y-112133903D02*
X120795074Y-112038665D01*
X120795074Y-112038665D02*
X120747455Y-111991046D01*
X120747455Y-111991046D02*
X120652217Y-111943427D01*
X120652217Y-111943427D02*
X120461741Y-111943427D01*
X120461741Y-111943427D02*
X120366503Y-111991046D01*
X120366503Y-111991046D02*
X120318884Y-112038665D01*
X120318884Y-112038665D02*
X120271265Y-112133903D01*
X120223646Y-113172419D02*
X120842693Y-113172419D01*
X120842693Y-113172419D02*
X120509360Y-113553371D01*
X120509360Y-113553371D02*
X120652217Y-113553371D01*
X120652217Y-113553371D02*
X120747455Y-113600990D01*
X120747455Y-113600990D02*
X120795074Y-113648609D01*
X120795074Y-113648609D02*
X120842693Y-113743847D01*
X120842693Y-113743847D02*
X120842693Y-113981942D01*
X120842693Y-113981942D02*
X120795074Y-114077180D01*
X120795074Y-114077180D02*
X120747455Y-114124800D01*
X120747455Y-114124800D02*
X120652217Y-114172419D01*
X120652217Y-114172419D02*
X120366503Y-114172419D01*
X120366503Y-114172419D02*
X120271265Y-114124800D01*
X120271265Y-114124800D02*
X120223646Y-114077180D01*
X92807455Y-111895808D02*
X92807455Y-112562475D01*
X92569360Y-111514856D02*
X92331265Y-112229141D01*
X92331265Y-112229141D02*
X92950312Y-112229141D01*
X92569360Y-113172419D02*
X92759836Y-113172419D01*
X92759836Y-113172419D02*
X92855074Y-113220038D01*
X92855074Y-113220038D02*
X92950312Y-113315276D01*
X92950312Y-113315276D02*
X92997931Y-113505752D01*
X92997931Y-113505752D02*
X92997931Y-113839085D01*
X92997931Y-113839085D02*
X92950312Y-114029561D01*
X92950312Y-114029561D02*
X92855074Y-114124800D01*
X92855074Y-114124800D02*
X92759836Y-114172419D01*
X92759836Y-114172419D02*
X92569360Y-114172419D01*
X92569360Y-114172419D02*
X92474122Y-114124800D01*
X92474122Y-114124800D02*
X92378884Y-114029561D01*
X92378884Y-114029561D02*
X92331265Y-113839085D01*
X92331265Y-113839085D02*
X92331265Y-113505752D01*
X92331265Y-113505752D02*
X92378884Y-113315276D01*
X92378884Y-113315276D02*
X92474122Y-113220038D01*
X92474122Y-113220038D02*
X92569360Y-113172419D01*
X117683646Y-59492475D02*
X118302693Y-59492475D01*
X118302693Y-59492475D02*
X117969360Y-59873427D01*
X117969360Y-59873427D02*
X118112217Y-59873427D01*
X118112217Y-59873427D02*
X118207455Y-59921046D01*
X118207455Y-59921046D02*
X118255074Y-59968665D01*
X118255074Y-59968665D02*
X118302693Y-60063903D01*
X118302693Y-60063903D02*
X118302693Y-60301998D01*
X118302693Y-60301998D02*
X118255074Y-60397236D01*
X118255074Y-60397236D02*
X118207455Y-60444856D01*
X118207455Y-60444856D02*
X118112217Y-60492475D01*
X118112217Y-60492475D02*
X117826503Y-60492475D01*
X117826503Y-60492475D02*
X117731265Y-60444856D01*
X117731265Y-60444856D02*
X117683646Y-60397236D01*
X118207455Y-61102419D02*
X118016979Y-61102419D01*
X118016979Y-61102419D02*
X117921741Y-61150038D01*
X117921741Y-61150038D02*
X117874122Y-61197657D01*
X117874122Y-61197657D02*
X117778884Y-61340514D01*
X117778884Y-61340514D02*
X117731265Y-61530990D01*
X117731265Y-61530990D02*
X117731265Y-61911942D01*
X117731265Y-61911942D02*
X117778884Y-62007180D01*
X117778884Y-62007180D02*
X117826503Y-62054800D01*
X117826503Y-62054800D02*
X117921741Y-62102419D01*
X117921741Y-62102419D02*
X118112217Y-62102419D01*
X118112217Y-62102419D02*
X118207455Y-62054800D01*
X118207455Y-62054800D02*
X118255074Y-62007180D01*
X118255074Y-62007180D02*
X118302693Y-61911942D01*
X118302693Y-61911942D02*
X118302693Y-61673847D01*
X118302693Y-61673847D02*
X118255074Y-61578609D01*
X118255074Y-61578609D02*
X118207455Y-61530990D01*
X118207455Y-61530990D02*
X118112217Y-61483371D01*
X118112217Y-61483371D02*
X117921741Y-61483371D01*
X117921741Y-61483371D02*
X117826503Y-61530990D01*
X117826503Y-61530990D02*
X117778884Y-61578609D01*
X117778884Y-61578609D02*
X117731265Y-61673847D01*
D11*
X83988095Y-71704819D02*
X83988095Y-70704819D01*
X83988095Y-71181009D02*
X84559523Y-71181009D01*
X84559523Y-71704819D02*
X84559523Y-70704819D01*
X85559523Y-71704819D02*
X84988095Y-71704819D01*
X85273809Y-71704819D02*
X85273809Y-70704819D01*
X85273809Y-70704819D02*
X85178571Y-70847676D01*
X85178571Y-70847676D02*
X85083333Y-70942914D01*
X85083333Y-70942914D02*
X84988095Y-70990533D01*
X153088095Y-71704819D02*
X153088095Y-70704819D01*
X153088095Y-71181009D02*
X153659523Y-71181009D01*
X153659523Y-71704819D02*
X153659523Y-70704819D01*
X154088095Y-70800057D02*
X154135714Y-70752438D01*
X154135714Y-70752438D02*
X154230952Y-70704819D01*
X154230952Y-70704819D02*
X154469047Y-70704819D01*
X154469047Y-70704819D02*
X154564285Y-70752438D01*
X154564285Y-70752438D02*
X154611904Y-70800057D01*
X154611904Y-70800057D02*
X154659523Y-70895295D01*
X154659523Y-70895295D02*
X154659523Y-70990533D01*
X154659523Y-70990533D02*
X154611904Y-71133390D01*
X154611904Y-71133390D02*
X154040476Y-71704819D01*
X154040476Y-71704819D02*
X154659523Y-71704819D01*
D12*
G36*
X117898524Y-94433837D02*
G01*
X117936267Y-94470370D01*
X117992989Y-94526675D01*
X118064930Y-94599003D01*
X118148331Y-94683604D01*
X118207523Y-94744030D01*
X118309548Y-94849044D01*
X118389874Y-94930408D01*
X118454622Y-94990391D01*
X118509911Y-95031263D01*
X118561862Y-95055296D01*
X118616594Y-95064759D01*
X118680228Y-95061922D01*
X118758885Y-95049057D01*
X118858684Y-95028434D01*
X118932587Y-95013008D01*
X119185116Y-94961270D01*
X119172906Y-95019005D01*
X119151753Y-95095768D01*
X119115005Y-95202591D01*
X119064365Y-95335668D01*
X119001535Y-95491198D01*
X118928220Y-95665378D01*
X118846123Y-95854405D01*
X118756946Y-96054475D01*
X118662394Y-96261787D01*
X118564168Y-96472537D01*
X118463973Y-96682922D01*
X118363511Y-96889139D01*
X118264485Y-97087386D01*
X118168600Y-97273860D01*
X118131325Y-97344643D01*
X117874743Y-97809726D01*
X117595754Y-98281433D01*
X117300804Y-98749651D01*
X116996335Y-99204267D01*
X116688792Y-99635169D01*
X116575077Y-99787140D01*
X116497494Y-99880398D01*
X116421491Y-99948523D01*
X116335274Y-99999561D01*
X116227046Y-100041557D01*
X116181286Y-100055757D01*
X116079771Y-100075687D01*
X115954551Y-100084899D01*
X115818358Y-100083559D01*
X115683918Y-100071830D01*
X115563963Y-100049877D01*
X115555280Y-100047659D01*
X115373717Y-99986841D01*
X115206372Y-99904876D01*
X115062942Y-99806788D01*
X115022228Y-99771475D01*
X114908898Y-99649161D01*
X114828216Y-99519598D01*
X114777426Y-99376189D01*
X114753769Y-99212335D01*
X114751245Y-99123188D01*
X114751357Y-99067730D01*
X114753165Y-99022665D01*
X114759395Y-98983185D01*
X114772774Y-98944480D01*
X114796030Y-98901742D01*
X114831888Y-98850161D01*
X114883075Y-98784927D01*
X114952319Y-98701233D01*
X115042346Y-98594268D01*
X115069241Y-98562352D01*
X115245942Y-98350042D01*
X115429898Y-98124336D01*
X115617509Y-97889923D01*
X115805173Y-97651491D01*
X115989288Y-97413728D01*
X116166253Y-97181323D01*
X116332466Y-96958964D01*
X116484325Y-96751339D01*
X116618229Y-96563137D01*
X116726874Y-96404590D01*
X117099212Y-95821099D01*
X117458579Y-95204294D01*
X117714287Y-94729771D01*
X117765785Y-94631797D01*
X117811363Y-94546627D01*
X117848124Y-94479550D01*
X117873167Y-94435858D01*
X117883517Y-94420826D01*
X117898524Y-94433837D01*
G37*
G36*
X118373439Y-83721836D02*
G01*
X118319275Y-84085308D01*
X118294716Y-84426903D01*
X118300163Y-84749100D01*
X118336020Y-85054375D01*
X118402690Y-85345208D01*
X118500578Y-85624077D01*
X118630085Y-85893459D01*
X118762522Y-86112590D01*
X118865757Y-86251654D01*
X118991830Y-86394684D01*
X119130569Y-86531505D01*
X119271805Y-86651944D01*
X119378771Y-86729022D01*
X119591701Y-86854223D01*
X119798340Y-86946417D01*
X120006296Y-87007989D01*
X120223181Y-87041323D01*
X120400642Y-87049247D01*
X120573047Y-87044820D01*
X120710739Y-87030074D01*
X120768589Y-87018437D01*
X121016842Y-86938799D01*
X121251716Y-86824734D01*
X121469668Y-86678543D01*
X121667156Y-86502529D01*
X121805971Y-86344413D01*
X121862225Y-86274465D01*
X121901116Y-86231050D01*
X121927564Y-86209896D01*
X121946493Y-86206730D01*
X121957656Y-86212729D01*
X121987835Y-86238291D01*
X122042322Y-86286202D01*
X122117410Y-86353101D01*
X122209393Y-86435630D01*
X122314562Y-86530428D01*
X122429211Y-86634134D01*
X122549634Y-86743388D01*
X122672123Y-86854830D01*
X122792971Y-86965099D01*
X122908472Y-87070836D01*
X123014919Y-87168680D01*
X123108604Y-87255271D01*
X123142103Y-87286404D01*
X123440922Y-87572605D01*
X123707717Y-87845377D01*
X123944808Y-88107613D01*
X124154513Y-88362205D01*
X124339152Y-88612044D01*
X124501045Y-88860022D01*
X124642511Y-89109032D01*
X124708856Y-89240062D01*
X124838529Y-89530888D01*
X124939915Y-89814605D01*
X125015858Y-90101765D01*
X125069206Y-90402920D01*
X125099885Y-90689984D01*
X125111606Y-91050246D01*
X125092363Y-91425123D01*
X125043604Y-91809348D01*
X124966777Y-92197658D01*
X124863333Y-92584787D01*
X124734718Y-92965469D01*
X124582384Y-93334441D01*
X124407777Y-93686438D01*
X124212348Y-94016193D01*
X124164755Y-94088116D01*
X124006172Y-94307121D01*
X123825386Y-94529688D01*
X123630407Y-94747089D01*
X123429245Y-94950593D01*
X123229909Y-95131470D01*
X123138367Y-95206789D01*
X122782596Y-95464767D01*
X122406596Y-95690906D01*
X122011940Y-95884520D01*
X121600202Y-96044922D01*
X121172954Y-96171426D01*
X120731771Y-96263344D01*
X120708320Y-96267191D01*
X120608077Y-96281667D01*
X120504005Y-96292769D01*
X120388495Y-96300979D01*
X120253940Y-96306778D01*
X120092729Y-96310650D01*
X120001391Y-96311993D01*
X119867141Y-96313274D01*
X119741219Y-96313759D01*
X119630024Y-96313478D01*
X119539955Y-96312464D01*
X119477412Y-96310748D01*
X119454796Y-96309297D01*
X119405454Y-96300565D01*
X119376863Y-96288619D01*
X119373995Y-96283841D01*
X119379690Y-96260847D01*
X119395423Y-96208281D01*
X119419173Y-96132628D01*
X119448914Y-96040375D01*
X119470036Y-95975989D01*
X119542050Y-95751795D01*
X119606019Y-95540335D01*
X119661010Y-95345265D01*
X119706095Y-95170237D01*
X119740341Y-95018906D01*
X119762819Y-94894927D01*
X119772597Y-94801953D01*
X119772949Y-94786806D01*
X119776120Y-94737475D01*
X119783743Y-94708954D01*
X119787506Y-94706129D01*
X119803592Y-94719865D01*
X119840834Y-94758296D01*
X119895505Y-94817366D01*
X119963877Y-94893018D01*
X120042224Y-94981195D01*
X120085263Y-95030187D01*
X120178023Y-95134539D01*
X120257691Y-95220868D01*
X120321616Y-95286472D01*
X120367144Y-95328648D01*
X120391625Y-95344691D01*
X120393638Y-95344577D01*
X120450706Y-95322274D01*
X120531703Y-95290059D01*
X120631667Y-95249954D01*
X120745638Y-95203982D01*
X120868652Y-95154163D01*
X120995749Y-95102521D01*
X121121966Y-95051078D01*
X121242341Y-95001855D01*
X121351913Y-94956875D01*
X121445720Y-94918160D01*
X121518800Y-94887732D01*
X121566191Y-94867613D01*
X121582863Y-94859926D01*
X121579621Y-94839908D01*
X121563519Y-94789828D01*
X121536402Y-94714686D01*
X121500111Y-94619487D01*
X121456490Y-94509233D01*
X121425839Y-94433719D01*
X121255832Y-94018843D01*
X121457735Y-93826074D01*
X121543290Y-93741414D01*
X121630928Y-93649616D01*
X121710881Y-93561213D01*
X121773380Y-93486736D01*
X121778285Y-93480472D01*
X121834240Y-93404875D01*
X121895814Y-93315970D01*
X121957849Y-93221851D01*
X122015187Y-93130613D01*
X122062667Y-93050352D01*
X122095132Y-92989163D01*
X122103290Y-92970475D01*
X122110431Y-92958915D01*
X122125074Y-92950365D01*
X122152239Y-92944423D01*
X122196947Y-92940684D01*
X122264217Y-92938744D01*
X122359069Y-92938199D01*
X122486523Y-92938647D01*
X122498162Y-92938713D01*
X122628792Y-92939208D01*
X122726623Y-92938704D01*
X122796874Y-92936786D01*
X122844765Y-92933037D01*
X122875516Y-92927041D01*
X122894347Y-92918382D01*
X122906478Y-92906643D01*
X122906878Y-92906130D01*
X122940268Y-92853528D01*
X122982965Y-92772180D01*
X123031814Y-92669264D01*
X123083662Y-92551958D01*
X123135353Y-92427440D01*
X123183735Y-92302888D01*
X123225652Y-92185480D01*
X123232279Y-92165621D01*
X123282933Y-92009090D01*
X123323186Y-91875540D01*
X123354227Y-91757139D01*
X123377240Y-91646055D01*
X123393414Y-91534459D01*
X123403934Y-91414517D01*
X123409988Y-91278399D01*
X123412761Y-91118274D01*
X123413412Y-90970152D01*
X123412044Y-90769490D01*
X123407594Y-90586038D01*
X123400308Y-90423269D01*
X123390434Y-90284657D01*
X123378218Y-90173672D01*
X123363906Y-90093787D01*
X123348015Y-90048907D01*
X123334756Y-90045415D01*
X123302579Y-90050639D01*
X123248860Y-90065439D01*
X123170972Y-90090677D01*
X123066293Y-90127213D01*
X122932198Y-90175908D01*
X122766062Y-90237622D01*
X122719638Y-90255027D01*
X122574834Y-90309161D01*
X122441006Y-90358740D01*
X122322394Y-90402228D01*
X122223238Y-90438090D01*
X122147777Y-90464790D01*
X122100252Y-90480791D01*
X122085204Y-90484857D01*
X122064059Y-90469974D01*
X122030725Y-90431890D01*
X122000520Y-90390494D01*
X121847829Y-90191570D01*
X121662430Y-89994589D01*
X121449561Y-89803920D01*
X121214458Y-89623938D01*
X120962361Y-89459014D01*
X120728599Y-89328773D01*
X120651676Y-89288262D01*
X120589017Y-89253203D01*
X120547371Y-89227513D01*
X120533415Y-89215463D01*
X120530150Y-89189535D01*
X120521403Y-89132882D01*
X120508150Y-89051167D01*
X120491363Y-88950054D01*
X120472017Y-88835208D01*
X120451085Y-88712290D01*
X120429542Y-88586966D01*
X120408360Y-88464898D01*
X120388515Y-88351751D01*
X120370978Y-88253187D01*
X120356726Y-88174871D01*
X120346730Y-88122466D01*
X120341966Y-88101636D01*
X120341886Y-88101528D01*
X120321401Y-88099001D01*
X120267996Y-88095772D01*
X120186703Y-88091989D01*
X120082555Y-88087802D01*
X119960584Y-88083359D01*
X119825822Y-88078810D01*
X119683300Y-88074304D01*
X119538051Y-88069990D01*
X119395108Y-88066016D01*
X119259502Y-88062532D01*
X119136265Y-88059687D01*
X119030429Y-88057630D01*
X118947028Y-88056510D01*
X118891092Y-88056476D01*
X118867653Y-88057677D01*
X118867304Y-88057857D01*
X118861430Y-88078199D01*
X118849583Y-88130697D01*
X118832845Y-88210145D01*
X118812295Y-88311337D01*
X118789014Y-88429064D01*
X118771339Y-88520251D01*
X118746620Y-88646937D01*
X118723648Y-88761106D01*
X118703543Y-88857477D01*
X118687425Y-88930768D01*
X118676411Y-88975699D01*
X118672319Y-88987470D01*
X118649924Y-88998394D01*
X118599675Y-89016408D01*
X118530370Y-89038473D01*
X118489825Y-89050509D01*
X118172193Y-89161120D01*
X117874597Y-89303409D01*
X117595324Y-89478405D01*
X117332662Y-89687135D01*
X117165978Y-89845497D01*
X117085387Y-89925521D01*
X117026028Y-89979718D01*
X116984255Y-90011019D01*
X116956421Y-90022351D01*
X116946862Y-90021533D01*
X116921943Y-90011117D01*
X116866766Y-89986500D01*
X116785510Y-89949597D01*
X116682357Y-89902323D01*
X116561489Y-89846593D01*
X116427086Y-89784322D01*
X116303561Y-89726859D01*
X116162476Y-89661262D01*
X116032739Y-89601240D01*
X115918261Y-89548580D01*
X115822955Y-89505070D01*
X115750734Y-89472497D01*
X115705511Y-89452647D01*
X115691126Y-89447140D01*
X115687121Y-89466300D01*
X115679104Y-89515868D01*
X115668196Y-89588576D01*
X115655516Y-89677157D01*
X115654038Y-89687727D01*
X115638328Y-89833873D01*
X115627389Y-90006457D01*
X115621219Y-90195772D01*
X115619815Y-90392110D01*
X115623175Y-90585762D01*
X115631296Y-90767020D01*
X115644176Y-90926176D01*
X115654357Y-91008176D01*
X115679111Y-91165939D01*
X115703309Y-91299282D01*
X115726242Y-91404991D01*
X115747197Y-91479849D01*
X115765465Y-91520642D01*
X115768414Y-91524120D01*
X115793060Y-91537017D01*
X115847461Y-91559015D01*
X115925134Y-91587697D01*
X116019596Y-91620649D01*
X116095775Y-91646124D01*
X116401312Y-91746497D01*
X116423040Y-91895575D01*
X116448049Y-92020419D01*
X116488958Y-92169027D01*
X116542652Y-92332233D01*
X116606014Y-92500873D01*
X116675928Y-92665783D01*
X116709610Y-92738241D01*
X116819021Y-92966359D01*
X116623396Y-93270576D01*
X116427772Y-93574793D01*
X116710514Y-93857773D01*
X116993256Y-94140754D01*
X117217199Y-94090686D01*
X117304381Y-94072048D01*
X117377243Y-94058081D01*
X117428279Y-94050112D01*
X117449980Y-94049468D01*
X117450076Y-94049552D01*
X117444797Y-94069120D01*
X117422359Y-94115861D01*
X117385696Y-94184670D01*
X117337747Y-94270438D01*
X117281446Y-94368060D01*
X117219731Y-94472430D01*
X117155538Y-94578441D01*
X117091803Y-94680987D01*
X117043992Y-94755751D01*
X116972120Y-94864195D01*
X116899953Y-94969046D01*
X116830968Y-95065643D01*
X116768640Y-95149328D01*
X116716445Y-95215439D01*
X116677859Y-95259317D01*
X116656358Y-95276303D01*
X116655659Y-95276365D01*
X116633860Y-95266006D01*
X116586371Y-95237350D01*
X116518570Y-95194023D01*
X116435830Y-95139656D01*
X116343530Y-95077875D01*
X116247045Y-95012309D01*
X116151750Y-94946587D01*
X116063022Y-94884338D01*
X115986236Y-94829188D01*
X115926770Y-94784768D01*
X115923322Y-94782097D01*
X115675281Y-94580707D01*
X115429826Y-94364870D01*
X115194292Y-94141631D01*
X114976015Y-93918030D01*
X114782330Y-93701113D01*
X114723122Y-93629814D01*
X114439300Y-93253484D01*
X114192380Y-92868195D01*
X113982409Y-92474341D01*
X113809433Y-92072314D01*
X113673497Y-91662504D01*
X113574648Y-91245306D01*
X113512932Y-90821109D01*
X113488395Y-90390307D01*
X113501082Y-89953292D01*
X113551040Y-89510455D01*
X113638316Y-89062189D01*
X113762954Y-88608886D01*
X113925001Y-88150938D01*
X114045670Y-87861694D01*
X114295827Y-87330261D01*
X114564490Y-86826981D01*
X114850921Y-86352784D01*
X115154379Y-85908603D01*
X115474126Y-85495367D01*
X115809422Y-85114009D01*
X116159528Y-84765459D01*
X116523704Y-84450648D01*
X116901212Y-84170508D01*
X117059788Y-84065814D01*
X117183906Y-83990811D01*
X117323303Y-83913506D01*
X117472734Y-83836209D01*
X117626954Y-83761229D01*
X117780719Y-83690874D01*
X117928783Y-83627455D01*
X118065902Y-83573280D01*
X118186831Y-83530658D01*
X118286325Y-83501900D01*
X118359139Y-83489313D01*
X118370008Y-83488940D01*
X118416160Y-83488940D01*
X118373439Y-83721836D01*
G37*
G36*
X119367093Y-90820183D02*
G01*
X119457395Y-90824097D01*
X119532944Y-90832192D01*
X119605357Y-90845783D01*
X119686255Y-90866184D01*
X119700157Y-90870001D01*
X119924905Y-90938896D01*
X120118487Y-91013846D01*
X120287682Y-91098508D01*
X120439272Y-91196536D01*
X120580038Y-91311585D01*
X120658287Y-91386438D01*
X120779013Y-91518643D01*
X120871928Y-91647425D01*
X120944141Y-91784408D01*
X121002760Y-91941218D01*
X121008252Y-91958775D01*
X121046154Y-92132588D01*
X121061435Y-92327260D01*
X121054604Y-92533466D01*
X121026167Y-92741883D01*
X120976631Y-92943186D01*
X120950461Y-93021169D01*
X120856085Y-93226850D01*
X120725773Y-93427525D01*
X120561455Y-93621657D01*
X120365063Y-93807709D01*
X120138525Y-93984141D01*
X119883773Y-94149417D01*
X119602735Y-94301999D01*
X119297342Y-94440348D01*
X119050792Y-94534799D01*
X118943414Y-94573361D01*
X118864899Y-94599878D01*
X118807624Y-94613000D01*
X118763963Y-94611378D01*
X118726292Y-94593665D01*
X118686986Y-94558512D01*
X118638421Y-94504569D01*
X118594039Y-94454013D01*
X118352080Y-94163433D01*
X118142923Y-93873867D01*
X117967608Y-93587044D01*
X117827175Y-93304692D01*
X117722666Y-93028539D01*
X117709460Y-92985422D01*
X117668150Y-92798311D01*
X117647768Y-92595103D01*
X117648856Y-92390398D01*
X117671954Y-92198794D01*
X117679048Y-92164296D01*
X117752961Y-91907562D01*
X117855231Y-91672994D01*
X117984333Y-91462309D01*
X118138744Y-91277222D01*
X118316938Y-91119450D01*
X118517392Y-90990710D01*
X118738582Y-90892718D01*
X118835972Y-90861522D01*
X118907824Y-90843040D01*
X118977646Y-90830646D01*
X119056002Y-90823260D01*
X119153457Y-90819802D01*
X119250417Y-90819137D01*
X119367093Y-90820183D01*
G37*
G36*
X119894970Y-83316348D02*
G01*
X119925824Y-83327199D01*
X119973448Y-83349144D01*
X120040821Y-83383676D01*
X120130922Y-83432284D01*
X120246728Y-83496460D01*
X120391219Y-83577693D01*
X120457678Y-83615276D01*
X120696650Y-83748576D01*
X120904532Y-83860264D01*
X121081283Y-83950319D01*
X121226863Y-84018720D01*
X121294205Y-84047336D01*
X121399845Y-84090488D01*
X121505955Y-84134616D01*
X121601232Y-84174969D01*
X121674371Y-84206799D01*
X121683618Y-84210943D01*
X121902181Y-84329381D01*
X122103081Y-84477637D01*
X122283888Y-84651661D01*
X122442171Y-84847400D01*
X122575500Y-85060803D01*
X122681445Y-85287818D01*
X122757575Y-85524394D01*
X122801460Y-85766480D01*
X122810670Y-86010023D01*
X122806320Y-86082618D01*
X122797083Y-86177037D01*
X122786611Y-86236319D01*
X122772545Y-86263336D01*
X122752523Y-86260956D01*
X122724182Y-86232052D01*
X122704532Y-86206349D01*
X122558004Y-86027638D01*
X122381533Y-85847137D01*
X122182277Y-85671370D01*
X121967397Y-85506859D01*
X121845552Y-85423804D01*
X121769207Y-85376696D01*
X121666768Y-85317386D01*
X121546317Y-85250342D01*
X121415937Y-85180029D01*
X121283710Y-85110914D01*
X121227663Y-85082355D01*
X121062927Y-84998319D01*
X120927685Y-84927101D01*
X120816939Y-84865521D01*
X120725688Y-84810398D01*
X120648931Y-84758554D01*
X120581669Y-84706808D01*
X120518901Y-84651982D01*
X120457022Y-84592290D01*
X120289223Y-84397992D01*
X120146915Y-84176059D01*
X120029808Y-83925999D01*
X119982900Y-83797152D01*
X119948199Y-83686786D01*
X119917851Y-83578109D01*
X119893646Y-83478769D01*
X119877374Y-83396415D01*
X119870825Y-83338693D01*
X119871664Y-83321970D01*
X119877910Y-83315102D01*
X119894970Y-83316348D01*
G37*
D13*
X111200000Y-76200000D02*
X112400000Y-76200000D01*
X111200000Y-78800000D02*
X111200000Y-76200000D01*
X112400000Y-76200000D02*
X112400000Y-78800000D01*
X112400000Y-78800000D02*
X111200000Y-78800000D01*
D14*
X81145000Y-105230000D02*
X157465000Y-105230000D01*
X81145000Y-107830000D02*
X81145000Y-105230000D01*
X81145000Y-110430000D02*
X81145000Y-109100000D01*
X82475000Y-110430000D02*
X81145000Y-110430000D01*
X83745000Y-107830000D02*
X81145000Y-107830000D01*
X83745000Y-110430000D02*
X83745000Y-107830000D01*
X83745000Y-110430000D02*
X157465000Y-110430000D01*
X157465000Y-110430000D02*
X157465000Y-105230000D01*
D13*
X109200000Y-76200000D02*
X110400000Y-76200000D01*
X109200000Y-78800000D02*
X109200000Y-76200000D01*
X110400000Y-76200000D02*
X110400000Y-78800000D01*
X110400000Y-78800000D02*
X109200000Y-78800000D01*
X115200000Y-76200000D02*
X116400000Y-76200000D01*
X115200000Y-78800000D02*
X115200000Y-76200000D01*
X116400000Y-76200000D02*
X116400000Y-78800000D01*
X116400000Y-78800000D02*
X115200000Y-78800000D01*
X99200000Y-76200000D02*
X100400000Y-76200000D01*
X99200000Y-78800000D02*
X99200000Y-76200000D01*
X100400000Y-76200000D02*
X100400000Y-78800000D01*
X100400000Y-78800000D02*
X99200000Y-78800000D01*
X103200000Y-76200000D02*
X104400000Y-76200000D01*
X103200000Y-78800000D02*
X103200000Y-76200000D01*
X104400000Y-76200000D02*
X104400000Y-78800000D01*
X104400000Y-78800000D02*
X103200000Y-78800000D01*
X144200000Y-76200000D02*
X145400000Y-76200000D01*
X144200000Y-78800000D02*
X144200000Y-76200000D01*
X145400000Y-76200000D02*
X145400000Y-78800000D01*
X145400000Y-78800000D02*
X144200000Y-78800000D01*
X97200000Y-76200000D02*
X98400000Y-76200000D01*
X97200000Y-78800000D02*
X97200000Y-76200000D01*
X98400000Y-76200000D02*
X98400000Y-78800000D01*
X98400000Y-78800000D02*
X97200000Y-78800000D01*
D14*
X81145000Y-63370000D02*
X81145000Y-68570000D01*
X154865000Y-63370000D02*
X81145000Y-63370000D01*
X154865000Y-63370000D02*
X154865000Y-65970000D01*
X154865000Y-65970000D02*
X157465000Y-65970000D01*
X156135000Y-63370000D02*
X157465000Y-63370000D01*
X157465000Y-63370000D02*
X157465000Y-64700000D01*
X157465000Y-65970000D02*
X157465000Y-68570000D01*
X157465000Y-68570000D02*
X81145000Y-68570000D01*
D13*
X95200000Y-76200000D02*
X96400000Y-76200000D01*
X95200000Y-78800000D02*
X95200000Y-76200000D01*
X96400000Y-76200000D02*
X96400000Y-78800000D01*
X96400000Y-78800000D02*
X95200000Y-78800000D01*
X91200000Y-76200000D02*
X92400000Y-76200000D01*
X91200000Y-78800000D02*
X91200000Y-76200000D01*
X92400000Y-76200000D02*
X92400000Y-78800000D01*
X92400000Y-78800000D02*
X91200000Y-78800000D01*
X132200000Y-76200000D02*
X133400000Y-76200000D01*
X132200000Y-78800000D02*
X132200000Y-76200000D01*
X133400000Y-76200000D02*
X133400000Y-78800000D01*
X133400000Y-78800000D02*
X132200000Y-78800000D01*
X128200000Y-76200000D02*
X129400000Y-76200000D01*
X128200000Y-78800000D02*
X128200000Y-76200000D01*
X129400000Y-76200000D02*
X129400000Y-78800000D01*
X129400000Y-78800000D02*
X128200000Y-78800000D01*
X93200000Y-76200000D02*
X94400000Y-76200000D01*
X93200000Y-78800000D02*
X93200000Y-76200000D01*
X94400000Y-76200000D02*
X94400000Y-78800000D01*
X94400000Y-78800000D02*
X93200000Y-78800000D01*
X122200000Y-76200000D02*
X123400000Y-76200000D01*
X122200000Y-78800000D02*
X122200000Y-76200000D01*
X123400000Y-76200000D02*
X123400000Y-78800000D01*
X123400000Y-78800000D02*
X122200000Y-78800000D01*
X124200000Y-76200000D02*
X125400000Y-76200000D01*
X124200000Y-78800000D02*
X124200000Y-76200000D01*
X125400000Y-76200000D02*
X125400000Y-78800000D01*
X125400000Y-78800000D02*
X124200000Y-78800000D01*
X146200000Y-76200000D02*
X147400000Y-76200000D01*
X146200000Y-78800000D02*
X146200000Y-76200000D01*
X147400000Y-76200000D02*
X147400000Y-78800000D01*
X147400000Y-78800000D02*
X146200000Y-78800000D01*
X136200000Y-76200000D02*
X137400000Y-76200000D01*
X136200000Y-78800000D02*
X136200000Y-76200000D01*
X137400000Y-76200000D02*
X137400000Y-78800000D01*
X137400000Y-78800000D02*
X136200000Y-78800000D01*
X142200000Y-76200000D02*
X143400000Y-76200000D01*
X142200000Y-78800000D02*
X142200000Y-76200000D01*
X143400000Y-76200000D02*
X143400000Y-78800000D01*
X143400000Y-78800000D02*
X142200000Y-78800000D01*
X134200000Y-76200000D02*
X135400000Y-76200000D01*
X134200000Y-78800000D02*
X134200000Y-76200000D01*
X135400000Y-76200000D02*
X135400000Y-78800000D01*
X135400000Y-78800000D02*
X134200000Y-78800000D01*
X130200000Y-76200000D02*
X131400000Y-76200000D01*
X130200000Y-78800000D02*
X130200000Y-76200000D01*
X131400000Y-76200000D02*
X131400000Y-78800000D01*
X131400000Y-78800000D02*
X130200000Y-78800000D01*
X140200000Y-76200000D02*
X141400000Y-76200000D01*
X140200000Y-78800000D02*
X140200000Y-76200000D01*
X141400000Y-76200000D02*
X141400000Y-78800000D01*
X141400000Y-78800000D02*
X140200000Y-78800000D01*
X113200000Y-76200000D02*
X114400000Y-76200000D01*
X113200000Y-78800000D02*
X113200000Y-76200000D01*
X114400000Y-76200000D02*
X114400000Y-78800000D01*
X114400000Y-78800000D02*
X113200000Y-78800000D01*
X138200000Y-76200000D02*
X139400000Y-76200000D01*
X138200000Y-78800000D02*
X138200000Y-76200000D01*
X139400000Y-76200000D02*
X139400000Y-78800000D01*
X139400000Y-78800000D02*
X138200000Y-78800000D01*
X101200000Y-76200000D02*
X102400000Y-76200000D01*
X101200000Y-78800000D02*
X101200000Y-76200000D01*
X102400000Y-76200000D02*
X102400000Y-78800000D01*
X102400000Y-78800000D02*
X101200000Y-78800000D01*
X105200000Y-76200000D02*
X106400000Y-76200000D01*
X105200000Y-78800000D02*
X105200000Y-76200000D01*
X106400000Y-76200000D02*
X106400000Y-78800000D01*
X106400000Y-78800000D02*
X105200000Y-78800000D01*
X126200000Y-76200000D02*
X127400000Y-76200000D01*
X126200000Y-78800000D02*
X126200000Y-76200000D01*
X127400000Y-76200000D02*
X127400000Y-78800000D01*
X127400000Y-78800000D02*
X126200000Y-78800000D01*
X107200000Y-76200000D02*
X108400000Y-76200000D01*
X107200000Y-78800000D02*
X107200000Y-76200000D01*
X108400000Y-76200000D02*
X108400000Y-78800000D01*
X108400000Y-78800000D02*
X107200000Y-78800000D01*
%LPC*%
D15*
X77200000Y-108000000D03*
D16*
X111800000Y-77588750D03*
D17*
X82475000Y-109100000D03*
D18*
X82475000Y-106560000D03*
X85015000Y-109100000D03*
X85015000Y-106560000D03*
X87555000Y-109100000D03*
X87555000Y-106560000D03*
X90095000Y-109100000D03*
X90095000Y-106560000D03*
X92635000Y-109100000D03*
X92635000Y-106560000D03*
X95175000Y-109100000D03*
X95175000Y-106560000D03*
X97715000Y-109100000D03*
X97715000Y-106560000D03*
X100255000Y-109100000D03*
X100255000Y-106560000D03*
X102795000Y-109100000D03*
X102795000Y-106560000D03*
X105335000Y-109100000D03*
X105335000Y-106560000D03*
X107875000Y-109100000D03*
X107875000Y-106560000D03*
X110415000Y-109100000D03*
X110415000Y-106560000D03*
X112955000Y-109100000D03*
X112955000Y-106560000D03*
X115495000Y-109100000D03*
X115495000Y-106560000D03*
X118035000Y-109100000D03*
X118035000Y-106560000D03*
X120575000Y-109100000D03*
X120575000Y-106560000D03*
X123115000Y-109100000D03*
X123115000Y-106560000D03*
X125655000Y-109100000D03*
X125655000Y-106560000D03*
X128195000Y-109100000D03*
X128195000Y-106560000D03*
X130735000Y-109100000D03*
X130735000Y-106560000D03*
X133275000Y-109100000D03*
X133275000Y-106560000D03*
X135815000Y-109100000D03*
X135815000Y-106560000D03*
X138355000Y-109100000D03*
X138355000Y-106560000D03*
X140895000Y-109100000D03*
X140895000Y-106560000D03*
X143435000Y-109100000D03*
X143435000Y-106560000D03*
X145975000Y-109100000D03*
X145975000Y-106560000D03*
X148515000Y-109100000D03*
X148515000Y-106560000D03*
X151055000Y-109100000D03*
X151055000Y-106560000D03*
X153595000Y-109100000D03*
X153595000Y-106560000D03*
X156135000Y-109100000D03*
X156135000Y-106560000D03*
D16*
X109800000Y-77588750D03*
X115800000Y-77588750D03*
X99800000Y-77588750D03*
X103800000Y-77588750D03*
X144800000Y-77588750D03*
X97800000Y-77588750D03*
D17*
X156135000Y-64700000D03*
D18*
X156135000Y-67240000D03*
X153595000Y-64700000D03*
X153595000Y-67240000D03*
X151055000Y-64700000D03*
X151055000Y-67240000D03*
X148515000Y-64700000D03*
X148515000Y-67240000D03*
X145975000Y-64700000D03*
X145975000Y-67240000D03*
X143435000Y-64700000D03*
X143435000Y-67240000D03*
X140895000Y-64700000D03*
X140895000Y-67240000D03*
X138355000Y-64700000D03*
X138355000Y-67240000D03*
X135815000Y-64700000D03*
X135815000Y-67240000D03*
X133275000Y-64700000D03*
X133275000Y-67240000D03*
X130735000Y-64700000D03*
X130735000Y-67240000D03*
X128195000Y-64700000D03*
X128195000Y-67240000D03*
X125655000Y-64700000D03*
X125655000Y-67240000D03*
X123115000Y-64700000D03*
X123115000Y-67240000D03*
X120575000Y-64700000D03*
X120575000Y-67240000D03*
X118035000Y-64700000D03*
X118035000Y-67240000D03*
X115495000Y-64700000D03*
X115495000Y-67240000D03*
X112955000Y-64700000D03*
X112955000Y-67240000D03*
X110415000Y-64700000D03*
X110415000Y-67240000D03*
X107875000Y-64700000D03*
X107875000Y-67240000D03*
X105335000Y-64700000D03*
X105335000Y-67240000D03*
X102795000Y-64700000D03*
X102795000Y-67240000D03*
X100255000Y-64700000D03*
X100255000Y-67240000D03*
X97715000Y-64700000D03*
X97715000Y-67240000D03*
X95175000Y-64700000D03*
X95175000Y-67240000D03*
X92635000Y-64700000D03*
X92635000Y-67240000D03*
X90095000Y-64700000D03*
X90095000Y-67240000D03*
X87555000Y-64700000D03*
X87555000Y-67240000D03*
X85015000Y-64700000D03*
X85015000Y-67240000D03*
X82475000Y-64700000D03*
X82475000Y-67240000D03*
D15*
X161400000Y-108000000D03*
D16*
X95800000Y-77588750D03*
X91800000Y-77588750D03*
X132800000Y-77588750D03*
D19*
X84750000Y-75950000D03*
D16*
X128800000Y-77588750D03*
X93800000Y-77588750D03*
X122800000Y-77588750D03*
D15*
X77200000Y-65800000D03*
D16*
X124800000Y-77588750D03*
D15*
X161400000Y-65800000D03*
D19*
X153850000Y-75950000D03*
D16*
X146800000Y-77588750D03*
X136800000Y-77588750D03*
X142800000Y-77588750D03*
X134800000Y-77588750D03*
X130800000Y-77588750D03*
X140800000Y-77588750D03*
X113800000Y-77588750D03*
X138800000Y-77588750D03*
X101800000Y-77588750D03*
X105800000Y-77588750D03*
X126800000Y-77588750D03*
X107800000Y-77588750D03*
%LPD*%
M02*
