G04 #@! TF.GenerationSoftware,KiCad,Pcbnew,8.0.1*
G04 #@! TF.CreationDate,2024-07-23T13:12:02+08:00*
G04 #@! TF.ProjectId,Test Prototype for v0.3,54657374-2050-4726-9f74-6f7479706520,rev?*
G04 #@! TF.SameCoordinates,Original*
G04 #@! TF.FileFunction,Legend,Top*
G04 #@! TF.FilePolarity,Positive*
%FSLAX46Y46*%
G04 Gerber Fmt 4.6, Leading zero omitted, Abs format (unit mm)*
G04 Created by KiCad (PCBNEW 8.0.1) date 2024-07-23 13:12:02*
%MOMM*%
%LPD*%
G01*
G04 APERTURE LIST*
G04 Aperture macros list*
%AMRoundRect*
0 Rectangle with rounded corners*
0 $1 Rounding radius*
0 $2 $3 $4 $5 $6 $7 $8 $9 X,Y pos of 4 corners*
0 Add a 4 corners polygon primitive as box body*
4,1,4,$2,$3,$4,$5,$6,$7,$8,$9,$2,$3,0*
0 Add four circle primitives for the rounded corners*
1,1,$1+$1,$2,$3*
1,1,$1+$1,$4,$5*
1,1,$1+$1,$6,$7*
1,1,$1+$1,$8,$9*
0 Add four rect primitives between the rounded corners*
20,1,$1+$1,$2,$3,$4,$5,0*
20,1,$1+$1,$4,$5,$6,$7,0*
20,1,$1+$1,$6,$7,$8,$9,0*
20,1,$1+$1,$8,$9,$2,$3,0*%
G04 Aperture macros list end*
%ADD10C,0.150000*%
%ADD11C,0.127000*%
%ADD12C,0.120000*%
%ADD13RoundRect,0.102000X-0.500000X1.138750X-0.500000X-1.138750X0.500000X-1.138750X0.500000X1.138750X0*%
%ADD14C,4.300000*%
%ADD15R,1.700000X1.700000*%
%ADD16O,1.700000X1.700000*%
G04 APERTURE END LIST*
D10*
X140957387Y-93287300D02*
X139951836Y-93287300D01*
X140430670Y-93287300D02*
X140430670Y-92712699D01*
X140957387Y-92712699D02*
X139951836Y-92712699D01*
X190238095Y-85154819D02*
X190238095Y-84154819D01*
X190238095Y-84631009D02*
X190809523Y-84631009D01*
X190809523Y-85154819D02*
X190809523Y-84154819D01*
X191238095Y-84250057D02*
X191285714Y-84202438D01*
X191285714Y-84202438D02*
X191380952Y-84154819D01*
X191380952Y-84154819D02*
X191619047Y-84154819D01*
X191619047Y-84154819D02*
X191714285Y-84202438D01*
X191714285Y-84202438D02*
X191761904Y-84250057D01*
X191761904Y-84250057D02*
X191809523Y-84345295D01*
X191809523Y-84345295D02*
X191809523Y-84440533D01*
X191809523Y-84440533D02*
X191761904Y-84583390D01*
X191761904Y-84583390D02*
X191190476Y-85154819D01*
X191190476Y-85154819D02*
X191809523Y-85154819D01*
X175957387Y-92712699D02*
X175957387Y-93287300D01*
X175957387Y-93000000D02*
X174951836Y-93000000D01*
X174951836Y-93000000D02*
X175095486Y-93095766D01*
X175095486Y-93095766D02*
X175191253Y-93191533D01*
X175191253Y-93191533D02*
X175239136Y-93287300D01*
X120184819Y-70424523D02*
X120899104Y-70424523D01*
X120899104Y-70424523D02*
X121041961Y-70472142D01*
X121041961Y-70472142D02*
X121137200Y-70567380D01*
X121137200Y-70567380D02*
X121184819Y-70710237D01*
X121184819Y-70710237D02*
X121184819Y-70805475D01*
X120280057Y-69995951D02*
X120232438Y-69948332D01*
X120232438Y-69948332D02*
X120184819Y-69853094D01*
X120184819Y-69853094D02*
X120184819Y-69614999D01*
X120184819Y-69614999D02*
X120232438Y-69519761D01*
X120232438Y-69519761D02*
X120280057Y-69472142D01*
X120280057Y-69472142D02*
X120375295Y-69424523D01*
X120375295Y-69424523D02*
X120470533Y-69424523D01*
X120470533Y-69424523D02*
X120613390Y-69472142D01*
X120613390Y-69472142D02*
X121184819Y-70043570D01*
X121184819Y-70043570D02*
X121184819Y-69424523D01*
X120280057Y-69043570D02*
X120232438Y-68995951D01*
X120232438Y-68995951D02*
X120184819Y-68900713D01*
X120184819Y-68900713D02*
X120184819Y-68662618D01*
X120184819Y-68662618D02*
X120232438Y-68567380D01*
X120232438Y-68567380D02*
X120280057Y-68519761D01*
X120280057Y-68519761D02*
X120375295Y-68472142D01*
X120375295Y-68472142D02*
X120470533Y-68472142D01*
X120470533Y-68472142D02*
X120613390Y-68519761D01*
X120613390Y-68519761D02*
X121184819Y-69091189D01*
X121184819Y-69091189D02*
X121184819Y-68472142D01*
X130957387Y-93335183D02*
X129951836Y-93335183D01*
X129951836Y-93335183D02*
X130670087Y-92999999D01*
X130670087Y-92999999D02*
X129951836Y-92664815D01*
X129951836Y-92664815D02*
X130957387Y-92664815D01*
X164951836Y-92808466D02*
X164951836Y-93000000D01*
X164951836Y-93000000D02*
X164999719Y-93095766D01*
X164999719Y-93095766D02*
X165047603Y-93143650D01*
X165047603Y-93143650D02*
X165191253Y-93239417D01*
X165191253Y-93239417D02*
X165382786Y-93287300D01*
X165382786Y-93287300D02*
X165765853Y-93287300D01*
X165765853Y-93287300D02*
X165861620Y-93239417D01*
X165861620Y-93239417D02*
X165909504Y-93191533D01*
X165909504Y-93191533D02*
X165957387Y-93095766D01*
X165957387Y-93095766D02*
X165957387Y-92904233D01*
X165957387Y-92904233D02*
X165909504Y-92808466D01*
X165909504Y-92808466D02*
X165861620Y-92760583D01*
X165861620Y-92760583D02*
X165765853Y-92712699D01*
X165765853Y-92712699D02*
X165526436Y-92712699D01*
X165526436Y-92712699D02*
X165430670Y-92760583D01*
X165430670Y-92760583D02*
X165382786Y-92808466D01*
X165382786Y-92808466D02*
X165334903Y-92904233D01*
X165334903Y-92904233D02*
X165334903Y-93095766D01*
X165334903Y-93095766D02*
X165382786Y-93191533D01*
X165382786Y-93191533D02*
X165430670Y-93239417D01*
X165430670Y-93239417D02*
X165526436Y-93287300D01*
X169287020Y-92808466D02*
X169957387Y-92808466D01*
X168903953Y-93047883D02*
X169622203Y-93287300D01*
X169622203Y-93287300D02*
X169622203Y-92664816D01*
X141999719Y-92736640D02*
X141951836Y-92832407D01*
X141951836Y-92832407D02*
X141951836Y-92976057D01*
X141951836Y-92976057D02*
X141999719Y-93119707D01*
X141999719Y-93119707D02*
X142095486Y-93215474D01*
X142095486Y-93215474D02*
X142191253Y-93263358D01*
X142191253Y-93263358D02*
X142382786Y-93311241D01*
X142382786Y-93311241D02*
X142526436Y-93311241D01*
X142526436Y-93311241D02*
X142717970Y-93263358D01*
X142717970Y-93263358D02*
X142813737Y-93215474D01*
X142813737Y-93215474D02*
X142909504Y-93119707D01*
X142909504Y-93119707D02*
X142957387Y-92976057D01*
X142957387Y-92976057D02*
X142957387Y-92880291D01*
X142957387Y-92880291D02*
X142909504Y-92736640D01*
X142909504Y-92736640D02*
X142861620Y-92688757D01*
X142861620Y-92688757D02*
X142526436Y-92688757D01*
X142526436Y-92688757D02*
X142526436Y-92880291D01*
X123053154Y-92616932D02*
X123005270Y-92712699D01*
X123005270Y-92712699D02*
X122909504Y-92808466D01*
X122909504Y-92808466D02*
X122765853Y-92952116D01*
X122765853Y-92952116D02*
X122717970Y-93047883D01*
X122717970Y-93047883D02*
X122717970Y-93143649D01*
X122957387Y-93095766D02*
X122909504Y-93191533D01*
X122909504Y-93191533D02*
X122813737Y-93287300D01*
X122813737Y-93287300D02*
X122622203Y-93335183D01*
X122622203Y-93335183D02*
X122287020Y-93335183D01*
X122287020Y-93335183D02*
X122095486Y-93287300D01*
X122095486Y-93287300D02*
X121999719Y-93191533D01*
X121999719Y-93191533D02*
X121951836Y-93095766D01*
X121951836Y-93095766D02*
X121951836Y-92904233D01*
X121951836Y-92904233D02*
X121999719Y-92808466D01*
X121999719Y-92808466D02*
X122095486Y-92712699D01*
X122095486Y-92712699D02*
X122287020Y-92664816D01*
X122287020Y-92664816D02*
X122622203Y-92664816D01*
X122622203Y-92664816D02*
X122813737Y-92712699D01*
X122813737Y-92712699D02*
X122909504Y-92808466D01*
X122909504Y-92808466D02*
X122957387Y-92904233D01*
X122957387Y-92904233D02*
X122957387Y-93095766D01*
X173047603Y-93287300D02*
X172999719Y-93239417D01*
X172999719Y-93239417D02*
X172951836Y-93143650D01*
X172951836Y-93143650D02*
X172951836Y-92904233D01*
X172951836Y-92904233D02*
X172999719Y-92808466D01*
X172999719Y-92808466D02*
X173047603Y-92760583D01*
X173047603Y-92760583D02*
X173143369Y-92712699D01*
X173143369Y-92712699D02*
X173239136Y-92712699D01*
X173239136Y-92712699D02*
X173382786Y-92760583D01*
X173382786Y-92760583D02*
X173957387Y-93335183D01*
X173957387Y-93335183D02*
X173957387Y-92712699D01*
X138957387Y-93000000D02*
X137951836Y-93000000D01*
X125951836Y-93095766D02*
X125951836Y-92904233D01*
X125951836Y-92904233D02*
X125999719Y-92808466D01*
X125999719Y-92808466D02*
X126095486Y-92712699D01*
X126095486Y-92712699D02*
X126287020Y-92664816D01*
X126287020Y-92664816D02*
X126622203Y-92664816D01*
X126622203Y-92664816D02*
X126813737Y-92712699D01*
X126813737Y-92712699D02*
X126909504Y-92808466D01*
X126909504Y-92808466D02*
X126957387Y-92904233D01*
X126957387Y-92904233D02*
X126957387Y-93095766D01*
X126957387Y-93095766D02*
X126909504Y-93191533D01*
X126909504Y-93191533D02*
X126813737Y-93287300D01*
X126813737Y-93287300D02*
X126622203Y-93335183D01*
X126622203Y-93335183D02*
X126287020Y-93335183D01*
X126287020Y-93335183D02*
X126095486Y-93287300D01*
X126095486Y-93287300D02*
X125999719Y-93191533D01*
X125999719Y-93191533D02*
X125951836Y-93095766D01*
X104238095Y-85154819D02*
X104238095Y-84154819D01*
X104238095Y-84631009D02*
X104809523Y-84631009D01*
X104809523Y-85154819D02*
X104809523Y-84154819D01*
X105809523Y-85154819D02*
X105238095Y-85154819D01*
X105523809Y-85154819D02*
X105523809Y-84154819D01*
X105523809Y-84154819D02*
X105428571Y-84297676D01*
X105428571Y-84297676D02*
X105333333Y-84392914D01*
X105333333Y-84392914D02*
X105238095Y-84440533D01*
X120957387Y-92688757D02*
X120478553Y-93023941D01*
X120957387Y-93263358D02*
X119951836Y-93263358D01*
X119951836Y-93263358D02*
X119951836Y-92880291D01*
X119951836Y-92880291D02*
X119999719Y-92784524D01*
X119999719Y-92784524D02*
X120047603Y-92736640D01*
X120047603Y-92736640D02*
X120143369Y-92688757D01*
X120143369Y-92688757D02*
X120287020Y-92688757D01*
X120287020Y-92688757D02*
X120382786Y-92736640D01*
X120382786Y-92736640D02*
X120430670Y-92784524D01*
X120430670Y-92784524D02*
X120478553Y-92880291D01*
X120478553Y-92880291D02*
X120478553Y-93263358D01*
X144430670Y-92856349D02*
X144430670Y-93191533D01*
X144957387Y-93191533D02*
X143951836Y-93191533D01*
X143951836Y-93191533D02*
X143951836Y-92712699D01*
X132957387Y-92688757D02*
X132957387Y-93167591D01*
X132957387Y-93167591D02*
X131951836Y-93167591D01*
X161382786Y-93095766D02*
X161334903Y-93191533D01*
X161334903Y-93191533D02*
X161287020Y-93239417D01*
X161287020Y-93239417D02*
X161191253Y-93287300D01*
X161191253Y-93287300D02*
X161143369Y-93287300D01*
X161143369Y-93287300D02*
X161047603Y-93239417D01*
X161047603Y-93239417D02*
X160999719Y-93191533D01*
X160999719Y-93191533D02*
X160951836Y-93095766D01*
X160951836Y-93095766D02*
X160951836Y-92904233D01*
X160951836Y-92904233D02*
X160999719Y-92808466D01*
X160999719Y-92808466D02*
X161047603Y-92760583D01*
X161047603Y-92760583D02*
X161143369Y-92712699D01*
X161143369Y-92712699D02*
X161191253Y-92712699D01*
X161191253Y-92712699D02*
X161287020Y-92760583D01*
X161287020Y-92760583D02*
X161334903Y-92808466D01*
X161334903Y-92808466D02*
X161382786Y-92904233D01*
X161382786Y-92904233D02*
X161382786Y-93095766D01*
X161382786Y-93095766D02*
X161430670Y-93191533D01*
X161430670Y-93191533D02*
X161478553Y-93239417D01*
X161478553Y-93239417D02*
X161574320Y-93287300D01*
X161574320Y-93287300D02*
X161765853Y-93287300D01*
X161765853Y-93287300D02*
X161861620Y-93239417D01*
X161861620Y-93239417D02*
X161909504Y-93191533D01*
X161909504Y-93191533D02*
X161957387Y-93095766D01*
X161957387Y-93095766D02*
X161957387Y-92904233D01*
X161957387Y-92904233D02*
X161909504Y-92808466D01*
X161909504Y-92808466D02*
X161861620Y-92760583D01*
X161861620Y-92760583D02*
X161765853Y-92712699D01*
X161765853Y-92712699D02*
X161574320Y-92712699D01*
X161574320Y-92712699D02*
X161478553Y-92760583D01*
X161478553Y-92760583D02*
X161430670Y-92808466D01*
X161430670Y-92808466D02*
X161382786Y-92904233D01*
X124957387Y-93263358D02*
X123951836Y-93263358D01*
X123951836Y-93263358D02*
X123951836Y-92880291D01*
X123951836Y-92880291D02*
X123999719Y-92784524D01*
X123999719Y-92784524D02*
X124047603Y-92736640D01*
X124047603Y-92736640D02*
X124143369Y-92688757D01*
X124143369Y-92688757D02*
X124287020Y-92688757D01*
X124287020Y-92688757D02*
X124382786Y-92736640D01*
X124382786Y-92736640D02*
X124430670Y-92784524D01*
X124430670Y-92784524D02*
X124478553Y-92880291D01*
X124478553Y-92880291D02*
X124478553Y-93263358D01*
X128957387Y-93287300D02*
X127951836Y-93287300D01*
X127951836Y-93287300D02*
X128957387Y-92712699D01*
X128957387Y-92712699D02*
X127951836Y-92712699D01*
X170951836Y-93335183D02*
X170951836Y-92712699D01*
X170951836Y-92712699D02*
X171334903Y-93047883D01*
X171334903Y-93047883D02*
X171334903Y-92904233D01*
X171334903Y-92904233D02*
X171382786Y-92808466D01*
X171382786Y-92808466D02*
X171430670Y-92760583D01*
X171430670Y-92760583D02*
X171526436Y-92712699D01*
X171526436Y-92712699D02*
X171765853Y-92712699D01*
X171765853Y-92712699D02*
X171861620Y-92760583D01*
X171861620Y-92760583D02*
X171909504Y-92808466D01*
X171909504Y-92808466D02*
X171957387Y-92904233D01*
X171957387Y-92904233D02*
X171957387Y-93191533D01*
X171957387Y-93191533D02*
X171909504Y-93287300D01*
X171909504Y-93287300D02*
X171861620Y-93335183D01*
X162951836Y-93335183D02*
X162951836Y-92664816D01*
X162951836Y-92664816D02*
X163957387Y-93095766D01*
X134957387Y-93263358D02*
X133951836Y-93263358D01*
X134957387Y-92688757D02*
X134382786Y-93119707D01*
X133951836Y-92688757D02*
X134526436Y-93263358D01*
X166951836Y-92760583D02*
X166951836Y-93239417D01*
X166951836Y-93239417D02*
X167430670Y-93287300D01*
X167430670Y-93287300D02*
X167382786Y-93239417D01*
X167382786Y-93239417D02*
X167334903Y-93143650D01*
X167334903Y-93143650D02*
X167334903Y-92904233D01*
X167334903Y-92904233D02*
X167382786Y-92808466D01*
X167382786Y-92808466D02*
X167430670Y-92760583D01*
X167430670Y-92760583D02*
X167526436Y-92712699D01*
X167526436Y-92712699D02*
X167765853Y-92712699D01*
X167765853Y-92712699D02*
X167861620Y-92760583D01*
X167861620Y-92760583D02*
X167909504Y-92808466D01*
X167909504Y-92808466D02*
X167957387Y-92904233D01*
X167957387Y-92904233D02*
X167957387Y-93143650D01*
X167957387Y-93143650D02*
X167909504Y-93239417D01*
X167909504Y-93239417D02*
X167861620Y-93287300D01*
X135951836Y-92856349D02*
X136670087Y-92856349D01*
X136670087Y-92856349D02*
X136813737Y-92904233D01*
X136813737Y-92904233D02*
X136909504Y-92999999D01*
X136909504Y-92999999D02*
X136957387Y-93143650D01*
X136957387Y-93143650D02*
X136957387Y-93239416D01*
D11*
X139900000Y-88700000D02*
X141100000Y-88700000D01*
X139900000Y-91300000D02*
X139900000Y-88700000D01*
X141100000Y-88700000D02*
X141100000Y-91300000D01*
X141100000Y-91300000D02*
X139900000Y-91300000D01*
X174900000Y-88700000D02*
X176100000Y-88700000D01*
X174900000Y-91300000D02*
X174900000Y-88700000D01*
X176100000Y-88700000D02*
X176100000Y-91300000D01*
X176100000Y-91300000D02*
X174900000Y-91300000D01*
D12*
X121670000Y-69900000D02*
X121670000Y-72560000D01*
X121670000Y-72560000D02*
X175130000Y-72560000D01*
X121730000Y-75270000D02*
X121730000Y-74000000D01*
X122620000Y-63900000D02*
X123380000Y-63900000D01*
X122620000Y-69900000D02*
X122620000Y-63900000D01*
X122620000Y-72890000D02*
X122620000Y-72560000D01*
X122680000Y-69900000D02*
X122680000Y-63900000D01*
X122800000Y-69900000D02*
X122800000Y-63900000D01*
X122920000Y-69900000D02*
X122920000Y-63900000D01*
X123000000Y-75270000D02*
X121730000Y-75270000D01*
X123040000Y-69900000D02*
X123040000Y-63900000D01*
X123160000Y-69900000D02*
X123160000Y-63900000D01*
X123280000Y-69900000D02*
X123280000Y-63900000D01*
X123380000Y-63900000D02*
X123380000Y-69900000D01*
X123380000Y-72890000D02*
X123380000Y-72560000D01*
X124270000Y-72560000D02*
X124270000Y-69900000D01*
X125160000Y-63900000D02*
X125920000Y-63900000D01*
X125160000Y-69900000D02*
X125160000Y-63900000D01*
X125160000Y-72957071D02*
X125160000Y-72560000D01*
X125920000Y-63900000D02*
X125920000Y-69900000D01*
X125920000Y-72957071D02*
X125920000Y-72560000D01*
X126810000Y-72560000D02*
X126810000Y-69900000D01*
X127700000Y-63900000D02*
X128460000Y-63900000D01*
X127700000Y-69900000D02*
X127700000Y-63900000D01*
X127700000Y-72957071D02*
X127700000Y-72560000D01*
X128460000Y-63900000D02*
X128460000Y-69900000D01*
X128460000Y-72957071D02*
X128460000Y-72560000D01*
X129350000Y-72560000D02*
X129350000Y-69900000D01*
X130240000Y-63900000D02*
X131000000Y-63900000D01*
X130240000Y-69900000D02*
X130240000Y-63900000D01*
X130240000Y-72957071D02*
X130240000Y-72560000D01*
X131000000Y-63900000D02*
X131000000Y-69900000D01*
X131000000Y-72957071D02*
X131000000Y-72560000D01*
X131890000Y-72560000D02*
X131890000Y-69900000D01*
X132780000Y-63900000D02*
X133540000Y-63900000D01*
X132780000Y-69900000D02*
X132780000Y-63900000D01*
X132780000Y-72957071D02*
X132780000Y-72560000D01*
X133540000Y-63900000D02*
X133540000Y-69900000D01*
X133540000Y-72957071D02*
X133540000Y-72560000D01*
X134430000Y-72560000D02*
X134430000Y-69900000D01*
X135320000Y-63900000D02*
X136080000Y-63900000D01*
X135320000Y-69900000D02*
X135320000Y-63900000D01*
X135320000Y-72957071D02*
X135320000Y-72560000D01*
X136080000Y-63900000D02*
X136080000Y-69900000D01*
X136080000Y-72957071D02*
X136080000Y-72560000D01*
X136970000Y-72560000D02*
X136970000Y-69900000D01*
X137860000Y-63900000D02*
X138620000Y-63900000D01*
X137860000Y-69900000D02*
X137860000Y-63900000D01*
X137860000Y-72957071D02*
X137860000Y-72560000D01*
X138620000Y-63900000D02*
X138620000Y-69900000D01*
X138620000Y-72957071D02*
X138620000Y-72560000D01*
X139510000Y-72560000D02*
X139510000Y-69900000D01*
X140400000Y-63900000D02*
X141160000Y-63900000D01*
X140400000Y-69900000D02*
X140400000Y-63900000D01*
X140400000Y-72957071D02*
X140400000Y-72560000D01*
X141160000Y-63900000D02*
X141160000Y-69900000D01*
X141160000Y-72957071D02*
X141160000Y-72560000D01*
X142050000Y-72560000D02*
X142050000Y-69900000D01*
X142940000Y-63900000D02*
X143700000Y-63900000D01*
X142940000Y-69900000D02*
X142940000Y-63900000D01*
X142940000Y-72957071D02*
X142940000Y-72560000D01*
X143700000Y-63900000D02*
X143700000Y-69900000D01*
X143700000Y-72957071D02*
X143700000Y-72560000D01*
X144590000Y-72560000D02*
X144590000Y-69900000D01*
X145480000Y-63900000D02*
X146240000Y-63900000D01*
X145480000Y-69900000D02*
X145480000Y-63900000D01*
X145480000Y-72957071D02*
X145480000Y-72560000D01*
X146240000Y-63900000D02*
X146240000Y-69900000D01*
X146240000Y-72957071D02*
X146240000Y-72560000D01*
X147130000Y-72560000D02*
X147130000Y-69900000D01*
X148020000Y-63900000D02*
X148780000Y-63900000D01*
X148020000Y-69900000D02*
X148020000Y-63900000D01*
X148020000Y-72957071D02*
X148020000Y-72560000D01*
X148780000Y-63900000D02*
X148780000Y-69900000D01*
X148780000Y-72957071D02*
X148780000Y-72560000D01*
X149670000Y-72560000D02*
X149670000Y-69900000D01*
X150560000Y-63900000D02*
X151320000Y-63900000D01*
X150560000Y-69900000D02*
X150560000Y-63900000D01*
X150560000Y-72957071D02*
X150560000Y-72560000D01*
X151320000Y-63900000D02*
X151320000Y-69900000D01*
X151320000Y-72957071D02*
X151320000Y-72560000D01*
X152210000Y-72560000D02*
X152210000Y-69900000D01*
X153100000Y-63900000D02*
X153860000Y-63900000D01*
X153100000Y-69900000D02*
X153100000Y-63900000D01*
X153100000Y-72957071D02*
X153100000Y-72560000D01*
X153860000Y-63900000D02*
X153860000Y-69900000D01*
X153860000Y-72957071D02*
X153860000Y-72560000D01*
X154750000Y-72560000D02*
X154750000Y-69900000D01*
X155640000Y-63900000D02*
X156400000Y-63900000D01*
X155640000Y-69900000D02*
X155640000Y-63900000D01*
X155640000Y-72957071D02*
X155640000Y-72560000D01*
X156400000Y-63900000D02*
X156400000Y-69900000D01*
X156400000Y-72957071D02*
X156400000Y-72560000D01*
X157290000Y-72560000D02*
X157290000Y-69900000D01*
X158180000Y-63900000D02*
X158940000Y-63900000D01*
X158180000Y-69900000D02*
X158180000Y-63900000D01*
X158180000Y-72957071D02*
X158180000Y-72560000D01*
X158940000Y-63900000D02*
X158940000Y-69900000D01*
X158940000Y-72957071D02*
X158940000Y-72560000D01*
X159830000Y-72560000D02*
X159830000Y-69900000D01*
X160720000Y-63900000D02*
X161480000Y-63900000D01*
X160720000Y-69900000D02*
X160720000Y-63900000D01*
X160720000Y-72957071D02*
X160720000Y-72560000D01*
X161480000Y-63900000D02*
X161480000Y-69900000D01*
X161480000Y-72957071D02*
X161480000Y-72560000D01*
X162370000Y-72560000D02*
X162370000Y-69900000D01*
X163260000Y-63900000D02*
X164020000Y-63900000D01*
X163260000Y-69900000D02*
X163260000Y-63900000D01*
X163260000Y-72957071D02*
X163260000Y-72560000D01*
X164020000Y-63900000D02*
X164020000Y-69900000D01*
X164020000Y-72957071D02*
X164020000Y-72560000D01*
X164910000Y-72560000D02*
X164910000Y-69900000D01*
X165800000Y-63900000D02*
X166560000Y-63900000D01*
X165800000Y-69900000D02*
X165800000Y-63900000D01*
X165800000Y-72957071D02*
X165800000Y-72560000D01*
X166560000Y-63900000D02*
X166560000Y-69900000D01*
X166560000Y-72957071D02*
X166560000Y-72560000D01*
X167450000Y-72560000D02*
X167450000Y-69900000D01*
X168340000Y-63900000D02*
X169100000Y-63900000D01*
X168340000Y-69900000D02*
X168340000Y-63900000D01*
X168340000Y-72957071D02*
X168340000Y-72560000D01*
X169100000Y-63900000D02*
X169100000Y-69900000D01*
X169100000Y-72957071D02*
X169100000Y-72560000D01*
X169990000Y-72560000D02*
X169990000Y-69900000D01*
X170880000Y-63900000D02*
X171640000Y-63900000D01*
X170880000Y-69900000D02*
X170880000Y-63900000D01*
X170880000Y-72957071D02*
X170880000Y-72560000D01*
X171640000Y-63900000D02*
X171640000Y-69900000D01*
X171640000Y-72957071D02*
X171640000Y-72560000D01*
X172530000Y-72560000D02*
X172530000Y-69900000D01*
X173420000Y-63900000D02*
X174180000Y-63900000D01*
X173420000Y-69900000D02*
X173420000Y-63900000D01*
X173420000Y-72957071D02*
X173420000Y-72560000D01*
X174180000Y-63900000D02*
X174180000Y-69900000D01*
X174180000Y-72957071D02*
X174180000Y-72560000D01*
X175130000Y-69900000D02*
X121670000Y-69900000D01*
X175130000Y-72560000D02*
X175130000Y-69900000D01*
D11*
X129900000Y-88700000D02*
X131100000Y-88700000D01*
X129900000Y-91300000D02*
X129900000Y-88700000D01*
X131100000Y-88700000D02*
X131100000Y-91300000D01*
X131100000Y-91300000D02*
X129900000Y-91300000D01*
X164900000Y-88700000D02*
X166100000Y-88700000D01*
X164900000Y-91300000D02*
X164900000Y-88700000D01*
X166100000Y-88700000D02*
X166100000Y-91300000D01*
X166100000Y-91300000D02*
X164900000Y-91300000D01*
X168900000Y-88700000D02*
X170100000Y-88700000D01*
X168900000Y-91300000D02*
X168900000Y-88700000D01*
X170100000Y-88700000D02*
X170100000Y-91300000D01*
X170100000Y-91300000D02*
X168900000Y-91300000D01*
X141900000Y-88700000D02*
X143100000Y-88700000D01*
X141900000Y-91300000D02*
X141900000Y-88700000D01*
X143100000Y-88700000D02*
X143100000Y-91300000D01*
X143100000Y-91300000D02*
X141900000Y-91300000D01*
X121900000Y-88700000D02*
X123100000Y-88700000D01*
X121900000Y-91300000D02*
X121900000Y-88700000D01*
X123100000Y-88700000D02*
X123100000Y-91300000D01*
X123100000Y-91300000D02*
X121900000Y-91300000D01*
X172900000Y-88700000D02*
X174100000Y-88700000D01*
X172900000Y-91300000D02*
X172900000Y-88700000D01*
X174100000Y-88700000D02*
X174100000Y-91300000D01*
X174100000Y-91300000D02*
X172900000Y-91300000D01*
X137900000Y-88700000D02*
X139100000Y-88700000D01*
X137900000Y-91300000D02*
X137900000Y-88700000D01*
X139100000Y-88700000D02*
X139100000Y-91300000D01*
X139100000Y-91300000D02*
X137900000Y-91300000D01*
X125900000Y-88700000D02*
X127100000Y-88700000D01*
X125900000Y-91300000D02*
X125900000Y-88700000D01*
X127100000Y-88700000D02*
X127100000Y-91300000D01*
X127100000Y-91300000D02*
X125900000Y-91300000D01*
X119900000Y-88700000D02*
X121100000Y-88700000D01*
X119900000Y-91300000D02*
X119900000Y-88700000D01*
X121100000Y-88700000D02*
X121100000Y-91300000D01*
X121100000Y-91300000D02*
X119900000Y-91300000D01*
X143900000Y-88700000D02*
X145100000Y-88700000D01*
X143900000Y-91300000D02*
X143900000Y-88700000D01*
X145100000Y-88700000D02*
X145100000Y-91300000D01*
X145100000Y-91300000D02*
X143900000Y-91300000D01*
X131900000Y-88700000D02*
X133100000Y-88700000D01*
X131900000Y-91300000D02*
X131900000Y-88700000D01*
X133100000Y-88700000D02*
X133100000Y-91300000D01*
X133100000Y-91300000D02*
X131900000Y-91300000D01*
X160900000Y-88700000D02*
X162100000Y-88700000D01*
X160900000Y-91300000D02*
X160900000Y-88700000D01*
X162100000Y-88700000D02*
X162100000Y-91300000D01*
X162100000Y-91300000D02*
X160900000Y-91300000D01*
X123900000Y-88700000D02*
X125100000Y-88700000D01*
X123900000Y-91300000D02*
X123900000Y-88700000D01*
X125100000Y-88700000D02*
X125100000Y-91300000D01*
X125100000Y-91300000D02*
X123900000Y-91300000D01*
X127900000Y-88700000D02*
X129100000Y-88700000D01*
X127900000Y-91300000D02*
X127900000Y-88700000D01*
X129100000Y-88700000D02*
X129100000Y-91300000D01*
X129100000Y-91300000D02*
X127900000Y-91300000D01*
X170900000Y-88700000D02*
X172100000Y-88700000D01*
X170900000Y-91300000D02*
X170900000Y-88700000D01*
X172100000Y-88700000D02*
X172100000Y-91300000D01*
X172100000Y-91300000D02*
X170900000Y-91300000D01*
X162900000Y-88700000D02*
X164100000Y-88700000D01*
X162900000Y-91300000D02*
X162900000Y-88700000D01*
X164100000Y-88700000D02*
X164100000Y-91300000D01*
X164100000Y-91300000D02*
X162900000Y-91300000D01*
X133900000Y-88700000D02*
X135100000Y-88700000D01*
X133900000Y-91300000D02*
X133900000Y-88700000D01*
X135100000Y-88700000D02*
X135100000Y-91300000D01*
X135100000Y-91300000D02*
X133900000Y-91300000D01*
X166900000Y-88700000D02*
X168100000Y-88700000D01*
X166900000Y-91300000D02*
X166900000Y-88700000D01*
X168100000Y-88700000D02*
X168100000Y-91300000D01*
X168100000Y-91300000D02*
X166900000Y-91300000D01*
X135900000Y-88700000D02*
X137100000Y-88700000D01*
X135900000Y-91300000D02*
X135900000Y-88700000D01*
X137100000Y-88700000D02*
X137100000Y-91300000D01*
X137100000Y-91300000D02*
X135900000Y-91300000D01*
%LPC*%
D13*
X140500000Y-90088750D03*
D14*
X191000000Y-90000000D03*
D13*
X175500000Y-90088750D03*
D15*
X123000000Y-74000000D03*
D16*
X125540000Y-74000000D03*
X128080000Y-74000000D03*
X130620000Y-74000000D03*
X133160000Y-74000000D03*
X135700000Y-74000000D03*
X138240000Y-74000000D03*
X140780000Y-74000000D03*
X143320000Y-74000000D03*
X145860000Y-74000000D03*
X148400000Y-74000000D03*
X150940000Y-74000000D03*
X153480000Y-74000000D03*
X156020000Y-74000000D03*
X158560000Y-74000000D03*
X161100000Y-74000000D03*
X163640000Y-74000000D03*
X166180000Y-74000000D03*
X168720000Y-74000000D03*
X171260000Y-74000000D03*
X173800000Y-74000000D03*
D13*
X130500000Y-90088750D03*
X165500000Y-90088750D03*
X169500000Y-90088750D03*
X142500000Y-90088750D03*
X122500000Y-90088750D03*
X173500000Y-90088750D03*
X138500000Y-90088750D03*
X126500000Y-90088750D03*
D14*
X105000000Y-90000000D03*
D13*
X120500000Y-90088750D03*
X144500000Y-90088750D03*
X132500000Y-90088750D03*
X161500000Y-90088750D03*
X124500000Y-90088750D03*
X128500000Y-90088750D03*
X171500000Y-90088750D03*
X163500000Y-90088750D03*
X134500000Y-90088750D03*
X167500000Y-90088750D03*
X136500000Y-90088750D03*
%LPD*%
M02*
