G04 #@! TF.GenerationSoftware,KiCad,Pcbnew,8.0.1*
G04 #@! TF.CreationDate,2024-08-17T14:36:12+08:00*
G04 #@! TF.ProjectId,MatchBox v0.3,4d617463-6842-46f7-9820-76302e332e6b,rev?*
G04 #@! TF.SameCoordinates,Original*
G04 #@! TF.FileFunction,Soldermask,Top*
G04 #@! TF.FilePolarity,Negative*
%FSLAX46Y46*%
G04 Gerber Fmt 4.6, Leading zero omitted, Abs format (unit mm)*
G04 Created by KiCad (PCBNEW 8.0.1) date 2024-08-17 14:36:12*
%MOMM*%
%LPD*%
G01*
G04 APERTURE LIST*
G04 Aperture macros list*
%AMRoundRect*
0 Rectangle with rounded corners*
0 $1 Rounding radius*
0 $2 $3 $4 $5 $6 $7 $8 $9 X,Y pos of 4 corners*
0 Add a 4 corners polygon primitive as box body*
4,1,4,$2,$3,$4,$5,$6,$7,$8,$9,$2,$3,0*
0 Add four circle primitives for the rounded corners*
1,1,$1+$1,$2,$3*
1,1,$1+$1,$4,$5*
1,1,$1+$1,$6,$7*
1,1,$1+$1,$8,$9*
0 Add four rect primitives between the rounded corners*
20,1,$1+$1,$2,$3,$4,$5,0*
20,1,$1+$1,$4,$5,$6,$7,0*
20,1,$1+$1,$6,$7,$8,$9,0*
20,1,$1+$1,$8,$9,$2,$3,0*%
G04 Aperture macros list end*
%ADD10C,3.200000*%
%ADD11RoundRect,0.102000X-0.500000X1.138750X-0.500000X-1.138750X0.500000X-1.138750X0.500000X1.138750X0*%
%ADD12R,1.700000X1.700000*%
%ADD13O,1.700000X1.700000*%
%ADD14C,3.700000*%
G04 APERTURE END LIST*
D10*
X77200000Y-108000000D03*
D11*
X111800000Y-77588750D03*
D12*
X82475000Y-109100000D03*
D13*
X82475000Y-106560000D03*
X85015000Y-109100000D03*
X85015000Y-106560000D03*
X87555000Y-109100000D03*
X87555000Y-106560000D03*
X90095000Y-109100000D03*
X90095000Y-106560000D03*
X92635000Y-109100000D03*
X92635000Y-106560000D03*
X95175000Y-109100000D03*
X95175000Y-106560000D03*
X97715000Y-109100000D03*
X97715000Y-106560000D03*
X100255000Y-109100000D03*
X100255000Y-106560000D03*
X102795000Y-109100000D03*
X102795000Y-106560000D03*
X105335000Y-109100000D03*
X105335000Y-106560000D03*
X107875000Y-109100000D03*
X107875000Y-106560000D03*
X110415000Y-109100000D03*
X110415000Y-106560000D03*
X112955000Y-109100000D03*
X112955000Y-106560000D03*
X115495000Y-109100000D03*
X115495000Y-106560000D03*
X118035000Y-109100000D03*
X118035000Y-106560000D03*
X120575000Y-109100000D03*
X120575000Y-106560000D03*
X123115000Y-109100000D03*
X123115000Y-106560000D03*
X125655000Y-109100000D03*
X125655000Y-106560000D03*
X128195000Y-109100000D03*
X128195000Y-106560000D03*
X130735000Y-109100000D03*
X130735000Y-106560000D03*
X133275000Y-109100000D03*
X133275000Y-106560000D03*
X135815000Y-109100000D03*
X135815000Y-106560000D03*
X138355000Y-109100000D03*
X138355000Y-106560000D03*
X140895000Y-109100000D03*
X140895000Y-106560000D03*
X143435000Y-109100000D03*
X143435000Y-106560000D03*
X145975000Y-109100000D03*
X145975000Y-106560000D03*
X148515000Y-109100000D03*
X148515000Y-106560000D03*
X151055000Y-109100000D03*
X151055000Y-106560000D03*
X153595000Y-109100000D03*
X153595000Y-106560000D03*
X156135000Y-109100000D03*
X156135000Y-106560000D03*
D11*
X109800000Y-77588750D03*
X115800000Y-77588750D03*
X99800000Y-77588750D03*
X103800000Y-77588750D03*
X144800000Y-77588750D03*
X97800000Y-77588750D03*
D12*
X156135000Y-64700000D03*
D13*
X156135000Y-67240000D03*
X153595000Y-64700000D03*
X153595000Y-67240000D03*
X151055000Y-64700000D03*
X151055000Y-67240000D03*
X148515000Y-64700000D03*
X148515000Y-67240000D03*
X145975000Y-64700000D03*
X145975000Y-67240000D03*
X143435000Y-64700000D03*
X143435000Y-67240000D03*
X140895000Y-64700000D03*
X140895000Y-67240000D03*
X138355000Y-64700000D03*
X138355000Y-67240000D03*
X135815000Y-64700000D03*
X135815000Y-67240000D03*
X133275000Y-64700000D03*
X133275000Y-67240000D03*
X130735000Y-64700000D03*
X130735000Y-67240000D03*
X128195000Y-64700000D03*
X128195000Y-67240000D03*
X125655000Y-64700000D03*
X125655000Y-67240000D03*
X123115000Y-64700000D03*
X123115000Y-67240000D03*
X120575000Y-64700000D03*
X120575000Y-67240000D03*
X118035000Y-64700000D03*
X118035000Y-67240000D03*
X115495000Y-64700000D03*
X115495000Y-67240000D03*
X112955000Y-64700000D03*
X112955000Y-67240000D03*
X110415000Y-64700000D03*
X110415000Y-67240000D03*
X107875000Y-64700000D03*
X107875000Y-67240000D03*
X105335000Y-64700000D03*
X105335000Y-67240000D03*
X102795000Y-64700000D03*
X102795000Y-67240000D03*
X100255000Y-64700000D03*
X100255000Y-67240000D03*
X97715000Y-64700000D03*
X97715000Y-67240000D03*
X95175000Y-64700000D03*
X95175000Y-67240000D03*
X92635000Y-64700000D03*
X92635000Y-67240000D03*
X90095000Y-64700000D03*
X90095000Y-67240000D03*
X87555000Y-64700000D03*
X87555000Y-67240000D03*
X85015000Y-64700000D03*
X85015000Y-67240000D03*
X82475000Y-64700000D03*
X82475000Y-67240000D03*
D10*
X161400000Y-108000000D03*
D11*
X95800000Y-77588750D03*
X91800000Y-77588750D03*
X132800000Y-77588750D03*
D14*
X84750000Y-75950000D03*
D11*
X128800000Y-77588750D03*
X93800000Y-77588750D03*
X122800000Y-77588750D03*
D10*
X77200000Y-65800000D03*
D11*
X124800000Y-77588750D03*
D10*
X161400000Y-65800000D03*
D14*
X153850000Y-75950000D03*
D11*
X146800000Y-77588750D03*
X136800000Y-77588750D03*
X142800000Y-77588750D03*
X134800000Y-77588750D03*
X130800000Y-77588750D03*
X140800000Y-77588750D03*
X113800000Y-77588750D03*
X138800000Y-77588750D03*
X101800000Y-77588750D03*
X105800000Y-77588750D03*
X126800000Y-77588750D03*
X107800000Y-77588750D03*
M02*
